<svg xmlns="http://www.w3.org/2000/svg" xml:space="preserve" width="168.691" height="274.44" viewBox="0 0 44.633 72.612"><path d="M133.181 214.858h15.4v6.722h-15.4z" style="fill:#fff;stroke-width:.740304" transform="translate(-116.56 -199.214)"/><path d="M135.842 271.768c-1.67-.3-2.664-.742-2.587-1.148.135-.714 2.237-1.036 6.82-1.046 3.456-.008 4.634.084 5.651.441.707.249 1.3.571 1.32.717.077.591-2.187.973-6.309 1.063-2.328.05-4.53.039-4.895-.027m-1.426-36.009c-.452-.535-1.67-1.815-2.705-2.844-2.854-2.835-4.07-5.428-4.07-8.671 0-1.156-.155-1.793-.614-2.532-1.447-2.326-1.992-5.612-1.12-6.761.764-1.009 2.456-.065 3.14 1.752q.122.315.539-.211c.309-.39.428-1.19.454-3.043.019-1.382.117-2.81.217-3.175.274-.994 1.317-.984 3.224.032 1.477.788 1.685.832 2.45.528 1.425-.567 4.081-.8 5.896-.517 1.645.256 1.732.24 3.036-.562 1.867-1.149 2.687-1.28 3.09-.495.438.857.84 2.79.848 4.082.004.655.266 1.542.666 2.248 1.167 2.065 1.756 3.514 2.033 5.003.15.8.631 2.155 1.071 3.01a8.3 8.3 0 0 1 .935 3.23c.127 1.591.1 1.692-.528 1.978-.521.238-.82.219-1.41-.09l-.748-.392-.715 1.358c-.394.746-1.207 1.952-1.808 2.68s-1.482 1.859-1.957 2.514c-.517.712-1.114 1.226-1.487 1.28-.777.112-1.867-.448-1.867-.96 0-.271-.172-.332-.595-.21-.328.095-1.454.245-2.503.333-1.537.13-2.02.282-2.493.785-.9.957-1.981.83-2.979-.35m3.853-15.094c.486-.486.477-.494-.41-.39-2.158.251-2.867-2.678-.852-3.526l.82-.345-.733-.185c-2.006-.504-3.766 1.791-2.808 3.664.553 1.081 1.344 1.533 2.455 1.401.567-.067 1.255-.345 1.528-.619m4.135.14c.464-.464.389-.865-.087-.47-.31.257-.559.266-1.058.038-.515-.234-.654-.224-.654.05 0 .19.08.426.176.523.288.287 1.28.201 1.623-.141m5.291-.811c.545-.509.616-.773.511-1.887-.091-.963-.284-1.42-.753-1.78-.684-.526-1.981-.641-2.615-.232-.316.205-.267.257.244.26.971.007 1.608.737 1.608 1.845 0 1.208-.38 1.597-1.574 1.608l-.94.01.652.541c.792.659 1.925.514 2.867-.365zm-9.137-1.676c.296-.296-.125-.9-.627-.9-.487 0-.68.526-.325.882.22.22.741.23.952.018m6.545-.635c0-.291-.172-.53-.381-.53-.468 0-.767.436-.545.794.288.466.926.283.926-.264m7.7 12.4c.523-.304 1.155-.897 1.403-1.317.249-.42.564-.765.701-.765.33 0 .318.12-.124 1.178-.425 1.017-1.105 1.47-2.188 1.462l-.745-.006zm-28.866-14.435c.001-1.139.75-2.545 1.595-2.997.905-.484.922-.089.04.916-.449.511-.895 1.35-.991 1.864-.244 1.298-.645 1.433-.644.217m-1.323-.545c.001-1.12.848-2.712 1.442-2.712.323 0 .304.15-.11.86a6.9 6.9 0 0 0-.681 1.852c-.1.546-.287.992-.417.992-.129 0-.234-.446-.234-.992" style="display:inline;fill:#000" transform="translate(-116.56 -199.214)"/></svg>