<svg xmlns="http://www.w3.org/2000/svg" xml:space="preserve" width="168.691" height="274.44" viewBox="0 0 44.633 72.612"><path d="M127.804 249.325h22.611v9.778h-22.611z" style="fill:#fff;stroke-width:.740304" transform="translate(-116.56 -199.214)"/><path d="M128.329 271.656c-3.568-.291-5.548-.685-5.962-1.183-.255-.308-.172-.433.443-.674.416-.163 1.203-.359 1.749-.436.545-.077.992-.2.992-.272s-.425-.602-.945-1.177c-1.395-1.545-2.001-3.163-2.119-5.661-.085-1.797-.258-2.475-1.069-4.182-1.565-3.297-1.547-6.795.037-7.192.806-.203 1.61.444 2.704 2.173l.7 1.108.865-1.216c.53-.745.776-1.325.635-1.496-.618-.752-2.154-5.029-2.08-5.791l.081-.839 1.852.044c1.157.027 2.59.288 3.816.696l1.965.653 1.74-.74c3.945-1.677 8.009-1.59 11.61.247l1.091.557 1.531-.687c1.52-.682 6.106-2.49 6.316-2.49.29 0 .035 1.85-.713 5.157l-.821 3.638.554.696c1.131 1.42 2.793 4.448 3.402 6.2.602 1.731.84 4.075.475 4.667-.273.441-1.27.317-1.994-.25-.364-.284-.73-.52-.816-.522s-.154.7-.154 1.562c0 1.313-.145 1.807-.894 3.042-.491.811-.988 1.475-1.102 1.475s-.209.12-.209.265.387.27.86.28c1.115.019 2.642.555 2.78.975.318.973-4.247 1.434-15.15 1.53-5.093.045-10.57-.026-12.17-.157m18.988-14.227c1.126-.742 1.5-1.395 1.509-2.636.016-2.17-1.26-3.492-3.368-3.492-.561 0-1.25.167-1.53.372-.47.344-.435.37.466.345 1.194-.034 1.987.615 2.211 1.81.344 1.835-1.258 3.402-2.818 2.756-.425-.176-.774-.445-.774-.597s-.069-.208-.154-.123c-.27.27.408 1.234 1.153 1.639.99.537 2.427.505 3.305-.074m-7.624-.086c.371-.168.674-.47.674-.67 0-.285-.117-.301-.544-.072-.3.16-.895.214-1.323.12-.867-.19-1.062.209-.315.644.597.347.702.346 1.508-.022m-5.565-.516c.79-.622.76-.982-.04-.482-.668.417-1.902-.142-2.374-1.076-.828-1.637.112-3.694 1.695-3.712.708-.008.718-.026.227-.397-1.367-1.034-3.76-.022-4.378 1.852-.52 1.574.4 3.658 1.849 4.187.93.34 2.335.167 3.02-.372m.87-3.124c.06-.858-.497-1.485-1.11-1.25-.621.239-.491 1.368.196 1.7.845.407.854.403.913-.45m9.298.538c.536-.34.251-1.209-.427-1.305-.64-.092-1.017.474-.76 1.143.17.44.645.506 1.187.162m14.72 11.525c.657-.63 1.2-1.374 1.205-1.654s.165-.79.356-1.135c.305-.55.369-.57.523-.17.515 1.342-1.23 4.104-2.593 4.104-.66 0-.641-.043.509-1.145m-1.354-.967c.554-.613 1.078-1.555 1.254-2.253.41-1.628.766-1.75.766-.263 0 1.865-1.11 3.57-2.326 3.57-.634 0-.628-.02.306-1.054m-39.66-11.14c-.364-1.15.37-3.354 1.442-4.324.824-.746 1.259-.185.552.712-.638.812-1.324 2.644-1.324 3.536 0 .775-.432.824-.67.076m-1.443-2.028c.005-1.489.856-3.167 1.903-3.755 1.061-.596 1.18-.154.246.91-.464.528-1.032 1.638-1.292 2.522-.255.869-.554 1.58-.663 1.58s-.196-.565-.194-1.257" style="fill:#000" transform="translate(-116.56 -199.214)"/></svg>