<svg xmlns="http://www.w3.org/2000/svg" xml:space="preserve" width="168.691" height="274.44" viewBox="0 0 44.633 72.612"><path d="M130.248 235.881h17.233v8.189h-17.233z" style="fill:#fff;stroke-width:.740304" transform="translate(-116.56 -199.214)"/><path d="M131.46 271.485c-2.314-.36-3.3-.756-3.3-1.326 0-1.729 16.93-2.163 20.828-.534 1.808.756.858 1.335-3.044 1.855-3.456.46-11.54.462-14.484.005m.288-12.83c-.495-.546-1.176-2.242-1.195-2.975-.006-.245-.589-.992-1.294-1.66-1.137-1.076-2.686-3.592-2.686-4.361 0-.345-.058-.347-.914-.021-.552.21-.784.159-1.208-.265-.288-.288-.524-.741-.524-1.006 0-.754.79-3.27 1.307-4.165.258-.445.62-1.457.804-2.249.184-.791.576-2.01.87-2.709.49-1.161.51-1.455.232-3.44-.675-4.827-.406-5.177 2.944-3.835l2.177.872 1.462-.732c2.104-1.052 4.115-1.324 7.035-.95 2.392.307 2.419.304 3.307-.362 1.211-.907 2.478-1.528 3.12-1.528.723 0 1.079 1.386 1.087 4.234.006 2.043.077 2.353.78 3.39.425.628.98 1.7 1.235 2.381.254.682.797 1.632 1.206 2.11.91 1.062 2.067 3.294 2.067 3.987 0 .28-.224.785-.498 1.124-.44.543-.58.578-1.19.3-.658-.3-.693-.279-.693.424 0 1.282-.775 3.416-1.669 4.595-.474.625-1.02 1.671-1.213 2.326-1.138 3.85-3.199 5.088-4.579 2.749-.447-.757-.66-.903-1.11-.754-.306.102-1.954.243-3.661.314l-3.105.128-.555.898c-1.04 1.684-2.61 2.207-3.539 1.18m4.004-16.555.743-.664-.745.267c-.524.187-.917.176-1.323-.038-.792-.417-.966-.738-.971-1.791-.005-1.044.624-1.872 1.426-1.877.455-.003.483-.05.157-.261-.77-.498-1.869-.288-2.666.509-.632.632-.773.997-.773 1.997 0 .983.137 1.35.7 1.872.96.89 2.448.883 3.452-.015m4.526.346a1.23 1.23 0 0 0 .318-.753c0-.344-.252-.43-1.19-.41-1.263.026-1.495.345-.776 1.064.495.496 1.209.538 1.648.099m5.718-1.555c1.93-2.294-.47-5.538-3.019-4.081l-.661.378.772.01c1.103.013 1.741.695 1.741 1.86 0 1.309-.73 1.98-1.911 1.76l-.867-.162.625.524a2.36 2.36 0 0 0 3.32-.29zm-9.987-1.947c-.225-.587-.97-.516-.97.093 0 .557.527.873.896.536.128-.118.161-.4.074-.629m6.96-.822c-.334-.4-.387-.398-.701.032-.258.352-.267.554-.037.83.257.31.364.306.7-.03.337-.337.343-.464.037-.832m-20.86 13.876a3.49 3.49 0 0 1-1.092-2.505c0-.975.407-.772.75.374.168.56.603 1.34.968 1.733.365.394.663.769.663.834 0 .315-.759.059-1.29-.436m1.266-.578c-.676-.519-1.037-1.405-1.015-2.488l.021-1.01.39 1.102c.215.606.682 1.415 1.038 1.8.356.383.647.751.647.816 0 .233-.668.097-1.081-.22m31.418-2.22c-.088-.088.123-.496.468-.906.38-.452.7-1.273.811-2.08.101-.734.292-1.268.424-1.187.396.246.272 2.6-.171 3.231-.47.67-1.296 1.178-1.532.941m-.705-1.714c.507-.7.795-1.42.795-1.984 0-.93.391-1.219.574-.424.302 1.311-.802 3.506-1.764 3.506-.294 0-.19-.292.395-1.098" style="display:inline;fill:#000" transform="translate(-116.56 -199.214)"/></svg>