<?xml version="1.0" encoding="UTF-8" standalone="no"?>
<!-- Created with Inkscape (http://www.inkscape.org/) -->

<svg
   width="44.632736mm"
   height="72.61235mm"
   viewBox="0 0 44.632736 72.61235"
   version="1.1"
   id="svg1"
   xml:space="preserve"
   sodipodi:docname="kage-jumping-f1.svg"
   inkscape:version="1.4.3 (0d15f75, 2025-12-25)"
   xmlns:inkscape="http://www.inkscape.org/namespaces/inkscape"
   xmlns:sodipodi="http://sodipodi.sourceforge.net/DTD/sodipodi-0.dtd"
   xmlns="http://www.w3.org/2000/svg"
   xmlns:svg="http://www.w3.org/2000/svg"><sodipodi:namedview
     id="namedview1"
     pagecolor="#7b8071"
     bordercolor="#000000"
     borderopacity="0.25"
     inkscape:showpageshadow="2"
     inkscape:pageopacity="0.0"
     inkscape:pagecheckerboard="0"
     inkscape:deskcolor="#d1d1d1"
     inkscape:document-units="mm"
     inkscape:zoom="2.1647727"
     inkscape:cx="34.87664"
     inkscape:cy="232.58793"
     inkscape:window-width="2031"
     inkscape:window-height="1401"
     inkscape:window-x="1824"
     inkscape:window-y="7"
     inkscape:window-maximized="0"
     inkscape:current-layer="layer1" /><defs
     id="defs1" /><g
     inkscape:label="Layer 1"
     inkscape:groupmode="layer"
     id="layer1"
     transform="translate(-116.55918,-199.21401)"><rect
       style="display:none;fill:#ffffff;stroke-width:0.740304"
       id="rect1"
       width="22.611111"
       height="9.7777777"
       x="127.80363"
       y="249.32512"
       inkscape:label="f1-white" /><path
       d="m 128.32884,271.6563 c -3.56772,-0.29177 -5.54763,-0.68486 -5.96155,-1.1836 -0.2551,-0.30737 -0.17243,-0.43318 0.44269,-0.67369 0.416,-0.16266 1.20284,-0.35891 1.74855,-0.4361 0.5457,-0.0772 0.99218,-0.19954 0.99218,-0.27189 0,-0.0723 -0.42505,-0.60201 -0.94455,-1.17704 -1.39543,-1.54457 -2.00125,-3.16304 -2.11903,-5.66103 -0.0847,-1.79664 -0.25805,-2.47499 -1.06868,-4.18195 -1.56567,-3.29685 -1.54791,-6.79461 0.0365,-7.19228 0.80576,-0.20223 1.60977,0.44406 2.70388,2.17348 l 0.70073,1.10761 0.86468,-1.21619 c 0.52961,-0.74492 0.77559,-1.32453 0.63477,-1.49577 -0.61788,-0.75138 -2.15421,-5.02849 -2.08023,-5.7913 l 0.0813,-0.83828 1.85208,0.0435 c 1.15725,0.0272 2.58899,0.28838 3.81633,0.69623 l 1.96425,0.65273 1.73992,-0.73952 c 3.94518,-1.67681 8.00923,-1.5903 11.61097,0.24717 l 1.09086,0.55651 1.5305,-0.68667 c 1.51986,-0.68189 6.10581,-2.48975 6.3157,-2.48975 0.29039,0 0.0349,1.84962 -0.7122,5.15684 l -0.8218,3.63767 0.55431,0.69598 c 1.13125,1.42037 2.79262,4.44844 3.40189,6.20041 0.60198,1.73099 0.84067,4.07501 0.47518,4.66639 -0.27293,0.44161 -1.2704,0.31708 -1.99404,-0.24895 -0.3638,-0.28457 -0.73091,-0.52005 -0.81579,-0.52329 -0.0849,-0.003 -0.15434,0.69973 -0.15434,1.56215 0,1.31381 -0.1449,1.80711 -0.89376,3.0427 -0.49156,0.81108 -0.98765,1.47469 -1.10242,1.47469 -0.11478,0 -0.20868,0.11906 -0.20868,0.26458 0,0.14552 0.38695,0.2713 0.85989,0.27952 1.11492,0.0194 2.6425,0.5555 2.77976,0.97562 0.31795,0.97317 -4.24684,1.43422 -15.14903,1.53009 -5.09323,0.0448 -10.57011,-0.0257 -12.17083,-0.15658 z m 18.98799,-14.22714 c 1.12572,-0.74231 1.49963,-1.39555 1.5088,-2.636 0.0161,-2.16999 -1.25917,-3.49259 -3.36746,-3.49259 -0.56149,0 -1.2501,0.1676 -1.53024,0.37244 -0.4705,0.34403 -0.43493,0.37033 0.46635,0.34478 1.1937,-0.0338 1.98674,0.61546 2.21086,1.81014 0.34428,1.83515 -1.25799,3.40227 -2.81794,2.75611 -0.42569,-0.17632 -0.77398,-0.44505 -0.77398,-0.59717 0,-0.15212 -0.0692,-0.2074 -0.15373,-0.12285 -0.27041,0.2704 0.40764,1.23444 1.15256,1.6387 0.98966,0.53706 2.42727,0.50506 3.30478,-0.0736 z m -7.62335,-0.0857 c 0.37064,-0.16888 0.6739,-0.47072 0.6739,-0.67076 0,-0.28518 -0.11761,-0.30078 -0.54468,-0.0722 -0.29958,0.16033 -0.89489,0.21459 -1.32292,0.12058 -0.86637,-0.19029 -1.06181,0.20881 -0.31521,0.64367 0.59702,0.34773 0.70227,0.34625 1.50891,-0.0213 z m -5.56555,-0.51686 c 0.78992,-0.62136 0.75988,-0.98119 -0.0402,-0.48153 -0.66789,0.4171 -1.90145,-0.14194 -2.37381,-1.0758 -0.82803,-1.63705 0.11163,-3.69458 1.69552,-3.71259 0.70805,-0.008 0.7179,-0.0253 0.22664,-0.39687 -1.36696,-1.03392 -3.76001,-0.0217 -4.37837,1.85194 -0.5195,1.57408 0.40074,3.65781 1.84925,4.18733 0.93018,0.34003 2.33543,0.16676 3.02097,-0.37248 z m 0.86925,-3.12324 c 0.0599,-0.85882 -0.49577,-1.48533 -1.10872,-1.25012 -0.6215,0.23849 -0.49183,1.36807 0.19507,1.69935 0.84568,0.40786 0.85419,0.40367 0.91365,-0.44923 z m 9.29884,0.53796 c 0.53555,-0.33939 0.25131,-1.20898 -0.42679,-1.30572 -0.64046,-0.0913 -1.01687,0.47452 -0.76033,1.14304 0.16927,0.44113 0.64489,0.50631 1.18712,0.16268 z m 14.71984,11.52439 c 0.6574,-0.6299 1.19949,-1.37404 1.20465,-1.65364 0.005,-0.27961 0.16565,-0.79024 0.35665,-1.13474 0.30483,-0.54979 0.36868,-0.57059 0.52236,-0.1701 0.51502,1.34211 -1.2296,4.10375 -2.59247,4.10375 -0.66052,0 -0.6413,-0.0433 0.50881,-1.14527 z m -1.35407,-0.96661 c 0.55425,-0.61349 1.07801,-1.55472 1.25395,-2.25345 0.40979,-1.6274 0.76623,-1.74979 0.76623,-0.2631 0,1.86504 -1.11083,3.5701 -2.32587,3.5701 -0.63393,0 -0.62816,-0.0199 0.30569,-1.05355 z m -39.659,-11.14025 c -0.36512,-1.1504 0.36942,-3.35339 1.44167,-4.32376 0.82402,-0.74573 1.25813,-0.18544 0.55193,0.71235 -0.63816,0.81129 -1.32484,2.64372 -1.32484,3.53539 0,0.77561 -0.43117,0.82462 -0.66876,0.076 z m -1.44356,-2.02755 c 0.005,-1.48918 0.8556,-3.16755 1.90286,-3.75536 1.06129,-0.59569 1.1804,-0.15434 0.24567,0.91027 -0.46359,0.52799 -1.03218,1.63793 -1.29198,2.52206 -0.25522,0.86848 -0.55332,1.57923 -0.66246,1.57943 -0.10914,2e-4 -0.19648,-0.56518 -0.19409,-1.2564 z"
       style="display:none;fill:#000000"
       id="path1-3"
       inkscape:label="f1" /><rect
       style="display:none;fill:#ffffff;stroke-width:0.740304"
       id="rect2"
       width="17.233334"
       height="8.1888885"
       x="130.24806"
       y="235.88068"
       inkscape:label="f2-white" /><path
       d="m 131.45955,271.48466 c -2.31376,-0.35968 -3.29925,-0.75574 -3.29925,-1.32594 0,-1.72876 16.92878,-2.1623 20.82734,-0.53338 1.80866,0.7557 0.85793,1.33494 -3.04353,1.85428 -3.45621,0.46007 -11.53935,0.46288 -14.48456,0.005 z m 0.28848,-12.82901 c -0.49499,-0.54695 -1.17572,-2.24242 -1.19486,-2.97599 -0.006,-0.24472 -0.58892,-0.99154 -1.29451,-1.65959 -1.13658,-1.07611 -2.68586,-3.59172 -2.68586,-4.36111 0,-0.34527 -0.0581,-0.34664 -0.91356,-0.0214 -0.55241,0.21003 -0.78396,0.15931 -1.20785,-0.26458 -0.28843,-0.28843 -0.52442,-0.74094 -0.52442,-1.00557 0,-0.75412 0.78976,-3.27131 1.30686,-4.16533 0.25768,-0.4455 0.61936,-1.45754 0.80373,-2.24896 0.18437,-0.79142 0.57603,-2.01043 0.87036,-2.7089 0.48936,-1.1613 0.5092,-1.45556 0.23196,-3.43957 -0.67453,-4.82726 -0.40581,-5.17734 2.94413,-3.83552 l 2.17734,0.87214 1.46211,-0.73184 c 2.10339,-1.0528 4.11477,-1.32454 7.03459,-0.95036 2.39161,0.30649 2.41859,0.30353 3.30729,-0.36222 1.21105,-0.90725 2.47765,-1.52745 3.11939,-1.52745 0.72332,0 1.07928,1.38598 1.08725,4.23332 0.006,2.0437 0.0769,2.35312 0.77974,3.39021 0.4254,0.62768 0.98116,1.69923 1.23502,2.38124 0.25386,0.682 0.79683,1.63135 1.2066,2.10966 0.90971,1.0619 2.06696,3.29415 2.06696,3.98703 0,0.27975 -0.22414,0.78545 -0.49808,1.12376 -0.43961,0.5429 -0.5794,0.57807 -1.19063,0.29957 -0.65714,-0.29942 -0.69254,-0.27772 -0.69254,0.42452 0,1.28247 -0.77509,3.41668 -1.66888,4.59522 -0.4737,0.62462 -1.01963,1.67145 -1.21317,2.32629 -1.13811,3.85068 -3.19865,5.08771 -4.57866,2.74877 -0.44684,-0.75734 -0.66102,-0.90267 -1.11051,-0.75352 -0.3063,0.10164 -1.95389,0.24255 -3.66132,0.31314 l -3.10442,0.12834 -0.5553,0.8985 c -1.0406,1.68373 -2.60954,2.20698 -3.53876,1.1802 z m 4.00429,-16.55611 0.74236,-0.66359 -0.74493,0.26676 c -0.52383,0.18757 -0.91647,0.17645 -1.32292,-0.0375 -0.79205,-0.41691 -0.96609,-0.73811 -0.97081,-1.79168 -0.005,-1.04336 0.62421,-1.87111 1.42602,-1.87697 0.45484,-0.003 0.48309,-0.0501 0.15743,-0.26052 -0.77035,-0.49784 -1.86924,-0.28813 -2.66619,0.5088 -0.63183,0.63183 -0.77339,0.99737 -0.77339,1.99701 0,0.98333 0.13747,1.35102 0.70009,1.87244 0.95967,0.88938 2.44798,0.88302 3.45234,-0.0148 z m 4.5259,0.34609 c 0.17462,-0.17462 0.3175,-0.51346 0.3175,-0.75297 0,-0.34349 -0.2515,-0.43012 -1.19056,-0.41011 -1.26241,0.0269 -1.49425,0.34547 -0.77492,1.06481 0.49518,0.49517 1.20854,0.53771 1.64798,0.0983 z m 5.71794,-1.55488 c 1.92996,-2.29363 -0.4703,-5.53782 -3.01919,-4.08073 l -0.66146,0.37812 0.77292,0.009 c 1.10286,0.0134 1.74062,0.69541 1.74062,1.86145 0,1.30811 -0.72962,1.97978 -1.91105,1.75926 l -0.86707,-0.16184 0.62462,0.52421 c 0.99475,0.83483 2.48361,0.70487 3.32061,-0.28984 z m -9.98721,-1.94629 c -0.22527,-0.58704 -0.96948,-0.51607 -0.96948,0.0924 0,0.55731 0.52689,0.8728 0.89503,0.53593 0.12846,-0.11755 0.16196,-0.40032 0.0745,-0.62838 z m 6.95921,-0.82215 c -0.33284,-0.40104 -0.38608,-0.39867 -0.70039,0.0312 -0.25756,0.35224 -0.26646,0.55401 -0.0366,0.83092 0.25723,0.30994 0.36404,0.30519 0.70039,-0.0312 0.3365,-0.3365 0.34208,-0.4629 0.0366,-0.83092 z m -20.85959,13.87584 c -0.68285,-0.63617 -1.09202,-1.57491 -1.09202,-2.50536 0,-0.97486 0.40713,-0.77199 0.75046,0.37394 0.16778,0.56 0.60335,1.34004 0.96792,1.73343 0.36458,0.39338 0.66287,0.76864 0.66287,0.8339 0,0.31503 -0.75845,0.0586 -1.28923,-0.43591 z m 1.26631,-0.57832 c -0.67546,-0.5186 -1.03692,-1.40495 -1.01452,-2.48773 l 0.0209,-1.00959 0.39031,1.1013 c 0.21467,0.60571 0.68152,1.41552 1.03744,1.79957 0.35593,0.38405 0.64714,0.75167 0.64714,0.81693 0,0.23272 -0.66855,0.0964 -1.08126,-0.22048 z m 31.41821,-2.22043 c -0.0878,-0.0878 0.12278,-0.49541 0.46804,-0.90572 0.38002,-0.45164 0.70015,-1.27252 0.81123,-2.08021 0.10093,-0.7338 0.29137,-1.2675 0.42322,-1.18602 0.39649,0.24505 0.27212,2.59877 -0.17072,3.23102 -0.46901,0.6696 -1.29544,1.17726 -1.53177,0.94093 z m -0.70528,-1.71346 c 0.50735,-0.70037 0.79541,-1.41903 0.79541,-1.98438 0,-0.92971 0.39105,-1.21807 0.57408,-0.42333 0.30194,1.31107 -0.80275,3.50574 -1.76462,3.50574 -0.29385,0 -0.18878,-0.29196 0.39513,-1.09803 z"
       style="display:none;fill:#000000"
       id="path1-0"
       inkscape:label="f2" /><rect
       style="display:none;fill:#ffffff;stroke-width:0.740304"
       id="rect3"
       width="15.155556"
       height="7.3333335"
       x="134.77029"
       y="223.41402"
       inkscape:label="f3-white" /><path
       d="m 138.94836,271.59557 c -4.37456,-0.36641 -5.88319,-1.27083 -3.43958,-2.06202 0.87684,-0.28391 2.65494,-0.39157 6.74686,-0.40851 4.64597,-0.0192 5.80842,0.0549 7.09546,0.45259 0.85963,0.26562 1.49555,0.60659 1.44031,0.77228 -0.17294,0.51883 -1.95325,0.96139 -5.0249,1.24913 -3.24071,0.30357 -3.15197,0.30361 -6.81815,-0.003 z m -2.87602,-25.6078 c -0.38889,-0.41631 -1.00103,-1.33904 -1.3603,-2.05052 -0.35928,-0.71147 -1.31393,-1.95272 -2.12145,-2.75833 -1.62841,-1.62453 -2.46288,-3.17528 -3.13694,-5.82952 -0.36848,-1.45099 -0.69577,-2.0411 -1.8054,-3.25521 -1.68303,-1.84149 -2.41491,-3.73229 -1.8789,-4.85408 0.50178,-1.05019 1.38072,-1.08274 2.60785,-0.0966 0.55832,0.44868 1.11201,0.81578 1.23043,0.81578 0.11841,0 0.47803,-0.68461 0.79916,-1.52136 0.48345,-1.25972 0.55913,-1.86261 0.44006,-3.50573 -0.0791,-1.0914 -0.0401,-2.46062 0.0867,-3.0427 0.30781,-1.41362 1.10412,-1.50954 3.29392,-0.39676 l 1.63102,0.82882 1.34653,-0.60746 c 1.17136,-0.52844 1.77905,-0.60825 4.67161,-0.61354 l 3.3251,-0.006 1.47234,-1.01404 c 1.85889,-1.28027 2.53767,-1.23086 3.04367,0.22156 0.20279,0.58208 0.43677,1.83224 0.51996,2.77812 0.12313,1.40012 0.36808,2.08865 1.31778,3.70417 2.95185,5.02133 3.05137,9.30975 0.3377,14.55208 -0.56497,1.0914 -1.23158,2.56839 -1.48136,3.28219 -0.58885,1.6827 -1.53653,2.80322 -2.37084,2.80322 -0.63581,0 -1.75828,-0.88356 -1.98445,-1.56209 -0.0887,-0.26618 -0.34508,-0.2797 -1.16357,-0.0614 -0.57737,0.15402 -1.96919,0.31442 -3.09294,0.35643 -1.95453,0.0731 -2.05651,0.10834 -2.3509,0.81296 -0.37352,0.89398 -1.44188,1.77697 -2.15003,1.77697 -0.28579,0 -0.8378,-0.34062 -1.2267,-0.75693 z m 3.44202,-16.19649 0.62461,-0.54927 -0.62193,0.13459 c -0.85406,0.18482 -1.87408,-0.32936 -2.05089,-1.03382 -0.31041,-1.23677 -0.008,-2.08562 0.90438,-2.54143 l 0.87737,-0.43816 -0.79192,-0.17394 c -0.91663,-0.20132 -2.25466,0.3829 -2.67478,1.16789 -1.30306,2.43479 1.71373,5.20994 3.73316,3.43414 z m 4.21388,0.0108 c 0.28148,-0.15064 0.51178,-0.45249 0.51178,-0.67077 0,-0.31039 -0.11153,-0.33719 -0.51178,-0.12298 -0.28147,0.15064 -0.75772,0.27389 -1.05833,0.27389 -0.59951,0 -0.74135,0.40647 -0.21583,0.61852 0.52093,0.21021 0.72684,0.19426 1.27416,-0.0987 z m 5.20512,-0.92453 c 0.84343,-0.59076 1.19461,-2.09751 0.74158,-3.18176 -0.19967,-0.47789 -0.60342,-0.99754 -0.89721,-1.15477 -0.75882,-0.40611 -2.29969,-0.35403 -2.66836,0.0902 -0.25659,0.30917 -0.21303,0.35015 0.2449,0.2304 0.82493,-0.21572 1.85449,0.85815 1.85449,1.9343 0,1.08456 -0.59522,1.69257 -1.65696,1.69257 -0.78258,0 -0.79877,0.0202 -0.31183,0.38846 0.67244,0.50861 1.96771,0.50891 2.69339,6.2e-4 z m -9.04471,-1.73505 c 0.25711,-0.41602 -0.29872,-0.87044 -0.82001,-0.6704 -0.3609,0.13849 -0.38302,0.24458 -0.11768,0.5643 0.38715,0.46649 0.69353,0.50116 0.93769,0.1061 z m 6.68487,-0.98985 c 0.055,-0.37345 -0.0554,-0.57459 -0.31511,-0.57459 -0.51451,0 -0.78508,0.44321 -0.58649,0.96071 0.21545,0.56147 0.79894,0.31159 0.9016,-0.38612 z m -22.60011,1.70204 c -0.40552,-1.05677 0.92863,-3.07039 2.03433,-3.07039 0.31905,0 0.19728,0.25247 -0.45575,0.94488 -0.49528,0.52515 -0.89113,1.2234 -0.89113,1.57188 0,0.74736 -0.46837,1.12455 -0.68745,0.55363 z"
       style="display:none;fill:#000000"
       id="path1-7"
       inkscape:label="f3" /><rect
       style="display:none;fill:#ffffff;stroke-width:0.740304"
       id="rect4"
       width="15.4"
       height="6.7222223"
       x="133.1814"
       y="214.85846"
       inkscape:label="f4-white" /><path
       d="m 135.84246,271.7681 c -1.6696,-0.3008 -2.66487,-0.74253 -2.58791,-1.14859 0.13519,-0.71324 2.23767,-1.03557 6.82124,-1.04576 3.45537,-0.008 4.63355,0.0844 5.65063,0.44172 0.70676,0.2483 1.30048,0.57051 1.3194,0.71603 0.0769,0.59192 -2.18649,0.97346 -6.30857,1.0634 -2.32833,0.0508 -4.53099,0.0388 -4.89479,-0.0268 z m -1.4261,-36.00901 c -0.45257,-0.53544 -1.67007,-1.81536 -2.70556,-2.84427 -2.85337,-2.83528 -4.07043,-5.42789 -4.07043,-8.67092 0,-1.1558 -0.15455,-1.79322 -0.61386,-2.53166 -1.44674,-2.32599 -1.99111,-5.61216 -1.12005,-6.76137 0.7647,-1.00888 2.45673,-0.065 3.14094,1.75223 0.0791,0.2101 0.26189,0.13845 0.53857,-0.21112 0.30871,-0.39004 0.42797,-1.19002 0.45361,-3.04271 0.0191,-1.38245 0.11693,-2.8112 0.21732,-3.175 0.27447,-0.99466 1.31749,-0.98432 3.22426,0.032 1.4773,0.78739 1.68485,0.83207 2.45067,0.52757 1.42432,-0.56635 4.08027,-0.799 5.89538,-0.51641 1.64454,0.25603 1.73205,0.23983 3.03549,-0.56219 1.86708,-1.14883 2.68709,-1.2802 3.08948,-0.49494 0.43886,0.85642 0.84068,2.78937 0.84839,4.08122 0.004,0.65591 0.26651,1.54264 0.66601,2.24896 1.1674,2.06402 1.75676,3.51371 2.03374,5.00255 0.1489,0.80037 0.63076,2.15468 1.0708,3.00959 0.54749,1.06366 0.84255,2.0836 0.93463,3.2307 0.12772,1.59115 0.10092,1.69164 -0.52755,1.97799 -0.52165,0.23768 -0.82082,0.21853 -1.41014,-0.0902 l -0.74802,-0.39192 -0.71543,1.35746 c -0.39348,0.74661 -1.20707,1.95279 -1.80797,2.68039 -0.6009,0.7276 -1.48135,1.85869 -1.95654,2.51354 -0.51705,0.71253 -1.11414,1.22665 -1.48696,1.28034 -0.77672,0.11187 -1.86693,-0.44817 -1.86693,-0.95904 0,-0.27196 -0.17261,-0.33297 -0.59532,-0.21041 -0.32742,0.0949 -1.45355,0.2447 -2.50251,0.3328 -1.53718,0.12911 -2.02096,0.28127 -2.49352,0.78429 -0.89967,0.95766 -1.98091,0.83082 -2.9785,-0.34941 z m 3.85259,-15.09372 c 0.48595,-0.48596 0.47704,-0.49446 -0.40978,-0.39093 -2.15841,0.25199 -2.86687,-2.67715 -0.85264,-3.52523 l 0.8203,-0.34539 -0.73274,-0.18433 c -2.00639,-0.50474 -3.7659,1.79057 -2.80817,3.66332 0.55292,1.08117 1.34451,1.533 2.45526,1.40144 0.56706,-0.0672 1.25456,-0.34567 1.52777,-0.61888 z m 4.13517,0.13931 c 0.46341,-0.4634 0.38887,-0.86485 -0.0872,-0.46974 -0.30945,0.25682 -0.55854,0.26578 -1.05833,0.0381 -0.51429,-0.23433 -0.65362,-0.22382 -0.65362,0.0493 0,0.1909 0.0794,0.42648 0.17639,0.52349 0.28748,0.28748 1.28053,0.20113 1.62277,-0.14111 z m 5.2911,-0.81105 c 0.54457,-0.50831 0.61623,-0.77292 0.51088,-1.88651 -0.0911,-0.96273 -0.28439,-1.41973 -0.75298,-1.78005 -0.6844,-0.52626 -1.9814,-0.64132 -2.61483,-0.23197 -0.3164,0.20447 -0.26697,0.2573 0.24375,0.26053 0.97139,0.006 1.60833,0.73651 1.60833,1.84423 0,1.20833 -0.38049,1.59702 -1.57427,1.60821 l -0.93927,0.009 0.65157,0.54218 c 0.7912,0.65837 1.92482,0.51387 2.86682,-0.36542 z m -9.13696,-1.67544 c 0.29615,-0.29615 -0.12487,-0.90017 -0.62744,-0.90017 -0.48685,0 -0.68038,0.52603 -0.32447,0.88194 0.2192,0.2192 0.74094,0.22919 0.95191,0.0182 z m 6.54461,-0.63559 c 0,-0.29104 -0.17156,-0.52917 -0.38126,-0.52917 -0.46741,0 -0.76624,0.43541 -0.54478,0.79375 0.28773,0.46556 0.92604,0.28319 0.92604,-0.26458 z m 7.69932,12.40005 c 0.52385,-0.30381 1.15566,-0.89639 1.40402,-1.31684 0.24837,-0.42045 0.56391,-0.76446 0.7012,-0.76446 0.32996,0 0.31727,0.1197 -0.12485,1.17783 -0.42486,1.01685 -1.10416,1.47077 -2.18781,1.46193 l -0.745,-0.006 z m -28.86499,-14.435 c 10e-4,-1.13832 0.74937,-2.54416 1.59501,-2.99673 0.9046,-0.48412 0.92177,-0.0885 0.0398,0.91605 -0.44875,0.5111 -0.89481,1.34985 -0.99125,1.86389 -0.24354,1.29819 -0.64472,1.43334 -0.64352,0.21679 z m -1.32292,-0.54478 c 0.001,-1.11892 0.84782,-2.71198 1.44141,-2.71198 0.3237,0 0.30475,0.14952 -0.109,0.8599 -0.27547,0.47294 -0.58236,1.30638 -0.68199,1.85208 -0.0996,0.5457 -0.28694,0.99219 -0.41627,0.99219 -0.12933,0 -0.23469,-0.44649 -0.23415,-0.99219 z"
       style="display:none;fill:#000000"
       id="path1-4"
       inkscape:label="f4" /><rect
       style="display:none;fill:#ffffff;stroke-width:0.740304"
       id="rect5"
       width="16.255556"
       height="5.9888887"
       x="131.10362"
       y="204.83623"
       inkscape:label="f5-white" /><path
       d="m 136.3197,271.71425 c -1.95722,-0.20666 -3.13855,-0.64111 -2.88014,-1.05923 0.73418,-1.18794 10.73019,-1.05935 10.75718,0.13838 0.0168,0.74331 -4.52732,1.27452 -7.87704,0.92085 z m -0.87311,-46.8221 c -2.31384,-0.62562 -3.79414,-1.4442 -5.3903,-2.98072 -2.26089,-2.17643 -3.63195,-5.20948 -3.63195,-8.03456 0,-1.06493 -0.20116,-1.83768 -0.77356,-2.97159 -1.62922,-3.22746 -1.69726,-6.68739 -0.1392,-7.07844 0.78113,-0.19605 1.27033,0.16256 2.17349,1.59324 l 0.65959,1.04487 0.48396,-0.90869 c 0.3203,-0.60141 0.4882,-1.49024 0.49652,-2.62848 0.007,-0.94589 0.13656,-2.16628 0.28811,-2.71198 0.23165,-0.83415 0.38945,-0.99208 0.99071,-0.99151 0.39334,3.8e-4 1.40219,0.41496 2.24188,0.92129 l 1.5267,0.9206 1.50545,-0.39212 c 1.88625,-0.4913 4.03663,-0.50036 5.87023,-0.0247 1.41612,0.36734 1.41647,0.36728 2.90193,-0.52848 2.71176,-1.63523 3.38552,-1.1893 3.64135,2.41006 0.12105,1.70313 0.74723,3.83646 1.12608,3.83646 0.0873,0 0.44639,-0.5423 0.79801,-1.2051 0.70179,-1.32288 1.36632,-1.81792 2.11945,-1.57888 1.4193,0.45046 1.36632,3.73912 -0.11302,7.01552 -0.5519,1.22234 -0.92685,2.47171 -0.92685,3.08836 0,2.40759 -1.29776,5.65106 -3.1066,7.76429 -2.66549,3.11402 -8.31143,4.63854 -12.74198,3.4406 z m 0.50779,-14.7715 0.59284,-0.48005 -0.91756,0.10712 c -0.61613,0.0719 -1.06187,-0.0372 -1.35687,-0.33221 -1.1802,-1.18019 -0.5987,-3.04125 0.95504,-3.05656 0.82184,-0.008 0.83399,-0.0237 0.32463,-0.41575 -1.12614,-0.86688 -3.36126,0.17429 -3.65326,1.70176 -0.16566,0.8666 0.38965,2.27294 1.04878,2.65609 0.76696,0.44582 2.35039,0.35081 3.0064,-0.1804 z m 4.19442,0.12398 c 0.24043,-0.2897 0.0781,-0.35134 -0.87105,-0.33073 -0.90148,0.0196 -1.10421,0.10049 -0.89218,0.35607 0.36266,0.43712 1.3917,0.42233 1.76323,-0.0253 z m 5.65204,-0.16502 c 2.03478,-1.60055 0.30752,-4.93031 -2.25713,-4.35124 l -0.8475,0.19135 0.68909,0.28997 c 1.12347,0.47276 1.55987,0.97006 1.55987,1.77757 0,1.05812 -0.90168,1.90274 -1.87827,1.75941 -0.91524,-0.13433 -1.00137,0.13123 -0.17225,0.5311 0.94058,0.45363 2.1855,0.36874 2.90619,-0.19816 z m -9.41438,-2.44151 c -0.10438,-0.68399 -0.41662,-0.83511 -0.96629,-0.46766 -0.3435,0.22963 -0.3278,0.31802 0.11671,0.65716 0.71282,0.54384 0.95331,0.4902 0.84958,-0.1895 z m 6.76143,-0.52801 c -0.43387,-0.43388 -0.98231,0.11456 -0.74167,0.74167 0.16549,0.43127 0.20621,0.43257 0.6191,0.0197 0.3452,-0.3452 0.37204,-0.51188 0.12257,-0.76135 z"
       style="display:none;fill:#000000"
       id="path1-1"
       inkscape:label="f5" /><rect
       style="display:none;fill:#ffffff;stroke-width:0.740304"
       id="rect6"
       width="14.788888"
       height="6.8444443"
       x="132.32585"
       y="215.95845"
       inkscape:label="f6-white" /><path
       d="m 132.5046,271.59583 c -1.71201,-0.28929 -2.46795,-0.72187 -2.07947,-1.18996 1.10186,-1.32765 12.10252,-1.39009 13.6839,-0.0777 0.52008,0.43163 -0.29862,0.90244 -2.17125,1.24861 -1.75034,0.32357 -7.56153,0.33528 -9.43318,0.019 z m 8.1308,-34.47241 c -0.33569,-0.33569 -0.6577,-0.73443 -0.71557,-0.88609 -0.0579,-0.15166 -1.12982,-0.34625 -2.3821,-0.43241 l -2.27686,-0.15667 -0.57533,0.77818 c -0.43349,0.58632 -0.78948,0.77817 -1.44395,0.77817 -0.96419,0 -1.77088,-0.71646 -2.83011,-2.51354 -0.34309,-0.58209 -1.18929,-1.81206 -1.88044,-2.73328 -0.69116,-0.92121 -1.45402,-2.19173 -1.69524,-2.82337 l -0.43859,-1.14843 -0.83193,0.50728 c -1.01111,0.61653 -1.33228,0.63258 -1.87137,0.0935 -0.87519,-0.87519 -0.24389,-3.53146 1.32958,-5.59438 0.36322,-0.47621 0.87753,-1.69289 1.14292,-2.70374 0.26539,-1.01085 1.01546,-2.76774 1.66682,-3.90419 0.80818,-1.41008 1.29443,-2.65448 1.53112,-3.91837 0.74192,-3.96185 1.27198,-4.29922 3.78746,-2.41063 1.47785,1.10954 1.58348,1.14541 2.64584,0.89838 1.50519,-0.35 4.604,-0.0961 5.80262,0.47553 l 0.98268,0.46861 1.62955,-0.84043 c 0.89625,-0.46223 1.89883,-0.84042 2.22796,-0.84042 0.81218,0 1.17737,1.13165 1.18675,3.6775 0.006,1.62063 0.15083,2.33119 0.74621,3.66018 l 0.7388,1.64915 0.8932,-0.92154 c 1.49154,-1.53889 2.90605,-1.0824 2.90605,0.93784 0,1.02099 -1.10661,3.41263 -2.10254,4.54406 -0.77408,0.87941 -1.09399,1.53101 -1.30074,2.64942 -0.36356,1.9667 -1.57035,4.55846 -2.80657,6.02754 -0.55065,0.65438 -1.3849,1.78962 -1.85388,2.52276 -0.99806,1.56022 -2.34356,2.76975 -3.0811,2.76975 -0.28649,0 -0.79555,-0.27465 -1.13124,-0.61034 z m 5.8058,-15.38492 c 0.88312,-0.88311 0.90826,-2.72432 0.0508,-3.72115 -0.49391,-0.57421 -0.78315,-0.68091 -1.65364,-0.61007 l -1.05504,0.0859 0.7876,0.39749 c 1.01723,0.51339 1.3912,1.53708 0.95033,2.60143 -0.39533,0.95441 -0.85246,1.17419 -1.74022,0.83666 -0.82827,-0.3149 -0.87234,0.0861 -0.0711,0.64733 0.86861,0.6084 1.98219,0.51155 2.73128,-0.23755 z m -5.14981,-0.038 c 0.307,-0.36991 0.26963,-0.41236 -0.29833,-0.33889 -0.35712,0.0462 -0.79813,-0.009 -0.98003,-0.1219 -0.57915,-0.36053 -0.99848,0.12798 -0.45253,0.52719 0.6499,0.47522 1.30215,0.4502 1.73089,-0.0664 z m -4.26791,-0.50906 c 0.3449,-0.3449 0.29299,-0.39097 -0.44058,-0.39097 -1.11578,0 -1.6631,-0.61079 -1.6631,-1.85598 0,-1.23447 0.76708,-1.93057 1.83458,-1.66484 0.60947,0.15171 0.6418,0.1239 0.31584,-0.27175 -0.58635,-0.71172 -2.55521,-0.58919 -3.35307,0.20867 -1.18305,1.18305 -0.73263,3.75783 0.76794,4.38989 0.72331,0.30466 2.0328,0.0906 2.53839,-0.41502 z m 7.2267,-1.87204 c 0.24838,-0.24838 -0.0897,-0.90018 -0.46684,-0.90018 -0.37718,0 -0.71521,0.6518 -0.46684,0.90018 0.087,0.087 0.29707,0.15815 0.46684,0.15815 0.16978,0 0.37986,-0.0712 0.46684,-0.15815 z m -6.42401,-0.56945 c -0.01,-0.49031 -0.50959,-0.92247 -0.89529,-0.77446 -0.68515,0.26292 -0.51156,0.9729 0.23788,0.9729 0.3638,0 0.65964,-0.0893 0.65741,-0.19844 z m -15.4861,10.92609 c -0.35719,-0.35719 -0.64943,-0.89297 -0.64943,-1.19063 0,-0.69749 0.44284,-0.70081 0.66369,-0.005 0.0936,0.29492 0.45882,0.72533 0.81158,0.95648 0.35277,0.23114 0.64139,0.52562 0.64139,0.6544 0,0.45831 -0.82801,0.22395 -1.46723,-0.41527 z m 28.25307,-2.58214 z m 3.37666,-7.82503 c 0,-0.72055 -0.21592,-1.69049 -0.50064,-2.24896 -0.3894,-0.76378 -0.42015,-0.98198 -0.13839,-0.98198 0.81951,0 1.61587,2.26824 1.30049,3.70416 -0.26839,1.22198 -0.66146,0.94077 -0.66146,-0.47322 z m 1.26447,-0.45282 c -0.0729,-0.87312 -0.22763,-1.8121 -0.34381,-2.08662 -0.15642,-0.36961 -0.11447,-0.46758 0.16166,-0.37755 0.20509,0.0669 0.54592,0.6134 0.7574,1.21452 0.34091,0.96901 0.33761,1.19184 -0.0291,1.96505 l -0.4136,0.8721 z"
       style="display:none;fill:#000000"
       id="path1-73"
       inkscape:label="f6" /><rect
       style="fill:#ffffff;stroke-width:0.740304"
       id="rect7"
       width="15.4"
       height="8.0666666"
       x="130.49251"
       y="230.62512"
       inkscape:label="f7-white" /><path
       d="m 130.60122,271.67324 c -2.52801,-0.2407 -4.42241,-0.77537 -4.42241,-1.24815 0,-0.82571 3.83635,-1.42253 9.12812,-1.42007 4.39789,0.002 7.25394,0.38567 8.12547,1.09139 l 0.57406,0.46485 -0.54113,0.2896 c -1.44945,0.77572 -8.57203,1.23106 -12.86411,0.82238 z m 6.97387,-19.72818 c -0.3016,-0.38342 -0.54837,-0.84246 -0.54837,-1.02007 0,-0.20116 -0.62357,-0.38864 -1.65364,-0.49717 -0.90951,-0.0958 -1.97175,-0.24421 -2.36055,-0.32973 -0.59585,-0.13107 -0.77358,-0.0266 -1.13128,0.66514 -0.36679,0.7093 -0.56727,0.82064 -1.47765,0.82064 -1.26595,0 -1.79103,-0.51816 -2.89888,-2.86071 -0.42094,-0.89008 -1.23866,-2.24765 -1.81716,-3.01683 -1.4758,-1.96222 -2.20167,-4.28526 -2.19405,-7.02164 0.004,-1.28379 -0.1457,-2.5606 -0.35908,-3.07128 -0.86916,-2.08021 -0.71071,-5.44371 0.2958,-6.27904 0.61063,-0.50678 1.66871,-0.0386 2.13831,0.94617 0.23809,0.49927 0.53403,0.84525 0.65765,0.76885 0.42561,-0.26304 1.18837,-2.09065 1.52562,-3.65546 0.49544,-2.29884 1.22406,-3.85588 1.80436,-3.85588 0.26717,0 1.1685,0.60852 2.00296,1.35226 l 1.51719,1.35226 1.40828,-0.17596 c 1.83823,-0.22967 4.43994,0.23777 6.26976,1.12646 l 1.46315,0.71061 1.43951,-0.58719 c 0.79172,-0.32295 1.82418,-0.59084 2.29435,-0.59531 1.10972,-0.0105 1.25614,0.54859 1.04616,3.99519 -0.11889,1.95143 -0.0612,2.88497 0.22922,3.70804 0.21345,0.605 0.46367,1.74299 0.55604,2.52886 0.13853,1.17872 0.24233,1.39683 0.59291,1.24588 1.94578,-0.8378 2.69994,-1.01605 3.1377,-0.74164 0.59555,0.37333 0.72253,1.27244 0.31773,2.24972 -0.39841,0.96183 -2.98025,3.35409 -3.85753,3.57427 -0.44123,0.11074 -0.87071,0.5966 -1.33191,1.50673 -0.37438,0.73881 -1.41098,2.06405 -2.30356,2.94498 -0.89257,0.88094 -2.07441,2.19553 -2.62629,2.92133 -1.61718,2.12677 -3.11211,2.59314 -4.13675,1.29052 z m 7.20015,-14.69396 c 0.80453,-1.08153 0.71486,-2.8 -0.18657,-3.57537 -0.73779,-0.63462 -2.35928,-0.84625 -2.66715,-0.3481 -0.0914,0.14783 0.1119,0.26458 0.46063,0.26458 0.91037,0 1.25916,0.48935 1.25916,1.76661 0,1.42186 -0.8135,2.11814 -1.96378,1.68081 -0.55162,-0.20973 -0.66975,-0.19639 -0.52369,0.0591 0.50617,0.88544 0.76738,1.01381 1.9085,0.93799 0.92689,-0.0616 1.30244,-0.23384 1.7129,-0.78563 z m -5.92868,0.0708 c 0.51891,-0.32867 0.0903,-0.87336 -0.53188,-0.67589 -0.28578,0.0907 -0.69248,0.0214 -0.90378,-0.15393 -0.52913,-0.43914 -0.50211,0.11939 0.0316,0.6531 0.46663,0.46663 0.86682,0.517 1.40406,0.17672 z m -4.44827,-0.82859 c 0.67534,-0.36143 0.65727,-0.77295 -0.0261,-0.59424 -1.46679,0.38357 -2.24643,-2.38638 -0.91687,-3.25754 0.36406,-0.23855 0.89984,-0.3715 1.19062,-0.29546 0.65204,0.17051 0.67912,-0.0366 0.0657,-0.50222 -0.82405,-0.62554 -2.14481,-0.44701 -2.99691,0.40508 -2.00859,2.00859 0.23394,5.55539 2.68358,4.24438 z m 7.9201,-1.86217 c 0,-0.37865 -0.14248,-0.52113 -0.45998,-0.45999 -0.6897,0.13283 -0.76662,1.00855 -0.0886,1.00855 0.37865,0 0.54857,-0.16992 0.54857,-0.54856 z m -6.61458,-0.94325 c 0,-0.49824 -0.75247,-0.77195 -1.11782,-0.40661 -0.20828,0.20829 -0.19796,0.39761 0.0371,0.68087 0.37796,0.45542 1.08069,0.27708 1.08069,-0.27426 z m 18.3616,6.84964 c 0.0919,-0.40019 0.24107,-1.40919 0.33156,-2.24223 0.17998,-1.65687 0.46412,-1.78807 0.73582,-0.33975 0.12342,0.65789 0.0205,1.27739 -0.352,2.11958 -0.58765,1.32848 -0.97111,1.57633 -0.71538,0.4624 z m -1.30891,0.0361 c 0.38817,-0.95121 0.46932,-2.67165 0.15383,-3.26116 -0.37951,-0.70911 -0.17496,-1.01269 0.37487,-0.55636 0.8841,0.73373 0.61493,3.87404 -0.35949,4.19415 -0.27443,0.0902 -0.31911,-0.009 -0.16921,-0.37663 z m -30.01727,-12.14941 c 0,-0.43319 0.9792,-0.901 1.90261,-0.90896 1.37977,-0.0119 1.48557,0.42576 0.14262,0.59 -0.61555,0.0753 -1.32755,0.2223 -1.58221,0.32671 -0.25467,0.1044 -0.46302,0.10092 -0.46302,-0.008 z m 0.3275,-1.50307 c 0.24511,-0.73531 2.8475,-0.91628 2.8475,-0.19802 0,0.14961 -0.28543,0.19295 -0.65679,0.0997 -0.36124,-0.0907 -1.02497,-0.0365 -1.47497,0.12038 -0.36869,0.12744 -0.56439,0.24671 -0.71574,-0.0221 z"
       style="display:inline;fill:#000000"
       id="path1-9"
       inkscape:label="f7" /><path
       d="m 129.74992,271.556 c -2.70194,-0.25128 -5.29167,-0.87765 -5.29167,-1.27989 0,-0.38771 0.92488,-0.7875 2.23829,-0.96752 0.66072,-0.0906 1.2013,-0.21716 1.2013,-0.28134 0,-0.0642 -0.36179,-0.47846 -0.80397,-0.92065 -1.06844,-1.06844 -1.81364,-2.57971 -2.02215,-4.10095 -0.0937,-0.68374 -0.44925,-1.65407 -0.79008,-2.15631 -0.60911,-0.89758 -1.41089,-3.17052 -1.41089,-3.99971 0,-0.72073 0.79352,-1.59835 1.44518,-1.59835 0.34178,0 1.12495,0.42068 1.74037,0.93485 1.04484,0.87294 1.15045,0.90634 1.59475,0.50425 0.45547,-0.41219 0.44263,-0.48453 -0.30016,-1.69172 -0.42678,-0.69361 -0.77597,-1.45925 -0.77597,-1.70142 0,-0.73696 1.29892,-1.0429 4.7625,-1.12175 1.81901,-0.0414 4.25979,-0.25511 5.42396,-0.47489 2.68965,-0.50778 4.09927,-0.51015 6.08541,-0.0102 0.87313,0.21977 3.26042,0.50949 5.30509,0.64382 5.45446,0.35835 5.84631,0.61317 4.33057,2.81622 -0.65722,0.95524 -0.75354,1.25963 -0.49658,1.56926 0.26882,0.3239 0.48315,0.19742 1.36704,-0.80672 2.41486,-2.74343 4.09284,-0.18244 2.42684,3.70393 -0.37428,0.87313 -0.7846,2.18282 -0.91182,2.91042 -0.3587,2.0516 -0.96377,3.39329 -1.97024,4.3688 -1.11317,1.07892 -1.14867,1.31928 -0.19517,1.32122 1.3537,0.003 2.75109,0.52608 2.66052,0.99639 -0.21761,1.12996 -5.35283,1.65677 -15.69124,1.60973 -4.07459,-0.0185 -8.53943,-0.1389 -9.92188,-0.26746 z m 16.94199,-9.35607 c 1.18157,-0.61102 1.70917,-1.82447 1.33552,-3.07162 -0.16574,-0.55319 -0.56248,-1.1887 -0.88163,-1.41225 -0.71006,-0.49734 -2.57123,-0.5318 -3.21706,-0.0596 -0.41793,0.30559 -0.36248,0.33382 0.46579,0.23713 0.82624,-0.0965 1.00223,-0.008 1.45204,0.7319 0.92387,1.51918 0.0502,3.05903 -1.60931,2.83644 -1.16266,-0.15594 -1.08283,0.21618 0.16265,0.7582 1.0719,0.46647 1.35563,0.46396 2.292,-0.0203 z m -10.85657,-0.26011 c 0.28082,-0.33837 0.20758,-0.39687 -0.49677,-0.39687 -1.49992,0 -2.29454,-1.37242 -1.58029,-2.72938 0.38929,-0.7396 0.73806,-0.9657 1.49736,-0.97074 0.33916,-0.002 0.53818,-0.12175 0.44741,-0.26863 -0.0899,-0.14552 -0.70144,-0.26459 -1.35889,-0.26459 -0.96841,0 -1.3422,0.14684 -1.96876,0.7734 -1.67938,1.67938 -0.49805,4.25369 1.95198,4.25369 0.72485,0 1.30538,-0.15279 1.50796,-0.39688 z m 4.7625,0 c 0.64201,-0.367 0.62355,-0.3784 -0.62771,-0.3875 -1.11646,-0.008 -1.24504,0.0438 -0.95979,0.3875 0.40473,0.48768 0.7344,0.48768 1.5875,0 z m -4.10104,-2.78175 c 0,-0.21629 -0.2679,-0.4313 -0.59532,-0.4778 -0.57912,-0.0823 -0.82642,0.42671 -0.40977,0.84335 0.30824,0.30825 1.00509,0.0548 1.00509,-0.36555 z m 7.76005,-0.0896 c 0.0673,-0.34953 -0.0413,-0.45811 -0.3908,-0.39079 -0.26621,0.0513 -0.52596,0.31101 -0.57722,0.57722 -0.0673,0.34953 0.0413,0.45811 0.39079,0.3908 0.26621,-0.0513 0.52596,-0.31102 0.57723,-0.57723 z m -23.23818,-1.23804 c 0,-0.9 0.68884,-2.25182 1.45425,-2.85389 1.05118,-0.82686 1.34046,-0.41974 0.43472,0.61184 -0.42604,0.48524 -0.91552,1.30918 -1.08773,1.83098 -0.34111,1.03356 -0.80124,1.26963 -0.80124,0.41107 z m -1.18929,-0.0596 c -0.34874,-0.84568 0.1408,-2.37586 1.05141,-3.28648 1.29451,-1.2945 2.00337,-1.17424 0.89067,0.15111 -0.47552,0.5664 -1.06387,1.60819 -1.30745,2.3151 -0.33927,0.98464 -0.48772,1.17651 -0.63463,0.82027 z m 36.48603,-3.40986 c -0.27722,-0.31216 -1.03981,-0.8147 -1.69466,-1.11674 -1.0284,-0.47434 -1.10584,-0.56222 -0.5684,-0.64498 0.97623,-0.15031 1.88082,0.17405 2.57533,0.92343 0.63284,0.68285 0.84644,1.40587 0.41533,1.40587 -0.12297,0 -0.45039,-0.25541 -0.7276,-0.56758 z m 0.70838,-1.42896 c -0.55696,-0.57198 -1.34448,-1.03949 -2.05052,-1.21727 -1.33219,-0.33545 -1.51355,-0.75498 -0.32636,-0.75498 1.65372,0 3.59852,1.44064 3.36919,2.49577 -0.0649,0.29842 -0.3262,0.16055 -0.99231,-0.52352 z"
       style="display:none;fill:#000000"
       id="path1-2"
       inkscape:label="f8" /><path
       style="display:none;fill:#000000"
       d="m 127.86032,271.78104 c -3.87608,-0.37409 -6.19158,-0.74565 -6.87917,-1.10387 l -0.79375,-0.41353 1.05834,-0.47813 c 0.58208,-0.26298 1.32622,-0.48126 1.65364,-0.48508 0.78624,-0.009 0.75442,-0.13682 -0.25998,-1.04319 -0.85374,-0.76281 -0.85658,-0.7633 -1.55295,-0.26744 -1.58792,1.1307 -2.88548,1.23027 -3.40409,0.26123 -0.34631,-0.64708 0.0404,-1.90083 1.1449,-3.71181 0.74732,-1.22533 0.91664,-1.79895 1.04067,-3.52552 0.16985,-2.36457 1.16786,-4.81579 2.74375,-6.73896 l 0.94902,-1.15815 -0.56301,-1.89957 c -0.77957,-2.63025 -0.75173,-3.56149 0.11295,-3.77851 0.76824,-0.19282 3.13638,0.2241 5.26881,0.9276 1.3912,0.45896 1.50416,0.45925 2.84603,0.007 3.39508,-1.14298 7.69106,-1.18646 11.25659,-0.11392 1.37109,0.41243 1.43111,0.40655 3.88943,-0.38092 5.25054,-1.6819 5.53792,-1.5391 4.73209,2.35121 l -0.53656,2.59036 0.7636,1.02668 c 0.41998,0.56468 0.84738,1.0486 0.94977,1.07538 0.10239,0.0268 0.54731,-0.44799 0.98871,-1.05505 0.4414,-0.60707 1.12858,-1.21842 1.52707,-1.35856 1.9222,-0.676 2.57894,2.67019 1.14066,5.8118 -0.39428,0.86121 -0.87484,1.74766 -1.06793,1.96989 -0.19308,0.22223 -0.41302,1.17796 -0.48876,2.12385 -0.18786,2.34624 -1.01345,4.11089 -2.61727,5.59428 l -1.32841,1.22866 1.32631,0.18242 c 1.57685,0.21687 2.44553,0.74197 1.99092,1.20346 -0.7359,0.74706 -4.9682,1.07904 -14.91117,1.16963 -5.45703,0.0497 -10.39813,0.0444 -10.98021,-0.0117 z m 4.28473,-12.92638 0.74235,-0.64925 -1.00262,0.1564 c -0.81524,0.12716 -1.12431,0.0421 -1.65365,-0.45521 -1.34687,-1.26532 -0.57512,-3.95894 1.13428,-3.95894 0.35075,0 0.55511,-0.11662 0.46366,-0.26458 -0.24463,-0.39582 -2.17019,-0.31891 -3.02017,0.12063 -0.67877,0.35101 -1.61004,1.79339 -1.61004,2.49369 0,0.77953 0.93664,2.47225 1.55343,2.80739 1.10771,0.6019 2.53921,0.49636 3.39276,-0.25013 z m 5.91912,-0.41839 c 0.84242,-0.45085 0.58804,-0.6562 -0.81032,-0.65412 -1.38531,0.002 -1.52807,0.0887 -1.00624,0.61051 0.39006,0.39006 1.13576,0.40796 1.81656,0.0436 z m 7.87583,-0.55691 c 1.36629,-1.39747 1.40196,-2.86888 0.1032,-4.25631 -1.00003,-1.06831 -2.17328,-1.38151 -3.34352,-0.89255 -1.09367,0.45696 -1.22925,0.66824 -0.31693,0.49383 0.9126,-0.17445 1.73726,0.36496 2.18078,1.42645 0.34931,0.83602 0.34078,1.0187 -0.0885,1.89693 -0.40757,0.83373 -0.61869,0.98365 -1.48573,1.05504 -0.55586,0.0458 -1.18094,-0.0581 -1.38906,-0.23083 -0.23664,-0.19639 -0.37841,-0.21106 -0.37841,-0.0391 0,0.61272 1.46455,1.36068 2.68058,1.369 1.03065,0.007 1.35446,-0.12365 2.03764,-0.82242 z m -13.00947,-2.14252 c -0.0306,-0.60778 -0.18765,-0.88438 -0.54059,-0.95208 -0.45199,-0.0867 -0.94349,0.32977 -0.95369,0.8081 -0.003,0.14129 1.1506,0.90562 1.49428,0.99004 0.0237,0.006 0.0237,-0.3749 0,-0.84606 z m 9.56642,-0.93199 c 0.0635,-0.44529 -0.0477,-0.59261 -0.44741,-0.59261 -0.63328,0 -0.93386,0.40021 -0.71972,0.95827 0.22633,0.58979 1.06846,0.32596 1.16713,-0.36566 z m 15.53329,0.0263 c -0.21086,-1.4061 -0.72377,-2.57022 -1.51348,-3.43505 -0.72951,-0.7989 -0.14298,-1.06185 0.82736,-0.37092 0.87282,0.62151 1.36583,1.85075 1.38806,3.46085 0.0226,1.63903 -0.47148,1.88196 -0.70194,0.34512 z m 1.61797,-0.61869 c -0.0715,-0.21828 -0.27109,-0.87312 -0.44354,-1.45521 -0.17246,-0.58208 -0.65775,-1.49783 -1.07843,-2.035 -0.88175,-1.12591 -0.92108,-1.27229 -0.34187,-1.27229 1.21406,0 2.91523,3.51792 2.26303,4.67979 -0.22368,0.39849 -0.29118,0.41248 -0.39919,0.0827 z"
       id="path1"
       sodipodi:nodetypes="cscscsssssscssscssscsssssssscsssccscssssssssscssscsssssssssccssscsssssssssssssssss"
       inkscape:label="f9" /></g></svg>
