<svg xmlns="http://www.w3.org/2000/svg" xml:space="preserve" width="168.691" height="274.44" viewBox="0 0 44.633 72.612"><path d="M130.493 230.625h15.4v8.067h-15.4z" style="fill:#fff;stroke-width:.740304" transform="translate(-116.56 -199.214)"/><path d="M130.601 271.673c-2.528-.24-4.422-.775-4.422-1.248 0-.826 3.836-1.422 9.128-1.42 4.398.002 7.254.386 8.125 1.091l.574.465-.54.29c-1.45.776-8.573 1.23-12.865.822m6.974-19.728c-.302-.383-.548-.842-.548-1.02 0-.201-.624-.389-1.654-.497-.91-.096-1.972-.244-2.36-.33-.596-.131-.774-.027-1.132.665-.367.71-.567.82-1.477.82-1.266 0-1.791-.517-2.9-2.86-.42-.89-1.238-2.247-1.816-3.017-1.476-1.962-2.202-4.285-2.194-7.021.004-1.284-.146-2.56-.36-3.072-.869-2.08-.71-5.443.296-6.279.61-.506 1.669-.038 2.139.947.238.499.534.845.657.768.426-.263 1.189-2.09 1.526-3.655.495-2.299 1.224-3.856 1.804-3.856.267 0 1.169.609 2.003 1.352l1.517 1.353 1.409-.176c1.838-.23 4.44.237 6.27 1.126l1.463.71 1.439-.587c.792-.322 1.824-.59 2.294-.595 1.11-.01 1.257.549 1.047 3.995-.12 1.952-.062 2.885.229 3.708.213.605.463 1.743.556 2.53.138 1.178.242 1.396.593 1.245 1.945-.838 2.7-1.016 3.137-.741.596.373.723 1.272.318 2.25-.398.961-2.98 3.353-3.857 3.573-.442.111-.871.597-1.332 1.507-.375.739-1.411 2.064-2.304 2.945s-2.074 2.196-2.626 2.922c-1.617 2.126-3.112 2.593-4.137 1.29m7.2-14.694c.805-1.081.715-2.8-.186-3.575-.738-.635-2.36-.847-2.667-.348-.092.147.111.264.46.264.91 0 1.26.49 1.26 1.767 0 1.422-.814 2.118-1.964 1.68-.552-.21-.67-.196-.524.06.506.885.767 1.014 1.908.938.927-.062 1.303-.234 1.713-.786m-5.928.07c.518-.328.09-.872-.532-.675-.286.09-.693.021-.904-.154-.53-.44-.502.12.031.653.467.467.867.517 1.405.177m-4.449-.828c.676-.361.658-.773-.026-.594-1.467.384-2.246-2.386-.917-3.257.364-.239.9-.372 1.19-.296.653.17.68-.037.067-.502-.824-.626-2.145-.447-2.997.405-2.009 2.009.234 5.555 2.683 4.244m7.92-1.862c0-.379-.142-.521-.46-.46-.69.133-.766 1.009-.088 1.009.378 0 .548-.17.548-.549m-6.614-.943c0-.498-.753-.772-1.118-.407-.208.209-.198.398.037.681.378.456 1.08.277 1.08-.274m18.361 6.85c.092-.4.241-1.41.332-2.243.18-1.657.464-1.788.736-.34.123.658.02 1.278-.352 2.12-.588 1.329-.971 1.576-.716.463m-1.308.036c.388-.952.469-2.672.153-3.262-.38-.709-.175-1.012.375-.556.884.734.615 3.874-.36 4.194-.274.09-.318-.009-.169-.376m-30.018-12.15c0-.433.98-.9 1.903-.909 1.38-.012 1.485.426.142.59-.615.076-1.327.223-1.582.327-.254.104-.463.1-.463-.008zm.328-1.503c.245-.735 2.847-.916 2.847-.198 0 .15-.285.193-.657.1-.36-.09-1.025-.037-1.475.12-.368.128-.564.247-.715-.022" style="display:inline;fill:#000" transform="translate(-116.56 -199.214)"/></svg>