<svg xmlns="http://www.w3.org/2000/svg" xml:space="preserve" width="168.691" height="274.44" viewBox="0 0 44.633 72.612"><path d="M132.326 215.958h14.789v6.844h-14.789z" style="fill:#fff;stroke-width:.740304" transform="translate(-116.56 -199.214)"/><path d="M132.505 271.596c-1.712-.29-2.468-.722-2.08-1.19 1.102-1.328 12.103-1.39 13.684-.078.52.432-.299.903-2.171 1.249-1.75.323-7.562.335-9.433.019m8.13-34.473c-.335-.335-.657-.734-.715-.886-.058-.151-1.13-.346-2.382-.432l-2.277-.157-.575.778c-.434.587-.79.779-1.444.779-.965 0-1.771-.717-2.83-2.514-.344-.582-1.19-1.812-1.881-2.733s-1.454-2.192-1.695-2.824l-.439-1.148-.832.507c-1.01.617-1.332.633-1.871.094-.875-.875-.244-3.532 1.33-5.595.363-.476.877-1.693 1.142-2.703.266-1.011 1.016-2.768 1.667-3.905.808-1.41 1.295-2.654 1.531-3.918.742-3.962 1.272-4.3 3.788-2.41 1.478 1.109 1.583 1.145 2.646.898 1.505-.35 4.604-.096 5.802.475l.983.469 1.63-.84c.896-.463 1.898-.84 2.227-.84.813 0 1.178 1.13 1.187 3.677.006 1.62.151 2.33.746 3.66l.74 1.649.892-.922c1.492-1.538 2.906-1.082 2.906.938 0 1.021-1.106 3.413-2.102 4.544-.774.88-1.094 1.531-1.3 2.65-.364 1.966-1.571 4.558-2.807 6.027-.551.655-1.385 1.79-1.854 2.523-.998 1.56-2.344 2.77-3.081 2.77-.287 0-.796-.275-1.132-.61m5.806-15.385c.883-.883.908-2.724.051-3.72-.494-.575-.783-.682-1.654-.61l-1.055.085.788.398c1.017.513 1.391 1.537.95 2.601-.395.955-.852 1.174-1.74.837-.828-.315-.872.086-.071.647a2.094 2.094 0 0 0 2.731-.237m-5.15-.038c.307-.37.27-.412-.298-.338-.357.046-.798-.01-.98-.122-.58-.36-.998.128-.452.527.65.475 1.302.45 1.73-.067m-4.268-.509c.345-.344.293-.39-.44-.39-1.116 0-1.663-.611-1.663-1.857 0-1.234.767-1.93 1.834-1.664.61.151.642.124.316-.272-.586-.712-2.555-.59-3.353.209-1.183 1.183-.732 3.757.768 4.39.723.304 2.033.09 2.538-.416m7.227-1.872c.249-.248-.09-.9-.467-.9s-.715.652-.466.9c.087.087.297.159.466.159s.38-.072.467-.159m-6.424-.57c-.01-.49-.51-.922-.895-.774-.685.263-.512.973.238.973.364 0 .66-.089.657-.198m-15.486 10.927c-.357-.357-.65-.893-.65-1.19 0-.698.443-.701.664-.006.094.295.46.726.812.957s.641.526.641.654c0 .459-.828.224-1.467-.415m31.63-10.407c0-.72-.216-1.69-.5-2.25-.39-.763-.421-.981-.14-.981.82 0 1.617 2.268 1.301 3.704-.268 1.222-.661.94-.661-.473m1.264-.453c-.073-.873-.227-1.812-.344-2.087-.156-.37-.114-.467.162-.377.205.067.546.613.758 1.214.34.97.337 1.192-.03 1.965l-.413.873z" style="display:inline;fill:#000" transform="translate(-116.56 -199.214)"/></svg>