<svg xmlns="http://www.w3.org/2000/svg" xml:space="preserve" width="168.691" height="274.44" viewBox="0 0 44.633 72.612"><path d="M131.226 256.536h18.333v6.478h-18.333z" style="fill:#fff;stroke-width:.740304" transform="translate(-116.56 -199.214)"/><path d="M129.75 271.556c-2.702-.251-5.292-.878-5.292-1.28 0-.388.925-.787 2.239-.967.66-.091 1.2-.218 1.2-.282s-.36-.478-.803-.92c-1.069-1.069-1.814-2.58-2.022-4.101-.094-.684-.45-1.654-.79-2.157-.61-.897-1.411-3.17-1.411-4 0-.72.793-1.598 1.445-1.598.342 0 1.125.421 1.74.935 1.045.873 1.15.906 1.595.504.456-.412.443-.484-.3-1.691-.427-.694-.776-1.46-.776-1.702 0-.737 1.299-1.043 4.762-1.122 1.82-.04 4.26-.255 5.424-.474 2.69-.508 4.1-.51 6.086-.01.873.22 3.26.509 5.305.643 5.454.359 5.846.613 4.33 2.816-.657.956-.753 1.26-.496 1.57.269.324.483.197 1.367-.807 2.415-2.743 4.093-.182 2.427 3.704-.375.873-.785 2.183-.912 2.91-.359 2.052-.964 3.394-1.97 4.37-1.113 1.078-1.149 1.318-.195 1.32 1.353.003 2.75.526 2.66.997-.218 1.13-5.353 1.657-15.691 1.61-4.075-.019-8.54-.14-9.922-.268m16.942-9.356c1.181-.611 1.71-1.825 1.335-3.072-.165-.553-.562-1.188-.881-1.412-.71-.497-2.571-.532-3.217-.06-.418.306-.363.334.466.238.826-.097 1.002-.008 1.452.731.923 1.52.05 3.06-1.61 2.837-1.162-.156-1.083.216.163.758 1.072.467 1.356.464 2.292-.02zm-10.857-.26c.281-.339.208-.397-.496-.397-1.5 0-2.295-1.372-1.58-2.73.389-.739.737-.965 1.497-.97.339-.002.538-.122.447-.269-.09-.145-.701-.264-1.359-.264-.968 0-1.342.146-1.969.773-1.679 1.68-.498 4.254 1.952 4.254.725 0 1.306-.153 1.508-.397m4.763 0c.642-.367.623-.379-.628-.388-1.116-.008-1.245.044-.96.388.405.487.735.487 1.588 0m-4.101-2.782c0-.216-.268-.431-.596-.478-.579-.082-.826.427-.41.844.309.308 1.006.054 1.006-.366m7.76-.09c.067-.35-.041-.458-.391-.39a.79.79 0 0 0-.577.577c-.067.35.041.458.39.39a.79.79 0 0 0 .578-.577m-23.238-1.238c0-.9.689-2.251 1.454-2.853 1.051-.827 1.34-.42.435.611-.426.486-.916 1.31-1.088 1.831-.341 1.034-.801 1.27-.801.411m-1.19-.06c-.348-.845.141-2.375 1.052-3.286 1.294-1.294 2.003-1.174.89.151-.475.567-1.063 1.609-1.307 2.316-.34.984-.488 1.176-.635.82m36.486-3.409c-.277-.312-1.04-.815-1.694-1.117-1.029-.474-1.106-.562-.569-.645.977-.15 1.881.174 2.576.924.633.683.846 1.406.415 1.406-.123 0-.45-.256-.728-.568m.709-1.429c-.557-.572-1.345-1.04-2.05-1.217-1.333-.336-1.514-.755-.327-.755 1.654 0 3.598 1.44 3.37 2.496-.066.298-.327.16-.993-.524" style="display:inline;fill:#000" transform="translate(-116.56 -199.214)"/></svg>