<svg xmlns="http://www.w3.org/2000/svg" xml:space="preserve" width="168.691" height="274.44" viewBox="0 0 44.633 72.612"><path d="M134.77 223.414h15.156v7.333H134.77z" style="fill:#fff;stroke-width:.740304" transform="translate(-116.56 -199.214)"/><path d="M138.948 271.596c-4.374-.367-5.883-1.271-3.44-2.062.878-.284 2.656-.392 6.748-.409 4.646-.02 5.808.055 7.095.453.86.265 1.496.606 1.44.772-.173.519-1.953.961-5.024 1.249-3.241.304-3.152.304-6.819-.003zm-2.876-25.608c-.389-.417-1-1.34-1.36-2.05-.36-.712-1.314-1.953-2.121-2.76-1.629-1.624-2.463-3.174-3.137-5.829-.369-1.45-.696-2.04-1.806-3.255-1.683-1.841-2.415-3.732-1.879-4.854.502-1.05 1.381-1.083 2.608-.096.559.448 1.112.815 1.23.815.119 0 .479-.684.8-1.521.483-1.26.559-1.863.44-3.506-.08-1.091-.04-2.46.087-3.042.307-1.414 1.104-1.51 3.293-.397l1.631.829 1.347-.608c1.171-.528 1.78-.608 4.672-.613l3.325-.006 1.472-1.014c1.859-1.28 2.538-1.231 3.044.221.203.582.437 1.832.52 2.778.123 1.4.368 2.089 1.317 3.704 2.952 5.022 3.052 9.31.338 14.552-.565 1.092-1.231 2.569-1.481 3.283-.589 1.682-1.537 2.803-2.371 2.803-.636 0-1.758-.884-1.984-1.562-.09-.266-.346-.28-1.164-.062-.577.154-1.97.315-3.093.357-1.955.073-2.056.108-2.35.813-.374.894-1.443 1.777-2.15 1.777-.287 0-.839-.34-1.228-.757m3.442-16.197.625-.549-.622.135c-.854.184-1.874-.33-2.05-1.034q-.466-1.857.904-2.542l.877-.438-.792-.174c-.917-.201-2.255.383-2.675 1.168-1.303 2.435 1.714 5.21 3.733 3.434m4.214.011c.282-.15.512-.452.512-.67 0-.311-.112-.338-.512-.124-.281.151-.757.274-1.058.274-.6 0-.741.407-.216.619.521.21.727.194 1.274-.099m5.205-.924c.844-.591 1.195-2.098.742-3.182-.2-.478-.603-.998-.897-1.155-.76-.406-2.3-.354-2.669.09-.256.31-.213.35.245.23.825-.215 1.855.859 1.855 1.935 0 1.084-.595 1.692-1.657 1.692-.783 0-.799.02-.312.389.672.509 1.968.509 2.693 0m-9.044-1.736c.257-.416-.3-.87-.82-.67-.361.139-.383.245-.118.564.387.467.693.502.938.106m6.685-.99c.055-.373-.056-.574-.316-.574-.514 0-.785.443-.586.96.215.562.799.312.902-.385m-22.6 1.703c-.406-1.057.928-3.07 2.034-3.07.319 0 .197.252-.456.944-.495.525-.891 1.224-.891 1.572 0 .747-.469 1.125-.688.554" style="display:inline;fill:#000" transform="translate(-116.56 -199.214)"/></svg>