<svg xmlns="http://www.w3.org/2000/svg" xml:space="preserve" width="168.691" height="274.44" viewBox="0 0 44.633 72.612"><path d="M131.104 204.836h16.256v5.989h-16.256z" style="fill:#fff;stroke-width:.740304" transform="translate(-116.56 -199.214)"/><path d="M136.32 271.714c-1.958-.206-3.139-.64-2.88-1.059.734-1.188 10.73-1.06 10.757.138.017.744-4.528 1.275-7.877.921m-.873-46.822c-2.314-.625-3.795-1.444-5.39-2.98-2.262-2.177-3.633-5.21-3.633-8.035 0-1.065-.2-1.838-.773-2.972-1.63-3.227-1.697-6.687-.14-7.078.782-.196 1.27.162 2.174 1.593l.66 1.045.484-.909c.32-.601.488-1.49.496-2.628.007-.946.137-2.166.288-2.712.232-.834.39-.992.991-.992.393 0 1.402.415 2.242.922l1.527.92 1.505-.392c1.886-.491 4.037-.5 5.87-.025 1.416.368 1.417.368 2.902-.528 2.712-1.635 3.386-1.19 3.641 2.41.122 1.703.748 3.836 1.127 3.836.087 0 .446-.542.798-1.205.701-1.323 1.366-1.818 2.119-1.579 1.42.45 1.366 3.74-.113 7.016-.552 1.222-.927 2.472-.927 3.088 0 2.408-1.298 5.651-3.106 7.765-2.666 3.114-8.312 4.638-12.742 3.44m.507-14.771.593-.48-.917.107c-.616.072-1.062-.037-1.357-.332-1.18-1.18-.599-3.042.955-3.057.822-.008.834-.024.324-.416-1.126-.867-3.36.174-3.653 1.702-.165.867.39 2.273 1.049 2.656.767.446 2.35.35 3.006-.18m4.195.124c.24-.29.078-.352-.871-.331-.902.02-1.104.1-.892.356.362.437 1.391.422 1.763-.025m5.652-.165c2.035-1.6.307-4.93-2.257-4.352l-.848.192.69.29c1.123.472 1.56.97 1.56 1.777 0 1.058-.903 1.903-1.88 1.76-.914-.135-1 .13-.171.53.94.454 2.185.37 2.906-.197m-9.415-2.442c-.104-.684-.416-.835-.966-.468-.343.23-.328.318.117.658.713.543.953.49.85-.19m6.762-.528c-.434-.434-.982.115-.742.742.166.431.206.432.62.02.345-.346.371-.512.122-.762" style="display:inline;fill:#000" transform="translate(-116.56 -199.214)"/></svg>