<?xml version="1.0" encoding="UTF-8" standalone="no"?>
<svg
   xml:space="preserve"
   width="567.614"
   height="451.485"
   viewBox="0 0 150.181 119.455"
   version="1.1"
   id="svg2"
   sodipodi:docname="kage-icon.svg"
   inkscape:version="1.4.3 (0d15f75, 2025-12-25)"
   xmlns:inkscape="http://www.inkscape.org/namespaces/inkscape"
   xmlns:sodipodi="http://sodipodi.sourceforge.net/DTD/sodipodi-0.dtd"
   xmlns="http://www.w3.org/2000/svg"
   xmlns:svg="http://www.w3.org/2000/svg"><defs
     id="defs2" /><sodipodi:namedview
     id="namedview2"
     pagecolor="#ffffff"
     bordercolor="#000000"
     borderopacity="0.25"
     inkscape:showpageshadow="2"
     inkscape:pageopacity="0.0"
     inkscape:pagecheckerboard="0"
     inkscape:deskcolor="#d1d1d1"
     inkscape:zoom="0.67277985"
     inkscape:cx="399.83362"
     inkscape:cy="135.2597"
     inkscape:window-width="1559"
     inkscape:window-height="900"
     inkscape:window-x="2366"
     inkscape:window-y="136"
     inkscape:window-maximized="0"
     inkscape:current-layer="svg2" /><path
     d="m 52.404,123.721 h 98.898 v 42.16 H 52.404 Z"
     style="display:none;fill:#ffffff;stroke-width:0.740304"
     transform="translate(-30.458,-97.464)"
     id="path1" /><path
     d="m 83.074,216.822 c -24.928,-0.713 -46.78,-3.185 -51.25,-5.797 -1.34,-0.784 -1.5,-1.013 -1.29,-1.847 0.396,-1.577 5.609,-3.09 14.777,-4.286 l 1.527,-0.199 -1.852,-1.41 c -9.888,-7.53 -15.005,-21.17 -12.997,-34.639 1.638,-10.994 6.575,-21.535 15.299,-32.67 l 2.416,-3.085 -1.32,-1.984 c -0.727,-1.09 -2.098,-3.559 -3.047,-5.485 -3.62,-7.343 -5.655,-13.577 -5.655,-17.33 0,-3.355 0.873,-3.954 5.689,-3.908 4.597,0.043 10.363,1.01 16.536,2.774 3.109,0.889 8.464,2.745 9.621,3.336 0.73,0.372 0.875,0.326 3.846,-1.21 8.34,-4.31 16.719,-6.505 26.089,-6.833 10.726,-0.375 21.017,1.945 30.813,6.945 1.795,0.916 2.871,1.327 3.062,1.168 0.414,-0.343 31.249,-12.687 32.137,-12.865 0.402,-0.08 0.983,-0.01 1.292,0.155 1.145,0.612 1.18,0.423 -4.497,23.912 l -3.186,13.18 1.159,1.24 c 4.118,4.41 9.249,11.83 12.11,17.512 4.41,8.76 7.012,19.582 6.107,25.396 -0.774,4.973 -2.56,5.136 -9.058,0.825 -1.94,-1.288 -3.756,-2.595 -4.033,-2.904 -0.764,-0.852 -0.935,-0.681 -0.562,0.562 0.186,0.618 0.487,2.38 0.668,3.914 0.934,7.9 -2.452,16.6 -8.529,21.913 l -1.519,1.327 1.255,0.166 c 2.896,0.381 9.268,1.48 10.886,1.877 2.45,0.601 4.978,1.837 5.202,2.543 0.247,0.779 -0.946,1.825 -2.925,2.566 -6.08,2.274 -25.821,4.359 -47.693,5.035 -6.68,0.207 -35.002,0.28 -41.078,0.106"
     style="display:none;fill:#38b2ac;fill-opacity:1"
     transform="translate(-30.458,-97.464)"
     id="path2"
     sodipodi:nodetypes="cccccccccccscccccccccccccccccccccccccc" /><g
     id="path2-9"
     style="opacity:1;stroke:#38b2ac;stroke-width:1.81478;stroke-dasharray:none;stroke-opacity:1"
     transform="matrix(0.90559937,0,0,0.93918066,8.4658831,4.2224965)"><path
       style="baseline-shift:baseline;display:inline;overflow:visible;fill:#38b2ac;stroke:#38b2ac;stroke-width:1.81478;stroke-dasharray:none;stroke-opacity:1;enable-background:accumulate;stop-color:#000000;stop-opacity:1"
       d="M 137.34543,-1.1855055e-4 C 137.2296,0.00199082 137.11779,0.01295432 137.01729,0.03295432 c -0.888,0.178 -31.72302,12.52182968 -32.13702,12.86482968 -0.191,0.159 -1.26734,-0.251885 -3.06234,-1.167885 -9.796,-4.9999999 -20.086543,-7.3203033 -30.812543,-6.9453033 -9.37,0.328 -17.749328,2.5231657 -26.089328,6.8331653 -2.971,1.536 -3.115754,1.58226 -3.845754,1.21026 -1.157,-0.591 -6.512105,-2.447226 -9.621105,-3.3362256 -6.173,-1.764 -11.938919,-2.730987 -16.535919,-2.773987 -4.816,-0.046 -5.6890506,0.5527669 -5.6890506,3.9077666 0,3.753 2.0349446,9.987184 5.6549446,17.330184 0.949,1.926 2.319838,4.394929 3.046838,5.484929 l 1.320331,1.983856 -2.416387,3.085078 C 8.1059567,49.644622 3.1691706,60.185934 1.5311706,71.179934 -0.47682942,84.648934 4.6402916,98.2886 14.528292,105.8186 l 1.852081,1.41025 -1.527037,0.19895 c -9.1680001,1.196 -14.38137175,2.70904 -14.77737175,4.28604 -0.21,0.834 -0.04964126,1.06291 1.29035875,1.84691 4.47,2.612 26.322031,5.08406 51.250031,5.79706 6.076,0.174 34.398056,0.10106 41.078056,-0.10594 21.872,-0.676 41.61263,-2.76135 47.69263,-5.03535 1.979,-0.741 3.17188,-1.78673 2.92488,-2.56573 -0.224,-0.706 -2.75174,-1.94199 -5.20174,-2.54299 -1.618,-0.397 -7.99014,-1.49589 -10.88614,-1.87689 l -1.2547,-0.16639 1.51876,-1.32654 c 6.077,-5.313 9.46319,-14.013357 8.52919,-21.913357 -0.181,-1.534 -0.48218,-3.295968 -0.66818,-3.913968 -0.373,-1.243 -0.20176,-1.413722 0.56224,-0.561722 0.277,0.309 2.09282,1.615695 4.03282,2.903695 6.498,4.311 8.28384,4.148245 9.05784,-0.824755 0.905,-5.814 -1.6966,-16.636347 -6.1066,-25.396347 -2.861,-5.682 -7.99235,-13.101568 -12.11035,-17.511568 l -1.15911,-1.240233 3.18637,-13.180056 c 5.677,-23.48899946 5.64188,-23.2996856 4.49688,-23.9116856 -0.23175,-0.12375 -0.61628,-0.19443008 -0.96377,-0.18810195055 z"
       id="path3" /><path
       style="baseline-shift:baseline;display:inline;overflow:visible;stroke:#38b2ac;stroke-width:1.81478;stroke-dasharray:none;stroke-opacity:1;enable-background:accumulate;stop-color:#000000;stop-opacity:1"
       d="m 137.30078,-2.4179688 c -0.24002,0.00437 -0.48454,0.026084 -0.75586,0.080078 h -0.002 c -0.71469,0.1432593 -0.56176,0.1616161 -0.85742,0.2695312 -0.29567,0.1079152 -0.67953,0.2515797 -1.15039,0.4316407 -0.94173,0.3601218 -2.22532,0.85975258 -3.74024,1.45507808 -3.02983,1.19065102 -6.98249,2.76284792 -10.92187,4.33984372 -3.93939,1.5769958 -7.86323,3.1596296 -10.83399,4.3710938 -1.48538,0.6057321 -2.73279,1.1177557 -3.63086,1.4941413 -0.33075,0.13862 -0.56205,0.238581 -0.79687,0.339843 -0.38689,-0.156949 -0.93045,-0.3977921 -1.69336,-0.7871093 C 92.780992,4.4021334 82.048019,1.9781295 70.919922,2.3671875 61.223293,2.7066213 52.436029,5.0091985 43.806641,9.46875 h -0.002 c -1.306228,0.675317 -1.878144,0.931168 -2.099609,1.025391 C 40.714593,10.032043 39.487479,9.5772233 37.783203,8.9863281 35.876785,8.3253475 33.742668,7.6319289 32.113281,7.1660156 25.782254,5.3568577 19.852717,4.344823 14.935547,4.2988281 c -2.509603,-0.02397 -4.297553,-0.09381 -6.0410157,1.1035156 -0.8717312,0.5986628 -1.5027706,1.5851045 -1.7753907,2.5 -0.2726201,0.9148956 -0.3125,1.7790237 -0.3125,2.7226563 0,4.62716 2.2031956,10.89288 5.9042974,18.400391 h -0.002 c 0.994941,2.019237 2.321379,4.432871 3.205079,5.757812 l 0.351562,0.525391 -1.339844,1.708984 C 6.0179693,48.387189 0.84783594,59.352577 -0.86132813,70.824219 -2.8322687,84.044636 1.6702307,97.356938 10.800781,105.73242 c -2.6400913,0.43742 -5.5084275,0.85367 -7.2988279,1.37305 -1.3539286,0.39276 -2.4636598,0.79978 -3.41406248,1.32812 -0.9504027,0.52835 -1.97540652,1.1701 -2.35742192,2.69141 -0.07662,0.30432 -0.1695247,0.68244 -0.1464843,1.22266 0.023077,0.54106 0.2466738,1.22467 0.5742187,1.69336 0.6550898,0.93736 1.26407421,1.18485 1.98632815,1.60742 h 0.001953 c 1.71507845,1.00219 3.96796205,1.56089 7.13671875,2.1914 3.168757,0.63052 7.149212,1.2124 11.763672,1.73438 9.228919,1.04395 20.976346,1.84296 33.5,2.20117 6.310272,0.18071 34.348723,0.10754 41.222656,-0.10547 10.990289,-0.33968 21.441319,-1.03344 29.947269,-1.93164 8.50594,-0.89819 14.90042,-1.90299 18.51757,-3.25586 v -0.002 c 1.18993,-0.44555 2.19907,-0.97299 3.04493,-1.71484 0.42292,-0.37093 0.82018,-0.79751 1.12695,-1.41993 0.30677,-0.62241 0.4893,-1.54786 0.21094,-2.42578 -0.39099,-1.23231 -0.95809,-1.47967 -1.43946,-1.83203 -0.48137,-0.35236 -0.99698,-0.63962 -1.57031,-0.91992 -1.14665,-0.5606 -2.51123,-1.06217 -3.92187,-1.4082 -1.41267,-0.34662 -4.78125,-0.86437 -7.71094,-1.33204 5.27247,-5.727952 8.16041,-13.624101 7.4375,-21.294918 0.0711,0.04746 0.12379,0.08728 0.19531,0.134766 3.34573,2.219671 5.43711,3.717454 8.23242,3.462891 1.39766,-0.127282 2.76921,-1.131877 3.42188,-2.25 0.65235,-1.117581 0.91404,-2.299648 1.1289,-3.679688 v -0.002 c 1.08274,-6.960668 -1.73837,-17.722902 -6.33593,-26.855469 -3.00305,-5.964115 -8.14445,-13.407729 -12.50196,-18.074218 l -0.26953,-0.289063 2.87891,-11.912109 c 2.83842,-11.744165 4.2457,-17.5284432 4.83398,-20.6562503 0.29415,-1.5639035 0.47342,-2.4066712 0.27539,-3.54687495 -0.099,-0.57010188 -0.43144,-1.29555407 -0.88476,-1.74804685 -0.45332,-0.4524928 -0.8195,-0.5990372 -0.9375,-0.6621094 -0.87471,-0.4670789 -1.44072,-0.4855446 -2.14844,-0.4726563 z M 136.27734,2.875 c -0.025,0.1604995 -1.6e-4,0.056119 -0.0352,0.2421875 -0.52716,2.8027859 -1.94267,8.6692275 -4.78125,20.4140625 l -3.49219,14.447266 2.04883,2.193359 c 3.87839,4.153686 9,11.547788 11.71875,16.947266 4.22206,8.386671 6.60347,19.270114 5.87695,23.9375 -0.1519,0.976001 -0.3459,1.488623 -0.46484,1.751953 -0.27827,-0.11125 -2.01053,-0.675104 -4.86719,-2.570313 -0.9457,-0.627866 -1.86552,-1.264423 -2.56445,-1.767578 -0.34947,-0.251577 -0.64488,-0.471351 -0.84766,-0.628906 -0.20278,-0.157555 -0.3981,-0.377207 -0.15625,-0.107422 h -0.002 c -0.24778,-0.276316 -0.45154,-0.508587 -0.85352,-0.796875 -0.20099,-0.144144 -0.4416,-0.332294 -0.99609,-0.464844 -0.5545,-0.132549 -1.71534,0.0092 -2.36719,0.660156 -0.65185,0.650927 -0.70717,1.250625 -0.74023,1.601563 -0.0331,0.350938 -0.004,0.573424 0.0234,0.775391 0.0557,0.403934 0.14359,0.721567 0.25586,1.095703 v 0.002 c 0.0281,0.09319 0.41236,2.062024 0.58203,3.5 v 0.002 c 0.82963,7.017142 -2.29217,15.061581 -7.71875,19.806641 l -5.54296,4.84375 6.55468,0.86914 c 2.75463,0.3624 9.43108,1.53517 10.625,1.82812 0.57367,0.14072 1.07464,0.37538 1.62891,0.58203 -2.61883,0.90813 -8.84457,2.03244 -16.95313,2.88867 -8.35237,0.88198 -18.70813,1.56993 -29.589839,1.90625 -6.486067,0.20099 -35.091866,0.27472 -40.933594,0.10743 -12.404346,-0.3548 -24.047154,-1.1505 -33.09375,-2.17383 -4.523298,-0.51167 -8.400548,-1.08197 -11.3652345,-1.67188 -2.0704558,-0.41197 -2.9398412,-0.77709 -3.9394531,-1.13281 0.2326106,-0.0771 0.2954069,-0.13541 0.5625,-0.21289 2.2898285,-0.66425 5.8038116,-1.33514 10.3164066,-1.92383 l 7.357421,-0.95898 -6.529296,-4.97266 C 6.9060447,96.973682 2.0392891,84.177974 3.9238281,71.537109 5.4906641,61.020751 10.194186,50.902342 18.734375,40.001953 V 40 l 3.494141,-4.460938 -2.289063,-3.439453 h -0.002 C 19.367152,31.244551 17.95184,28.719482 17.048781,26.886719 13.509882,19.708229 11.642531,13.50384 11.642531,10.625 c 0,-0.6804693 0.06169,-1.0706912 0.103516,-1.2441406 -0.02017,0.040671 0.919709,-0.265391 3.144531,-0.2441406 4.276829,0.040005 9.879558,0.9608452 15.894531,2.6796872 1.479613,0.423087 3.576429,1.103102 5.414063,1.740235 1.837634,0.637132 3.625598,1.351262 3.771484,1.425781 h 0.002 c 0.458745,0.233771 1.985896,0.551517 2.90625,0.261719 0.919886,-0.289652 1.657074,-0.708456 3.146485,-1.478516 8.050611,-4.1604477 16.021082,-6.2478869 25.064453,-6.5644531 10.323903,-0.360942 20.173882,1.8576324 29.628906,6.6835941 0.94142,0.48041 1.70466,0.838318 2.36914,1.091797 0.33224,0.126739 0.62807,0.231651 1.02149,0.308593 0.1967,0.03847 0.41679,0.07727 0.76171,0.0625 0.34493,-0.01477 0.9068,-0.05083 1.55664,-0.591797 l -0.004,0.0039 c -0.36036,0.298559 -0.34343,0.23633 -0.37305,0.251953 0.0353,-0.01661 0.11203,-0.05187 0.2207,-0.09961 0.22519,-0.09892 0.57235,-0.245226 1.00782,-0.427734 0.87093,-0.365016 2.10844,-0.874045 3.58593,-1.476562 2.955,-1.205036 6.87257,-2.785289 10.80469,-4.3593755 3.93212,-1.5740866 7.88011,-3.1435267 10.89453,-4.328125 1.50722,-0.5922992 2.78112,-1.0891116 3.69727,-1.4394531 0.007,-0.00253 0.009,-0.00335 0.0156,-0.00586 z"
       id="path4" /></g><path
     d="m 110.40651,60.08663 c 6.812,-2.287 10.748,-9.313 9.227,-16.472 -0.757,-3.56 -3.985,-7.765 -7.134,-9.29 -5.028,-2.437 -11.513,-1.801 -15.190001,1.488 l -1.059,0.947 1.705,-0.678 c 1.449,-0.576 2.006,-0.66 3.714001,-0.561 4.337,0.25 7.37,3.276 8.216,8.194 1.239,7.206 -4.81,13.8 -11.006001,11.998 -3.335,-0.97 -5.39,-3.1 -6.32,-6.55 -0.206,-0.766 -0.383,-1.15 -0.392,-0.854 -0.01,0.297 0.164,1.239 0.387,2.093 1.305,5.009 5.112,8.802 10.106001,10.067 2.083,0.528 5.545,0.357 7.746,-0.382 m -31.673001,-1.202 c 2.467,-0.642 4.685,-2.5 4.685,-3.921 0,-0.766 -0.522,-0.753 -2.64,0.064 -3.243,1.25 -5.743,1.033 -8.785,-0.762 -0.863,-0.509 -0.966,-0.518 -1.298,-0.119 -0.309,0.373 -0.266,0.602 0.306,1.627 0.807,1.446 2.422,2.667 4.135,3.128 1.663,0.447 1.82,0.446 3.597,-0.017 m -27.789,-0.788 c 2.722966,-0.59186 5.197713,-2.00765 7.088,-4.055 1.76,-1.921 2.039,-2.552 0.664,-1.504 -2.01,1.533 -5.374,2.158 -7.583,1.409 -4.988,-1.693 -7.8,-7.925 -6.075,-13.467 0.903,-2.901 3.075,-5.356 5.507,-6.224 1.169,-0.417 4.24,-0.487 5.208,-0.119 1.15,0.437 0.752,-0.102 -0.746,-1.01 -4.195,-2.542 -9.08,-2.825 -13.392,-0.774 -2.147,1.02 -4.899,3.713 -5.886,5.76 -3.11,6.446 -1.307,13.754 4.378,17.746 3.318,2.33 6.905,3.071 10.836,2.238 m 45.807,-11.32 c 0.577,-0.916 -0.724,-1.949 -1.57,-1.246 -0.524,0.435 -0.484,1.228 0.078,1.56 0.614,0.362 1.135,0.253 1.492,-0.314 m -36.776,-1.322 c 0.397,-0.634 -0.087,-1.365 -0.973,-1.472 -0.88,-0.105 -1.41,0.74 -0.974,1.554 0.354,0.661 1.513,0.612 1.947,-0.082 m 40.502001,-0.194 c 1.113,-0.688 1.85,-2.309 1.617,-3.552 -0.24,-1.279 -1.307,-2.466 -2.552001,-2.84 -2.023,-0.605 -4.217,1.123 -4.217,3.323 0,2.838 2.814,4.514 5.152001,3.069 m -42.586001,-1.595 c 2.816,-1.74 1.352,-6.612 -1.989,-6.612 -1.903,0 -3.175,1.4 -3.174,3.493 0.002,2.788 2.883,4.528 5.163,3.12"
     style="fill:#ffffff;fill-opacity:1"
     id="path1-4"
     inkscape:label="eyes" /></svg>
