<?xml version="1.0" encoding="UTF-8" standalone="no"?>
<svg
   xml:space="preserve"
   width="577.41571"
   height="462.28131"
   viewBox="0 0 152.77436 122.31152"
   version="1.1"
   id="svg2"
   sodipodi:docname="kage-icon.svg"
   inkscape:version="1.4.3 (0d15f75, 2025-12-25)"
   xmlns:inkscape="http://www.inkscape.org/namespaces/inkscape"
   xmlns:sodipodi="http://sodipodi.sourceforge.net/DTD/sodipodi-0.dtd"
   xmlns="http://www.w3.org/2000/svg"
   xmlns:svg="http://www.w3.org/2000/svg"><defs
     id="defs2" /><sodipodi:namedview
     id="namedview2"
     pagecolor="#ffffff"
     bordercolor="#000000"
     borderopacity="0.25"
     inkscape:showpageshadow="2"
     inkscape:pageopacity="0.0"
     inkscape:pagecheckerboard="0"
     inkscape:deskcolor="#d1d1d1"
     inkscape:zoom="0.47572719"
     inkscape:cx="332.12312"
     inkscape:cy="-173.41872"
     inkscape:window-width="2639"
     inkscape:window-height="1211"
     inkscape:window-x="2008"
     inkscape:window-y="67"
     inkscape:window-maximized="0"
     inkscape:current-layer="svg2" /><path
     d="m 23.809151,28.104446 h 98.897999 v 42.16 H 23.809151 Z"
     style="fill:#ffffff;stroke-width:0.740304"
     id="path1" /><path
     d="m 54.479151,121.20545 c -24.928,-0.713 -46.7799998,-3.185 -51.2499998,-5.797 -1.34,-0.784 -1.5,-1.013 -1.29,-1.847 0.396,-1.577 5.609,-3.09 14.7769998,-4.286 l 1.527,-0.199 -1.852,-1.41 C 6.5031512,100.13645 1.3861512,86.496446 3.3941512,73.027446 c 1.638,-10.994 6.575,-21.535 15.2989998,-32.67 l 2.416,-3.085 -1.32,-1.984 c -0.727,-1.09 -2.098,-3.559 -3.047,-5.485 -3.62,-7.343 -5.655,-13.577 -5.655,-17.33 0,-3.3550001 0.873,-3.9540001 5.689,-3.9080001 4.597,0.043 10.363,1.01 16.536,2.7740001 3.109,0.889 8.464,2.745 9.621,3.336 0.73,0.372 0.875,0.326 3.846,-1.21 8.34,-4.3100001 16.719,-6.5050001 26.089,-6.8330001 10.726,-0.375 21.017,1.945 30.812999,6.9450001 1.795,0.916 2.871,1.327 3.062,1.168 0.414,-0.343 31.249,-12.6870001 32.137,-12.8650001 0.402,-0.08 0.983,-0.01 1.292,0.155 1.145,0.612 1.18,0.423 -4.497,23.9120001 l -3.186,13.18 c 27.54596,29.47108 21.80665,59.38376 6.285,42.069 -0.764,-0.852 -0.935,-0.681 -0.562,0.562 0.186,0.618 0.487,2.38 0.668,3.914 0.934,7.9 -2.452,16.600004 -8.529,21.913004 l -1.519,1.327 1.255,0.166 c 2.896,0.381 9.268,1.48 10.886,1.877 2.45,0.601 4.978,1.837 5.202,2.543 0.247,0.779 -0.946,1.825 -2.925,2.566 -6.08,2.274 -25.821,4.359 -47.692999,5.035 -6.68,0.207 -35.002,0.28 -41.078,0.106"
     style="display:inline;fill:#38b2ac;fill-opacity:1;stroke:none;stroke-width:3.91054;stroke-dasharray:none;stroke-opacity:1"
     id="path2"
     sodipodi:nodetypes="cccccccccccscccccccccccccccccccccc" /><path
     d="m 54.843942,118.10219 c -24.03555,-0.68035 -45.10522,-3.03917 -49.4151892,-5.53155 -1.2920259,-0.7481 -1.4462978,-0.9666 -1.2438159,-1.76243 0.3818227,-1.50478 5.4081908,-2.9485 14.2479631,-4.08971 l 1.472334,-0.18993 -1.785697,-1.34544 C 8.5855406,97.997947 3.6517347,84.982532 5.5878457,72.130284 7.1672035,61.639701 11.927454,51.581379 20.339123,40.956254 l 2.329503,-2.943737 -1.272742,-1.893152 C 20.694912,35.079278 19.372995,32.723333 18.45797,30.885526 14.967571,23.878762 13.005427,17.930223 13.005427,14.34907 c 0,-3.201372 0.841745,-3.772943 5.485326,-3.729049 4.432422,0.04103 9.991993,0.963753 15.943991,2.646978 2.997693,0.848291 8.160978,2.619306 9.276557,3.183242 0.703866,0.354967 0.843673,0.311074 3.708309,-1.154591 C 55.461028,11.183005 63.54005,9.0885146 72.574593,8.7755336 82.91659,8.4177049 92.83916,10.631472 102.28445,15.40252 c 1.73073,0.874054 2.76822,1.266236 2.95236,1.114516 0.3992,-0.327295 30.13027,-12.1060573 30.98647,-12.2759065 0.38762,-0.076335 0.94781,-0.00954 1.24575,0.1479025 1.10401,0.5839761 1.13774,0.4036306 -4.33601,22.81706 l -3.07193,12.576483 c 26.5598,28.121589 21.02596,56.664563 6.05998,40.142647 -0.73664,-0.812988 -0.90152,-0.649819 -0.54186,0.536264 0.17933,0.589702 0.46955,2.271019 0.64407,3.734777 0.90058,7.538251 -2.3642,15.839867 -8.22365,20.909587 l -1.46462,1.26624 1.21006,0.15839 c 2.79234,0.36356 8.9362,1.41223 10.49629,1.79107 2.36228,0.5735 4.79976,1.75287 5.01577,2.42657 0.23814,0.7433 -0.91215,1.7414 -2.82031,2.44848 -5.8623,2.16987 -24.89657,4.1594 -45.985521,4.80445 -6.440847,0.19752 -33.748886,0.26718 -39.607357,0.10121"
     style="display:inline;fill:#38b2ac;fill-opacity:1;stroke:#000000;stroke-width:8.22085;stroke-dasharray:none;stroke-opacity:1"
     id="path2-7"
     sodipodi:nodetypes="cccccccccccscccccccccccccccccccccc" /><path
     d="m 121.00036,82.234991 c 9.49635,-3.188222 14.98338,-12.982908 12.86301,-22.963003 -1.0553,-4.962864 -5.55534,-10.824897 -9.94524,-12.950843 -7.00935,-3.397332 -16.04984,-2.510708 -21.17582,2.074364 l -1.47631,1.320178 2.37688,-0.945175 c 2.01999,-0.802979 2.79649,-0.920081 5.17755,-0.782069 6.04605,0.348516 10.27424,4.56695 11.45362,11.422951 1.72724,10.045617 -6.70544,19.238067 -15.34305,16.725965 -4.6492,-1.35224 -7.514009,-4.321594 -8.810484,-9.131111 -0.287172,-1.067852 -0.533928,-1.603172 -0.546469,-1.190529 -0.01397,0.414036 0.228628,1.727243 0.539495,2.917773 1.81926,6.98286 7.126458,12.27054 14.088408,14.03403 2.90383,0.736065 7.73007,0.497681 10.79841,-0.532531 M 38.106593,79.460805 c 3.795986,-0.82509 7.245939,-2.79879 9.881117,-5.652925 2.453551,-2.677994 2.842495,-3.557648 0.925658,-2.09667 -2.802066,2.137098 -7.491693,3.008387 -10.571178,1.964234 -6.953586,-2.360148 -10.87369,-11.047947 -8.468932,-18.773843 1.258839,-4.044176 4.286743,-7.466601 7.677104,-8.676647 1.62966,-0.581324 5.910827,-0.678909 7.26028,-0.165894 1.603171,0.609206 1.048335,-0.142194 -1.039972,-1.408003 -5.848093,-3.543707 -12.65809,-3.938227 -18.669288,-1.079004 -2.993054,1.421944 -6.829514,5.176154 -8.205454,8.029801 -4.335535,8.986129 -1.822041,19.17394 6.103207,24.739039 4.6255,3.248166 9.626004,4.281167 15.106064,3.119912 M 101.96304,63.680014 c 0.80437,-1.276961 -1.00931,-2.717028 -2.188681,-1.737002 -0.730491,0.606418 -0.674731,1.711909 0.108737,2.174738 0.855944,0.504651 1.582254,0.352698 2.079944,-0.437736 M 50.69498,61.837063 c 0.553443,-0.883835 -0.121283,-1.902895 -1.356422,-2.052061 -1.226775,-0.146376 -1.965629,1.031607 -1.357818,2.166374 0.493499,0.921475 2.109217,0.853167 2.71424,-0.114313 m 56.46233,-0.270448 c 1.55159,-0.959115 2.57902,-3.218891 2.2542,-4.951711 -0.33457,-1.783007 -1.82204,-3.437759 -3.55765,-3.959138 -2.82018,-0.843409 -5.878758,1.565532 -5.878758,4.63247 0,3.95635 3.922888,6.2928 7.182208,4.278379 m -59.367557,-2.22353 c 3.925681,-2.42567 1.884773,-9.217544 -2.77279,-9.217544 -2.652902,0 -4.42615,1.951688 -4.424755,4.869462 0.0028,3.886647 4.019082,6.312316 7.197545,4.349476"
     style="display:none;fill:#f9f9f9;fill-opacity:1;stroke-width:1.39406"
     id="path1-8"
     inkscape:label="eyes"
     sodipodi:nodetypes="cccccccccccccccccccccccccccccccccccccsccscc" /><path
     d="m 84.094971,75.041469 c 7.419906,-1.93092 14.090903,-7.519168 14.090903,-11.793061 0,-2.30387 -1.569997,-2.264772 -7.940222,0.192491 -9.753871,3.759581 -17.27302,3.106919 -26.422347,-2.291845 -2.595619,-1.530902 -2.905408,-1.557967 -3.903951,-0.357911 -0.929368,1.121861 -0.80004,1.810616 0.920345,4.893473 2.427185,4.349086 7.284567,8.021448 12.436706,9.40798 5.001735,1.344425 5.473943,1.341413 10.818566,-0.0511"
     style="display:none;fill:#f9f9f9;fill-opacity:1;stroke-width:3.00766"
     id="path1-4"
     inkscape:label="mouth" /><ellipse
     style="fill:#f9f9f9;fill-opacity:1;stroke:none;stroke-width:8.7167;stroke-dasharray:none;stroke-opacity:1"
     id="path3"
     cx="58.556854"
     cy="42.829369"
     rx="14.286101"
     ry="14.286103" /><ellipse
     style="fill:#f9f9f9;fill-opacity:1;stroke:none;stroke-width:8.7167;stroke-dasharray:none;stroke-opacity:1"
     id="path3-2"
     cx="97.481506"
     cy="42.609406"
     rx="14.286101"
     ry="14.286103" /></svg>
