<?xml version="1.0" encoding="UTF-8" standalone="no"?>
<svg
   width="36.777084mm"
   height="34.564167mm"
   viewBox="0 0 36.777084 34.564167"
   version="1.1"
   id="svg1"
   sodipodi:docname="kage-card.svg"
   inkscape:version="1.4.3 (0d15f75, 2025-12-25)"
   xmlns:inkscape="http://www.inkscape.org/namespaces/inkscape"
   xmlns:sodipodi="http://sodipodi.sourceforge.net/DTD/sodipodi-0.dtd"
   xmlns="http://www.w3.org/2000/svg"
   xmlns:svg="http://www.w3.org/2000/svg">
  <defs
     id="defs1" />
  <sodipodi:namedview
     id="namedview1"
     pagecolor="#ffffff"
     bordercolor="#000000"
     borderopacity="0.25"
     inkscape:showpageshadow="2"
     inkscape:pageopacity="0.0"
     inkscape:pagecheckerboard="0"
     inkscape:deskcolor="#d1d1d1"
     inkscape:document-units="mm"
     inkscape:zoom="9.3006364"
     inkscape:cx="69.511372"
     inkscape:cy="65.318111"
     inkscape:window-width="5120"
     inkscape:window-height="1417"
     inkscape:window-x="-8"
     inkscape:window-y="-8"
     inkscape:window-maximized="1"
     inkscape:current-layer="svg1" />
  <g
     transform="translate(-86.611455,-131.21792)"
     id="g1">
    <path
       style="display:inline;fill:#000000"
       d="m 98.826216,158.71758 c -5.337983,-0.4374 -7.439354,-1.26076 -4.989917,-1.95515 l 0.963208,-0.27306 -0.864459,-0.99856 c -1.79427,-2.07259 -1.969412,-5.70002 -0.422373,-8.74793 0.490247,-0.96586 1.276922,-2.20656 1.748167,-2.7571 0.585597,-0.68414 0.959959,-1.49786 1.182679,-2.5707 0.453983,-2.18682 1.034007,-3.31451 1.704095,-3.31312 0.30047,6.3e-4 1.156023,0.46342 1.901234,1.02843 l 1.35492,1.0273 1.4232,-0.38494 c 1.56222,-0.42253 4.06189,-0.33782 6.08193,0.2061 1.12155,0.30199 1.28446,0.28175 2.03517,-0.2528 0.44882,-0.31959 1.25653,-0.76512 1.79491,-0.99007 1.45938,-0.60977 1.76607,-0.17355 1.86919,2.65862 0.0761,2.08874 0.15288,2.36221 1.01621,3.61728 2.46885,3.58908 2.56218,8.31686 0.2106,10.66844 -0.62145,0.62145 -0.63373,0.67991 -0.17365,0.82657 1.92927,0.61499 2.14427,0.98267 0.82582,1.41222 -2.48781,0.81053 -12.17101,1.24832 -17.660934,0.79847 z m 12.034234,-3.61728 c 0.94431,-2.36853 1.72194,-4.93326 1.54499,-5.09558 -0.11977,-0.10987 -1.08097,-0.25745 -2.136,-0.32796 -1.69899,-0.11355 -1.91822,-0.0753 -1.91822,0.33459 0,0.2989 -0.5212,0.71779 -1.47176,1.18285 -0.80946,0.39604 -1.40849,0.78333 -1.33117,0.86064 0.0773,0.0773 0.41218,-0.0344 0.74415,-0.24834 0.33196,-0.2139 1.00815,-0.52764 1.50263,-0.69718 1.08923,-0.37348 1.61733,-0.0515 1.6086,0.98067 -0.007,0.85257 -0.59155,1.596 -1.97377,2.51116 -0.57948,0.38368 -0.92296,0.69759 -0.76328,0.69759 0.15967,0 0.6077,-0.24965 0.99562,-0.55479 0.54865,-0.43157 0.78713,-0.48688 1.07374,-0.24901 0.29693,0.24643 0.50718,0.069 1.08338,-0.9142 l 0.71495,-1.21996 -0.85353,-1.0621 c -1.07435,-1.33689 -0.89239,-1.63529 0.22272,-0.36524 0.9807,1.11695 1.01247,1.45321 0.26321,2.78634 -0.58424,1.03951 -0.52655,1.84355 0.13227,1.84355 0.20728,0 0.45994,-0.20836 0.56147,-0.46303 z m 1.37086,-6.28385 c 0.0481,-0.14552 -0.35874,-0.29192 -0.90412,-0.32533 -0.9348,-0.0573 -0.96158,-0.0379 -0.46755,0.33838 0.5603,0.42673 1.22836,0.42038 1.37167,-0.013 z m -4.40926,-0.52917 c 0.27502,-0.33138 0.23754,-0.39687 -0.22715,-0.39687 -0.68293,0 -1.05522,-1.168 -0.60306,-1.89202 0.25773,-0.4127 0.22535,-0.48923 -0.20698,-0.48923 -0.77666,0 -1.34406,0.72845 -1.34406,1.72554 0,1.30149 1.59101,2.00476 2.38125,1.05258 z m 7.26435,-0.64254 c 0.0835,-0.13512 -0.11783,-0.28394 -0.44741,-0.33073 -0.6905,-0.098 -0.9561,-1.08316 -0.45485,-1.68712 0.26236,-0.31613 0.20207,-0.38231 -0.34826,-0.38231 -0.94244,0 -1.40128,1.5963 -0.66925,2.32833 0.37488,0.37487 1.70179,0.42452 1.91977,0.0718 z"
       id="path1-99" />
  </g>
  <path
     style="fill:#ffffff;stroke-width:3.35042"
     d="m 88.915256,91.881773 c -0.704114,-0.213927 -1.088679,-0.681124 -1.28622,-1.56259 -0.237741,-1.060846 0.226556,-2.848571 1.243354,-4.787402 1.210455,-2.308095 1.785898,-3.583638 2.001704,-4.437036 0.492528,-1.947682 -0.02797,-3.331255 -2.254324,-5.992357 -1.084575,-1.296365 -2.626122,-2.874394 -3.23852,-3.315162 -0.4923,-0.354328 -0.978424,-0.449898 -0.978424,-0.192354 0,0.620551 1.225833,2.453751 3.74653,5.602836 1.089291,1.360843 2.026007,2.531831 2.081589,2.602196 0.06912,0.08751 -0.461064,1.084683 -1.677779,3.155559 -3.161774,5.381411 -3.63399,5.847427 -4.983095,4.917652 -1.2345,-0.850791 -1.765986,-0.688296 -4.65074,1.421908 -1.168418,0.854699 -2.572653,1.612735 -2.987536,1.612735 -0.276976,0 -0.273007,-0.01 0.191952,-0.483761 0.440248,-0.44858 0.977858,-0.848977 3.958962,-2.948527 3.350641,-2.359808 5.270169,-4.608255 5.889072,-6.898184 0.283267,-1.048083 0.261575,-2.839707 -0.0465,-3.840435 -0.577577,-1.87617 -2.151007,-2.54974 -4.586764,-1.963548 -1.871965,0.450508 -4.709914,1.644201 -6.677267,2.808577 -0.617666,0.365566 -1.400081,0.778605 -1.738701,0.917866 -0.617271,0.253859 -1.314549,0.340776 -1.314549,0.163861 0,-0.130512 0.976967,-0.864915 1.881135,-1.414081 0.413699,-0.25127 1.79704,-0.999773 3.074092,-1.663342 1.277052,-0.663569 2.730401,-1.4755 3.229664,-1.804291 1.561429,-1.028281 2.450706,-2.079623 2.457181,-2.904986 0.0036,-0.465016 0.282339,-0.898647 0.671092,-1.044189 0.815878,-0.305451 4.44205,-0.23386 8.631708,0.170413 3.046064,0.293925 5.455392,0.722491 5.835583,1.038022 0.594913,0.493733 -1.457176,7.69293 -4.544215,15.942142 -1.291582,3.451379 -1.457022,3.806256 -2.005419,4.301698 -0.693274,0.626333 -1.25386,0.800252 -1.923568,0.59678 z"
     id="path1"
     transform="scale(0.26458333)" />
  <path
     style="fill:#ffffff;stroke-width:3.35042"
     d="m 75.134396,65.868996 c -1.717137,-0.565413 -3.098459,-1.951013 -3.649895,-3.661196 -0.306678,-0.951108 -0.304035,-2.61554 0.006,-3.803246 0.454462,-1.740768 1.554279,-3.247414 2.818154,-3.860608 1.052613,-0.510696 2.755737,-0.634611 3.160405,-0.229943 0.180066,0.180065 0.154029,0.260093 -0.519308,1.59615 -0.268225,0.532221 -0.539604,1.224072 -0.603066,1.537445 -0.420697,2.077419 0.366565,4.425017 1.776044,5.296123 0.270271,0.167037 0.651463,0.253382 1.402814,0.317756 0.567434,0.04862 1.081406,0.138102 1.14216,0.198856 0.337338,0.337338 -1.042877,1.920292 -2.124732,2.436833 -0.552683,0.263883 -0.799173,0.312722 -1.720312,0.340864 -0.830125,0.02536 -1.214942,-0.01317 -1.688304,-0.169034 z"
     id="path2"
     transform="scale(0.26458333)" />
  <path
     style="fill:#ffffff;stroke-width:3.35042"
     d="m 93.406765,67.430383 c -1.101737,-0.375454 -3.084022,-1.834644 -2.830782,-2.083782 0.114194,-0.112344 2.610703,-0.05347 3.647468,0.08601 1.106239,0.148832 2.136245,0.473168 2.388755,0.752188 0.198562,0.219409 0.198379,0.231612 -0.0092,0.612555 -0.47246,0.86714 -1.760634,1.122266 -3.196264,0.633027 z"
     id="path3"
     transform="scale(0.26458333)" />
  <path
     style="fill:#ffffff;stroke-width:3.35042"
     d="m 103.43378,62.875305 c -2.52299,-0.288032 -3.784954,-1.349462 -4.257336,-3.580829 -0.478162,-2.25867 0.567845,-4.880656 2.338296,-5.861309 0.53695,-0.297419 0.65138,-0.318522 1.72709,-0.318522 0.94438,0 1.18524,0.0332 1.33618,0.184187 0.21931,0.219362 0.17194,0.33543 -0.55184,1.352321 -0.643,0.9034 -0.84449,1.625374 -0.78732,2.821103 0.0376,0.786153 0.10128,1.052745 0.39321,1.645726 0.42656,0.866468 1.03337,1.413042 1.81131,1.631509 0.31398,0.08818 0.82831,0.232631 1.14294,0.321011 0.31464,0.08838 0.6855,0.281437 0.82414,0.429015 0.21887,0.232971 0.2355,0.304706 0.12625,0.54448 -0.29722,0.65233 -2.23375,1.044698 -4.10292,0.831308 z"
     id="path4"
     transform="scale(0.26458333)" />
</svg>
