<?xml version="1.0" encoding="UTF-8" standalone="no"?>
<svg
   width="36.777084mm"
   height="34.564167mm"
   viewBox="0 0 36.777084 34.564167"
   version="1.1"
   id="svg1"
   sodipodi:docname="kage-love-cup.svg"
   inkscape:version="1.4.3 (0d15f75, 2025-12-25)"
   xmlns:inkscape="http://www.inkscape.org/namespaces/inkscape"
   xmlns:sodipodi="http://sodipodi.sourceforge.net/DTD/sodipodi-0.dtd"
   xmlns="http://www.w3.org/2000/svg"
   xmlns:svg="http://www.w3.org/2000/svg">
  <defs
     id="defs1" />
  <sodipodi:namedview
     id="namedview1"
     pagecolor="#ffffff"
     bordercolor="#000000"
     borderopacity="0.25"
     inkscape:showpageshadow="2"
     inkscape:pageopacity="0.0"
     inkscape:pagecheckerboard="0"
     inkscape:deskcolor="#d1d1d1"
     inkscape:document-units="mm"
     inkscape:zoom="9.3006364"
     inkscape:cx="69.511372"
     inkscape:cy="65.318111"
     inkscape:window-width="5120"
     inkscape:window-height="1417"
     inkscape:window-x="-8"
     inkscape:window-y="-8"
     inkscape:window-maximized="1"
     inkscape:current-layer="svg1" />
  <g
     transform="translate(-86.611455,-131.21792)"
     id="g1">
    <path
       style="display:inline;fill:#000000"
       d="m 100.06421,158.41265 c -4.084483,-0.26705 -6.116233,-0.70989 -6.018083,-1.31169 0.037,-0.22706 -0.23493,-0.5746 -0.60436,-0.77231 -1.71264,-0.91658 -2.34473,-3.46437 -1.47362,-5.93975 0.73858,-2.09874 0.71155,-2.34896 -0.3706,-3.43112 -0.50933,-0.50932 -0.92605,-1.09015 -0.92605,-1.29073 0,-0.43655 0.8365,-1.24045 1.29075,-1.24045 0.82014,0 1.84667,0.84342 2.24833,1.84727 0.56431,1.41033 0.54202,2.34422 -0.0995,4.16944 -0.6748,1.91994 -0.66947,2.99398 0.0192,3.86949 0.94969,1.20733 1.17107,0.90239 1.17538,-1.61904 0.004,-2.55655 0.501,-4.44804 1.68435,-6.41507 0.6288,-1.04523 0.6924,-1.3503 0.52084,-2.49814 -0.10748,-0.71913 -0.10442,-1.73116 0.007,-2.24895 0.17747,-0.82618 0.29294,-0.93483 0.94299,-0.88732 0.40741,0.0298 1.21157,0.28709 1.787013,0.57179 1.03917,0.51414 1.05426,0.51411 2.22574,-0.004 0.64872,-0.28696 2.00119,-0.59063 3.00549,-0.67483 1.68273,-0.14107 1.90427,-0.23323 2.82342,-1.17452 1.63193,-1.67125 2.25144,-1.36669 3.13696,1.54215 0.4226,1.38822 2.69991,4.04304 3.47206,4.04765 0.66606,0.004 1.95391,0.95618 1.95391,1.44468 0,0.18953 0.32743,0.41162 0.72761,0.49353 0.40018,0.0819 0.96102,0.32188 1.2463,0.53326 0.44877,0.3325 0.47593,0.47818 0.20148,1.08053 -0.25307,0.55542 -1.38164,6.97528 -1.38164,7.85944 0,0.12014 0.36445,0.31287 0.80989,0.4283 0.44544,0.11542 0.83081,0.32719 0.85638,0.47058 0.10067,0.56464 -2.28693,0.96668 -7.09022,1.1939 -5.77212,0.27306 -7.41226,0.26713 -12.17084,-0.044 z m 16.76123,-1.2199 c 0.13386,-0.25466 0.44074,-1.89177 0.68195,-3.63802 0.24121,-1.74625 0.49581,-3.47266 0.56577,-3.83646 0.1264,-0.65735 0.11441,-0.66169 -1.92942,-0.69829 -1.13114,-0.0203 -2.57464,-0.17691 -3.2078,-0.34812 -0.63315,-0.17121 -1.19854,-0.26393 -1.25643,-0.20604 -0.23543,0.23543 -0.57951,8.27935 -0.36366,8.50181 0.32346,0.33336 1.96987,0.62181 3.75416,0.65771 1.19125,0.024 1.56368,-0.0678 1.75543,-0.43259 z m -3.23002,-3.20205 c -0.80243,-0.83756 -0.95953,-2.26373 -0.27816,-2.52519 0.23141,-0.0888 0.55868,-0.0762 0.72727,0.028 0.16859,0.1042 0.72339,0.19388 1.2329,0.1993 0.74903,0.008 0.94221,0.1212 1.00913,0.59152 0.11509,0.80891 -0.36028,1.59198 -1.24378,2.04885 -0.70854,0.36641 -0.78572,0.34815 -1.44736,-0.34246 z m 1.53714,-0.18726 c 0.79117,-0.5184 1.03758,-1.13398 0.64382,-1.60843 -0.23018,-0.27735 -0.39232,-0.29351 -0.66602,-0.0664 -0.27128,0.22515 -0.4602,0.21856 -0.75528,-0.0263 -0.46654,-0.38719 -1.19399,-0.1739 -1.19399,0.3501 0,0.35794 0.97172,1.76378 1.21914,1.76378 0.0673,0 0.40586,-0.18574 0.75233,-0.41275 z m 2.59582,-5.31385 c 0.77892,-0.12874 0.93319,-0.2395 0.70932,-0.50925 -0.4083,-0.49198 -1.82986,-0.75632 -2.18068,-0.4055 -0.46514,0.46514 -1.73128,0.33804 -2.53233,-0.2542 -0.52806,-0.39041 -0.93952,-0.49493 -1.44699,-0.36756 -1.67244,0.41976 -0.84952,0.99417 2.01277,1.40493 2.21245,0.31751 2.29407,0.32063 3.43791,0.13158 z m -9.0599,-1.82042 c 0.43689,-0.52642 0.28998,-0.63965 -0.60649,-0.46745 -0.58755,0.11287 -0.67322,0.21349 -0.43062,0.50581 0.38919,0.46895 0.62326,0.46029 1.03711,-0.0384 z m -4.74911,-0.54531 c 0.21918,-0.2641 0.62572,-0.37865 1.09785,-0.30936 0.46114,0.0677 0.71309,-4e-5 0.65446,-0.17591 -0.18352,-0.55057 -1.81286,-0.32495 -2.23403,0.30937 -0.44755,0.67404 -0.0517,0.8186 0.48172,0.1759 z m 7.22765,-1.96184 c 0.41421,0 0.65262,-0.11287 0.55886,-0.26458 -0.22735,-0.36786 -1.54683,-0.33171 -1.93146,0.0529 -0.17462,0.17463 -0.3175,0.49074 -0.3175,0.70247 0,0.3176 0.0847,0.30835 0.48386,-0.0529 0.26612,-0.24083 0.80892,-0.43788 1.20624,-0.43788 z"
       id="path1-72" />
  </g>
  <path
     style="fill:#ffffff;stroke-width:3.35042"
     d="m 104.01353,86.13137 c -1.65739,-1.732417 -3.59029,-4.953943 -3.59029,-5.983882 0,-1.119839 1.36406,-2.059048 2.72773,-1.87815 0.60516,0.08028 1.08728,0.305758 1.95812,0.915783 1.03041,0.721803 1.52443,0.692755 2.73676,-0.160922 0.89612,-0.631013 1.31427,-0.649788 1.93722,-0.08698 0.23999,0.216813 0.56672,0.615979 0.72607,0.887036 0.2452,0.417087 0.28968,0.616769 0.28938,1.299228 -3.1e-4,0.714949 -0.0424,0.884045 -0.3712,1.491111 -0.43489,0.802965 -1.2888,1.704048 -2.29578,2.422614 -1.0955,0.781731 -2.88761,1.78481 -3.18876,1.78481 -0.18989,0 -0.46197,-0.20222 -0.92925,-0.690646 z"
     id="path7"
     transform="scale(0.26458333)" />
  <path
     style="fill:#ffffff;stroke-width:3.35042"
     d="m 104.18642,99.614523 c -3.21494,-0.251841 -5.998174,-0.661618 -8.000702,-1.177948 -1.316984,-0.339571 -2.502517,-0.831508 -2.763879,-1.146873 -0.122691,-0.148041 -0.147778,-1.213889 -0.143646,-6.103043 0.0028,-3.258022 0.06417,-7.230039 0.136492,-8.826704 0.392901,-8.6747 0.829126,-14.634643 1.213894,-16.584886 l 0.111368,-0.564478 h 0.518097 c 0.630899,0 1.891408,0.230561 3.589879,0.656628 3.603457,0.90394 7.332947,1.301085 14.047577,1.495898 3.96877,0.115146 4.95807,0.20608 5.59046,0.513861 0.55371,0.269489 0.61766,0.576177 0.39197,1.879849 -0.3123,1.803976 -1.08724,7.009347 -1.84219,12.374226 -1.36871,9.726361 -2.36099,15.041287 -3.01733,16.161646 -0.33011,0.563501 -0.74517,0.861991 -1.58973,1.143278 -0.60109,0.200199 -0.95949,0.22267 -3.88772,0.243756 -1.77407,0.01277 -3.73362,-0.01657 -4.35454,-0.06521 z m 2.50133,-11.800793 c 2.33475,-1.0941 4.00865,-2.596492 4.85906,-4.361188 0.58136,-1.206401 0.74878,-2.024912 0.68064,-3.32764 -0.0807,-1.542622 -0.45282,-2.180496 -1.48234,-2.540889 -0.20698,-0.07245 -1.2186,-0.176549 -2.24805,-0.231322 -2.36039,-0.125591 -3.69091,-0.338717 -4.72961,-0.757602 -0.73881,-0.297944 -0.90621,-0.325635 -1.73892,-0.287647 -0.76456,0.03488 -1.00719,0.0923 -1.42526,0.337302 -2.019904,1.183744 -1.678495,5.587575 0.67329,8.68471 0.7073,0.931466 2.32887,2.468797 2.92367,2.771781 0.65268,0.332468 1.3321,0.253941 2.48752,-0.287505 z"
     id="path8"
     transform="scale(0.26458333)" />
  <path
     style="fill:#ffffff;stroke-width:3.35042"
     d="m 112.25038,65.678262 c -2.1013,-0.198295 -3.20342,-0.332777 -6.07485,-0.74126 -4.12597,-0.586949 -5.87678,-0.905194 -7.998668,-1.453917 -4.892136,-1.265112 -5.639283,-2.492107 -2.214753,-3.637156 2.581505,-0.86317 4.042151,-0.633068 6.379931,1.005059 1.11336,0.780152 2.45215,1.402361 3.7576,1.746368 0.84342,0.222254 1.31164,0.277206 2.44132,0.28652 1.60027,0.01319 2.25713,-0.136066 3.10867,-0.706386 0.29051,-0.19457 0.64942,-0.435435 0.79759,-0.535257 1.05303,-0.709445 4.36303,-0.321549 6.41161,0.751371 0.96475,0.505279 1.67056,1.189332 1.67056,1.619077 0,0.557931 -0.67853,0.82096 -3.22559,1.250395 -2.35883,0.397698 -3.89837,0.524186 -5.05342,0.415186 z"
     id="path9"
     transform="scale(0.26458333)" />
  <path
     style="fill:#ffffff;stroke-width:3.35042"
     d="m 80.900167,59.666937 c -0.478281,-0.161008 -1.726771,-1.413466 -1.833708,-1.839535 -0.130077,-0.518269 0.415753,-0.814235 2.141227,-1.16104 1.931995,-0.388314 2.980101,-0.32228 2.980101,0.187755 0,0.314032 -0.458003,1.037031 -1.121428,1.770274 -0.922264,1.019321 -1.462635,1.279391 -2.166192,1.042546 z"
     id="path10"
     transform="scale(0.26458333)" />
  <path
     style="fill:#ffffff;stroke-width:3.35042"
     d="m 86.483385,51.39122 c -0.129135,-0.336521 0.03481,-1.410506 0.305126,-1.998902 0.577697,-1.25745 1.422926,-1.858337 3.088812,-2.195889 2.221933,-0.450221 5.102829,0.124767 4.93709,0.985376 -0.07192,0.373457 -0.64195,0.572996 -1.938876,0.678703 -2.136748,0.174158 -3.594702,0.704935 -4.851583,1.766247 -1.143322,0.965423 -1.412246,1.098869 -1.540569,0.764465 z"
     id="path11"
     transform="scale(0.26458333)" />
  <path
     style="fill:#ffffff;stroke-width:3.35042"
     d="m 62.952146,57.575017 c -0.148509,-0.467911 0.482592,-1.729531 1.217328,-2.433532 0.964684,-0.924329 2.862991,-1.613427 4.754271,-1.725831 1.504154,-0.0894 2.604864,0.262135 2.957792,0.944621 0.367989,0.711614 -0.19824,0.915169 -2.165058,0.778322 -2.447955,-0.170324 -3.322812,0.09334 -4.52797,1.364631 -1.103171,1.16371 -2.061429,1.62296 -2.236363,1.071789 z"
     id="path12"
     transform="scale(0.26458333)" />
</svg>
