<?xml version="1.0" encoding="UTF-8" standalone="no"?>
<svg
   width="36.777084mm"
   height="34.564167mm"
   viewBox="0 0 36.777084 34.564167"
   version="1.1"
   id="svg1"
   sodipodi:docname="kage-cat-loaf-with-star-from-back.svg"
   inkscape:version="1.4.3 (0d15f75, 2025-12-25)"
   xmlns:inkscape="http://www.inkscape.org/namespaces/inkscape"
   xmlns:sodipodi="http://sodipodi.sourceforge.net/DTD/sodipodi-0.dtd"
   xmlns="http://www.w3.org/2000/svg"
   xmlns:svg="http://www.w3.org/2000/svg">
  <defs
     id="defs1" />
  <sodipodi:namedview
     id="namedview1"
     pagecolor="#ffffff"
     bordercolor="#000000"
     borderopacity="0.25"
     inkscape:showpageshadow="2"
     inkscape:pageopacity="0.0"
     inkscape:pagecheckerboard="0"
     inkscape:deskcolor="#d1d1d1"
     inkscape:document-units="mm"
     inkscape:zoom="9.3006364"
     inkscape:cx="69.511372"
     inkscape:cy="65.318111"
     inkscape:window-width="5120"
     inkscape:window-height="1417"
     inkscape:window-x="-8"
     inkscape:window-y="-8"
     inkscape:window-maximized="1"
     inkscape:current-layer="svg1" />
  <g
     transform="translate(-86.611455,-131.21792)"
     id="g1">
    <path
       style="display:inline;fill:#000000"
       d="m 99.715627,160.59562 c -5.29712,-0.32411 -10.687736,-1.12163 -6.917291,-2.07106 l 1.161494,-0.29246 -0.648706,-1.26143 c -0.782367,-1.52134 -0.703302,-3.07133 0.264501,-5.18529 0.50958,-1.11307 0.604714,-1.67712 0.508111,-3.01265 -0.231973,-3.20699 0.275632,-3.57835 3.136353,-2.29453 l 1.539381,0.69083 1.6687,-0.57219 c 5.03551,-1.72667 11.30841,-0.41584 14.44775,3.01909 2.09072,2.28758 2.79569,5.47168 1.67218,7.55264 l -0.49774,0.92192 1.18495,0.39687 c 0.65172,0.21828 1.20312,0.51594 1.22534,0.66146 0.15623,1.02328 -11.26255,1.90462 -18.745023,1.4468 z m 8.863543,-1.28307 c 0.56468,-0.24535 0.50661,-0.26124 -0.39688,-0.10858 -1.59501,0.2695 -4.62172,0.18784 -5.87494,-0.1585 -3.1832,-0.87971 -4.448542,-4.10033 -2.575686,-6.55578 2.487706,-3.26154 8.604566,-2.18075 7.932516,1.40161 -0.10062,0.53632 -0.43205,1.06887 -0.82579,1.32685 -0.78093,0.51169 -2.58348,0.56772 -3.14957,0.0979 -0.26119,-0.21677 -0.40132,-0.23262 -0.40132,-0.0454 0,0.76824 2.27948,1.11158 3.54668,0.53421 0.87254,-0.39756 1.56689,-1.87767 1.34812,-2.87373 -0.9648,-4.3927 -8.543083,-3.63909 -9.628148,0.95744 -0.326368,1.38256 -0.128956,2.54804 0.627019,3.7018 0.434281,0.6628 2.122199,1.63706 3.444869,1.98837 1.05119,0.2792 5.11621,0.0974 5.95313,-0.2662 z m 2.11667,-16.54759 c 0,-1.15588 -0.13255,-1.59244 -0.68163,-2.24498 -0.9653,-1.14719 -0.76696,-1.69185 0.71465,-1.96254 1.04278,-0.19051 1.30061,-0.37084 1.79962,-1.25872 0.75979,-1.35186 1.43217,-1.35786 2.11526,-0.0189 0.42967,0.84221 0.71071,1.0587 1.6315,1.25677 1.62317,0.34917 1.85227,0.89985 0.84948,2.04195 -0.72095,0.82112 -0.79771,1.0635 -0.67674,2.13675 0.16917,1.50089 -0.27717,1.76689 -1.80713,1.07697 -0.99134,-0.44703 -1.10831,-0.44902 -1.97912,-0.0338 -1.66791,0.79538 -1.96589,0.64478 -1.96589,-0.99356 z m 3.93267,0.60286 1.2267,0.53229 0.0783,-1.40293 c 0.0606,-1.08488 0.22552,-1.54122 0.72761,-2.01291 0.93842,-0.88161 0.80659,-1.26426 -0.55356,-1.60675 -1.0005,-0.25193 -1.2907,-0.4751 -1.72516,-1.32672 -0.28729,-0.56312 -0.63656,-1.02385 -0.77616,-1.02385 -0.13961,0 -0.4893,0.46156 -0.7771,1.0257 -0.5392,1.05691 -0.9647,1.3526 -1.95652,1.3596 -1.25821,0.009 -1.38504,0.41681 -0.45789,1.47277 0.77353,0.88101 0.85333,1.11495 0.71775,2.10412 -0.0839,0.61209 -0.0827,1.18278 0.003,1.26818 0.0854,0.0854 0.63032,-0.0871 1.21092,-0.38326 l 1.05564,-0.53854 z m -1.41913,-2.07837 c -0.0899,-0.14552 0.0887,-0.26458 0.39687,-0.26458 0.30822,0 0.48681,0.11906 0.39688,0.26458 -0.0899,0.14552 -0.26853,0.26458 -0.39688,0.26458 -0.12834,0 -0.30694,-0.11906 -0.39687,-0.26458 z m -1.4045,-1.07818 c 0.0521,-0.15643 0.20792,-0.28442 0.34616,-0.28442 0.13825,0 0.29402,0.12799 0.34617,0.28442 0.0521,0.15644 -0.10363,0.28443 -0.34617,0.28443 -0.24253,0 -0.3983,-0.12799 -0.34616,-0.28443 z m 2.64583,0 c 0.0521,-0.15643 0.20792,-0.28442 0.34617,-0.28442 0.13824,0 0.29402,0.12799 0.34616,0.28442 0.0521,0.15644 -0.10363,0.28443 -0.34616,0.28443 -0.24254,0 -0.39831,-0.12799 -0.34617,-0.28443 z"
       id="path1-3" />
  </g>
  <path
     style="fill:#ffffff;stroke-width:3.35042"
     d="m 105.75801,45.805663 -4.50326,-1.967335 -2.808064,1.420273 c -3.376383,1.707714 -5.333558,2.412168 -5.695663,2.050063 -0.345197,-0.345197 -0.344377,-1.771564 0.0027,-4.784692 0.217669,-1.889411 0.15327,-3.491799 -0.172757,-4.298614 -0.3326,-0.823078 -0.994087,-1.778943 -2.270232,-3.280543 -1.82323,-2.145336 -2.432268,-3.108417 -2.53803,-4.013425 -0.04817,-0.412199 -0.01604,-0.557459 0.17738,-0.802043 0.516578,-0.65321 1.392957,-0.8855 3.764021,-0.99768 3.962748,-0.187485 5.218889,-1.061238 7.453385,-5.184463 1.22956,-2.268865 2.37497,-3.787293 2.85691,-3.787293 0.46308,0 1.97951,2.015633 2.91736,3.877732 1.43856,2.856283 2.73543,3.914601 5.85706,4.779676 3.22844,0.894677 4.45955,1.472692 4.83877,2.271842 0.41795,0.880761 0.009,1.659743 -1.94793,3.71389 -2.37591,2.493453 -2.67031,3.437702 -3.01872,9.682046 -0.11897,2.132243 -0.22453,3.30388 -0.29712,3.297616 -0.0619,-0.0053 -2.13906,-0.895015 -4.61586,-1.97705 z m -2.915,-6.998452 c 0.59358,-0.402813 0.80849,-0.697677 0.77833,-1.067858 -0.0384,-0.471165 -0.55441,-0.698543 -1.58531,-0.698543 -1.73278,0 -2.18204,0.901975 -0.86599,1.738647 0.61196,0.389047 1.12796,0.397607 1.67297,0.02775 z m -5.489282,-3.854263 c 0.504527,-0.210805 0.654129,-0.521915 0.499366,-1.03847 -0.235734,-0.786806 -1.160969,-1.256172 -1.81229,-0.919362 -0.924833,0.47825 -1.156091,1.401757 -0.466927,1.864631 0.429508,0.288476 1.214155,0.329563 1.779851,0.0932 z m 9.999312,0 c 0.50453,-0.210805 0.65413,-0.521915 0.49937,-1.03847 -0.23573,-0.786806 -1.16097,-1.256172 -1.81229,-0.919362 -0.92483,0.47825 -1.15609,1.401757 -0.46693,1.864631 0.42951,0.288476 1.21416,0.329563 1.77985,0.0932 z"
     id="path1"
     transform="scale(0.26458333)" />
  <path
     style="fill:#ffffff;stroke-width:3.35042"
     d="m 64.049438,107.56214 c -1.988219,-0.10841 -3.196506,-0.31438 -4.704829,-0.80199 -4.623461,-1.49466 -9.889113,-4.62719 -11.591863,-6.895984 -0.743635,-0.990838 -1.849389,-3.173502 -2.304106,-4.548108 -0.599505,-1.812298 -0.775316,-2.994645 -0.767415,-5.160937 0.0074,-2.028396 0.206019,-3.449234 0.739538,-5.290294 2.096175,-7.233461 9.031396,-12.564689 17.734828,-13.633078 1.407128,-0.172731 4.249596,-0.144459 5.615483,0.05585 4.503459,0.660451 8.055113,2.604199 10.382187,5.681959 0.771229,1.020018 1.673104,2.832014 2.094265,4.207679 0.264518,0.864007 0.29581,1.128936 0.292092,2.472949 -0.0033,1.196513 -0.05148,1.677962 -0.234835,2.347169 -0.603588,2.202938 -1.619622,4.028519 -3.030569,5.445242 -1.238727,1.243796 -2.230281,1.741906 -4.430227,2.225539 -1.295736,0.284851 -5.229413,0.28232 -6.536765,-0.0042 -2.653553,-0.581569 -4.193261,-1.592879 -4.193261,-2.754211 0,-0.58902 0.438958,-0.511644 1.442319,0.25424 0.966698,0.737895 2.753314,1.141548 5.052636,1.141548 2.490248,0 4.499483,-0.383009 6.138589,-1.170165 1.368411,-0.657159 2.335163,-1.6715 3.158027,-3.313487 0.64822,-1.293492 0.820112,-2.145835 0.819622,-4.06415 -5.11e-4,-1.996758 -0.121248,-2.581108 -0.844191,-4.085742 -0.51393,-1.069625 -1.472636,-2.324033 -2.338328,-3.059562 -4.918388,-4.178871 -13.661084,-4.824399 -20.471203,-1.511517 -5.060593,2.4618 -8.491247,6.733083 -9.587016,11.936167 -0.262952,1.248583 -0.264125,4.084244 -0.0022,5.398535 0.670933,3.367055 2.497994,6.44612 5.234709,8.821828 2.321885,2.01559 5.650242,3.613 8.874825,4.25938 3.079074,0.6172 5.923604,0.81687 11.661404,0.81855 5.378368,0.002 6.165529,-0.0464 9.825071,-0.59817 1.175584,-0.17726 2.160045,-0.29968 2.18769,-0.27203 0.164933,0.16493 -1.98754,0.96116 -3.216375,1.18978 -4.107689,0.76421 -11.948839,1.18266 -17.000068,0.90721 z"
     id="path2"
     transform="scale(0.26458333)" />
</svg>
