<?xml version="1.0" encoding="UTF-8" standalone="no"?>
<svg
   width="36.777084mm"
   height="34.564167mm"
   viewBox="0 0 36.777084 34.564167"
   version="1.1"
   id="svg1"
   sodipodi:docname="kage-with-yarn.svg"
   inkscape:version="1.4.3 (0d15f75, 2025-12-25)"
   xmlns:inkscape="http://www.inkscape.org/namespaces/inkscape"
   xmlns:sodipodi="http://sodipodi.sourceforge.net/DTD/sodipodi-0.dtd"
   xmlns="http://www.w3.org/2000/svg"
   xmlns:svg="http://www.w3.org/2000/svg">
  <defs
     id="defs1" />
  <sodipodi:namedview
     id="namedview1"
     pagecolor="#b1ffff"
     bordercolor="#000000"
     borderopacity="0.25"
     inkscape:showpageshadow="2"
     inkscape:pageopacity="0.0"
     inkscape:pagecheckerboard="0"
     inkscape:deskcolor="#d1d1d1"
     inkscape:document-units="mm"
     inkscape:zoom="9.3006364"
     inkscape:cx="69.511372"
     inkscape:cy="65.318111"
     inkscape:window-width="5120"
     inkscape:window-height="1417"
     inkscape:window-x="-8"
     inkscape:window-y="-8"
     inkscape:window-maximized="1"
     inkscape:current-layer="svg1" />
  <g
     transform="translate(-86.611455,-131.21792)"
     id="g1">
    <path
       style="display:inline;fill:#000000"
       d="m 111.61509,159.76697 c -0.50933,-0.15102 -1.06039,-0.38546 -1.22459,-0.521 -0.1854,-0.15302 -0.56796,-0.14398 -1.00941,0.0239 -1.17978,0.44855 -2.89647,0.30723 -4.752,-0.39119 -2.22294,-0.83671 -2.46346,-0.82988 -4.655672,0.13229 -2.02224,0.88757 -3.70582,1.02126 -5.16787,0.41038 -0.86946,-0.36328 -1.19799,-0.99957 -0.68107,-1.31905 0.13006,-0.0804 0.66202,0.0316 1.18213,0.24897 1.23049,0.51413 2.1758,0.48995 3.46402,-0.0886 l 1.04617,-0.46985 -2.20976,-0.43535 c -4.60634,-0.9075 -6.62726,-3.32629 -6.29324,-7.53224 0.15098,-1.90112 0.87069,-3.46553 2.26608,-4.92572 0.88931,-0.93061 2.60263,-2.0281 3.16612,-2.0281 0.12828,0 0.37443,0.47125 0.547,1.04722 0.17256,0.57598 0.41679,1.11091 0.54271,1.18873 0.12593,0.0778 0.004,-0.58262 -0.27188,-1.46767 -0.27545,-0.88505 -0.50083,-1.89622 -0.50083,-2.24706 0,-0.56185 0.11828,-0.63713 0.99219,-0.63158 0.5457,0.004 1.44395,0.11119 1.996112,0.23937 0.8616,0.20002 1.21965,0.12179 2.52572,-0.5518 1.15652,-0.59646 2.02446,-0.82287 3.61595,-0.94323 1.97757,-0.14957 2.17262,-0.2223 3.50384,-1.3066 0.77534,-0.63152 1.5701,-1.14821 1.76613,-1.14821 0.49139,0 1.26075,1.71472 1.41977,3.16437 0.08,0.72899 0.38176,1.50119 0.76764,1.96418 0.88045,1.05641 1.58892,2.5104 1.81788,3.73085 0.12154,0.64787 0.47306,1.26512 0.94813,1.66486 0.61413,0.51676 0.75498,0.84696 0.75498,1.76998 0,0.66752 0.15767,1.26557 0.38295,1.45253 0.21062,0.1748 0.58436,0.84522 0.83054,1.48981 0.60362,1.58057 0.37738,3.77935 -0.52996,5.15043 -1.25441,1.89554 -4.10901,2.96122 -6.23978,2.32944 z m -12.128452,-1.02041 c 2.075082,-0.98168 3.419562,-1.01399 5.513862,-0.13251 1.55338,0.65381 2.74517,0.80488 3.90261,0.4947 1.09339,-0.29302 0.61215,-0.53963 -0.8211,-0.42077 -1.0734,0.089 -1.73014,-0.0228 -2.71197,-0.4619 -2.1904,-0.97951 -3.65869,-0.98851 -5.661202,-0.0347 -1.81351,0.86378 -3.07427,1.01162 -4.47194,0.52439 -1.16188,-0.40504 -1.37661,-0.0696 -0.26445,0.41304 1.38298,0.60023 2.6673,0.49148 4.51419,-0.38224 z m 14.509702,0.49811 c 0,-0.17149 -0.27415,-0.24302 -0.65346,-0.17051 -0.35939,0.0687 -0.59558,0.0313 -0.52485,-0.0832 0.0707,-0.11444 0.0158,-0.27778 -0.12201,-0.36297 -0.13784,-0.0852 -0.3254,-0.0339 -0.41681,0.11401 -0.0914,0.1479 -0.30799,0.26708 -0.4813,0.26485 -0.18936,-0.002 -0.15761,-0.10363 0.0795,-0.25357 0.31891,-0.20162 0.33021,-0.31397 0.0589,-0.58531 -0.2484,-0.24841 -0.45441,-0.26098 -0.79154,-0.0483 -0.70336,0.44367 -0.55003,0.7136 0.6026,1.06089 1.36568,0.41147 2.24896,0.43665 2.24896,0.0641 z m 1.5875,-0.35252 c 0,-0.0653 -0.77059,-0.48654 -1.71242,-0.93603 -1.92171,-0.91715 -4.0369,-2.82712 -4.86022,-4.38865 -0.30125,-0.57136 -0.56409,-0.9793 -0.58409,-0.90654 -0.15614,0.56805 -0.15339,2.41031 0.003,1.98613 0.17882,-0.48512 0.22765,-0.4639 0.60881,0.26458 0.59155,1.13058 1.95141,2.36079 3.63454,3.28803 1.24216,0.68431 2.91042,1.08124 2.91042,0.69248 z m -6.78057,-0.62046 c 0.0714,-0.11555 -0.10698,-0.58411 -0.39642,-1.04125 l -0.52626,-0.83117 -1.07643,0.37979 c -0.59204,0.20888 -1.35912,0.37979 -1.70463,0.37979 -0.96577,0 -0.74803,0.37376 0.49629,0.85188 1.20136,0.46161 2.99334,0.6074 3.20745,0.26096 z m 7.56665,-0.0442 c 0.46857,-0.29633 0.42795,-0.33051 -0.91838,-0.77272 -2.32299,-0.763 -5.52821,-3.56744 -6.08605,-5.32504 -0.20873,-0.65765 -0.66082,-0.69171 -0.66082,-0.0498 0,0.71861 1.35458,2.7004 2.62909,3.84645 0.62176,0.55909 1.86215,1.36266 2.75642,1.78573 1.83242,0.86688 1.7525,0.84882 2.27974,0.51537 z m -5.56534,-0.25896 c 0.30684,-0.19416 0.20932,-0.40009 -0.50584,-1.06815 -0.77576,-0.72467 -0.93391,-0.77969 -1.27133,-0.44227 -0.53928,0.53928 -0.18035,1.04931 0.48707,0.69212 0.53198,-0.28471 0.75694,0.0913 0.24421,0.40814 -0.32855,0.20305 -0.0837,0.66032 0.35066,0.65474 0.17331,-0.002 0.48617,-0.11229 0.69523,-0.24458 z m 6.63134,-0.78844 c 0,-0.13383 -0.58672,-0.4382 -1.30381,-0.67638 -2.31852,-0.77009 -4.63857,-2.80575 -5.66925,-4.97433 -0.52375,-1.10199 -0.65606,-1.22442 -0.94582,-0.87528 -0.84886,1.02281 2.30575,4.82839 5.06879,6.11474 1.40444,0.65385 2.85009,0.86245 2.85009,0.41125 z m 0.39687,-0.81501 c 0.0899,-0.14552 0.019,-0.26459 -0.15768,-0.26459 -0.20346,0 -0.15219,-0.18676 0.13987,-0.50948 0.25359,-0.28021 0.41953,-0.72518 0.36876,-0.98881 -0.0707,-0.36719 -0.23162,-0.24323 -0.68771,0.52979 -0.56251,0.95338 -0.58435,1.49767 -0.0601,1.49767 0.12834,0 0.30694,-0.11906 0.39687,-0.26458 z m -8.74977,-0.82373 c -0.26692,-0.43189 -0.64293,-0.24067 -0.64293,0.32696 0,0.46732 0.0661,0.50669 0.39396,0.2346 0.21668,-0.17983 0.32871,-0.43253 0.24897,-0.56156 z m 8.20945,-0.58858 c 0.68315,-1.1657 0.88905,-2.65603 0.40803,-2.95332 -0.14552,-0.0899 -0.26458,0.0134 -0.26458,0.22974 0,0.2163 -0.4079,1.17583 -0.90644,2.13229 -0.81252,1.55884 -0.8548,1.73901 -0.40803,1.73901 0.30819,0 0.75512,-0.43803 1.17102,-1.14772 z m -1.0054,-0.78679 c 1.19404,-2.35633 1.2204,-2.69524 0.28112,-3.61356 l -0.82481,-0.80641 -0.55904,1.54392 c -0.30747,0.84915 -0.81804,1.96298 -1.13459,2.47519 -0.52984,0.85729 -0.53882,1.27704 -0.0273,1.27704 0.36819,0 1.41174,-1.68718 1.87854,-3.03718 0.31483,-0.91049 0.46018,-1.12034 0.46198,-0.66699 10e-4,0.36381 -0.41079,1.42871 -0.91607,2.36647 -0.66159,1.22784 -0.83004,1.75979 -0.60193,1.90077 0.46402,0.28678 0.67333,0.0779 1.44213,-1.43925 z m -9.23605,-0.62604 c 0.32743,0.0583 0.59532,0.003 0.59532,-0.12197 0,-0.36662 -2.0519,-0.26206 -3.05121,0.15548 -1.32835,0.55502 -1.12675,0.65293 0.47152,0.22901 0.76398,-0.20264 1.65695,-0.32077 1.98437,-0.26252 z m 6.82574,-0.10987 c 0.55104,-1.0656 0.34264,-1.22861 -0.65894,-0.51542 -0.81644,0.58135 -0.95504,0.83493 -0.6326,1.15737 0.38607,0.38607 0.88927,0.13596 1.29154,-0.64195 z m -1.09293,-0.4804 c 0.25136,-0.27775 0.79704,-0.64583 1.21262,-0.81797 0.69997,-0.28994 1.2257,-0.979 0.95414,-1.25056 -0.20821,-0.20821 -2.39581,0.89381 -2.8984,1.4601 -0.26892,0.303 -0.41072,0.67747 -0.31512,0.83216 0.25179,0.40741 0.52926,0.34811 1.04676,-0.22373 z m -0.64467,-1.07888 c 0.40593,-0.28905 1.28751,-0.76107 1.95907,-1.04894 1.07578,-0.46113 1.6395,-1.07136 0.9897,-1.07136 -1.12352,0 -4.00201,1.65338 -4.00201,2.29872 0,0.47013 0.1869,0.43847 1.05324,-0.17842 z m -0.77261,-0.68443 c 0.42435,-0.5113 2.19608,-1.43587 2.75154,-1.43587 0.22408,0 0.40741,-0.13209 0.40741,-0.29353 0,-0.31398 -1.34203,-0.21398 -2.22621,0.16589 -0.35316,0.15172 -0.4501,0.12643 -0.3203,-0.0836 0.12225,-0.19781 -0.10955,-0.17684 -0.67546,0.0611 -0.47388,0.19925 -0.90521,0.49313 -0.95852,0.65307 -0.1421,0.42629 0.35858,0.35461 0.74091,-0.10607 0.18116,-0.21828 0.46363,-0.3931 0.62771,-0.38849 0.16408,0.005 -0.0291,0.25266 -0.42927,0.55123 -0.40019,0.29857 -0.72761,0.71152 -0.72761,0.91766 0,0.49552 0.38033,0.47607 0.8098,-0.0414 z m -5.74027,-2.77798 c 0.38343,-0.30161 0.68774,-0.74809 0.67625,-0.99219 -0.0134,-0.28398 -0.0696,-0.3227 -0.15619,-0.10752 -0.23169,0.57583 -1.62261,1.14036 -2.40032,0.97421 -0.69849,-0.14923 -0.7078,-0.13809 -0.2163,0.25897 0.69146,0.55859 1.263,0.5222 2.09656,-0.13347 z m 3.59989,0.0295 c 0.52218,-0.33024 0.1551,-0.65924 -0.44394,-0.3979 -0.26094,0.11385 -0.57258,0.18514 -0.69254,0.15843 -0.11996,-0.0267 -0.1427,0.0734 -0.0505,0.22258 0.20701,0.33495 0.67358,0.34159 1.18701,0.0169 z m 3.18267,-2.39159 c 0.50717,-0.50717 0.70149,-1.05833 0.37314,-1.05833 -0.0858,0 -0.36831,0.26215 -0.62776,0.58256 -0.33983,0.41967 -0.73992,0.57495 -1.43089,0.55537 -0.52754,-0.0149 -0.89287,0.0801 -0.81184,0.21119 0.27811,0.44999 1.95141,0.25515 2.49735,-0.29079 z"
       id="path1-0" />
  </g>
  <path
     style="fill:#ffffff;stroke-width:3.35042"
     d="m 66.673753,66.820394 c -0.997392,-0.208093 -2.2859,-0.979959 -3.563406,-2.134615 -0.466493,-0.421633 -0.47209,-0.43417 -0.19573,-0.438454 0.156471,-0.0024 0.809652,0.09847 1.451513,0.224212 0.895125,0.175357 1.380253,0.213628 2.082255,0.164266 1.822185,-0.128128 4.146035,-0.919154 5.653701,-1.924489 0.917937,-0.612095 1.340092,-1.043956 1.745507,-1.785639 0.359452,-0.657598 0.474905,-0.600477 0.485453,0.240178 0.01708,1.361331 -1.776439,3.484658 -4.06011,4.806717 -1.312206,0.75966 -2.584868,1.059448 -3.599183,0.847824 z"
     id="path1"
     transform="scale(0.26458333)" />
  <path
     style="fill:#ffffff;stroke-width:3.35042"
     d="m 82.107843,65.806395 c -0.472429,-0.168444 -0.882802,-0.518423 -1.102097,-0.939903 -0.27223,-0.523216 -0.213058,-0.590041 0.574693,-0.649014 0.442308,-0.03311 1.237656,-0.22772 2.036449,-0.498285 1.368326,-0.463474 1.754723,-0.519967 2.255144,-0.329707 0.584987,0.222412 0.61347,0.58222 0.0918,1.159647 -0.45147,0.499723 -1.404147,1.025408 -2.26435,1.249462 -0.764093,0.199021 -1.05138,0.200429 -1.591639,0.0078 z"
     id="path2"
     transform="scale(0.26458333)" />
  <path
     style="fill:#ffffff;stroke-width:3.35042"
     d="m 89.535214,57.896889 c -0.514043,-0.130112 -1.179514,-0.467939 -1.367161,-0.69404 -0.121779,-0.146735 -0.120633,-0.197113 0.0072,-0.316294 0.321402,-0.299666 0.975901,-0.406692 3.00131,-0.490782 1.660906,-0.06896 2.245223,-0.134257 2.811629,-0.314211 0.928463,-0.294984 1.870675,-0.931366 2.522854,-1.703969 1.428506,-1.692278 2.213071,-2.360401 2.620084,-2.23122 0.759766,0.241141 0.06471,1.970184 -1.437599,3.576209 -1.257017,1.343799 -3.551974,2.165407 -6.248169,2.236882 -0.8279,0.02195 -1.687464,-0.0062 -1.910141,-0.06257 z"
     id="path3"
     transform="scale(0.26458333)" />
  <path
     style="fill:#ffffff;stroke-width:3.35042"
     d="m 64.941793,86.049057 c 0.290608,-0.246724 1.980515,-1.068153 3.134822,-1.523774 2.411093,-0.951692 6.507487,-1.547988 9.272681,-1.34979 1.590848,0.114026 2.391984,0.505354 1.946384,0.950744 -0.141819,0.141753 -0.520303,0.170966 -2.3425,0.180807 -2.733091,0.01476 -4.079435,0.211208 -7.764184,1.13289 -2.238898,0.560025 -3.638421,0.845351 -4.12464,0.840907 l -0.391362,-0.0036 z"
     id="path4"
     transform="scale(0.26458333)" />
  <path
     style="fill:#ffffff;stroke-width:3.35042"
     d="m 35.642722,106.64786 c -2.923298,-0.52165 -6.958475,-2.3837 -6.688764,-3.08656 0.170398,-0.44405 1.352945,-0.29735 3.785737,0.46963 1.990362,0.6275 3.208027,0.85217 5.0267,0.92747 3.562981,0.14751 6.317507,-0.53623 11.588717,-2.87661 5.908458,-2.623322 9.221494,-3.214273 13.758849,-2.454189 2.254438,0.377659 4.353305,1.058409 7.885393,2.557559 3.414904,1.44941 4.988459,1.7832 8.135016,1.72565 4.727314,-0.0865 6.595529,-0.0556 6.92707,0.11433 0.17304,0.0887 0.332541,0.21642 0.354443,0.28382 0.104562,0.32172 -1.550803,0.95068 -3.554335,1.35048 -1.557844,0.31087 -4.397982,0.33087 -6.038848,0.0425 -2.399236,-0.4216 -3.922592,-0.8884 -7.582267,-2.32345 -4.194534,-1.64478 -6.173884,-2.12622 -9.137019,-2.2224 -3.760457,-0.12207 -6.421296,0.54217 -11.637482,2.90512 -3.285182,1.4882 -5.611497,2.2549 -7.877312,2.59618 -1.332149,0.20065 -3.794532,0.19589 -4.945898,-0.01 z"
     id="path5"
     transform="scale(0.26458333)" />
  <path
     style="fill:#ffffff;stroke-width:3.35042"
     d="m 90.931906,76.741864 c -0.213578,-0.236001 -0.400467,-0.718549 -0.400467,-1.034008 0,-0.756969 1.169052,-2.211791 2.910741,-3.622262 1.654326,-1.339721 2.117062,-2.036624 1.352294,-2.036624 -0.574273,0 -1.339914,0.484194 -2.391537,1.512418 -0.96729,0.945767 -1.660974,1.38361 -2.199432,1.388248 -0.82256,0.0071 -0.679774,-1.00647 0.245626,-1.743564 1.216207,-0.968725 3.539978,-2.079223 5.001415,-2.390108 0.439882,-0.09357 0.543649,0.108196 0.298976,0.581342 -0.343223,0.66372 0.05832,0.710302 1.45921,0.169279 2.060247,-0.795668 4.243878,-1.237173 6.117528,-1.236895 1.80312,2.67e-4 2.35153,0.265813 1.99056,0.963852 -0.21841,0.422359 -0.60045,0.606104 -1.45296,0.698809 -1.7977,0.195487 -5.260665,1.754769 -8.225243,3.703606 -0.65969,0.433663 -1.478016,1.110052 -2.117568,1.750278 -1.379763,1.381219 -2.158861,1.771086 -2.589143,1.295629 z"
     id="path6"
     transform="scale(0.26458333)" />
  <path
     style="fill:#ffffff;stroke-width:3.35042"
     d="m 92.8503,79.798041 c -0.295058,-0.215752 -0.352116,-1.114544 -0.104309,-1.643094 0.999948,-2.132799 8.483949,-6.61219 12.940499,-7.745268 1.22593,-0.311691 2.5197,-0.365244 2.77027,-0.11467 0.55762,0.557621 -1.08528,2.05134 -3.57146,3.247161 -5.879954,2.828177 -6.528734,3.177965 -9.012441,4.85903 -1.96644,1.330959 -2.668774,1.655535 -3.022559,1.396841 z"
     id="path7"
     transform="scale(0.26458333)" />
  <path
     style="fill:#ffffff;stroke-width:3.35042"
     d="m 95.734154,83.714188 c -0.571486,-0.348482 -0.827704,-0.810009 -0.771096,-1.38898 0.111525,-1.140637 1.056196,-2.444585 2.603903,-3.594219 2.189281,-1.626194 6.296939,-3.726674 8.386259,-4.288372 0.91583,-0.246213 0.87483,-0.246742 1.13623,0.01465 0.28665,0.28665 0.27276,0.786895 -0.0403,1.451514 -0.55746,1.183519 -1.79408,2.221617 -3.78868,3.180463 -1.81105,0.870612 -3.08889,1.759694 -4.553964,3.168513 -1.687861,1.623052 -2.248566,1.897792 -2.972372,1.456428 z"
     id="path8"
     transform="scale(0.26458333)" />
  <path
     style="fill:#ffffff;stroke-width:3.35042"
     d="m 99.092656,86.878922 c -0.701291,-0.24968 -1.464928,-1.11951 -1.464928,-1.668643 0,-0.636518 0.816688,-1.562254 2.439852,-2.765634 1.96072,-1.453635 3.38668,-2.185493 3.81334,-1.957151 0.34441,0.184323 0.22526,1.008194 -0.32763,2.265446 -1.35352,3.077838 -3.0353,4.633443 -4.460634,4.125982 z"
     id="path9"
     transform="scale(0.26458333)" />
  <path
     style="fill:#ffffff;stroke-width:3.35042"
     d="m 107.20016,92.350297 c -0.62292,-0.270188 -0.75583,-0.45182 -0.75583,-1.032878 0,-0.891898 0.51243,-2.158133 2.36312,-5.839397 2.54472,-5.061747 3.65797,-7.95939 3.65797,-9.521161 0,-0.859617 -0.14115,-1.026458 -0.49402,-0.583922 -0.26259,0.329328 -0.4278,0.721955 -1.24336,2.955034 -1.37915,3.776202 -3.35372,7.528955 -5.25781,9.992682 -0.94633,1.224463 -1.46206,1.619427 -2.11461,1.619427 -0.38747,0 -0.53709,-0.06112 -0.80464,-0.328667 -0.30882,-0.308821 -0.32527,-0.366126 -0.27242,-0.948988 0.0657,-0.724542 0.51155,-1.745885 1.52441,-3.492076 1.58317,-2.729412 3.13924,-6.258645 4.90998,-11.136047 0.59183,-1.630144 1.15266,-3.169715 1.24631,-3.421268 l 0.17026,-0.457369 1.67867,1.634377 c 2.26763,2.207804 2.96093,3.006401 3.43095,3.952039 0.37912,0.762776 0.39763,0.849948 0.38805,1.827832 -0.008,0.851733 -0.0701,1.210225 -0.36194,2.102052 -0.48026,1.467447 -1.28332,3.260899 -2.91274,6.504932 -2.86846,5.71083 -3.75894,6.777778 -5.15235,6.173398 z"
     id="path10"
     transform="scale(0.26458333)" />
  <path
     style="fill:#ffffff;stroke-width:3.35042"
     d="m 111.01391,93.95261 c -0.8994,-0.240264 -0.70212,-0.864597 1.92664,-6.097159 2.50041,-4.977103 3.39578,-7.068684 3.61809,-8.451826 0.0625,-0.388775 0.17295,-0.655656 0.32197,-0.777899 0.2057,-0.168733 0.25596,-0.171031 0.53905,-0.02464 0.66695,0.344892 0.97235,1.238961 0.97182,2.844956 -0.001,3.529769 -2.02185,8.381012 -4.62643,11.107191 -0.44395,0.46468 -1.00265,0.959418 -1.24156,1.099418 -0.44987,0.263619 -1.13557,0.399872 -1.50958,0.299961 z"
     id="path11"
     transform="scale(0.26458333)" />
  <path
     style="fill:#ffffff;stroke-width:3.35042"
     d="m 115.70284,95.811131 c -1.12263,-0.622229 -0.43614,-3.113602 1.79553,-6.516166 1.16849,-1.781576 1.50037,-1.969818 1.73662,-0.985011 0.24679,1.02874 -0.27893,2.413146 -1.50406,3.960733 -0.8189,1.034435 -1.00158,1.491173 -0.6881,1.720398 0.107,0.07824 0.32078,0.142258 0.47506,0.142258 0.61804,0 0.71443,0.544838 0.20003,1.130707 -0.18619,0.212053 -0.47409,0.455656 -0.63978,0.541338 -0.37252,0.192639 -1.03312,0.195397 -1.3753,0.0057 z"
     id="path12"
     transform="scale(0.26458333)" />
  <path
     style="fill:#ffffff;stroke-width:3.35042"
     d="m 113.32558,98.900649 c -1.69207,-0.217157 -4.95383,-1.218301 -7.1012,-2.179602 -3.01059,-1.347731 -6.362426,-3.596041 -9.564328,-6.415465 -1.302393,-1.146819 -3.927825,-3.788534 -5.011518,-5.042599 -2.503738,-2.897364 -4.493257,-6.041051 -5.205442,-8.225244 -0.284899,-0.873754 -0.38674,-2.157758 -0.219863,-2.772018 0.14149,-0.520812 0.929567,-1.421243 1.243904,-1.421243 0.452641,0 1.085914,0.916467 2.348599,3.398867 1.357222,2.668258 2.242406,4.149927 3.429386,5.740292 2.768614,3.709501 6.119731,6.86981 10.081142,9.507136 2.86671,1.908518 4.93015,2.947553 8.15714,4.107464 2.53829,0.912366 4.30872,1.756572 4.7831,2.280754 0.26063,0.287997 0.1495,0.614825 -0.28743,0.845361 -0.34518,0.182122 -1.83621,0.281186 -2.65349,0.176297 z"
     id="path13"
     transform="scale(0.26458333)" />
  <path
     style="fill:#ffffff;stroke-width:3.35042"
     d="m 109.50864,102.59161 c -1.7933,-0.60174 -7.04113,-3.159794 -9.42877,-4.596064 -5.281969,-3.177331 -8.348056,-5.885676 -11.902938,-10.51414 -2.091764,-2.72348 -4.086733,-6.179552 -4.470124,-7.744015 -0.241024,-0.983521 -0.157371,-1.810778 0.229614,-2.270684 0.366212,-0.435218 0.627174,-0.404796 1.162404,0.13551 0.35735,0.360738 0.557862,0.728636 0.952251,1.747192 1.039645,2.685001 2.975511,5.392957 6.144722,8.595448 3.820483,3.860605 8.483861,7.342274 12.743261,9.514096 1.96565,1.002267 2.70514,1.30601 5.42686,2.229054 2.12172,0.719563 2.80519,1.029413 3.00365,1.361693 0.0974,0.16317 0.0583,0.24628 -0.23167,0.49127 -0.6346,0.53625 -1.94453,1.21881 -2.42201,1.26203 -0.28905,0.0262 -0.72873,-0.0508 -1.20725,-0.21139 z"
     id="path14"
     transform="scale(0.26458333)" />
  <path
     style="fill:#ffffff;stroke-width:3.35042"
     d="m 106.44433,104.89161 c -3.68448,-0.78049 -7.146999,-2.31245 -11.118312,-4.919197 -5.050062,-3.314835 -8.595133,-6.894745 -10.693772,-10.798861 -1.228356,-2.285123 -1.542775,-2.421071 -2.11328,-0.913736 -0.187772,0.496117 -0.203935,0.510364 -0.304922,0.268799 -0.255991,-0.61234 -0.06037,-6.398683 0.244149,-7.221886 0.07437,-0.201049 0.100306,-0.190159 0.355713,0.149385 0.15152,0.201434 0.604326,0.946849 1.006236,1.656478 1.578153,2.786451 1.919748,3.334633 2.834266,4.548348 2.976398,3.950169 7.034723,7.693352 11.618437,10.716229 2.088955,1.377628 2.930135,1.847391 6.343655,3.542681 3.06134,1.52039 4.78462,2.50986 4.78462,2.74723 0,0.45284 -1.38318,0.55787 -2.95679,0.22453 z"
     id="path15"
     transform="scale(0.26458333)" />
  <path
     style="fill:#ffffff;stroke-width:3.35042"
     d="m 82.783676,94.559504 c -0.205383,-0.126917 -0.274612,-1.717369 -0.102564,-2.356304 0.166979,-0.620113 0.629216,-1.080403 1.084974,-1.080403 0.266127,0 0.444269,0.101749 0.760908,0.434605 0.477191,0.501632 0.526882,0.856851 0.207453,1.482982 -0.385423,0.755493 -1.624747,1.720589 -1.950771,1.51912 z"
     id="path16"
     transform="scale(0.26458333)" />
  <path
     style="fill:#ffffff;stroke-width:3.35042"
     d="m 88.083291,101.84762 c -0.496461,-0.15916 -1.099996,-0.85624 -1.099996,-1.27048 0,-0.46615 0.136387,-0.669211 0.753978,-1.122565 0.8649,-0.634895 1.118611,-1.382866 0.587178,-1.731074 -0.362887,-0.237773 -0.993578,-0.146412 -1.878582,0.272129 -1.284753,0.607592 -2.176536,0.519704 -2.543922,-0.25071 -0.156139,-0.327429 -0.161975,-0.440398 -0.04323,-0.836751 0.255492,-0.852754 1.080997,-1.817664 1.81526,-2.121806 0.748759,-0.310146 1.810839,0.394453 4.282779,2.841256 0.995357,0.985235 1.721541,1.797719 1.86606,2.087821 0.219511,0.44064 0.224907,0.49942 0.07476,0.81429 -0.267522,0.56099 -2.24536,1.47109 -3.132846,1.44156 -0.181458,-0.006 -0.488106,-0.0617 -0.681441,-0.12367 z"
     id="path17"
     transform="scale(0.26458333)" />
  <path
     style="fill:#ffffff;stroke-width:3.35042"
     d="m 79.510688,102.88179 c -1.150736,-0.0945 -3.066234,-0.38687 -4.247021,-0.64816 -3.774881,-0.83531 -7.886955,-2.799873 -7.572999,-3.618029 0.108783,-0.283483 0.633302,-0.417429 1.98883,-0.507885 2.402044,-0.160291 4.570679,-0.693803 8.479203,-2.085996 1.089615,-0.388114 2.040959,-0.705662 2.114099,-0.705662 0.173513,0 2.205416,3.202115 2.865515,4.51582 0.282283,0.561792 0.570837,1.297412 0.641233,1.634712 0.11558,0.5538 0.10859,0.63471 -0.07208,0.83435 -0.110038,0.12159 -0.444035,0.29352 -0.742218,0.38207 -0.557178,0.16546 -2.499618,0.27724 -3.454565,0.19878 z"
     id="path18"
     transform="scale(0.26458333)" />
  <path
     style="fill:#ffffff;stroke-width:3.35042"
     d="m 99.186761,106.64734 c -2.214759,-0.39654 -5.125468,-1.23762 -6.485355,-1.87401 -0.93767,-0.43881 -1.52485,-0.94377 -1.52485,-1.31135 0,-0.64145 1.288016,-1.7525 2.514257,-2.16882 0.760373,-0.25815 1.232806,-0.0969 2.019006,0.68935 0.503294,0.50329 0.627675,0.69575 0.627675,0.97122 0,0.3632 -0.144751,0.52617 -1.074704,1.21001 -0.505403,0.37165 -0.660018,0.68569 -0.414269,0.84143 0.438114,0.27764 1.594509,-0.18499 2.130945,-0.85251 0.41173,-0.51234 0.831701,-0.71276 1.284967,-0.61321 0.573338,0.12593 1.006156,0.88786 0.76273,1.3427 -0.0961,0.17957 -0.09254,0.26999 0.01578,0.40051 0.11935,0.1438 0.306064,0.15628 1.270817,0.0849 1.72597,-0.12767 2.28201,-0.11931 2.65949,0.04 0.64704,0.27306 0.58888,0.88627 -0.11434,1.20558 -0.55399,0.25154 -2.36403,0.2684 -3.672151,0.0342 z"
     id="path19"
     transform="scale(0.26458333)" />
</svg>
