<?xml version="1.0" encoding="UTF-8" standalone="no"?>
<svg
   width="36.777084mm"
   height="34.564167mm"
   viewBox="0 0 36.777084 34.564167"
   version="1.1"
   id="svg1"
   sodipodi:docname="kage-balloon-looking-up.svg"
   inkscape:version="1.4.3 (0d15f75, 2025-12-25)"
   xmlns:inkscape="http://www.inkscape.org/namespaces/inkscape"
   xmlns:sodipodi="http://sodipodi.sourceforge.net/DTD/sodipodi-0.dtd"
   xmlns="http://www.w3.org/2000/svg"
   xmlns:svg="http://www.w3.org/2000/svg">
  <defs
     id="defs1" />
  <sodipodi:namedview
     id="namedview1"
     pagecolor="#ffffff"
     bordercolor="#000000"
     borderopacity="0.25"
     inkscape:showpageshadow="2"
     inkscape:pageopacity="0.0"
     inkscape:pagecheckerboard="0"
     inkscape:deskcolor="#d1d1d1"
     inkscape:document-units="mm"
     inkscape:zoom="9.3006364"
     inkscape:cx="69.457613"
     inkscape:cy="65.318111"
     inkscape:window-width="2127"
     inkscape:window-height="1211"
     inkscape:window-x="1883"
     inkscape:window-y="38"
     inkscape:window-maximized="0"
     inkscape:current-layer="svg1" />
  <rect
     style="fill:#ffffff;stroke-width:8.24468"
     id="rect1"
     width="8.335227"
     height="4.5516596"
     x="15.646331"
     y="17.466995" />
  <g
     transform="translate(-86.611455,-131.21792)"
     id="g1">
    <path
       style="display:inline;fill:#000000"
       d="m 98.076002,162.91116 c -1.717053,-0.2507 -2.545187,-0.70188 -1.964443,-1.07027 0.188789,-0.11976 0.670675,-0.21957 1.070857,-0.2218 0.400182,-0.002 0.727604,-0.12311 0.727604,-0.26863 0,-0.14552 -0.491962,-0.26458 -1.093249,-0.26458 -2.041105,0 -3.669251,-1.65107 -3.669251,-3.72091 0,-0.47455 -0.302241,-1.37855 -0.671648,-2.00889 -0.517294,-0.8827 -0.61019,-1.26091 -0.404225,-1.64576 0.389961,-0.72865 1.064189,-0.89504 1.765303,-0.43566 0.881957,0.57789 1.117199,1.15048 1.318207,3.20861 0.157501,1.61267 0.635084,2.75052 1.154453,2.75052 0.09331,0 0.121518,-1.10133 0.06268,-2.44739 -0.09464,-2.16514 -0.02344,-2.67626 0.617356,-4.43177 0.50788,-1.39138 0.711795,-2.42782 0.682366,-3.46826 -0.02308,-0.81614 0.07865,-1.80115 0.226083,-2.18892 0.228966,-0.60222 0.374764,-0.67943 0.999885,-0.5295 0.402508,0.0965 1.059587,0.34064 1.46017,0.54244 0.63073,0.31774 0.9281,0.30885 2.21869,-0.0663 0.95536,-0.27774 2.06775,-0.3915 3.09883,-0.31691 1.49952,0.10846 1.68666,0.0567 2.76251,-0.76455 0.63472,-0.48449 1.25979,-0.88089 1.38904,-0.88089 0.37478,0 0.77958,0.94377 1.06345,2.47934 0.14467,0.78258 0.65348,2.21251 1.1307,3.17762 l 0.86766,1.75475 0.74829,-0.78105 c 0.72153,-0.75311 0.74238,-0.85019 0.58289,-2.71367 -0.32569,-3.80532 -0.50461,-4.97532 -0.76085,-4.97532 -0.14307,0 -0.19656,-0.16566 -0.11886,-0.36813 0.0837,-0.21824 -0.28156,-0.70793 -0.89714,-1.20262 -1.35416,-1.08823 -1.90894,-2.20806 -1.90894,-3.85321 0,-2.38352 1.33444,-4.06936 3.40596,-4.30285 1.60236,-0.18061 2.74122,0.40898 3.54192,1.83363 0.85563,1.52239 0.68947,3.9879 -0.36163,5.36597 -0.4094,0.53674 -1.02974,1.10593 -1.37855,1.26486 -0.3488,0.15892 -0.63419,0.50205 -0.63419,0.7625 0,0.26045 -0.19611,0.5833 -0.43581,0.71745 -0.37233,0.20836 -0.40552,0.50897 -0.2278,2.06366 0.1144,1.00088 0.22934,2.48312 0.25541,3.29387 0.0272,0.84673 0.22611,1.72923 0.4673,2.07358 0.45513,0.64978 0.34738,1.38111 -0.42296,2.87079 -0.53776,1.0399 -0.54603,1.98218 -0.0262,2.98738 0.22201,0.42934 0.28573,0.78062 0.1416,0.78062 -0.42156,0 -0.80986,-0.94756 -0.80986,-1.97629 0,-0.83767 -0.0579,-0.92177 -0.47922,-0.69627 -0.31978,0.17114 -0.58187,0.80839 -0.78772,1.91531 -0.16968,0.91236 -0.6528,2.2127 -1.07361,2.88964 l -0.76511,1.2308 0.95752,0.23663 c 1.56883,0.38771 1.22842,0.98279 -0.76227,1.33255 -2.00623,0.3525 -10.8008,0.39822 -13.063184,0.0679 z m 9.623598,-10.72122 c 0,-0.21239 -0.27602,-0.36448 -0.66146,-0.36448 -0.70134,0 -0.86955,0.47982 -0.35025,0.99912 0.36502,0.36502 1.01171,-0.0406 1.01171,-0.63464 z m -3.22792,-0.15281 c 0.45047,-0.45047 0.39327,-0.75331 -0.10608,-0.56169 -0.51272,0.19675 -0.94157,-0.40145 -0.7437,-1.03738 0.10398,-0.33417 0.0321,-0.41861 -0.26055,-0.30629 -0.72747,0.27916 -0.81556,1.21578 -0.16397,1.74341 0.69772,0.56498 0.8517,0.58455 1.2743,0.16195 z m 5.71149,-1.4196 c 0.11965,-0.31181 0.0363,-0.37525 -0.33724,-0.2567 -0.52986,0.16818 -0.96313,-0.4765 -0.65515,-0.97482 0.0958,-0.15509 0.01,-0.22166 -0.19758,-0.15264 -0.41686,0.13881 -0.61634,0.84856 -0.39824,1.41692 0.19645,0.51193 1.38863,0.48735 1.58821,-0.0328 z m 4.3956,-7.52332 c 0,-0.14552 -0.1786,-0.26458 -0.39688,-0.26458 -0.21828,0 -0.39687,0.11906 -0.39687,0.26458 0,0.14552 0.17859,0.26458 0.39687,0.26458 0.21828,0 0.39688,-0.11906 0.39688,-0.26458 z m 1.04592,-1.18421 c 0.90773,-0.46941 1.75548,-1.77457 1.99611,-3.07314 0.55596,-3.00028 -2.10261,-5.5123 -4.54742,-4.29673 -1.93652,0.96286 -2.65783,3.0424 -1.81802,5.24141 0.83382,2.18333 2.59972,3.04356 4.36933,2.12846 z m -3.66902,-4.77619 c -0.0273,-0.64404 0.6751,-1.71587 1.11674,-1.7041 0.17365,0.005 0.1001,0.17189 -0.16344,0.3717 -0.26355,0.19982 -0.58073,0.70204 -0.70486,1.11607 -0.16704,0.55712 -0.23161,0.61335 -0.24844,0.21633 z"
       id="path1-96" />
  </g>
</svg>
