<?xml version="1.0" encoding="UTF-8" standalone="no"?>
<svg
   width="36.777084mm"
   height="34.564167mm"
   viewBox="0 0 36.777084 34.564167"
   version="1.1"
   id="svg1"
   sodipodi:docname="kage-interested.svg"
   inkscape:version="1.4.3 (0d15f75, 2025-12-25)"
   xmlns:inkscape="http://www.inkscape.org/namespaces/inkscape"
   xmlns:sodipodi="http://sodipodi.sourceforge.net/DTD/sodipodi-0.dtd"
   xmlns="http://www.w3.org/2000/svg"
   xmlns:svg="http://www.w3.org/2000/svg">
  <defs
     id="defs1" />
  <sodipodi:namedview
     id="namedview1"
     pagecolor="#ffffff"
     bordercolor="#000000"
     borderopacity="0.25"
     inkscape:showpageshadow="2"
     inkscape:pageopacity="0.0"
     inkscape:pagecheckerboard="0"
     inkscape:deskcolor="#d1d1d1"
     inkscape:document-units="mm"
     inkscape:zoom="9.3006364"
     inkscape:cx="69.511372"
     inkscape:cy="65.318111"
     inkscape:window-width="5120"
     inkscape:window-height="1417"
     inkscape:window-x="-8"
     inkscape:window-y="-8"
     inkscape:window-maximized="1"
     inkscape:current-layer="svg1" />
  <g
     transform="translate(-86.611455,-131.21792)"
     id="g1">
    <path
       style="display:inline;fill:#000000"
       d="m 100.06573,159.38569 c -2.010321,-0.3127 -3.286201,-1.16817 -4.165901,-2.79323 -1.53444,-2.83454 -1.71488,-8.37575 -0.38566,-11.84308 0.51129,-1.33374 0.69672,-2.30661 0.69672,-3.65542 0,-3.08249 0.66065,-3.53806 2.78228,-1.91859 1.224881,0.93497 1.249061,0.94087 2.864531,0.69812 0.89608,-0.13464 2.08744,-0.18738 2.64748,-0.11719 0.93902,0.11769 1.1056,0.0325 2.14074,-1.095 0.61736,-0.67243 1.35387,-1.22261 1.63668,-1.22261 0.74826,0 1.36758,1.24447 1.72791,3.47206 0.26554,1.64164 0.54556,2.30366 1.76162,4.16491 2.20916,3.38125 2.53767,4.39609 2.55124,7.88121 0.0108,2.77808 0.0398,2.93529 0.4969,2.69068 0.61175,-0.3274 1.23437,-1.79081 1.23437,-2.90128 0,-0.46695 -0.43733,-2.1302 -0.97185,-3.69613 -0.94721,-2.77497 -0.96316,-2.88592 -0.62938,-4.37741 0.41576,-1.8578 1.64198,-3.26529 2.84477,-3.26529 1.58205,0 1.84613,1.22083 0.60256,2.78565 -1.20774,1.51975 -1.23868,2.03025 -0.29523,4.87158 0.4619,1.39108 0.83703,3.00548 0.83362,3.58756 -0.0187,3.2021 -2.13783,5.68854 -4.84811,5.68854 -0.49122,0 -1.59637,0.25325 -2.4559,0.56277 -1.27522,0.45922 -2.29302,0.5778 -5.53152,0.64449 -2.18281,0.045 -4.67486,-0.0281 -5.53787,-0.16234 z m 2.07103,-12.11332 c 0.075,-0.12127 -0.26998,-0.22049 -0.7665,-0.22049 -0.49652,0 -0.84144,0.0992 -0.76649,0.22049 0.075,0.12127 0.41987,0.22049 0.76649,0.22049 0.34663,0 0.69155,-0.0992 0.7665,-0.22049 z m 4.1283,-0.83785 c 0.82816,-0.82816 0.66788,-1.7612 -0.39688,-2.31037 -0.61049,-0.31488 -1.57719,-0.0304 -1.79112,0.52713 -0.10648,0.27747 0.018,0.34657 0.46894,0.26036 0.90084,-0.17221 1.40867,0.8426 0.7731,1.54489 -0.41939,0.46342 -0.42121,0.50716 -0.0211,0.50716 0.24083,0 0.676,-0.23813 0.96705,-0.52917 z m -6.761881,-0.32345 c 0.520141,-0.74261 0.519241,-1.11888 -0.004,-1.64202 -0.52635,-0.52636 -1.53627,-0.53607 -1.96547,-0.0189 -0.27794,0.33489 -0.22543,0.39687 0.33617,0.39687 0.77574,0 1.1015,0.61412 0.7119,1.34209 -0.39962,0.7467 0.39051,0.67977 0.9213,-0.078 z m -7.39333,1.52855 c 0.92984,-0.45391 1.69252,-0.54283 1.30142,-0.15172 -0.1428,0.14279 -0.67262,0.32252 -1.1774,0.39941 l -0.91777,0.13979 z m -0.13229,-1.99885 c -0.59033,-0.18905 -0.55476,-0.21467 0.33073,-0.23821 0.5457,-0.0145 0.99218,0.0927 0.99218,0.23821 0,0.30289 -0.37715,0.30289 -1.32291,0 z m 0.99218,-2.05269 c -0.9816,-0.6086 -0.92895,-0.97543 0.0661,-0.46085 0.43656,0.22576 0.79375,0.52647 0.79375,0.66825 0,0.32774 0.005,0.32901 -0.8599,-0.2074 z"
       id="path1-57" />
  </g>
  <path
     style="fill:#ffffff;stroke-width:3.35042"
     d="m 45.163015,58.354861 c -0.355473,-0.287844 -0.315276,-0.756381 0.151578,-1.766827 0.475963,-1.030158 0.638666,-1.775888 0.564916,-2.589219 -0.146836,-1.619328 -1.472649,-2.550723 -3.630881,-2.550723 -0.958673,0 -1.498728,-0.152952 -1.498728,-0.424464 0,-0.218539 0.479391,-0.898627 0.92695,-1.315018 1.330599,-1.237934 3.948504,-1.409771 5.875888,-0.385688 0.773345,0.410904 1.884302,1.570331 2.280365,2.379854 0.567114,1.159139 0.257375,2.458091 -1.030301,4.32078 -1.228552,1.777163 -2.956964,2.884221 -3.639787,2.331305 z"
     id="path1"
     transform="scale(0.26458333)" />
  <path
     style="fill:#ffffff;stroke-width:3.35042"
     d="m 54.254424,61.28315 c -0.649349,-0.164421 -1.354818,-0.530059 -1.354818,-0.702189 0,-0.05295 0.108863,-0.165152 0.241919,-0.249339 0.876136,-0.554351 4.737472,-0.511629 5.426288,0.06004 0.218561,0.181389 -0.09951,0.470252 -0.817574,0.742493 -0.798028,0.302558 -2.58805,0.378852 -3.495815,0.148997 z"
     id="path2"
     transform="scale(0.26458333)" />
  <path
     style="fill:#ffffff;stroke-width:3.35042"
     d="m 70.156489,59.424231 c -0.793975,-0.06289 -0.762791,-0.199597 0.340795,-1.493998 1.029072,-1.207005 1.272245,-1.778631 1.271008,-2.987756 -8.61e-4,-0.841579 -0.03873,-1.039458 -0.290589,-1.518536 -0.360424,-0.685578 -1.123106,-1.368853 -1.776409,-1.591455 -0.558866,-0.190425 -1.503384,-0.21714 -2.41244,-0.06824 -1.145887,0.1877 -1.535048,-0.09258 -1.231638,-0.887047 0.58889,-1.541988 2.888257,-2.706421 4.961906,-2.51278 0.882901,0.08245 1.728568,0.414557 2.685711,1.054733 1.318012,0.88154 2.068217,1.874425 2.384411,3.155731 0.154789,0.627248 0.16204,0.839998 0.05075,1.488994 -0.247357,1.442477 -1.264683,2.985664 -2.669182,4.048897 -1.247541,0.944413 -2.365131,1.386635 -3.314323,1.311452 z"
     id="path3"
     transform="scale(0.26458333)" />
</svg>
