<?xml version="1.0" encoding="UTF-8" standalone="no"?>
<svg
   width="36.777084mm"
   height="34.564167mm"
   viewBox="0 0 36.777084 34.564167"
   version="1.1"
   id="svg1"
   sodipodi:docname="kage-happy.svg"
   inkscape:version="1.4.3 (0d15f75, 2025-12-25)"
   xmlns:inkscape="http://www.inkscape.org/namespaces/inkscape"
   xmlns:sodipodi="http://sodipodi.sourceforge.net/DTD/sodipodi-0.dtd"
   xmlns="http://www.w3.org/2000/svg"
   xmlns:svg="http://www.w3.org/2000/svg">
  <defs
     id="defs1" />
  <sodipodi:namedview
     id="namedview1"
     pagecolor="#ffffff"
     bordercolor="#000000"
     borderopacity="0.25"
     inkscape:showpageshadow="2"
     inkscape:pageopacity="0.0"
     inkscape:pagecheckerboard="0"
     inkscape:deskcolor="#d1d1d1"
     inkscape:document-units="mm"
     inkscape:zoom="9.3006364"
     inkscape:cx="69.511372"
     inkscape:cy="65.318111"
     inkscape:window-width="5120"
     inkscape:window-height="1417"
     inkscape:window-x="-8"
     inkscape:window-y="-8"
     inkscape:window-maximized="1"
     inkscape:current-layer="svg1" />
  <g
     transform="translate(-86.611455,-131.21792)"
     id="g1">
    <path
       style="display:inline;fill:#000000"
       d="m 98.260084,159.45895 c -3.828518,-0.21866 -6.905058,-0.63479 -7.524778,-1.0178 -0.5603,-0.34628 -0.12103,-0.74674 1.03298,-0.94171 1.30513,-0.2205 1.46558,-0.45033 0.76009,-1.08879 -1.09449,-0.9905 -1.87636,-2.71026 -2.01448,-4.43095 -0.17778,-2.21472 0.40962,-4.15733 1.94594,-6.43555 1.13066,-1.67668 1.19392,-1.85866 0.90255,-2.59679 -0.89392,-2.26453 -1.36595,-3.88905 -1.2317,-4.2389 0.21724,-0.56612 2.66023,-0.5064 4.652758,0.11374 1.61881,0.50383 1.62635,0.50369 3.13242,-0.058 2.074246,-0.7736 6.583886,-0.80728 9.007816,-0.0673 l 1.67728,0.51207 3.17576,-1.06546 c 2.53604,-0.85084 3.2043,-0.99107 3.31747,-0.69615 0.078,0.20312 -0.18002,1.73098 -0.57327,3.39523 l -0.71499,3.0259 0.93099,1.13615 c 1.41924,1.73199 2.58609,4.29139 2.7424,6.01523 0.16341,1.80206 -0.17741,2.07535 -1.62235,1.30091 l -0.95328,-0.51093 v 1.17392 c 0,1.45717 -0.36586,2.45707 -1.23088,3.36396 l -0.66806,0.70039 1.14791,0.19026 c 0.63135,0.10465 1.43681,0.33959 1.7899,0.52209 0.6179,0.31937 0.62261,0.3422 0.12536,0.60832 -0.90259,0.48305 -3.54538,0.84216 -8.17622,1.11102 -4.97856,0.28903 -6.2452,0.28676 -11.631616,-0.0209 z m 6.771106,-11.26581 c 0.32512,-0.39641 0.29634,-0.42553 -0.27496,-0.27816 -0.35095,0.0905 -0.85696,0.0474 -1.12448,-0.0957 -0.362,-0.19374 -0.48639,-0.16771 -0.48639,0.10178 0,0.19914 0.0794,0.44146 0.17639,0.53847 0.33364,0.33364 1.34683,0.17576 1.70944,-0.26637 z m 7.11,-1.39012 c 0,-0.76153 -1.2404,-1.6067 -2.35806,-1.6067 -0.95526,0 -1.98569,0.52309 -2.58124,1.31036 -0.43721,0.57795 -0.29459,0.60433 0.66883,0.12372 0.94251,-0.47018 2.56147,-0.32846 3.38618,0.29643 0.6676,0.50585 0.88429,0.47551 0.88429,-0.12381 z m -11.84446,-1.36398 c -0.998116,-0.89183 -2.710396,-1.05811 -3.707076,-0.36001 -0.799698,0.56013 -0.794628,1.29875 0.007,1.0604 1.41621,-0.42093 2.50126,-0.447 3.37673,-0.0811 1.249186,0.52205 1.360856,0.308 0.323076,-0.61926 z"
       id="path1-8" />
  </g>
  <path
     style="fill:#ffffff;stroke-width:3.35042"
     d="m 94.977828,60.435061 c -0.304299,-0.141685 -1.07844,-0.615625 -1.720313,-1.0532 -0.641873,-0.437575 -1.550543,-0.955117 -2.019267,-1.150094 -2.282258,-0.949359 -5.299633,-1.308591 -7.803097,-0.928993 -1.371902,0.208021 -2.238563,0.49021 -3.977963,1.295246 -1.596416,0.738861 -2.253157,0.962057 -2.399673,0.815541 -0.236465,-0.236465 0.884669,-1.822067 2.114025,-2.989836 3.010437,-2.85962 7.254705,-4.130979 10.744603,-3.218516 1.886799,0.49332 3.692233,1.489033 4.946711,2.728155 1.222311,1.207349 1.697307,2.327531 1.535008,3.619999 -0.05653,0.450122 -0.152841,0.706057 -0.33382,0.887036 -0.315334,0.315335 -0.398379,0.314927 -1.086214,-0.0053 z"
     id="path1"
     transform="scale(0.26458333)" />
  <path
     style="fill:#ffffff;stroke-width:3.35042"
     d="m 64.055733,65.595196 c -0.6436,-0.229703 -0.901099,-0.447732 -1.159704,-0.981938 -0.333098,-0.688087 -0.419399,-1.868042 -0.1559,-2.131541 0.224359,-0.224359 0.439435,-0.186045 1.455686,0.259316 0.388046,0.170057 0.944459,0.36368 1.236475,0.430274 0.88754,0.202403 2.352266,0.155778 3.622101,-0.115297 0.635697,-0.135704 1.187874,-0.214672 1.227061,-0.175486 0.12633,0.126331 -0.143975,0.559967 -0.771682,1.237965 -0.685571,0.740499 -1.509505,1.197049 -2.642109,1.464021 -0.84641,0.199512 -2.270465,0.205936 -2.811928,0.01269 z"
     id="path2"
     transform="scale(0.26458333)" />
  <path
     style="fill:#ffffff;stroke-width:3.35042"
     d="m 52.523288,56.778789 c -0.413951,-0.137883 -1.212283,-0.431646 -1.774073,-0.652806 -1.799753,-0.70851 -2.853914,-0.927114 -4.786174,-0.992524 -2.50696,-0.08486 -4.50391,0.181245 -7.481582,0.996979 -1.8821,0.515601 -2.506657,0.475646 -2.8468,-0.182119 -0.215826,-0.41736 -0.19483,-0.594961 0.158668,-1.342184 0.731593,-1.546437 2.710579,-2.924159 5.031691,-3.502942 1.254935,-0.312925 3.824847,-0.335754 5.171412,-0.04594 2.699862,0.58108 4.537145,1.593812 6.635146,3.657371 1.206022,1.186222 1.664608,1.774491 1.665382,2.136323 5.88e-4,0.275005 -0.833271,0.241081 -1.77367,-0.07216 z"
     id="path3"
     transform="scale(0.26458333)" />
</svg>
