<?xml version="1.0" encoding="UTF-8" standalone="no"?>
<svg
   width="36.777084mm"
   height="34.564167mm"
   viewBox="0 0 36.777084 34.564167"
   version="1.1"
   id="svg1"
   sodipodi:docname="kage-coffee-on-tail.svg"
   inkscape:version="1.4.3 (0d15f75, 2025-12-25)"
   xmlns:inkscape="http://www.inkscape.org/namespaces/inkscape"
   xmlns:sodipodi="http://sodipodi.sourceforge.net/DTD/sodipodi-0.dtd"
   xmlns="http://www.w3.org/2000/svg"
   xmlns:svg="http://www.w3.org/2000/svg">
  <defs
     id="defs1" />
  <sodipodi:namedview
     id="namedview1"
     pagecolor="#71ffff"
     bordercolor="#000000"
     borderopacity="0.25"
     inkscape:showpageshadow="2"
     inkscape:pageopacity="0.0"
     inkscape:pagecheckerboard="0"
     inkscape:deskcolor="#d1d1d1"
     inkscape:document-units="mm"
     inkscape:zoom="9.3006364"
     inkscape:cx="50.964254"
     inkscape:cy="39.835984"
     inkscape:window-width="1989"
     inkscape:window-height="1211"
     inkscape:window-x="2343"
     inkscape:window-y="78"
     inkscape:window-maximized="0"
     inkscape:current-layer="svg1" />
  <g
     transform="translate(-86.611455,-131.21792)"
     id="g1">
    <path
       style="display:inline;fill:#000000"
       d="m 104.21275,158.86304 c -1.09349,-0.1264 -2.52224,-0.40567 -3.175,-0.6206 -0.65277,-0.21493 -1.603565,-0.47551 -2.112885,-0.57907 -2.61504,-0.53168 -4.58706,-2.48703 -5.15347,-5.10989 -0.33797,-1.56507 0.0788,-3.08576 1.35769,-4.95349 0.96833,-1.41419 1.0958,-1.72131 0.6566,-1.58191 -0.73424,0.23304 -1.62332,-0.28055 -1.62332,-0.93775 0,-0.35503 -0.26564,-0.62622 -0.79375,-0.81032 -1.08872,-0.37953 -1.05668,-1.19453 0.0661,-1.68256 l 0.8599,-0.37375 -0.8599,-0.0104 c -0.91817,-0.0111 -1.91823,-0.78419 -1.91823,-1.48295 0,-0.65956 0.51209,-1.43782 0.94607,-1.43782 0.21905,0 0.75574,-0.26429 1.19265,-0.5873 1.04542,-0.77291 3.91653,-0.97642 5.34645,-0.37897 0.85609,0.3577 0.98002,0.5217 0.96989,1.2835 -0.006,0.48037 -0.16888,1.31385 -0.36109,1.85218 -0.34517,0.96671 -0.33988,0.98212 0.429145,1.25021 1.01312,0.35317 0.89607,1.08227 -0.255095,1.58907 -0.70561,0.31064 -0.85968,0.5266 -0.85968,1.20497 0,0.75223 -0.24669,1.2138 -2.18163,4.08197 -0.787,1.16656 -0.84815,2.25533 -0.20166,3.59078 0.32051,0.6621 0.80744,1.32406 1.08206,1.47103 0.46331,0.24796 0.48787,0.18379 0.34064,-0.89034 -0.33082,-2.41363 1.19213,-5.38383 3.488115,-6.80283 1.04892,-0.64827 2.08118,-2.46474 2.65704,-4.67563 0.43352,-1.66439 1.06982,-2.98864 1.43604,-2.98864 0.14137,0 0.73506,0.43187 1.31931,0.95971 0.99685,0.90059 1.14027,0.94936 2.32847,0.79174 0.69641,-0.0924 1.80327,-0.0676 2.45968,0.055 1.11896,0.20904 1.25723,0.16786 2.21429,-0.65945 0.56144,-0.48533 1.22744,-0.88242 1.48,-0.88242 0.49751,0 1.04014,1.215 1.04014,2.32897 0,0.36437 0.34244,1.3884 0.76098,2.27562 1.08296,2.29563 1.44261,4.20191 1.30841,6.93508 -0.0921,1.87557 -0.25943,2.63613 -0.82755,3.76121 -0.44704,0.88529 -0.65572,1.63499 -0.56059,2.01399 0.12797,0.50987 -0.008,0.66753 -0.87398,1.01406 -2.39389,0.95784 -8.13947,1.43111 -11.98189,0.98696 z m 8.84688,-11.08073 c 0.0787,-0.12733 -0.15023,-0.23151 -0.50872,-0.23151 -0.3585,0 -0.58742,0.10418 -0.50873,0.23151 0.0787,0.12733 0.30762,0.23151 0.50873,0.23151 0.2011,0 0.43003,-0.10418 0.50872,-0.23151 z m -3.31804,-0.27278 c 0.28927,-0.1832 0.25291,-0.2674 -0.17399,-0.4029 -0.75478,-0.23955 -0.94761,-0.93114 -0.42165,-1.51232 0.42126,-0.46548 0.41063,-0.4909 -0.20529,-0.4909 -0.80772,0 -1.28455,0.45458 -1.28455,1.22464 0,1.09726 1.17101,1.76066 2.08548,1.18148 z m 6.2489,-0.55404 c 0.0899,-0.14552 -0.0179,-0.26458 -0.23966,-0.26458 -0.66891,0 -1.02217,-0.94933 -0.53467,-1.43684 0.37728,-0.37727 0.36997,-0.41525 -0.0799,-0.41525 -0.65344,0 -1.13015,0.50222 -1.13015,1.19063 0,0.30559 0.14288,0.6985 0.3175,0.87312 0.38513,0.38513 1.44085,0.41864 1.66688,0.0529 z m -15.80826,-3.2606 c 0.38598,-0.38598 0.35614,-0.44691 -0.351645,-0.71785 -0.55554,-0.21266 -0.88523,-0.21555 -1.1703,-0.0102 -1.27791,0.92034 -2.80055,0.97004 -3.73764,0.12198 -0.35527,-0.32151 -0.64048,-0.36242 -1.20799,-0.17325 -1.95634,0.65212 0.19801,1.43483 3.57749,1.29978 1.80542,-0.0721 2.58159,-0.21192 2.890085,-0.52042 z m -1.682525,-1.20775 c 0.44339,-0.4628 0.78616,-1.16723 0.86903,-1.78594 l 0.13685,-1.02171 h -2.93625 c -1.61494,0 -2.93556,0.0595 -2.93472,0.13229 8.5e-4,0.0728 0.12147,0.56408 0.26806,1.09182 0.64421,2.31921 3.08627,3.16043 4.59703,1.58354 z m -5.60138,-0.97057 c -0.32342,-0.22653 -0.58804,-0.57697 -0.58804,-0.77875 0,-0.20178 0.26462,-0.55221 0.58804,-0.77874 0.58971,-0.41305 0.34962,-0.55203 -0.43411,-0.25128 -0.57429,0.22037 -0.54272,1.59284 0.0445,1.93487 0.73396,0.42749 1.039,0.32876 0.3896,-0.1261 z m 0.73082,-0.31573 c -0.009,-0.45652 -0.48834,-0.91385 -0.77296,-0.73794 -0.23263,0.14377 -0.23194,0.28019 0.003,0.56306 0.33193,0.39995 0.77681,0.50097 0.77015,0.17488 z m 5.82459,-2.24391 c 7.8e-4,-0.50563 -3.33293,-0.76931 -4.82835,-0.3819 -1.42397,0.3689 -0.68848,0.57529 2.0501,0.57529 1.52788,0 2.77809,-0.087 2.77825,-0.19339 z"
       id="path1-86" />
  </g>
  <path
     style="fill:#ffffff;stroke-width:3.35042"
     d="m 83.829236,62.254778 c -0.876992,-0.15736 -2.067057,-0.793561 -2.703152,-1.44509 -1.899247,-1.945326 -2.037669,-5.269467 -0.290335,-6.972263 0.970762,-0.946018 1.92222,-1.257215 3.849591,-1.259102 1.864329,-0.0018 1.889761,0.07175 0.551663,1.595964 -1.300653,1.481559 -1.575341,2.928834 -0.80101,4.220365 0.447833,0.746953 1.186679,1.291818 2.325033,1.714605 0.983441,0.365251 1.342006,0.613133 1.246587,0.861789 -0.09591,0.249939 -1.02817,0.830343 -1.707891,1.063295 -0.754514,0.258583 -1.75858,0.348175 -2.470486,0.220437 z"
     id="path1"
     transform="scale(0.26458333)" />
  <path
     style="fill:#ffffff;stroke-width:3.35042"
     d="m 97.40641,63.340829 c -0.652826,-0.212957 -1.283955,-0.679804 -1.283955,-0.949744 0,-0.08129 0.205631,-0.241134 0.456958,-0.355215 0.809823,-0.367592 2.816816,-0.256114 3.253654,0.180724 0.547353,0.547355 -1.412161,1.455171 -2.426657,1.124235 z"
     id="path2"
     transform="scale(0.26458333)" />
  <path
     style="fill:#ffffff;stroke-width:3.35042"
     d="m 107.34612,60.324742 c -1.92806,-0.304179 -2.91293,-1.092833 -3.47863,-2.785569 -0.25963,-0.776916 -0.30878,-2.077787 -0.10683,-2.827776 0.45347,-1.684067 1.69457,-2.812085 3.43039,-3.117844 0.8168,-0.143878 1.83375,-0.03765 1.83375,0.191557 0,0.08814 -0.33681,0.542479 -0.74845,1.00963 -0.58176,0.660202 -0.78824,0.98624 -0.92712,1.463942 -0.22707,0.781109 -0.15611,1.658483 0.1961,2.424685 0.52982,1.152572 1.18599,1.643938 2.43071,1.820212 1.04281,0.14768 1.3331,0.511214 0.87414,1.094688 -0.44868,0.570403 -2.19649,0.932765 -3.50406,0.726475 z"
     id="path3"
     transform="scale(0.26458333)" />
  <path
     style="fill:#ffffff;stroke-width:3.35042"
     d="m 36.23408,45.385038 c -3.270877,-0.72636 -6.012149,-2.980977 -7.661898,-6.301691 -0.521528,-1.049764 -0.882018,-2.147749 -1.482631,-4.51582 -0.492829,-1.943105 -0.508164,-2.04657 -0.314001,-2.118618 0.622486,-0.230986 3.794103,-0.326765 12.483276,-0.376978 l 9.42216,-0.05445 -0.04061,0.253587 c -0.02233,0.139473 -0.161491,1.148687 -0.309237,2.242698 -0.32435,2.401725 -0.550409,3.261284 -1.236909,4.7032 -1.495029,3.140138 -3.804415,5.233933 -6.671017,6.048251 -1.168001,0.331793 -2.998788,0.384159 -4.189134,0.11982 z"
     id="path4"
     transform="scale(0.26458333)" />
  <path
     style="fill:#ffffff;stroke-width:3.35042"
     d="m 34.567527,49.073838 c -2.772618,-0.206829 -3.761573,-0.310804 -5.107177,-0.53695 -3.306689,-0.555732 -5.375977,-1.464272 -5.375977,-2.360374 0,-0.852346 2.593012,-2.140958 4.582478,-2.277288 0.775241,-0.05312 0.938255,-0.02998 1.455031,0.206612 0.320088,0.146541 0.989416,0.59538 1.487395,0.997421 1.028026,0.829971 2.239603,1.450716 3.495848,1.791078 1.181473,0.320104 3.683795,0.346205 4.945898,0.05159 1.881995,-0.439316 3.509533,-1.151899 5.246243,-2.296955 0.963792,-0.635452 1.657532,-0.836554 2.515888,-0.729309 1.021105,0.127579 3.323001,0.963495 4.020088,1.459865 0.470453,0.334991 0.408494,0.631732 -0.289269,1.385399 -1.188835,1.284084 -2.805006,1.729857 -7.649704,2.109946 -1.917732,0.150455 -8.184816,0.284149 -9.326742,0.198965 z"
     id="path5"
     transform="scale(0.26458333)" />
  <path
     style="fill:#ffffff;stroke-width:3.35042"
     d="m 31.449461,29.767239 c -2.536693,-0.16751 -4.018842,-0.525421 -3.711146,-0.896172 0.423919,-0.51079 3.162441,-1.24765 5.566839,-1.497881 1.8828,-0.195947 6.146493,-0.227667 8.143623,-0.06059 3.798589,0.317794 6.550796,0.999764 6.935475,1.718543 0.09733,0.181858 0.07643,0.231135 -0.131588,0.310221 -0.395911,0.150525 -2.033263,0.328387 -4.06214,0.441261 -2.249336,0.12514 -10.768809,0.114851 -12.741063,-0.01539 z"
     id="path6"
     transform="scale(0.26458333)" />
  <path
     style="fill:#ffffff;stroke-width:3.35042"
     d="m 24.89077,38.070937 c -0.861142,-0.498994 -1.881592,-1.699547 -1.881592,-2.21368 0,-0.322829 0.34969,-0.746506 0.754561,-0.914209 1.027226,-0.425491 2.686064,1.265976 2.686064,2.738899 0,0.751648 -0.652302,0.914402 -1.559033,0.38899 z"
     id="path7"
     transform="scale(0.26458333)" />
  <path
     style="fill:#ffffff;stroke-width:3.35042"
     d="m 24.073512,40.175176 c -1.110493,-0.376273 -2.101132,-0.988751 -2.517783,-1.55666 -0.640821,-0.873458 -0.858352,-1.696691 -0.857353,-3.244593 7.57e-4,-1.172169 0.03239,-1.412723 0.247427,-1.881591 0.472208,-1.029605 1.110003,-1.448546 2.803015,-1.841181 0.746326,-0.173085 1.195712,-0.129722 1.195712,0.115378 0,0.08343 -0.300584,0.409099 -0.667965,0.723708 -1.919835,1.644064 -2.764336,2.69626 -2.770299,3.451617 -0.0059,0.745173 0.753031,1.858602 1.866495,2.738401 0.861366,0.680605 1.679288,1.432111 1.679288,1.54293 0,0.183692 -0.344617,0.166784 -0.978537,-0.04801 z"
     id="path8"
     transform="scale(0.26458333)" />
</svg>
