<?xml version="1.0" encoding="UTF-8" standalone="no"?>
<svg
   width="36.777084mm"
   height="34.564167mm"
   viewBox="0 0 36.777084 34.564167"
   version="1.1"
   id="svg1"
   sodipodi:docname="kage-sleeping.svg"
   inkscape:version="1.4.3 (0d15f75, 2025-12-25)"
   xmlns:inkscape="http://www.inkscape.org/namespaces/inkscape"
   xmlns:sodipodi="http://sodipodi.sourceforge.net/DTD/sodipodi-0.dtd"
   xmlns="http://www.w3.org/2000/svg"
   xmlns:svg="http://www.w3.org/2000/svg">
  <defs
     id="defs1" />
  <sodipodi:namedview
     id="namedview1"
     pagecolor="#ffffff"
     bordercolor="#000000"
     borderopacity="0.25"
     inkscape:showpageshadow="2"
     inkscape:pageopacity="0.0"
     inkscape:pagecheckerboard="0"
     inkscape:deskcolor="#d1d1d1"
     inkscape:document-units="mm"
     inkscape:zoom="9.3006364"
     inkscape:cx="69.511372"
     inkscape:cy="65.318111"
     inkscape:window-width="5120"
     inkscape:window-height="1417"
     inkscape:window-x="-8"
     inkscape:window-y="-8"
     inkscape:window-maximized="1"
     inkscape:current-layer="svg1" />
  <path
     id="rect3-8"
     style="fill:#ffffff;stroke-width:5.97192"
     d="m 23.368494,23.203571 h 6.941281 v 3.328402 H 23.368494 Z M 18.7187,22.815195 h 6.941282 v 6.343876 H 18.7187 Z" />
  <g
     transform="translate(-86.611455,-131.21792)"
     id="g1">
    <path
       style="display:inline;fill:#000000"
       d="m 98.948063,160.21879 c -2.52138,-0.24207 -5.16275,-0.88809 -5.16275,-1.26268 0,-0.34165 0.57977,-0.72628 1.38437,-0.91843 l 0.7229,-0.17263 -0.91402,-1.19743 c -0.50271,-0.65859 -1.0501,-1.69865 -1.21642,-2.31125 -0.43816,-1.6138 -0.13423,-4.3633 0.69906,-6.32409 0.57125,-1.3442 0.71605,-2.11745 0.74427,-3.97452 0.0516,-3.39752 0.74298,-3.83522 3.32194,-2.10317 1.10676,0.7433 1.17727,0.75549 2.342587,0.40478 0.66082,-0.19888 1.89726,-0.3616 2.74763,-0.3616 1.46808,0 1.59441,-0.0534 2.50228,-1.05833 0.52588,-0.58208 1.17177,-1.05833 1.43532,-1.05833 0.5832,0 1.44355,1.0462 1.83449,2.23077 0.25363,0.76851 0.42776,0.89384 1.43326,1.03166 3.5522,0.48688 6.66923,2.82696 7.81582,5.86764 0.69228,1.83587 0.82063,4.62546 0.29817,6.48034 -0.47673,1.69251 -2.57019,3.71269 -4.64645,4.4838 -2.22186,0.82518 -5.32586,0.71167 -6.3298,-0.23148 -0.71764,-0.67419 -0.83914,-1.21324 -0.42173,-1.87107 0.2015,-0.31757 0.90123,-0.39687 3.50167,-0.39687 2.9754,0 3.32252,-0.0518 4.11029,-0.61371 0.47324,-0.33755 0.99469,-0.87333 1.15877,-1.19063 0.26586,-0.5141 0.21539,-0.50122 -0.46356,0.11836 -1.50473,1.37316 -2.44007,1.56436 -5.71477,1.16818 -1.46392,-0.1771 -1.8961,-0.13762 -2.4474,0.2236 -0.78205,0.51242 -0.93308,1.99504 -0.26012,2.55355 0.327,0.27138 0.34032,0.3836 0.0661,0.55751 -0.42925,0.2723 -5.38211,0.22941 -8.541947,-0.074 z m 3.160317,-9.47148 c 0.0837,-0.13547 0.0255,-0.32461 -0.12934,-0.42033 -0.39158,-0.242 -1.11974,0.0751 -0.91884,0.40017 0.20679,0.33461 0.84624,0.3469 1.04818,0.0202 z m -2.883947,-0.9227 c 0.71774,-0.52482 0.37398,-0.73407 -0.60122,-0.36598 -0.67889,0.25626 -0.9312,0.23227 -1.50391,-0.14299 -0.78069,-0.51153 -0.90115,-0.31884 -0.25028,0.40036 0.52264,0.57751 1.64347,0.6292 2.35541,0.10861 z m 7.418307,-0.19878 c 0.49729,-0.56636 0.49695,-0.57099 -0.0251,-0.34652 -0.29104,0.12514 -0.88636,0.22752 -1.32292,0.22752 -0.43656,0 -1.03187,-0.10238 -1.32292,-0.22752 -0.52209,-0.22447 -0.52242,-0.21984 -0.0251,0.34652 0.31934,0.36368 0.81331,0.57403 1.34806,0.57403 0.53475,0 1.02872,-0.21035 1.34805,-0.57403 z m -15.370967,1.63236 c 0.0899,-0.14552 0.42438,-0.26276 0.74322,-0.26053 0.47128,0.003 0.50547,0.052 0.18282,0.26053 -0.52126,0.33686 -1.13424,0.33686 -0.92604,0 z m 0.26458,-1.05833 -0.79375,-0.20198 0.8599,-0.0313 c 0.47294,-0.0172 0.85989,0.0878 0.85989,0.23328 0,0.14552 -0.0298,0.25049 -0.0661,0.23328 -0.0364,-0.0172 -0.42333,-0.1222 -0.85989,-0.23328 z m 19.182287,-9.74858 c 0,-0.12297 0.23813,-0.43908 0.52917,-0.70247 0.29104,-0.26338 0.52917,-0.57949 0.52917,-0.70246 0,-0.12297 -0.23813,-0.22358 -0.52917,-0.22358 -0.29104,0 -0.52917,-0.11906 -0.52917,-0.26458 0,-0.14552 0.41672,-0.26458 0.92604,-0.26458 0.99827,0 1.23468,0.47281 0.52917,1.05833 -0.55143,0.45764 -0.49541,0.79375 0.13229,0.79375 0.29104,0 0.52917,0.11906 0.52917,0.26458 0,0.14552 -0.47625,0.26459 -1.05833,0.26459 -0.58209,0 -1.05834,-0.10061 -1.05834,-0.22358 z m 3.09825,-1.52887 c -0.0907,-0.0907 0.12756,-0.54844 0.48507,-1.01716 0.8158,-1.06957 0.81154,-1.13953 -0.0776,-1.27422 -0.44553,-0.0675 -0.23677,-0.12559 0.53847,-0.14986 1.15088,-0.036 1.24248,0.004 1.00664,0.44513 -0.1427,0.26663 -0.44454,0.6384 -0.67077,0.82615 -0.60345,0.50082 -0.50288,0.80574 0.26575,0.80574 0.38401,0 0.6063,0.11452 0.51355,0.26458 -0.17821,0.28836 -1.79428,0.36648 -2.06112,0.0996 z"
       id="path1-5" />
  </g>
  <path
     style="fill:#ffffff;stroke-width:3.35042"
     d="m 42.241193,71.552352 c -0.813037,-0.127156 -1.727613,-0.458363 -2.44072,-0.883891 -1.018282,-0.607632 -2.811598,-2.922568 -2.503052,-3.231113 0.182141,-0.182141 0.752228,0.05389 2.162244,0.895244 1.940892,1.158119 2.143224,1.232781 3.333106,1.229943 0.947817,-0.0023 1.141548,-0.04337 2.687988,-0.570443 2.931406,-0.999102 4.207087,-0.866724 3.217451,0.333876 -0.42116,0.510939 -1.513334,1.292014 -2.281887,1.631905 -1.230901,0.544363 -2.939782,0.787683 -4.17513,0.594479 z"
     id="path1"
     transform="scale(0.26458333)" />
  <path
     style="fill:#ffffff;stroke-width:3.35042"
     d="m 55.802633,74.50886 c -0.816282,-0.271778 -1.355883,-0.881543 -1.228663,-1.388426 0.149224,-0.594558 1.245346,-1.137401 2.290496,-1.134344 0.776757,0.0023 1.388808,0.328653 1.66189,0.886214 0.191006,0.389984 0.191006,0.414548 0,0.80545 -0.381209,0.780161 -1.683355,1.177493 -2.723723,0.831106 z"
     id="path2"
     transform="scale(0.26458333)" />
  <path
     style="fill:#ffffff;stroke-width:3.35042"
     d="m 69.188814,71.543618 c -1.609635,-0.361332 -2.76543,-1.062668 -3.937635,-2.389358 -0.818099,-0.925918 -1.142241,-1.3632 -1.01049,-1.3632 0.0325,0 0.468236,0.164978 0.968293,0.366617 3.373561,1.36033 7.863063,1.318587 11.077516,-0.102996 0.33918,-0.150002 0.641616,-0.247806 0.67208,-0.217343 0.211506,0.211506 -2.168713,2.586156 -3.058909,3.051751 -1.297381,0.678565 -3.339702,0.962326 -4.710855,0.654529 z"
     id="path3"
     transform="scale(0.26458333)" />
</svg>
