<?xml version="1.0" encoding="UTF-8" standalone="no"?>
<svg
   width="36.777084mm"
   height="34.564167mm"
   viewBox="0 0 36.777084 34.564167"
   version="1.1"
   id="svg1"
   sodipodi:docname="kage-chef-hat.svg"
   inkscape:version="1.4.3 (0d15f75, 2025-12-25)"
   xmlns:inkscape="http://www.inkscape.org/namespaces/inkscape"
   xmlns:sodipodi="http://sodipodi.sourceforge.net/DTD/sodipodi-0.dtd"
   xmlns="http://www.w3.org/2000/svg"
   xmlns:svg="http://www.w3.org/2000/svg">
  <defs
     id="defs1" />
  <sodipodi:namedview
     id="namedview1"
     pagecolor="#ffffff"
     bordercolor="#000000"
     borderopacity="0.25"
     inkscape:showpageshadow="2"
     inkscape:pageopacity="0.0"
     inkscape:pagecheckerboard="0"
     inkscape:deskcolor="#d1d1d1"
     inkscape:document-units="mm"
     inkscape:zoom="9.3006364"
     inkscape:cx="69.511372"
     inkscape:cy="65.318111"
     inkscape:window-width="5120"
     inkscape:window-height="1417"
     inkscape:window-x="-8"
     inkscape:window-y="-8"
     inkscape:window-maximized="1"
     inkscape:current-layer="svg1" />
  <g
     transform="translate(-86.611455,-131.21792)"
     id="g1">
    <path
       style="display:inline;fill:#000000"
       d="m 98.266268,161.6209 c -4.97625,-0.55235 -6.75231,-1.06856 -5.82084,-1.69183 0.21828,-0.14606 0.6113,-0.26738 0.87336,-0.26961 0.42111,-0.004 0.399,-0.10565 -0.19025,-0.87819 -2.21094,-2.89869 -1.94847,-6.52079 0.75251,-10.38457 1.01897,-1.45766 1.21045,-1.92783 1.21169,-2.97532 0.002,-1.60006 0.45269,-3.2163 0.95033,-3.40726 0.21433,-0.0823 1.08807,0.28152 1.94164,0.80837 0.85357,0.52685 1.62329,0.95792 1.7105,0.95792 0.0872,0 0.15856,-0.40726 0.15856,-0.90502 0,-0.78963 -0.1008,-0.92716 -0.79053,-1.07865 -0.99064,-0.21758 -1.85531,-1.28828 -1.85531,-2.29738 0,-0.85648 1.0087,-2.05031 1.77391,-2.09947 0.26128,-0.0168 0.59411,-0.0466 0.73963,-0.0661 0.14552,-0.0196 0.699172,-0.48211 1.230322,-1.02781 0.83766,-0.86061 1.12591,-0.99219 2.1736,-0.99219 0.97156,0 1.38932,0.15931 2.13524,0.81424 0.51005,0.44783 1.04474,0.7417 1.18819,0.65304 0.14345,-0.0887 0.66227,0.007 1.15293,0.21155 1.77959,0.74356 1.88716,3.13183 0.1808,4.01422 -0.57518,0.29744 -0.74927,0.60018 -0.82962,1.44273 -0.0559,0.58647 -0.0605,1.0663 -0.0101,1.0663 0.0504,0 0.58931,-0.34087 1.19761,-0.7575 2.36644,-1.62077 2.76781,-1.36496 3.16182,2.01515 0.14838,1.27283 0.41776,2.49282 0.59863,2.7111 0.71004,0.85692 1.92955,3.64984 2.23159,5.11082 0.17681,0.85523 0.24369,2.14824 0.15053,2.91041 l -0.16764,1.37148 0.7034,-0.77608 c 0.7475,-0.82473 0.74285,-0.7382 0.23528,-4.38329 -0.13734,-0.98635 -0.0582,-1.34892 0.46108,-2.11318 0.74857,-1.10167 1.83791,-1.58025 2.44676,-1.07494 0.61132,0.50735 0.5012,1.42823 -0.24877,2.08032 -0.76131,0.66195 -0.76628,0.70077 -0.34845,2.72367 0.58178,2.81674 -0.76171,4.99276 -3.31939,5.37631 -1.58954,0.23836 -1.74361,0.56721 -0.51002,1.08851 l 1.00286,0.4238 -0.6884,0.36587 c -0.37862,0.20123 -1.45018,0.49774 -2.38125,0.65892 -1.68903,0.29239 -11.4465,0.56859 -13.202232,0.37371 z m 7.690312,-9.64772 c 0.69545,-0.3722 0.64546,-0.96178 -0.0935,-1.10305 -1.14813,-0.21947 -1.64348,0.34525 -0.92929,1.05944 0.38495,0.38495 0.38501,0.38495 1.02281,0.0436 z m -4.50936,-2.90111 c 0.37508,0 0.82285,0.14089 0.99505,0.31309 0.1722,0.1722 0.40437,0.22148 0.51594,0.10952 0.30396,-0.30505 -0.95364,-1.21636 -1.67855,-1.21636 -0.64274,0 -1.690482,0.82923 -1.690482,1.33792 0,0.15671 0.25844,0.0986 0.588042,-0.13229 0.32342,-0.22653 0.89492,-0.41188 1.27,-0.41188 z m 8.26496,0.0885 c 0.986,0.56589 1.28096,0.34994 0.53751,-0.39351 -0.89696,-0.89695 -2.72301,-0.57789 -2.72301,0.47579 0,0.29627 0.13926,0.27933 0.69445,-0.0844 0.65694,-0.43044 0.73748,-0.43033 1.49105,0.002 z m -5.4401,-5.38017 h 2.2355 l -0.0717,-1.35137 c -0.0688,-1.29633 -0.0372,-1.36588 0.77615,-1.70786 1.02592,-0.43137 1.53641,-1.53106 1.12743,-2.42869 -0.34665,-0.7608 -1.4631,-1.22203 -2.11437,-0.87349 -0.37188,0.19903 -0.54437,0.12031 -0.80549,-0.36761 -0.88765,-1.65859 -4.22563,-1.49754 -4.65789,0.22473 -0.13113,0.52245 -0.31797,0.6253 -1.095872,0.60325 -0.99616,-0.0282 -1.92872,0.76382 -1.92872,1.63814 0,0.78617 0.78705,1.59183 1.7274,1.76824 0.903162,0.16943 0.918442,0.19436 0.918442,1.49884 v 1.32654 l 0.82682,-0.16536 c 0.45475,-0.0909 1.8328,-0.16536 3.06232,-0.16536 z m -3.37699,-2.60376 c 0.31474,-0.22067 0.32052,-0.33782 0.0337,-0.68337 -0.43056,-0.51878 -0.0738,-0.5495 0.49159,-0.0423 0.25047,0.22469 0.70903,0.31827 1.14532,0.23374 0.56421,-0.10932 0.73352,-0.29744 0.75397,-0.83773 l 0.0264,-0.69676 0.18291,0.66146 c 0.25384,0.91793 1.29423,1.03863 1.92166,0.22293 0.38176,-0.49632 0.47793,-0.53067 0.48264,-0.1724 0.003,0.24607 -0.12589,0.52884 -0.28695,0.62838 -0.20414,0.12616 -0.1841,0.24988 0.0661,0.40844 0.22206,0.1407 -0.29697,0.23012 -1.36082,0.23442 -0.94588,0.004 -2.19604,0.0751 -2.77812,0.15826 -0.75098,0.10735 -0.94802,0.0739 -0.67847,-0.11504 z"
       id="path1-80" />
  </g>
  <path
     style="fill:#ffffff;stroke-width:3.35042"
     d="m 52.119624,44.647482 c -0.03495,-2.49925 -0.104007,-4.215858 -0.183676,-4.56565 -0.246956,-1.084275 -0.722474,-1.49418 -2.104466,-1.814084 -0.41185,-0.09533 -1.13589,-0.264636 -1.608975,-0.376223 -1.728317,-0.40766 -3.564755,-1.550548 -4.653414,-2.896004 -2.100894,-2.596461 -1.879558,-5.459049 0.599333,-7.751308 0.847399,-0.7836 1.829486,-1.347082 2.978885,-1.709165 0.598895,-0.188663 1.147974,-0.25297 2.687988,-0.314813 1.678638,-0.06741 1.995139,-0.108545 2.386081,-0.310119 0.630417,-0.325049 0.929808,-0.772852 1.317997,-1.971352 0.401223,-1.238737 0.930681,-2.09473 1.768019,-2.85842 2.593935,-2.365784 7.56087,-3.039835 11.408469,-1.548216 1.946598,0.754648 3.374369,1.933668 4.312619,3.561258 0.289168,0.501622 0.707199,1.094323 0.928958,1.317114 0.360718,0.362397 0.460771,0.405075 0.949654,0.405075 0.378785,0 0.782918,-0.104149 1.317114,-0.339432 1.428116,-0.629005 3.085424,-0.509901 4.779726,0.343501 2.316549,1.166822 3.574137,3.064908 3.569469,5.387426 -0.0037,1.852198 -0.693895,3.383386 -2.206142,4.894449 -0.951124,0.95038 -1.049799,1.016515 -2.768426,1.85549 -1.968463,0.960937 -2.428156,1.345248 -2.646549,2.212566 -0.197454,0.78416 -0.133393,4.325626 0.151991,8.402497 l 0.06134,0.876276 -7.557982,0.05224 c -8.882478,0.0614 -10.702054,0.171619 -13.874181,0.840416 -0.8128,0.171368 -1.495821,0.311578 -1.517823,0.311578 -0.022,0 -0.06521,-1.802296 -0.09601,-4.005103 z m 4.574077,-6.52709 c 2.58232,-0.311565 4.419013,-0.424041 8.893209,-0.544603 2.21759,-0.05976 4.505157,-0.156212 5.083482,-0.214348 1.038493,-0.104394 1.797767,-0.322984 1.797767,-0.517565 0,-0.05503 -0.217727,-0.278465 -0.483838,-0.496523 -0.630703,-0.516815 -0.628207,-0.753454 0.01361,-1.289943 0.680987,-0.569235 1.047246,-1.38151 1.055431,-2.340691 0.0047,-0.545701 -0.03904,-0.767071 -0.179081,-0.907157 -0.203532,-0.203602 -0.103608,-0.291731 -2.180189,1.922843 -0.963217,1.027225 -1.80554,1.467745 -2.968142,1.552288 -1.009686,0.07342 -1.788978,-0.197455 -2.558498,-0.88932 -0.672021,-0.604205 -0.972527,-1.221541 -1.474227,-3.028536 -0.217851,-0.784639 -0.41604,-1.406669 -0.440423,-1.382287 -0.02438,0.02438 -0.08736,0.835703 -0.139942,1.802936 -0.05259,0.967233 -0.151739,1.951049 -0.220338,2.186259 -0.269726,0.924812 -1.332947,1.558853 -3.028429,1.805971 -1.546771,0.225445 -2.892747,-0.163259 -4.177507,-1.206421 -2.009001,-1.631208 -3.104752,-1.350749 -1.694265,0.43365 1.058394,1.33897 1.074063,1.542452 0.182493,2.370042 -0.831435,0.771771 -0.80793,0.953723 0.123208,0.953723 0.358888,0 1.436945,-0.09464 2.395684,-0.210318 z"
     id="path1"
     transform="scale(0.26458333)" />
  <path
     style="fill:#ffffff;stroke-width:3.35042"
     d="m 89.56132,68.811352 c -0.267455,-0.08382 -0.993212,-0.42094 -1.612793,-0.749164 -2.533267,-1.342003 -2.87747,-1.487827 -3.526689,-1.494103 -0.739827,-0.0072 -1.3229,0.244683 -2.909931,1.256828 -2.0567,1.311683 -2.442192,1.324267 -2.352636,0.0768 0.06043,-0.841712 0.322015,-1.394769 0.958625,-2.026755 1.663443,-1.65136 5.087598,-1.916827 7.650343,-0.593114 1.406991,0.726741 3.342088,2.936581 3.020804,3.449696 -0.1517,0.242279 -0.613494,0.272299 -1.227723,0.07981 z"
     id="path2"
     transform="scale(0.26458333)" />
  <path
     style="fill:#ffffff;stroke-width:3.35042"
     d="m 70.264009,79.097211 c -0.528313,-0.323703 -1.6746,-1.625615 -1.947712,-2.212142 -0.496363,-1.065973 -0.23271,-1.821688 0.818757,-2.346822 0.806112,-0.402596 1.872664,-0.485157 3.225133,-0.249654 1.247573,0.217238 1.992531,0.600149 2.337234,1.201345 0.309291,0.539435 0.304144,0.739141 -0.03667,1.423074 -0.343896,0.69011 -0.908247,1.137841 -2.333683,1.851439 -1.150849,0.576135 -1.558524,0.64189 -2.063055,0.33276 z"
     id="path3"
     transform="scale(0.26458333)" />
  <path
     style="fill:#ffffff;stroke-width:3.35042"
     d="m 49.174994,69.671842 c -0.304748,-0.794159 1.102809,-2.627274 2.970996,-3.869242 1.752527,-1.165078 3.154642,-1.474868 4.641232,-1.025456 2.049108,0.619467 4.422645,2.277806 5.003477,3.49582 0.159427,0.334325 0.159642,0.386854 0.0026,0.626596 -0.328003,0.500597 -1.130029,0.399207 -1.851244,-0.234028 -1.903037,-1.670889 -5.786562,-1.553697 -8.616028,0.260003 -0.760599,0.487548 -1.635392,0.90591 -1.897257,0.907346 -0.105344,5.77e-4 -0.219524,-0.07189 -0.253733,-0.161039 z"
     id="path4"
     transform="scale(0.26458333)" />
</svg>
