<?xml version="1.0" encoding="UTF-8" standalone="no"?>
<svg
   width="36.777084mm"
   height="34.564167mm"
   viewBox="0 0 36.777084 34.564167"
   version="1.1"
   id="svg1"
   sodipodi:docname="kage-cat-loaf-with-brush.svg"
   inkscape:version="1.4.3 (0d15f75, 2025-12-25)"
   xmlns:inkscape="http://www.inkscape.org/namespaces/inkscape"
   xmlns:sodipodi="http://sodipodi.sourceforge.net/DTD/sodipodi-0.dtd"
   xmlns="http://www.w3.org/2000/svg"
   xmlns:svg="http://www.w3.org/2000/svg">
  <defs
     id="defs1" />
  <sodipodi:namedview
     id="namedview1"
     pagecolor="#ffffff"
     bordercolor="#000000"
     borderopacity="0.25"
     inkscape:showpageshadow="2"
     inkscape:pageopacity="0.0"
     inkscape:pagecheckerboard="0"
     inkscape:deskcolor="#d1d1d1"
     inkscape:document-units="mm"
     inkscape:zoom="9.3006364"
     inkscape:cx="69.511372"
     inkscape:cy="65.318111"
     inkscape:window-width="5120"
     inkscape:window-height="1417"
     inkscape:window-x="-8"
     inkscape:window-y="-8"
     inkscape:window-maximized="1"
     inkscape:current-layer="svg1" />
  <g
     transform="translate(-86.611455,-131.21792)"
     id="g1">
    <path
       style="display:inline;fill:#000000"
       d="m 112.29183,158.75255 c -0.0172,-0.1819 -0.0115,-0.43727 0.0128,-0.5675 0.0248,-0.13309 -0.62767,-0.16157 -1.49002,-0.065 -3.35292,0.37532 -10.43127,0.48012 -13.768602,0.20384 -5.46179,-0.45215 -7.15245,-1.0811 -4.73175,-1.76028 l 0.98303,-0.27581 -0.69865,-0.65276 c -2.70416,-2.52652 -2.32573,-7.38239 0.88344,-11.33596 0.69014,-0.85023 1.00174,-1.55111 1.17185,-2.6359 0.32312,-2.06053 1.10711,-3.74652 1.74212,-3.74652 0.27874,0 1.04898,0.47724 1.71164,1.06054 1.10843,0.97568 1.2649,1.03646 1.955482,0.75964 1.06553,-0.42714 4.75763,-0.43077 6.21835,-0.006 1.21019,0.35181 1.25791,0.34265 2.4349,-0.46714 1.55416,-1.06929 2.66062,-1.31147 2.94583,-0.64477 0.11494,0.26866 0.22523,1.52205 0.24511,2.7853 0.0273,1.73722 0.14385,2.41584 0.47821,2.7853 0.82183,0.90812 1.84186,3.53875 1.98523,5.11985 0.0784,0.86458 0.22135,1.57199 0.31766,1.57199 0.0963,0 0.44042,-0.54609 0.76469,-1.21353 0.43186,-0.88889 0.54368,-1.45822 0.418,-2.12815 -0.1553,-0.82782 -0.0682,-1.01007 0.91835,-1.92082 0.59946,-0.55342 1.08993,-1.14357 1.08993,-1.31145 0,-0.16787 0.11601,-0.30522 0.25779,-0.30522 0.42053,0 1.06513,1.4916 1.06513,2.46472 0,0.9414 -0.84352,2.29778 -1.42897,2.29778 -0.18319,0 -0.47442,0.616 -0.64919,1.37316 -0.17433,0.75524 -0.79324,2.48791 -1.37536,3.85039 -0.58212,1.3625 -0.99147,2.58553 -0.90968,2.71787 0.17367,0.28102 -1.78429,2.37732 -2.22042,2.37732 -0.16255,0 -0.30965,-0.14882 -0.32688,-0.33073 z m 0.5605,-2.84427 c 0,-0.14552 -0.0525,-0.26458 -0.11668,-0.26458 -0.0642,0 -0.19026,0.11906 -0.2802,0.26458 -0.0899,0.14552 -0.0374,0.26459 0.11668,0.26459 0.15411,0 0.2802,-0.11907 0.2802,-0.26459 z m 3.96875,-5.98205 c 0,-0.17857 0.0723,-0.513 0.1606,-0.74318 0.2923,-0.76173 -0.55799,-0.44846 -1.05181,0.38751 -0.39215,0.66387 -0.41634,0.87807 -0.13711,1.21452 0.30351,0.3657 0.37512,0.35912 0.68367,-0.0629 0.18956,-0.25923 0.34465,-0.61744 0.34465,-0.796 z m -7.9375,-0.77797 c 0,-0.30255 -0.11388,-0.34629 -0.43446,-0.16689 -0.23895,0.13373 -0.67428,0.18042 -0.96741,0.10376 -0.35987,-0.0941 -0.47149,-0.0399 -0.34368,0.16689 0.29284,0.47384 1.74555,0.38748 1.74555,-0.10376 z m -4.71497,-0.39886 c -0.74856,-0.30016 -0.70083,-1.24473 0.0848,-1.67764 0.29104,-0.16038 0.58525,-0.32784 0.6538,-0.37214 0.2376,-0.15353 -0.6566,-0.57284 -1.23021,-0.57687 -0.78629,-0.005 -1.40796,0.67861 -1.40796,1.54943 0,0.97529 0.45215,1.3602 1.57427,1.34017 0.84881,-0.0152 0.88014,-0.0405 0.32534,-0.26295 z m 14.1197,-0.89888 c 0.70263,-0.70263 0.79887,-1.30434 0.38339,-2.39713 l -0.26605,-0.69976 -1.05687,0.83706 c -1.17405,0.92987 -1.44518,2.12763 -0.59385,2.62348 0.67034,0.39044 0.81317,0.35657 1.53338,-0.36365 z m -6.82504,-0.61046 c 0.98035,-0.13786 1.12489,-0.46118 0.30233,-0.67628 -0.73028,-0.19098 -1.70712,0.19243 -1.92289,0.75473 -0.13456,0.35066 -0.0713,0.4032 0.29464,0.24454 0.25631,-0.11114 0.85297,-0.25649 1.32592,-0.32299 z"
       id="path1-6" />
  </g>
  <path
     style="fill:#ffffff;stroke-width:3.35042"
     d="m 115.45081,64.94044 c -1.45373,-0.534014 -2.71279,-1.587848 -3.08472,-2.581908 -0.66658,-1.781602 0.049,-3.971401 2.06224,-6.310503 0.5547,-0.644497 5.46005,-4.707456 5.68348,-4.707456 0.0975,0 1.34992,3.389791 1.62752,4.405091 0.33301,1.218002 0.32622,3.2677 -0.0137,4.121602 -0.41763,1.049238 -1.22973,2.12878 -2.58257,3.433077 -1.78038,1.716501 -2.55166,2.059098 -3.69229,1.640097 z"
     id="path1"
     transform="scale(0.26458333)" />
  <path
     style="fill:#ffffff;stroke-width:3.35042"
     d="m 110.68251,74.272351 c -1.1809,-1.23886 -1.28643,-2.019446 -0.49025,-3.626205 0.24809,-0.500671 0.69114,-1.269237 0.98455,-1.707923 1.2937,-1.934233 3.46947,-3.263983 3.71832,-2.272494 0.0781,0.311324 0.0587,0.416139 -0.31767,1.716688 -0.15403,0.532222 -0.35324,1.469951 -0.44269,2.083842 -0.18966,1.301689 -0.59344,2.242958 -1.44357,3.36517 -0.5871,0.775004 -0.91283,1.05592 -1.22436,1.05592 -0.10896,0 -0.4619,-0.276749 -0.78433,-0.614998 z"
     id="path2"
     transform="scale(0.26458333)" />
  <path
     style="fill:#ffffff;stroke-width:3.35042"
     d="m 97.689168,94.071904 c -0.215253,-0.215253 -0.213221,-0.239707 0.05744,-0.691197 0.322474,-0.537914 0.751452,-0.967676 0.965909,-0.967676 0.198374,0 0.42048,0.495592 0.42048,0.938231 0,0.629952 -1.023618,1.140857 -1.443833,0.720642 z"
     id="path3"
     transform="scale(0.26458333)" />
  <path
     style="fill:#ffffff;stroke-width:3.35042"
     d="m 79.48006,69.139916 c -0.37166,-0.08479 -0.877817,-0.265723 -1.124794,-0.402072 -0.453048,-0.250115 -0.979119,-0.888413 -0.907188,-1.100717 0.04226,-0.124737 0.585771,-0.125808 2.278128,-0.0045 1.261159,0.09041 1.966591,-0.02697 2.94607,-0.490188 1.090862,-0.515896 1.407992,-0.393752 1.407992,0.542294 0,0.575437 -0.363887,0.953321 -1.230094,1.27741 -0.828638,0.310034 -2.421955,0.394076 -3.370114,0.177763 z"
     id="path4"
     transform="scale(0.26458333)" />
  <path
     style="fill:#ffffff;stroke-width:3.35042"
     d="m 87.762812,62.013256 c -0.193716,-0.06655 -0.166419,-0.364682 0.09813,-1.07174 0.789703,-2.110671 4.483754,-3.581279 7.216886,-2.873053 0.726963,0.188375 1.577665,0.587631 1.785396,0.837931 0.458936,0.552984 -0.430062,1.119453 -2.299798,1.465431 -2.852808,0.527887 -4.04685,0.798328 -5.053417,1.144562 -1.55528,0.534978 -1.599584,0.547577 -1.747192,0.496869 z"
     id="path5"
     transform="scale(0.26458333)" />
  <path
     style="fill:#ffffff;stroke-width:3.35042"
     d="m 63.622456,67.142472 c -2.251434,-0.211568 -3.605341,-1.159978 -4.139278,-2.899556 -0.231434,-0.754019 -0.25277,-2.932836 -0.03632,-3.709424 0.399309,-1.432684 1.506537,-2.898867 2.656509,-3.517726 0.701732,-0.377638 1.650816,-0.621776 2.417155,-0.621776 1.572822,0 4.722056,1.248485 4.722056,1.872016 0,0.07292 -0.684561,0.516172 -1.521247,0.984998 -1.775577,0.994921 -2.496129,1.604374 -3.003243,2.540184 -0.335913,0.619882 -0.367239,0.755571 -0.367435,1.591571 -1.78e-4,0.762256 0.04424,1.000968 0.267685,1.438494 0.353469,0.692132 0.904587,1.146991 1.914247,1.579902 0.45562,0.195356 0.919095,0.415337 1.029943,0.488848 0.18389,0.121948 0.169764,0.138509 -0.161279,0.189078 -0.681578,0.104113 -2.94192,0.142032 -3.778789,0.06339 z"
     id="path6"
     transform="scale(0.26458333)" />
</svg>
