<?xml version="1.0" encoding="UTF-8" standalone="no"?>
<svg
   width="36.777084mm"
   height="34.564167mm"
   viewBox="0 0 36.777084 34.564167"
   version="1.1"
   id="svg1"
   sodipodi:docname="kage-house-outline.svg"
   inkscape:version="1.4.3 (0d15f75, 2025-12-25)"
   xmlns:inkscape="http://www.inkscape.org/namespaces/inkscape"
   xmlns:sodipodi="http://sodipodi.sourceforge.net/DTD/sodipodi-0.dtd"
   xmlns="http://www.w3.org/2000/svg"
   xmlns:svg="http://www.w3.org/2000/svg">
  <defs
     id="defs1" />
  <sodipodi:namedview
     id="namedview1"
     pagecolor="#ffffff"
     bordercolor="#000000"
     borderopacity="0.25"
     inkscape:showpageshadow="2"
     inkscape:pageopacity="0.0"
     inkscape:pagecheckerboard="0"
     inkscape:deskcolor="#d1d1d1"
     inkscape:document-units="mm"
     inkscape:zoom="9.3006364"
     inkscape:cx="69.511372"
     inkscape:cy="65.318111"
     inkscape:window-width="5120"
     inkscape:window-height="1417"
     inkscape:window-x="-8"
     inkscape:window-y="-8"
     inkscape:window-maximized="1"
     inkscape:current-layer="svg1" />
  <g
     transform="translate(-86.611455,-131.21792)"
     id="g1">
    <path
       style="display:inline;fill:#000000"
       d="m 94.930235,161.48321 c -0.47593,-0.34759 -0.52329,-0.82739 -0.64588,-6.54331 l -0.13229,-6.16821 -1.04121,-0.0796 c -1.28744,-0.0984 -1.73691,-0.45082 -1.73691,-1.36191 0,-0.56837 0.70497,-1.34856 3.63802,-4.02619 7.502255,-6.84896 9.090525,-8.16895 9.821105,-8.16223 0.47751,0.004 1.3607,0.58587 2.81274,1.85187 l 2.11667,1.84548 0.15621,-0.75049 c 0.26101,-1.25392 0.44374,-1.36576 2.23134,-1.36576 2.16525,0 2.30963,0.23573 2.2114,3.61069 l -0.073,2.5091 2.16882,2.0334 c 1.19283,1.11837 2.16881,2.1557 2.16881,2.30519 0,0.14948 -0.18536,0.53641 -0.41188,0.85983 -0.32054,0.45763 -0.67258,0.58804 -1.5875,0.58804 h -1.17562 v 6.08541 c 0,5.73264 -0.0307,6.1161 -0.52917,6.61459 -0.50946,0.50946 -0.88194,0.52916 -10.00359,0.52916 -7.759305,0 -9.567415,-0.0679 -9.988035,-0.37509 z m 1.73251,-0.22022 c -0.002,-0.0364 -0.18017,-0.65062 -0.39688,-1.36497 -0.2167,-0.71435 -0.39401,-1.6716 -0.39401,-2.12722 0,-1.46456 0.79059,-3.94507 1.69233,-5.30978 0.61688,-0.93359 0.93488,-1.78955 1.07171,-2.88469 0.37239,-2.98055 0.91172,-3.37759 2.646055,-1.948 0.97649,0.80491 1.13473,0.84708 2.90456,0.77409 1.02949,-0.0425 2.21418,0.0535 2.63261,0.21313 0.65981,0.25177 0.87696,0.20173 1.63557,-0.37689 0.48111,-0.36696 1.17837,-0.78264 1.54947,-0.92373 0.87199,-0.33153 1.11656,0.1011 1.34854,2.3855 0.1183,1.16495 0.47422,2.315 1.1211,3.62246 0.77989,1.57632 0.96929,2.28748 1.06929,4.01494 0.0702,1.212 -0.005,2.46137 -0.17709,2.95592 -0.34485,0.98923 -0.1461,1.38254 0.35341,0.69941 0.99711,-1.36363 0.64657,-5.13162 -0.74411,-7.9984 -0.63331,-1.30552 -0.94416,-2.37869 -1.05336,-3.63656 -0.26672,-3.0726 -0.91491,-3.4854 -3.19869,-2.03707 -1.21424,0.77005 -1.33921,0.79492 -2.61749,0.52078 -0.7383,-0.15834 -1.82491,-0.21908 -2.41469,-0.13498 -0.93377,0.13315 -1.24075,0.0317 -2.37568,-0.78536 -0.71683,-0.51605 -1.517455,-0.93827 -1.779145,-0.93827 -0.65493,0 -1.23927,1.24444 -1.44908,3.08607 -0.12588,1.10494 -0.46227,2.02244 -1.18266,3.22575 -0.55371,0.92489 -1.14574,2.35117 -1.31563,3.16953 -0.50103,2.41346 -0.0176,5.86449 0.82146,5.86449 0.1404,0 0.25398,-0.0298 0.25241,-0.0661 z m 8.100435,-6.5934 c 0.12864,-0.20814 0.0471,-0.2542 -0.24897,-0.1406 -0.24215,0.0929 -0.44027,0.0574 -0.44027,-0.079 0,-0.13639 -0.18858,-0.17561 -0.41906,-0.0872 -0.3374,0.12948 -0.3503,0.2044 -0.0662,0.38452 0.49645,0.3147 0.9505,0.28464 1.17445,-0.0777 z m 3.49117,-0.53712 c 0.68474,-0.68474 0.19285,-2.07422 -0.7276,-2.05534 -0.32227,0.007 -0.29803,0.0931 0.11322,0.404 0.41629,0.31467 0.46333,0.48881 0.22992,0.85148 -0.16136,0.25074 -0.54318,0.44672 -0.84849,0.43549 -0.43214,-0.0159 -0.49054,0.0574 -0.26367,0.33073 0.36278,0.43712 1.07708,0.45318 1.49662,0.0336 z m -6.29818,-0.60722 c 0.58875,-0.7094 -0.75974,-2.195 -1.40589,-1.54884 -0.0948,0.0948 0.0342,0.33288 0.28663,0.52917 0.43527,0.3385 0.43506,0.37543 -0.004,0.71679 -0.25466,0.19794 -0.46301,0.43607 -0.46301,0.52916 0,0.33914 1.26715,0.1584 1.5864,-0.22628 z"
       id="path1-20" />
  </g>
  <path
     style="fill:#ffffff;stroke-width:3.35042"
     d="m 100.67913,113.53601 c -0.25939,-0.39588 -0.13523,-1.55316 0.33202,-3.09464 0.20797,-0.68613 0.44921,-1.69681 0.53607,-2.24596 0.64503,-4.07774 0.43766,-11.536916 -0.44173,-15.889899 -0.50499,-2.499668 -1.268183,-4.541532 -3.231123,-8.644616 -2.763706,-5.776908 -3.831924,-9.315134 -4.385464,-14.525841 -0.641733,-6.040901 -1.409684,-8.284015 -2.963744,-8.656828 -1.350191,-0.323906 -4.262066,1.067753 -8.111444,3.876665 -0.8279,0.604124 -1.859727,1.26864 -2.292948,1.476703 -1.079181,0.518298 -1.782243,0.515618 -3.405587,-0.01298 -2.373013,-0.772711 -4.607053,-0.956031 -11.116883,-0.912225 -4.68046,0.0315 -4.81635,0.02652 -5.640441,-0.206534 -1.232264,-0.348487 -2.151091,-0.88935 -3.978901,-2.342156 -3.32889,-2.645918 -4.652352,-3.383238 -6.072782,-3.383238 -2.283033,0 -3.407684,2.483339 -4.431086,9.784277 -0.684638,4.8842 -1.6124,7.478642 -4.07555,11.397069 -3.972283,6.319186 -6.892589,16.148758 -6.367247,21.431763 0.179844,1.80857 0.779606,4.6672 1.490881,7.10594 1.418048,4.86204 1.413581,4.84493 1.286297,4.9261 -0.06813,0.0435 -0.380194,0.0797 -0.693472,0.0806 -0.537745,0.002 -0.597872,-0.0269 -1.075196,-0.50907 -2.719494,-2.74703 -3.736837,-15.01771 -1.851369,-22.330284 0.815926,-3.164478 2.71423,-7.596506 4.792386,-11.188927 1.277257,-2.207939 2.516559,-4.748506 3.054977,-6.262694 0.68394,-1.923439 1.029826,-3.406147 1.399001,-5.997088 0.428678,-3.008539 0.762608,-4.583421 1.35166,-6.374683 0.957525,-2.911768 2.371646,-4.894606 3.663586,-5.136975 1.097862,-0.20596 3.626172,1.102316 8.050469,4.165721 1.867428,1.293017 3.259583,2.030419 4.354541,2.306531 0.768104,0.193691 2.2141,0.172088 4.713533,-0.07042 2.264668,-0.219728 5.401926,0.04742 8.972183,0.76401 3.853802,0.773501 4.597707,0.608076 8.732104,-1.941795 3.619675,-2.232418 5.522903,-3.090031 7.096289,-3.197658 0.913043,-0.06246 1.480343,0.07861 2.164667,0.538286 1.607291,1.079645 2.421635,3.710261 3.049608,9.851307 0.556484,5.441934 1.46772,8.626171 4.03421,14.097205 2.381855,5.077451 3.908845,10.33226 4.639735,15.96665 0.2439,1.880294 0.27857,7.209924 0.0563,8.655324 -0.18501,1.2031 -0.62849,2.89037 -0.99032,3.76783 -0.4961,1.20304 -1.34228,2.39228 -1.98469,2.78931 -0.44104,0.27258 -0.44492,0.27224 -0.66053,-0.0568 z"
     id="path1"
     transform="scale(0.26458333)" />
  <path
     style="fill:#ffffff;stroke-width:3.35042"
     d="m 77.897895,87.538834 c -0.236543,-0.07792 -0.545923,-0.203948 -0.68751,-0.280055 -0.398724,-0.214323 -1.192899,-0.982752 -1.370371,-1.325946 -0.247904,-0.479394 -0.05831,-0.615564 0.861452,-0.618719 1.337831,-0.0046 2.262223,-0.329614 3.143388,-1.105246 0.499951,-0.440075 1.117086,-1.516834 1.117263,-1.949365 2.19e-4,-0.536307 -0.46534,-1.154079 -1.503009,-1.994413 -1.183825,-0.958696 -1.311846,-1.141536 -0.907042,-1.295442 0.960011,-0.364995 2.557664,0.335401 3.377893,1.480837 2.175947,3.038674 0.617247,7.054082 -2.793461,7.196311 -0.473311,0.01974 -0.986835,-0.02502 -1.238603,-0.107962 z"
     id="path2"
     transform="scale(0.26458333)" />
  <path
     style="fill:#ffffff;stroke-width:3.35042"
     d="m 65.694429,89.552435 c -0.680564,-0.182359 -1.989062,-0.923702 -2.145152,-1.215358 -0.139211,-0.260119 0.114398,-0.490941 0.844006,-0.76817 0.84856,-0.322428 1.516185,-0.230881 1.516185,0.207903 0,0.560705 0.772648,0.693082 1.929314,0.330547 0.845215,-0.264916 1.015383,-0.227414 0.85859,0.189216 -0.192537,0.511608 -0.85511,1.09834 -1.434669,1.270451 -0.642731,0.19087 -0.80721,0.18934 -1.568274,-0.01459 z"
     id="path3"
     transform="scale(0.26458333)" />
  <path
     style="fill:#ffffff;stroke-width:3.35042"
     d="m 52.480081,85.610836 c -0.142034,-0.07305 -0.307559,-0.211824 -0.367831,-0.308391 -0.169682,-0.27186 0.513276,-1.113265 1.688465,-2.080195 1.589431,-1.307763 1.602686,-1.478538 0.206249,-2.657285 -0.627946,-0.530056 -1.021985,-0.957778 -1.198699,-1.301169 L 52.545013,78.75225 52.79227,78.489057 c 0.36886,-0.392633 1.088037,-0.633302 1.637892,-0.54811 1.556353,0.241132 3.313604,1.944952 3.859479,3.742126 0.290289,0.955716 0.236237,1.625105 -0.186378,2.308117 -0.400512,0.647291 -1.44256,1.231128 -2.744017,1.537416 -1.040153,0.244791 -2.482956,0.285998 -2.879165,0.08223 z"
     id="path4"
     transform="scale(0.26458333)" />
</svg>
