<?xml version="1.0" encoding="UTF-8" standalone="no"?>
<svg
   width="36.777084mm"
   height="34.564167mm"
   viewBox="0 0 36.777084 34.564167"
   version="1.1"
   id="svg1"
   sodipodi:docname="kage-piggy-back.svg"
   inkscape:version="1.4.3 (0d15f75, 2025-12-25)"
   xmlns:inkscape="http://www.inkscape.org/namespaces/inkscape"
   xmlns:sodipodi="http://sodipodi.sourceforge.net/DTD/sodipodi-0.dtd"
   xmlns="http://www.w3.org/2000/svg"
   xmlns:svg="http://www.w3.org/2000/svg">
  <defs
     id="defs1" />
  <sodipodi:namedview
     id="namedview1"
     pagecolor="#ffffff"
     bordercolor="#000000"
     borderopacity="0.25"
     inkscape:showpageshadow="2"
     inkscape:pageopacity="0.0"
     inkscape:pagecheckerboard="0"
     inkscape:deskcolor="#d1d1d1"
     inkscape:document-units="mm"
     inkscape:zoom="9.3006364"
     inkscape:cx="69.511372"
     inkscape:cy="65.318111"
     inkscape:window-width="5120"
     inkscape:window-height="1417"
     inkscape:window-x="-8"
     inkscape:window-y="-8"
     inkscape:window-maximized="1"
     inkscape:current-layer="svg1" />
  <g
     transform="translate(-86.611455,-131.21792)"
     id="g1">
    <path
       style="display:inline;fill:#000000"
       d="m 97.292677,163.23188 c -2.56634,-0.29542 -3.73491,-0.59877 -3.87021,-1.00469 -0.0622,-0.18646 0.24012,-0.39005 0.72227,-0.48648 l 0.82916,-0.16583 -0.52921,-0.56331 c -1.82126,-1.93865 -1.73933,-5.33829 0.19781,-8.20859 0.75113,-1.11297 0.80474,-1.33919 0.67863,-2.86339 -0.18392,-2.22282 0.0255,-2.49596 1.58027,-2.06066 0.82819,0.23188 1.42366,0.61993 1.8905,1.232 0.82441,1.08086 1.746153,1.17038 2.597053,0.25225 0.49888,-0.53829 0.87811,-0.65153 2.36217,-0.70533 1.63651,-0.0593 1.80911,-0.0117 2.3227,0.64124 0.74493,0.94703 1.66632,0.91791 2.40107,-0.0759 0.57479,-0.77745 2.1772,-1.60002 3.11692,-1.60002 0.63012,0 0.81527,0.72649 0.63364,2.48632 -0.12971,1.25676 -0.0627,1.50943 0.66725,2.51715 1.87249,2.58489 2.13027,5.70474 0.64541,7.81133 l -0.81204,1.15205 0.79127,0.15826 c 1.22092,0.24418 0.76055,0.78308 -0.99437,1.16399 -1.93424,0.41983 -12.44375,0.64036 -15.230293,0.3196 z m 7.340963,-7.45158 c 0.13024,-0.21073 0.0446,-0.25326 -0.26813,-0.13324 -0.2527,0.097 -0.68895,0.0535 -0.96945,-0.0966 -0.48432,-0.2592 -0.71013,-0.0135 -0.33361,0.36304 0.29048,0.29048 1.36569,0.19935 1.57119,-0.13316 z m -3.75085,-0.63539 c 0.22867,-0.22868 0.41577,-0.64641 0.41577,-0.92829 0,-0.43416 -0.0755,-0.46533 -0.49412,-0.20393 -0.65032,0.40614 -1.357963,0.11413 -1.357963,-0.56037 0,-0.73968 -0.47781,-0.67508 -0.83696,0.11315 -0.63027,1.38329 1.19868,2.65402 2.273273,1.57944 z m 7.60427,0.085 c 0.56898,-0.45844 0.71847,-1.01956 0.45818,-1.71979 -0.27575,-0.7418 -0.76751,-0.77886 -0.76751,-0.0578 0,0.67302 -0.70719,0.96679 -1.35438,0.56262 -0.62626,-0.39111 -0.76229,-0.38546 -0.76229,0.0317 0,1.16432 1.52587,1.90861 2.426,1.18335 z m -9.285963,-6.1872 c -0.3016,-0.38343 -0.54837,-0.85726 -0.54837,-1.05296 0,-0.1957 -0.45776,-0.58935 -1.01724,-0.87477 -1.20089,-0.61265 -2.61051,-2.13793 -2.84715,-3.08075 -0.34233,-1.36396 0.042,-3.49189 0.87181,-4.82675 0.75149,-1.20889 0.79381,-1.41486 0.67408,-3.28055 -0.0864,-1.34573 -0.0287,-2.05188 0.17791,-2.17959 0.16812,-0.10391 1.0688,0.16819 2.0015,0.60465 1.632013,0.76371 1.760373,0.78251 3.411293,0.49972 1.2684,-0.21726 2.13758,-0.21535 3.33515,0.007 1.57756,0.29338 1.65166,0.28093 2.84963,-0.4788 2.25226,-1.42834 2.95518,-0.90059 2.59887,1.95123 -0.14722,1.1783 -0.0886,1.50821 0.37164,2.09338 0.89985,1.14397 1.58344,2.90928 1.58961,4.10507 0.003,0.61846 0.12069,1.12448 0.26109,1.12448 0.58359,0 0.81182,-1.10177 0.64431,-3.11036 -0.16534,-1.98258 -0.14383,-2.09555 0.55775,-2.92933 0.61404,-0.72976 0.88107,-0.85454 1.68451,-0.78721 1.27835,0.10714 1.39497,0.80004 0.32114,1.90796 -0.78384,0.80872 -0.81262,0.91595 -0.65375,2.43587 0.1272,1.217 0.0625,1.79049 -0.27604,2.44506 -0.45674,0.88324 -1.81687,1.88736 -2.55886,1.8891 -0.23239,5.4e-4 -0.70864,0.25498 -1.05833,0.56542 -0.34969,0.31043 -1.11574,0.78072 -1.70233,1.04508 -0.78275,0.35276 -1.15557,0.72686 -1.40113,1.40595 -0.52941,1.46407 -1.87573,1.51013 -2.40394,0.0823 -0.15671,-0.42362 -0.49029,-0.49565 -2.3841,-0.51479 l -2.2019,-0.0223 -0.35166,0.83634 c -0.43747,1.04043 -1.194003,1.09456 -1.945493,0.1392 z m 4.589363,-7.93013 c 0.66209,-0.25407 0.48814,-0.49834 -0.37676,-0.52908 -0.64006,-0.0227 -0.73629,0.0414 -0.49616,0.33073 0.34363,0.41405 0.32303,0.40937 0.87292,0.19835 z m -3.35179,-1.51197 c 0.96894,-0.008 1.10991,-0.29168 0.34812,-0.69937 -1.081193,-0.57864 -2.398643,-0.17443 -2.398643,0.73592 0,0.27214 0.16307,0.3195 0.59531,0.17289 0.32742,-0.11105 0.98226,-0.2053 1.455213,-0.20944 z m 6.85893,0.0579 c 1.1625,0.52967 1.54829,0.20401 0.72894,-0.61534 -0.53922,-0.53921 -1.40101,-0.52974 -2.01079,0.0221 -0.65992,0.59722 -0.61097,0.97168 0.0788,0.60254 0.41317,-0.22112 0.73277,-0.2236 1.20307,-0.009 z"
       id="path1-79" />
  </g>
  <path
     style="fill:#ffffff;stroke-width:3.35042"
     d="m 81.015961,32.777486 c -0.750264,-0.156251 -1.336466,-0.346859 -2.523047,-0.820386 -2.294791,-0.915779 -3.061251,-0.925113 -4.907848,-0.05977 -1.154309,0.540928 -1.813062,0.652107 -1.917328,0.323593 -0.110224,-0.347286 0.321047,-1.064856 1.161046,-1.931805 0.900413,-0.9293 1.69857,-1.482206 2.625215,-1.81856 1.383251,-0.502093 2.748238,-0.431644 4.110449,0.212146 1.391949,0.657846 3.194802,2.913245 2.915635,3.64751 -0.151997,0.399784 -0.776333,0.59051 -1.464122,0.447272 z"
     id="path1"
     transform="scale(0.26458333)" />
  <path
     style="fill:#ffffff;stroke-width:3.35042"
     d="m 62.731137,37.699162 c -0.494188,-0.30136 -1.467684,-1.572597 -1.425858,-1.861953 0.045,-0.311311 0.336948,-0.386292 1.539883,-0.395489 1.903806,-0.01455 3.494384,0.359301 3.494384,0.821331 0,0.413449 -0.573505,0.773049 -2.078317,1.303149 -1.114983,0.392775 -1.105401,0.391943 -1.530092,0.132962 z"
     id="path2"
     transform="scale(0.26458333)" />
  <path
     style="fill:#ffffff;stroke-width:3.35042"
     d="m 44.850078,32.557966 c -0.205001,-0.165999 -0.249691,-0.303398 -0.246178,-0.756875 0.01185,-1.530245 1.006489,-2.745839 2.75845,-3.37124 0.810536,-0.289339 2.619909,-0.394235 3.663989,-0.212416 1.620065,0.282122 3.849792,1.462376 4.216842,2.232088 0.177738,0.372722 0.176643,0.379023 -0.108526,0.624314 -0.400102,0.344154 -1.083203,0.466142 -3.287341,0.587052 -2.036506,0.111714 -3.943184,0.392986 -5.076321,0.748857 -1.107472,0.34781 -1.625107,0.387751 -1.920915,0.14822 z"
     id="path3"
     transform="scale(0.26458333)" />
  <path
     style="fill:#ffffff;stroke-width:3.35042"
     d="m 49.04098,91.705493 c -2.871008,-0.77211 -4.706132,-3.763017 -3.924451,-6.396116 0.384173,-1.294088 1.323573,-2.714142 2.011385,-3.04053 0.78718,-0.373541 1.19023,0.174112 1.358542,1.845946 0.122573,1.217517 0.427191,1.818042 1.156966,2.280852 1.18763,0.753173 2.377835,0.674922 4.189959,-0.275471 0.60998,-0.319913 1.180695,-0.554169 1.268255,-0.520569 0.179669,0.06895 0.376937,0.681332 0.377839,1.172941 0.0019,1.058655 -0.742913,2.719913 -1.612193,3.595689 -1.293225,1.302889 -3.096363,1.802497 -4.826302,1.337258 z"
     id="path4"
     transform="scale(0.26458333)" />
  <path
     style="fill:#ffffff;stroke-width:3.35042"
     d="m 63.205204,93.769082 c -0.275062,-0.07409 -0.628878,-0.219079 -0.786257,-0.322197 -0.321369,-0.210569 -0.917779,-1.091726 -0.917779,-1.355959 0,-0.518653 0.775386,-0.569085 1.80981,-0.117711 0.394294,0.172051 0.92979,0.369406 1.189989,0.438566 0.751542,0.199757 2.036598,0.155876 2.85714,-0.09756 0.397645,-0.12282 0.766596,-0.19636 0.819891,-0.163422 0.292777,0.180945 -0.217789,0.896782 -0.880916,1.235084 -0.971888,0.49582 -2.976733,0.683573 -4.091878,0.383202 z"
     id="path5"
     transform="scale(0.26458333)" />
  <path
     style="fill:#ffffff;stroke-width:3.35042"
     d="m 78.129749,91.604651 c -1.687124,-0.426632 -3.386205,-1.773947 -4.06419,-3.222769 -0.424473,-0.907078 -0.615809,-2.113688 -0.4323,-2.726188 0.223343,-0.745452 0.521522,-0.700347 2.383045,0.360483 1.662028,0.947144 2.952802,1.132017 4.031982,0.577486 0.984916,-0.506094 1.370715,-1.193418 1.544388,-2.75142 0.121578,-1.090664 0.2179,-1.3454 0.604521,-1.598723 1.051513,-0.688978 2.780179,2.425878 2.600694,4.686149 -0.03053,0.384455 -0.160885,0.980656 -0.289679,1.324889 -0.481066,1.285764 -1.892874,2.699381 -3.188794,3.192882 -0.80835,0.307829 -2.302768,0.381485 -3.189667,0.157211 z"
     id="path6"
     transform="scale(0.26458333)" />
</svg>
