<?xml version="1.0" encoding="UTF-8" standalone="no"?>
<svg
   width="36.777084mm"
   height="34.564167mm"
   viewBox="0 0 36.777084 34.564167"
   version="1.1"
   id="svg1"
   sodipodi:docname="kage-love.svg"
   inkscape:version="1.4.3 (0d15f75, 2025-12-25)"
   xmlns:inkscape="http://www.inkscape.org/namespaces/inkscape"
   xmlns:sodipodi="http://sodipodi.sourceforge.net/DTD/sodipodi-0.dtd"
   xmlns="http://www.w3.org/2000/svg"
   xmlns:svg="http://www.w3.org/2000/svg">
  <defs
     id="defs1" />
  <sodipodi:namedview
     id="namedview1"
     pagecolor="#ffffff"
     bordercolor="#000000"
     borderopacity="0.25"
     inkscape:showpageshadow="2"
     inkscape:pageopacity="0.0"
     inkscape:pagecheckerboard="0"
     inkscape:deskcolor="#d1d1d1"
     inkscape:document-units="mm"
     inkscape:zoom="9.3006364"
     inkscape:cx="69.511372"
     inkscape:cy="65.318111"
     inkscape:window-width="5120"
     inkscape:window-height="1417"
     inkscape:window-x="-8"
     inkscape:window-y="-8"
     inkscape:window-maximized="1"
     inkscape:current-layer="svg1" />
  <g
     transform="translate(-86.611455,-131.21792)"
     id="g1">
    <path
       style="display:inline;fill:#000000"
       d="m 97.297599,161.53606 c -2.35398,-0.28822 -3.95837,-0.76527 -4.10784,-1.22143 -0.0613,-0.18718 0.39476,-0.46302 1.1108,-0.67181 l 1.21486,-0.35424 -0.79325,-0.75998 c -2.41035,-2.30926 -1.88658,-7.35664 1.13652,-10.95216 0.53158,-0.63223 0.96767,-1.34661 0.96909,-1.5875 0.003,-0.56584 1.23387,-3.2112 1.76859,-3.80205 0.48758,-0.53877 1.07088,-0.31936 2.340541,0.8804 l 0.80443,0.76014 2.11737,-0.30861 c 1.47529,-0.21502 2.52105,-0.22879 3.44858,-0.0454 1.29253,0.25556 1.36103,0.23743 2.35762,-0.62406 1.31928,-1.14042 2.20921,-1.38271 2.60512,-0.70925 0.40264,0.68491 0.95043,2.49843 0.95532,3.16272 0.002,0.3001 0.52316,1.2526 1.15768,2.11667 1.57581,2.14591 2.14424,3.77596 2.12391,6.09065 -0.0191,2.16997 -0.71458,3.92132 -1.98022,4.98628 l -0.77809,0.65472 0.99714,0.1749 c 1.20882,0.21204 2.33074,0.87212 2.01648,1.18639 -0.12533,0.12532 -1.00126,0.42244 -1.94652,0.66027 -2.05454,0.51694 -14.20537,0.76895 -17.518131,0.36334 z m 12.174681,-9.55573 c 0.17463,-0.17463 0.3175,-0.56789 0.3175,-0.87393 0,-0.4751 -0.15466,-0.55437 -1.05829,-0.54239 -0.88593,0.0117 -1.0583,0.10236 -1.05833,0.55642 -5e-5,0.64913 0.47478,1.1774 1.05829,1.1774 0.23283,0 0.56621,-0.14288 0.74083,-0.3175 z m -4.04812,-1.53459 c 0.46759,-0.51669 0.46213,-0.52916 -0.23188,-0.52916 -0.83322,0 -1.18042,-0.64263 -0.73368,-1.35797 0.48598,-0.77818 -0.64022,-0.64951 -1.15204,0.13163 -0.97717,1.49135 0.92761,3.07042 2.1176,1.7555 z m 7.65402,-0.68035 c 0.53502,-0.53503 0.52933,-0.74276 -0.0146,-0.53402 -0.85368,0.32759 -1.65708,-1.16453 -0.82637,-1.53476 0.18191,-0.0811 0.0355,-0.12076 -0.3254,-0.0882 -0.94073,0.0849 -1.34218,1.29727 -0.67403,2.03557 0.58212,0.64324 1.27302,0.68881 1.84043,0.12141 z m -4.60047,-8.85988 c 0.31683,-0.44494 0.63872,-0.74631 0.71532,-0.66972 0.19754,0.19755 -0.68174,1.4787 -1.01486,1.4787 -0.15208,0 -0.0173,-0.36404 0.29954,-0.80898 z m 1.90497,-1.04167 c -1.44968,-0.88388 -2.34903,-2.91237 -1.71333,-3.86443 0.47885,-0.71713 1.38216,-0.93968 2.18615,-0.5386 0.44402,0.22151 0.84656,0.28492 0.93192,0.14681 0.27029,-0.43734 1.69454,-0.25512 2.2357,0.28604 0.65059,0.65059 0.66662,1.21123 0.0661,2.31309 -0.46143,0.84669 -2.03413,2.18572 -2.56495,2.18384 -0.15363,-5.5e-4 -0.66737,-0.23758 -1.14164,-0.52675 z m 3.09983,-1.50219 c 0.64583,-0.82104 0.69567,-1.74597 0.12483,-2.3168 -0.52351,-0.52351 -0.89941,-0.52404 -1.64431,-0.002 -0.53528,0.37492 -0.62889,0.37492 -1.00381,0 -0.60656,-0.60656 -1.36184,-0.50503 -1.85625,0.24954 -0.59969,0.91523 -0.11297,2.0309 1.31872,3.02283 l 1.08788,0.75372 0.71617,-0.50987 c 0.39389,-0.28042 0.95944,-0.81913 1.25677,-1.19713 z"
       id="path1-83" />
  </g>
  <path
     style="fill:#ffffff;stroke-width:3.35042"
     d="m 91.92053,31.861444 c -2.837749,-1.963961 -3.76535,-2.68997 -4.89632,-3.832223 -2.111823,-2.132894 -3.151892,-4.492336 -2.852142,-6.47021 0.264337,-1.744202 1.608582,-3.649138 3.080026,-4.364718 0.567423,-0.275944 0.761658,-0.313617 1.612793,-0.312809 0.835676,7.93e-4 1.04971,0.0411 1.569066,0.295517 0.330765,0.162029 0.959754,0.614066 1.397754,1.004526 1.064717,0.949154 1.351425,1.117346 1.905507,1.117826 0.54964,4.76e-4 0.562642,-0.0058 2.249503,-1.094453 2.759065,-1.780543 3.946899,-1.808472 5.716623,-0.134415 1.22754,1.161186 1.73201,2.302974 1.72885,3.912968 -0.004,2.203907 -0.951,4.050634 -3.3294,6.494799 -1.562483,1.60569 -2.426754,2.344047 -4.356654,3.721948 -0.768764,0.548877 -1.450036,1.039078 -1.513936,1.089333 -0.07233,0.05688 -0.944856,-0.482138 -2.31167,-1.428089 z"
     id="path1"
     transform="scale(0.26458333)" />
  <path
     style="fill:#ffffff;stroke-width:3.35042"
     d="m 95.988501,71.444277 c -1.362396,-0.343436 -2.944175,-1.655802 -3.603405,-2.989663 -0.394345,-0.797902 -0.402143,-0.837766 -0.402143,-2.055732 0,-1.123398 0.02761,-1.300961 0.289015,-1.858725 0.816391,-1.741943 2.209482,-2.60808 4.074617,-2.533341 l 0.797305,0.03195 -0.513125,0.301622 c -0.282219,0.165892 -0.645098,0.501139 -0.806397,0.744992 -0.259676,0.392581 -0.292839,0.542777 -0.289501,1.311171 0.0031,0.704395 0.05617,0.979153 0.282055,1.459159 0.622792,1.323433 1.554782,2.147904 2.699409,2.387992 0.543672,0.114037 0.702485,0.101314 1.499409,-0.12012 0.49023,-0.136216 0.96917,-0.267851 1.06431,-0.292521 0.0951,-0.02467 0.23124,0.02534 0.30244,0.111128 0.2009,0.242074 -0.0992,0.712539 -1.14912,1.801704 -0.707843,0.734278 -1.099193,1.043949 -1.68331,1.331986 -0.835208,0.411855 -1.824665,0.554156 -2.561559,0.368398 z"
     id="path2"
     transform="scale(0.26458333)" />
  <path
     style="fill:#ffffff;stroke-width:3.35042"
     d="m 82.521235,79.424435 c -1.638122,-0.569056 -2.697818,-2.054301 -2.820949,-3.953777 -0.10112,-1.559917 0.321153,-1.988295 2.175542,-2.206995 0.570588,-0.06729 1.771751,-0.101421 2.669252,-0.07584 2.510333,0.07155 2.975813,0.375367 2.975813,1.942281 0,1.284552 -0.503261,2.614106 -1.254065,3.313087 -0.552854,0.514693 -0.86004,0.694209 -1.634196,0.955003 -0.791585,0.266666 -1.397613,0.274198 -2.111397,0.02624 z"
     id="path3"
     transform="scale(0.26458333)" />
  <path
     style="fill:#ffffff;stroke-width:3.35042"
     d="m 65.836061,74.234513 c -2.008103,-0.636416 -3.516772,-2.54418 -3.661773,-4.630442 -0.152422,-2.193019 1.226462,-4.532162 3.265755,-5.540035 1.306597,-0.645756 2.404777,-0.511531 2.404777,0.293922 0,0.163214 -0.200989,0.67584 -0.446641,1.13917 -1.202249,2.267585 -0.911987,3.920792 0.83981,4.783199 0.641773,0.315944 0.803877,0.346439 2.26192,0.425518 0.863831,0.04685 1.616495,0.131077 1.672587,0.187169 0.201736,0.201736 -0.06706,0.596369 -1.140147,1.673878 -1.126446,1.131094 -1.775081,1.547101 -2.769779,1.77642 -0.724862,0.16711 -1.692876,0.123706 -2.426509,-0.108799 z"
     id="path4"
     transform="scale(0.26458333)" />
</svg>
