<?xml version="1.0" encoding="UTF-8" standalone="no"?>
<svg
   width="36.777084mm"
   height="34.564167mm"
   viewBox="0 0 36.777084 34.564167"
   version="1.1"
   id="svg1"
   sodipodi:docname="kage-heart-and-leaf.svg"
   inkscape:version="1.4.3 (0d15f75, 2025-12-25)"
   xmlns:inkscape="http://www.inkscape.org/namespaces/inkscape"
   xmlns:sodipodi="http://sodipodi.sourceforge.net/DTD/sodipodi-0.dtd"
   xmlns="http://www.w3.org/2000/svg"
   xmlns:svg="http://www.w3.org/2000/svg">
  <defs
     id="defs1" />
  <sodipodi:namedview
     id="namedview1"
     pagecolor="#ffffff"
     bordercolor="#000000"
     borderopacity="0.25"
     inkscape:showpageshadow="2"
     inkscape:pageopacity="0.0"
     inkscape:pagecheckerboard="0"
     inkscape:deskcolor="#d1d1d1"
     inkscape:document-units="mm"
     inkscape:zoom="9.3006364"
     inkscape:cx="69.511372"
     inkscape:cy="65.318111"
     inkscape:window-width="5120"
     inkscape:window-height="1417"
     inkscape:window-x="-8"
     inkscape:window-y="-8"
     inkscape:window-maximized="1"
     inkscape:current-layer="svg1" />
  <g
     transform="translate(-86.611455,-131.21792)"
     id="g1">
    <path
       style="display:inline;fill:#000000"
       d="m 95.402155,159.67975 c -1.28672,-0.12386 -2.81357,-0.35285 -3.393,-0.50888 -0.87471,-0.23553 -0.99979,-0.34841 -0.73697,-0.66509 0.1741,-0.20977 0.53307,-0.38141 0.7977,-0.38141 0.738,0 0.82445,-0.40511 0.2042,-0.95683 -1.57363,-1.39974 -2.02336,-4.88559 -0.98751,-7.65416 0.30602,-0.8179 1.12094,-2.23296 1.81095,-3.14458 0.69,-0.91162 1.335,-2.05974 1.43332,-2.55138 0.30572,-1.52859 1.22265,-3.15555 1.77843,-3.15555 0.27764,0 0.96965,0.41996 1.53779,0.93324 0.99184,0.89607 1.07882,0.92267 2.183585,0.66793 0.63282,-0.14592 1.53754,-0.26823 2.01048,-0.27178 0.73911,-0.006 0.8599,-0.0994 0.8599,-0.66793 0,-0.45319 -0.14579,-0.66177 -0.46303,-0.66245 -0.84891,-0.002 -2.20935,-1.05625 -2.614825,-2.02666 -0.35039,-0.8386 -0.35223,-1.00567 -0.0148,-1.3431 0.337435,-0.33742 0.534025,-0.3196 1.580485,0.1433 0.71421,0.31593 1.2693,0.76239 1.37947,1.10951 0.18014,0.56756 0.20044,0.56196 0.88613,-0.24441 0.66286,-0.77951 2.20233,-1.47286 2.53394,-1.14124 0.0837,0.0837 0.15221,0.52832 0.15221,0.98803 0,0.96573 -0.7795,1.82449 -2.0619,2.27153 -0.60338,0.21034 -0.84851,0.46165 -0.84851,0.8699 0,0.48541 0.27253,0.64558 1.76423,1.03682 1.71035,0.44859 1.78105,0.44737 2.3151,-0.0399 0.67588,-0.61664 2.10973,-1.35823 2.62609,-1.35823 0.55523,0 0.70291,0.59354 0.70291,2.82506 0,1.57489 0.11182,2.14507 0.53806,2.74368 1.5847,2.2255 2.51561,6.10981 1.8926,7.897 -0.34905,1.00129 -0.0826,1.03816 0.98862,0.13678 0.54642,-0.45978 0.81405,-0.92473 0.81405,-1.4142 0,-1.51121 1.90084,-2.14697 2.54446,-0.85103 0.63004,1.26862 -0.55002,3.49775 -2.34908,4.43741 -0.61044,0.31884 -1.98869,0.55709 -3.56882,0.61694 -0.53255,0.0202 -0.37952,0.54169 0.15896,0.54169 0.71125,0 2.15615,0.54243 2.15615,0.80943 0,1.01393 -11.87669,1.65879 -18.611375,1.01053 z m 13.812275,-8.78736 c 0.23286,-0.28058 0.13119,-0.35278 -0.49677,-0.35278 -0.80514,0 -1.05562,0.28951 -0.45882,0.53033 0.53373,0.21536 0.64696,0.19433 0.95559,-0.17755 z m -3.79986,-1.48193 c 0.9617,0.38168 1.06823,0.23919 0.31597,-0.42261 -0.40829,-0.35921 -1.00688,-0.6531 -1.33019,-0.6531 -0.72214,0 -1.76391,0.69675 -1.76391,1.17973 0,0.29496 0.19275,0.29856 1.12448,0.021 0.646,-0.19246 1.34965,-0.24565 1.65365,-0.12499 z m 5.95312,-0.0174 c 0,-0.14552 -0.17859,-0.26458 -0.39687,-0.26458 -0.47257,0 -0.52701,-0.82237 -0.0838,-1.26559 0.43518,-0.43519 0.025,-0.76208 -0.52422,-0.41782 -0.56314,0.35294 -0.72557,1.32465 -0.30595,1.83026 0.36008,0.43388 1.31083,0.51927 1.31083,0.11773 z m -8.46666,-9.48587 c 0,-0.124 -0.2679,-0.62084 -0.59532,-1.10408 -0.55878,-0.82471 -1.89879,-1.55622 -2.23496,-1.22005 -0.299955,0.29995 0.53712,1.78539 1.21316,2.15281 0.77786,0.42275 1.61712,0.51167 1.61712,0.17132 z m 1.87658,-0.18409 c 0.8548,-0.44203 1.48119,-1.63018 1.07407,-2.0373 -0.5766,-0.5766 -2.42149,0.97199 -2.42149,2.03258 0,0.52211 0.34457,0.52331 1.34742,0.005 z m 13.6874,13.02334 c -0.0984,-0.48282 -0.0616,-0.65679 0.1041,-0.49113 0.1411,0.1411 0.2097,0.47755 0.15244,0.74767 -0.0771,0.36375 -0.14364,0.29722 -0.25654,-0.25654 z m 0.62718,-0.31065 c 0.005,-0.43656 0.0647,-0.58312 0.13177,-0.32569 0.0671,0.25743 0.0627,0.61461 -0.01,0.79375 -0.0725,0.17913 -0.12736,-0.0315 -0.12197,-0.46806 z m -4.92936,-1.0036 c 0.0994,-0.26094 0.2473,-0.40778 0.32876,-0.32632 0.0815,0.0815 1.7e-4,0.29496 -0.18065,0.47443 -0.26131,0.25937 -0.2917,0.22898 -0.14811,-0.14811 z m 0.76819,-2.75538 -0.80231,-0.10241 0.15352,-1.60563 c 0.16177,-1.69199 0.52701,-2.19557 1.82963,-2.52265 1.34067,-0.33664 2.9116,1.27925 2.56935,2.64287 -0.37984,1.5134 -1.29564,1.90115 -3.75019,1.58782 z m 2.93099,-0.72691 c 0.82769,-0.82769 0.82769,-1.8422 0,-2.66989 -0.79471,-0.79471 -1.69757,-0.82835 -2.62625,-0.0979 -0.60242,0.47387 -0.69478,0.73295 -0.65563,1.83912 0.0381,1.07649 0.13635,1.30546 0.59938,1.39678 1.39096,0.27432 2.05611,0.15824 2.6825,-0.46815 z m -2.13016,-0.93969 c -0.58657,-0.64815 -0.3825,-0.89208 0.8101,-0.96838 0.71232,-0.0456 0.91116,0.0424 0.91116,0.40294 0,0.52536 -0.48844,1.09623 -0.93795,1.09623 -0.16663,0 -0.51911,-0.23886 -0.78331,-0.53079 z"
       id="path1-10" />
  </g>
  <path
     style="fill:#ffffff;stroke-width:3.35042"
     d="m 59.206674,33.493424 c -1.554928,-0.279546 -3.635104,-1.179228 -4.555597,-1.970309 -2.079363,-1.787023 -4.215888,-5.572933 -3.935676,-6.973993 0.200986,-1.004926 1.602748,-0.97696 3.688148,0.07358 2.78679,1.403874 4.875564,3.611568 6.524785,6.89626 0.637705,1.270092 0.679856,1.576957 0.252849,1.840766 -0.292081,0.180451 -1.325298,0.250411 -1.974509,0.133696 z"
     id="path1"
     transform="scale(0.26458333)" />
  <path
     style="fill:#ffffff;stroke-width:3.35042"
     d="m 64.234434,33.445615 c -0.465314,-0.200257 -0.622089,-0.646978 -0.559842,-1.595245 0.24884,-3.790831 6.654692,-9.202715 8.849449,-7.476319 0.876551,0.689495 0.757276,2.365113 -0.29491,4.142995 -1.003078,1.694903 -2.266698,2.872331 -4.061753,3.784695 -2.064905,1.049521 -3.310443,1.411778 -3.932944,1.143874 z"
     id="path2"
     transform="scale(0.26458333)" />
  <path
     style="fill:#ffffff;stroke-width:3.35042"
     d="m 111.15246,65.412456 c -1.36477,-0.107174 -3.45725,-0.484736 -3.88569,-0.701124 -0.83003,-0.419211 -1.15701,-1.079642 -1.35483,-2.736488 -0.17909,-1.499894 -0.18794,-5.061871 -0.0145,-5.849652 0.27575,-1.252822 0.9364,-2.18496 2.3178,-3.270278 2.84769,-2.237344 5.54707,-2.575791 8.14643,-1.021392 0.83361,0.498497 2.59386,2.259699 3.07329,3.074967 0.49161,0.835957 0.86126,1.951333 0.94488,2.850992 0.19016,2.046081 -1.06162,4.516229 -3.09487,6.107142 -1.68809,1.32084 -3.42434,1.758501 -6.13247,1.545833 z m 3.15481,-4.036814 c 1.75802,-0.956832 2.93253,-3.884644 1.97348,-4.919473 -0.40331,-0.435176 -0.99016,-0.526729 -2.90141,-0.452638 -4.61666,0.178967 -5.58864,1.132152 -3.55295,3.484267 0.76679,0.885973 1.61077,1.589496 2.36148,1.968475 0.7789,0.393211 1.28411,0.373991 2.1194,-0.08063 z"
     id="path3"
     transform="scale(0.26458333)" />
  <path
     style="fill:#ffffff;stroke-width:3.35042"
     d="m 90.903301,69.475301 c -1.259834,-0.320913 -2.10233,-0.925974 -2.60653,-1.87195 -0.796525,-1.494434 -0.660387,-3.420848 0.355517,-5.030734 0.543256,-0.860889 1.310199,-1.408927 2.331632,-1.666127 0.886344,-0.223184 1.523717,0.257703 1.335502,1.007612 -0.03474,0.13841 -0.330613,0.58596 -0.657499,0.994556 -0.793648,0.992032 -1.058458,1.685588 -1.063651,2.785771 -0.0061,1.301227 0.419664,1.914239 1.419128,2.043052 1.045949,0.134805 1.677501,0.653879 1.437214,1.181252 -0.06483,0.142289 -0.24105,0.339415 -0.391596,0.438057 -0.357291,0.234105 -1.466889,0.294993 -2.159717,0.118511 z"
     id="path4"
     transform="scale(0.26458333)" />
  <path
     style="fill:#ffffff;stroke-width:3.35042"
     d="m 83.005073,75.375266 c -2.437199,-0.69499 -3.034213,-1.575833 -1.405709,-2.074 0.43614,-0.133418 0.994509,-0.183967 2.050826,-0.185661 1.540477,-0.0025 2.15039,0.131865 2.15039,0.473633 0,0.334252 -1.127133,1.575081 -1.604125,1.765935 -0.510454,0.204243 -0.543641,0.204803 -1.191382,0.02009 z"
     id="path5"
     transform="scale(0.26458333)" />
  <path
     style="fill:#ffffff;stroke-width:3.35042"
     d="m 60.829171,69.757526 c -0.450186,-0.500829 -0.102982,-1.481252 0.86221,-2.434686 1.447258,-1.429627 3.813304,-2.542327 5.406006,-2.542327 1.526842,0 3.794626,1.178014 5.656127,2.938109 0.938859,0.887714 1.392086,1.493642 1.267731,1.694853 -0.112893,0.182666 -0.793054,0.0412 -2.251963,-0.468394 -1.248671,-0.436156 -1.331796,-0.450394 -2.580468,-0.441995 -1.549423,0.01042 -2.645624,0.196228 -4.999658,0.84744 -2.171667,0.600763 -3.086234,0.711546 -3.359985,0.407 z"
     id="path6"
     transform="scale(0.26458333)" />
</svg>
