<?xml version="1.0" encoding="UTF-8" standalone="no"?>
<!-- Created with Inkscape (http://www.inkscape.org/) -->

<svg
   width="199.55612mm"
   height="148.70995mm"
   viewBox="0 0 199.55612 148.70995"
   version="1.1"
   id="svg1"
   xml:space="preserve"
   inkscape:version="1.4.3 (0d15f75, 2025-12-25)"
   sodipodi:docname="kage-terminator.svg"
   xmlns:inkscape="http://www.inkscape.org/namespaces/inkscape"
   xmlns:sodipodi="http://sodipodi.sourceforge.net/DTD/sodipodi-0.dtd"
   xmlns="http://www.w3.org/2000/svg"
   xmlns:svg="http://www.w3.org/2000/svg"><sodipodi:namedview
     id="namedview1"
     pagecolor="#ffffff"
     bordercolor="#000000"
     borderopacity="0.25"
     inkscape:showpageshadow="2"
     inkscape:pageopacity="0.0"
     inkscape:pagecheckerboard="0"
     inkscape:deskcolor="#d1d1d1"
     inkscape:document-units="mm"
     inkscape:zoom="0.76536274"
     inkscape:cx="407.64984"
     inkscape:cy="238.44903"
     inkscape:window-width="2169"
     inkscape:window-height="1211"
     inkscape:window-x="2223"
     inkscape:window-y="94"
     inkscape:window-maximized="0"
     inkscape:current-layer="layer1" /><defs
     id="defs1" /><g
     inkscape:label="Layer 1"
     inkscape:groupmode="layer"
     id="layer1"
     transform="translate(-2.8273758,-72.071332)"><path
       style="fill:#120d0b;stroke:none;stroke-width:0.953291"
       d="m 132.40644,72.071332 c -2.29857,2.093208 -4.49096,2.061053 -7.39859,2.565182 -5.36534,0.93026 -9.70483,1.033492 -15.1335,0.527513 -11.851094,-1.104588 -23.401604,-0.97187 -34.975196,2.07623 -4.507236,1.187057 -8.937179,2.757642 -13.115692,4.83656 -1.706133,0.848848 -4.440849,3.025555 -6.3897,2.705535 -3.31424,-0.544243 -6.855401,-2.488089 -10.088993,-3.513039 -5.722425,-1.813827 -11.550607,-2.987071 -17.487589,-3.817187 -3.470656,-0.485263 -7.702487,-1.28618 -11.087604,-0.05443 -3.686014,1.341214 -2.352941,6.905554 -1.685914,9.8074 1.536095,6.682713 4.495234,13.069034 7.556976,19.168824 0.917333,1.82759 4.177807,5.33034 3.777492,7.3986 -0.486198,2.5119 -3.824594,5.36173 -5.323492,7.3986 -3.679655,5.0003 -6.860473,10.25275 -9.632386,15.8061 -8.0397415,16.10709 -10.87764117,36.55073 -1.6172771,52.79908 3.5635451,6.25262 8.6226791,9.95826 13.3040051,15.13349 -5.346017,0.27983 -11.024209,1.27044 -16.1424004,2.84497 -1.3371145,0.41135 -4.7174463,1.51511 -4.0538032,3.47778 1.0662083,3.15319 8.0590176,3.80131 10.7798056,4.29345 11.120949,2.01152 22.384645,2.72433 33.62999,3.54672 35.041814,2.56265 70.961118,2.2481 105.934468,-0.98118 8.27209,-0.76381 16.38518,-1.5872 24.54989,-3.22729 2.19177,-0.44026 7.05671,-1.05523 7.8753,-3.58499 0.49496,-1.52968 -1.35699,-2.53523 -2.49477,-3.02013 -3.47024,-1.47894 -7.40656,-1.92074 -11.09763,-2.53695 -9.25191,-1.54456 -18.61379,-1.85985 -27.91288,-2.89947 -6.71469,-0.75068 -13.40835,-1.93045 -20.178,-2.28481 0,-8.12842 1.57766,-15.93984 2.00405,-23.87729 0.3083,-5.73926 -0.51329,-11.67408 4.72307,-15.53535 5.21958,-3.84889 12.98592,-0.60057 18.83167,-1.03854 5.23762,-0.3924 8.97342,-4.22381 11.75583,-8.3123 1.31218,-1.92812 2.27174,-4.09442 2.70507,-6.3897 4.15321,3.4269 7.03403,9.70044 10.10098,14.1246 1.31601,1.8984 3.64396,3.75266 4.58123,5.81969 1.28936,2.8435 1.0811,7.18438 2.09865,10.3227 0.94147,2.90369 3.96991,6.74998 4.03331,9.73272 0.0276,1.30204 -1.47034,2.39058 -2.14859,3.38649 -1.33089,1.95421 -2.87129,4.94711 -2.41961,7.39366 0.65203,3.5318 4.10289,2.27578 5.94982,0.67402 -0.54333,2.26566 -2.54118,5.752 -1.2491,8.01857 1.13411,1.98947 3.78494,1.28177 5.621,1.09068 5.68521,-0.59172 9.93269,-4.73946 11.37411,-10.11815 0.9817,-3.6632 -0.0101,-7.13064 -0.32596,-10.76159 -0.69655,-8.00687 0.0303,-18.65008 -4.23102,-25.85159 -1.11757,-1.88866 -3.69468,-2.2806 -5.12646,-4.08053 -4.40115,-5.53284 -8.08721,-11.73049 -12.19395,-17.48617 -1.97576,-2.76906 -1.01179,-5.33997 -1.88395,-8.40749 -1.73191,-6.0914 -7.19303,-9.06794 -13.17156,-9.0801 -1.62688,-18.22272 -16.54677,-33.869309 -33.29369,-39.683383 v -0.336292 l 6.72599,0.672594 -7.06229,-2.017793 v -0.336302 c 3.21244,0.554511 5.22778,-1.673273 8.0712,-2.690397 v -0.336302 c -4.98281,0.832052 -6.67815,4.045748 -11.0979,-0.336302 1.81235,-0.110333 4.1518,-0.835378 4.03559,-3.026698 m -7.06229,4.708199 v 0.336302 l -9.4164,6.725992 0.3363,-0.672594 h -0.3363 l -0.33629,1.6815 -2.35411,3.699294 1.3452,0.336302 v 1.008896 l -5.38079,2.354104 0.21312,5.044492 1.46838,4.371888 -10.08901,6.72601 2.69041,-1.6815 c 0.58842,-2.51938 3.5456,-3.70978 5.7171,-4.7082 -0.68052,-3.517966 -1.37634,-5.811718 -0.67261,-9.416397 l -6.36971,1.210098 -4.728178,3.161809 4.709318,-4.007273 4.37078,-0.502203 6.38969,-5.243225 -1.3452,0.336302 2.69041,-4.708199 -1.6815,1.008896 5.67851,-2.808548 7.10088,-4.253746 m 27.24029,45.064176 -4.3719,0.6726 c -0.77891,-3.98722 -2.01385,-6.4848 -4.3719,-9.7527 l 3.6993,-0.6726 c -2.12389,-2.76975 -5.28138,-2.02511 -8.4075,-2.01779 -8.03538,0.0188 -15.50221,3.98075 -23.20118,5.67038 -2.24354,0.49238 -4.38526,-0.80941 -6.3932,-0.62589 h -0.3363 l -0.3363,-2.6904 c -1.03771,1.21445 -1.5919,2.07599 -1.3452,3.6993 l -0.67261,1.68151 -0.67259,7.39859 -4.3719,-2.6904 2.01779,-5.0445 h 0.33631 l -0.33631,3.0267 h 0.67261 l 0.3363,-4.3719 -0.6726,1.0089 h -0.33631 c 1.10532,-5.54824 6.51737,-10.52124 11.4342,-12.7794 1.51949,1.86662 3.02937,2.32165 5.3808,2.35411 v -0.33631 c -4.10684,-1.48941 -4.19656,-2.84323 -5.38326,-6.725985 -0.40506,-1.32534 -1.4394,-2.91153 -0.42535,-4.220217 1.3762,-1.776086 5.07996,-2.328623 7.15381,-2.842085 V 92.24934 l -5.3808,0.672595 v -1.008897 -0.336302 l 13.452,-3.363 V 87.87744 l -5.3808,1.706582 -7.0623,-0.02507 c 2.76658,-2.493857 6.11081,-6.92177 10.089,-7.430522 2.73473,-0.349724 6.44963,1.975295 8.7438,3.250646 6.24752,3.473049 11.92307,7.204859 16.36248,12.923671 1.28411,1.654158 3.2014,3.644803 3.74596,5.717093 0.57285,2.17993 -2.16597,4.79654 -2.99296,6.72599 -1.47556,3.44264 -1.63579,7.44786 -0.97309,11.0979 m -32.28478,-38.674478 -0.33631,0.336302 0.33631,-0.336302 m -0.67261,0.672595 -0.6726,0.672604 0.6726,-0.672604 m -10.42529,7.398606 0.3363,0.336292 -0.3363,-0.336292 m 2.69039,2.690396 -0.3363,0.336302 0.3363,-0.336302 m 33.62999,2.017793 -0.49739,8.032618 5.87819,8.10977 h 0.3363 c -0.27107,-3.97618 -3.40619,-5.51628 -4.93979,-8.74729 -0.93273,-1.96509 0.17977,-5.181442 -0.10471,-7.395098 h -0.6726 m -48.42718,1.008906 -0.672604,0.672595 0.672604,-0.672595 m 12.1068,4.371882 0.3363,0.3363 -0.3363,-0.3363 m 4.7082,0 -0.33631,0.3363 0.33631,-0.3363 m 1.00889,0.3363 -0.3363,0.33631 0.3363,-0.33631 m 43.04639,4.7082 -0.3363,0.33631 0.3363,-0.33631 m 0.33629,0.67261 -0.33629,0.33629 0.33629,-0.33629 m 0.33631,1.00889 0.3363,1.3452 h -0.3363 v -1.3452 m -56.16208,0.67261 -0.6726,0.67259 0.6726,-0.67259 m 53.80798,0.33629 -0.3363,0.3363 0.3363,-0.3363 m -0.3363,0.6726 -0.3363,0.33631 0.3363,-0.33631 m 3.363,0 0.67259,2.3541 h -0.3363 l -0.33629,-2.3541 m -59.18878,0.33631 c -1.23049,2.14501 -3.786015,2.23535 -6.053406,2.35409 v -0.3363 l 6.053406,-2.01779 m 1.0089,0.33629 -0.33631,0.3363 0.33631,-0.3363 m 54.48058,0 -0.3363,0.3363 0.3363,-0.3363 m -67.259982,0.3363 -0.336302,0.3363 0.336302,-0.3363 m -2.354104,0.3363 v 0.33631 l -1.345199,0.3363 1.345199,-0.67261 m 69.277786,0 -0.3363,0.33631 0.3363,-0.33631 m -54.25638,0.5605 -0.1121,0.2242 0.1121,-0.2242 m -1.233103,0.11211 -0.336302,0.33629 0.336302,-0.33629 m -10.089001,0.33629 1.345199,0.6726 v 1.0089 l -1.345199,-1.6815 m 65.242184,0 -0.3363,0.3363 0.3363,-0.3363 m 4.3719,0.3363 v 2.0178 h -0.3363 l 0.3363,-2.0178 m 0.89679,0.2242 -0.11209,0.22421 0.11209,-0.22421 m -67.147882,0.44841 -0.672595,0.67259 0.672595,-0.67259 m 0.672604,0 -0.336302,0.33629 0.336302,-0.33629 m 46.409388,0 -0.33629,0.33629 0.33629,-0.33629 m 14.4609,0 -0.3363,0.33629 0.3363,-0.33629 m -62.551789,0.67259 -0.336302,0.3363 0.336302,-0.3363 m 6.389708,0.3363 -0.336302,0.3363 0.336302,-0.3363 m 42.710091,0 0.33629,0.67261 -0.33629,-0.67261 m -1.00891,0.3363 0.3363,0.6726 -0.3363,-0.6726 m 20.8506,0 -0.3363,0.33631 0.3363,-0.33631 m -100.889978,0.44028 c 18.989623,-2.18484 21.607703,28.69228 2.690397,30.76602 -14.914676,1.63497 -23.525783,-18.02765 -11.413954,-27.44908 2.547213,-1.9814 5.546019,-2.95135 8.723557,-3.31694 m 38.338197,-0.10397 -0.336302,0.33629 0.336302,-0.33629 m 2.690401,0 -0.33631,0.33629 0.33631,-0.33629 m 37.66558,0 -0.3363,0.33629 0.3363,-0.33629 m -22.86839,0.33629 0.3363,0.3363 -0.3363,-0.3363 m 45.28839,0.22419 -0.1121,0.22422 0.1121,-0.22422 m -62.103377,0.44841 -0.336302,0.3363 0.336302,-0.3363 m 2.017797,0 -0.33631,0.3363 0.33631,-0.3363 m 38.67449,0 0.33629,0.6726 h -0.67259 l 0.3363,-0.6726 m 14.46089,0 -0.3363,0.3363 0.3363,-0.3363 m 7.2865,0.5605 -0.1121,0.2242 0.1121,-0.2242 m -62.775979,0.1121 0.336302,1.3452 h 0.336292 v -1.0089 h 0.336302 c -0.381783,1.14251 -0.866713,1.20351 -2.017802,1.0089 l 1.008906,-1.3452 m 1.681499,0 -0.3363,0.3363 0.3363,-0.3363 m 9.75269,0 -0.3363,0.3363 0.3363,-0.3363 m 3.0267,0.1121 c 0.26009,0 0.0539,0.16741 -0.1121,0.1121 l 0.1121,-0.1121 m 25.55879,-0.1121 0.67261,1.0089 -0.33631,0.3363 -0.3363,-1.3452 m -30.93958,0.3363 -0.3363,0.3363 0.3363,-0.3363 m 29.25808,0 1.6815,1.3452 -2.01779,2.0178 -0.6726,-2.3541 h 0.3363 l -0.3363,0.6726 h 0.3363 1.00889 l -0.3363,-1.6815 m 1.00891,10.7616 h -2.0178 c -2.86916,-7.84665 -10.61627,-11.24491 -15.80609,-3.0267 h -0.33631 l 2.0178,-5.3808 c 7.1446,-3.47505 15.66911,-0.27455 16.1424,8.4075 m 23.87729,-10.089 v 1.3452 h -0.33631 l 0.33631,-1.3452 m -62.888077,1.0089 -0.336302,0.3363 0.336302,-0.3363 m 24.549887,0 v 0.6726 h 0.6726 v -0.6726 h -0.6726 m -61.206584,0.50289 c -13.264653,2.34581 -10.906259,23.7185 2.690397,21.48064 13.430631,-2.21053 10.76419,-23.86004 -2.690397,-21.48064 m 35.647791,-0.16659 -0.336302,0.3363 0.336302,-0.3363 m 11.658393,0.5605 -0.11209,0.2242 0.11209,-0.2242 m 52.57489,-0.2242 0.67259,5.0445 h -0.3363 l -0.33629,-5.0445 m -64.681683,0.5605 -0.112097,0.2242 0.112097,-0.2242 m 23.989393,-0.2242 -1.6815,1.6815 1.6815,-1.6815 m -23.204691,0.3363 -0.336302,0.3363 0.336302,-0.3363 m -1.121004,0.8968 -0.112097,0.2242 0.112097,-0.2242 m 0.784702,-0.2242 -0.336302,0.3363 0.336302,-0.3363 m 47.418283,0.3363 c 0.71246,5.37311 0.99975,10.2201 -0.6726,15.46979 l -2.35409,-0.67259 v -0.33631 h 1.00889 l -0.67259,-1.34519 1.00889,0.3363 c 0.92093,-2.54486 1.38857,-4.85611 0.33631,-7.3986 1.45102,-1.72698 0.42258,-4.04167 0,-6.0534 h 1.34519 m -47.418283,0.3363 0.336302,2.0178 -1.008897,0.3363 0.672595,0.3363 v 0.3363 l -1.008897,-0.3363 1.008897,-2.6904 m 56.386273,0.2242 -0.11208,0.22421 0.11208,-0.22421 m -87.661909,1.02061 c 4.153012,-0.78617 5.586743,5.73277 1.343778,6.66736 -4.535844,0.9991 -5.967115,-5.79215 -1.343778,-6.66736 m 28.921538,-0.23591 -0.336302,0.33629 0.336302,-0.33629 m 79.703071,13.7883 h -0.3363 c -0.60732,-2.95377 -0.83693,-5.80945 -3.69929,-7.39861 3.09137,4.33239 2.23601,7.00834 -2.01781,9.7527 l 3.69931,-1.00889 c -1.26076,2.2223 -3.27511,2.87126 -5.71711,2.35409 l 0.3363,-1.3452 -0.67259,2.6904 h 3.69929 v 0.3363 l -5.38079,1.3452 -0.3363,-0.3363 0.67259,-4.7082 c 4.01003,-0.29024 7.41319,-4.35868 4.54213,-8.06064 -0.9971,-1.28566 -3.26486,-1.59062 -3.9681,-2.87498 -0.61156,-1.11696 -0.53856,-2.95278 -0.57403,-4.19788 7.71955,0.42001 11.13618,6.3658 9.7527,13.45201 m -66.92368,-12.7794 -0.33629,0.3363 0.33629,-0.3363 m 10.08901,0 -0.33631,2.6904 1.3452,-0.33631 c 5.3e-4,4.1763 1.60104,5.8675 3.363,9.4164 3.89734,-0.093 6.45603,2.04535 9.97613,-1.19755 1.51746,-1.39797 1.81855,-3.72751 3.47587,-4.85585 -0.78585,7.62307 -13.6161,11.28073 -16.14239,3.0267 l -1.00891,0.67261 -0.3363,-2.6904 h -0.33629 v 2.01779 h -0.33631 c -0.58787,-2.79879 -1.4247,-6.21012 0.33631,-8.74379 m -23.877307,0.3363 -0.336292,0.3363 0.336292,-0.3363 m 57.843587,0 c 0.53204,6.09861 0.29984,14.24297 6.3897,17.48759 -1.78511,8.41627 -8.3782,14.08948 -16.815,14.4609 -1e-5,-1.2873 -2.63308,-1.24998 -3.6993,-1.4573 -3.56945,-0.69406 -9.03221,-1.87358 -12.44309,-0.16815 -2.94675,1.47337 -6.0534,4.11692 -6.0534,7.67885 0,2.28102 1.1247,5.87399 0.2242,8.07119 -0.42795,1.04419 -2.50967,1.41009 -3.25089,2.69041 h -0.33631 c -1.18175,-3.15364 -3.4745,-2.96029 -4.7082,0 h -0.67259 l -3.6993,-4.3719 -0.33631,-4.7082 h -0.67259 c 4e-5,2.18554 -0.20497,4.33494 1.3452,6.0534 l -0.3363,1.34519 h -0.33631 v -1.34519 l -0.67259,1.6815 -3.363,-2.01781 0.3363,-6.726 c -3.766186,1.9931 -10.391852,2.44875 -9.416406,-4.03559 -1.323874,-0.64006 -1.860233,-1.21188 -2.017803,-2.69039 h -0.336302 v 1.3452 h -0.336292 l -1.008906,-3.363 h 0.336302 c 3.172371,4.05862 5.149416,1.25917 7.062302,-2.01781 h 0.672604 c 0.882452,1.23289 1.776381,3.1836 3.113841,3.96256 1.89942,1.10625 4.36009,-1.30475 4.57629,-3.14459 0.16493,-1.40355 -0.78561,-2.92094 -1.276,-4.18096 -1.3346,-3.42918 -2.51063,-9.16556 -6.414131,-10.4253 l 0.336302,-11.77049 h 0.336302 l 2.017797,4.70819 -0.33631,-5.0445 c 6.09247,0.44174 4.2144,5.97813 6.62118,9.71387 1.62304,2.51925 4.40306,4.11488 5.82192,6.76484 h -0.67259 c 0.92417,2.64181 2.47347,4.53657 5.04449,5.71709 l -0.33629,-1.6815 2.69039,1.0089 -0.3363,1.0089 0.67261,-1.0089 h 0.33629 l 1.0089,1.0089 6.0534,0.3363 v -0.3363 c -4.27649,-1.08901 -10.74435,-1.93236 -12.7794,-6.3897 6.19461,1.57452 13.1059,3.01891 19.50539,3.02666 1.93985,0.002 4.60753,0.46005 6.38967,-0.43209 7.55408,-3.78162 7.73493,-13.64727 7.73493,-20.75476 h 4.0356 m 2.3541,0 v 1.0089 h -0.3363 l 0.3363,-1.0089 m -31.61218,4.3719 v -1.3452 c 1.03919,-0.68392 1.5458,-2.06921 2.74272,-2.47239 7.66703,-2.5827 5.57745,10.536 -0.58416,7.23283 -1.04839,-0.56203 -1.19454,-2.52756 -2.15856,-3.41524 m -28.921799,-3.69931 -0.336307,0.33631 0.336307,-0.33631 m 14.124589,0.33631 -0.33629,0.3363 0.33629,-0.3363 m -14.460896,0.3363 -3.026699,8.74379 0.336302,-5.38079 -0.336302,-0.3363 -0.672604,0.3363 3.699303,-3.363 m 1.681505,0 -0.336302,0.3363 0.336302,-0.3363 m -0.672604,0.3363 -0.336302,0.33628 0.336302,-0.33628 m 49.099795,0 v 0.33628 h -1.3452 l 1.3452,-0.33628 m -50.444998,0.33628 0.336302,0.33631 -0.336302,-0.33631 m 61.542888,0 v 1.6815 h -0.3363 l 0.3363,-1.6815 m 8.0712,0 -0.33631,0.33631 0.33631,-0.33631 m 6.05339,0 1.0089,1.00891 -1.0089,-1.00891 m -60.87028,0.67261 v 1.6815 h -0.33629 l 0.33629,-1.6815 m 54.81689,0.3363 -0.33631,0.3363 0.33631,-0.3363 m -71.295589,0.3363 v 1.68149 -1.68149 m 48.763489,0 v 1.3452 h -0.3363 l 0.3363,-1.3452 m 2.01781,0 -1.00891,1.0089 1.00891,-1.0089 m 20.40218,0.89679 -0.11209,0.22422 0.11209,-0.22422 m -71.183479,0.11211 -0.336302,0.3363 0.336302,-0.3363 m 63.560689,0 v 2.35409 h -0.3363 l 0.3363,-2.35409 m -64.905887,1.3452 -0.336302,0.3363 -0.672595,-1.0089 1.008897,0.6726 m 15.806107,-0.6726 -0.3363,0.33629 0.3363,-0.33629 m -17.151306,0.33629 -0.672604,0.67261 0.672604,-0.67261 m 8.407501,0.33631 -0.7084,7.63976 -2.375728,2.79843 -2.969278,7.72201 h -0.336292 l 3.922978,-10.76161 2.46672,-7.39859 m 8.743805,0 -0.3363,0.3363 0.3363,-0.3363 m 1.6815,0 0.33629,0.6726 h -0.67259 l 0.3363,-0.6726 m -20.514306,0.6726 -0.672604,0.67259 0.672604,-0.67259 m 79.030486,0 -0.33631,0.33629 0.33631,-0.33629 m -78.02159,0.33629 -1.008896,0.67261 v -0.33631 l 1.008896,-0.3363 m 20.17801,0 0.3363,3.69931 h -0.3363 v -3.69931 m -7.7349,0.3363 0.3363,0.33631 -0.3363,-0.33631 m 65.57848,0 -0.33631,0.33631 0.33631,-0.33631 m -79.70309,0.67261 v 0.33629 h -1.681491 l 1.681491,-0.33629 m 68.94149,-0.3363 v 1.3452 h -0.3363 l 0.3363,-1.3452 m 10.64949,0.56049 -0.11209,0.22421 0.11209,-0.22421 m -75.77957,0.6726 0.112088,0.22421 -0.112088,-0.22421 m 51.00548,0.78471 -0.3363,-0.6726 h 0.3363 l 1.00891,0.3363 -0.3363,1.3452 -1.3452,-0.33631 1.00889,1.6815 -2.69039,-0.3363 1.00889,-3.0267 1.3452,1.00891 m 21.5232,-0.6726 -0.33631,0.3363 0.33631,-0.3363 m -74.65859,1.00889 -0.336292,0.3363 0.336292,-0.3363 m 19.8417,0 -0.33629,0.3363 0.33629,-0.3363 m 59.52508,0 v 2.35411 h -0.3363 l 0.3363,-2.35411 m -76.676373,0.67261 c 0,3.01444 -1.465132,4.04733 -3.026699,6.3897 -1.357439,2.03615 -1.764932,5.37821 -2.354104,7.73489 -0.382251,1.52898 0.683795,4.7054 2.017802,4.3719 l -1.008906,5.7171 h -0.336292 l -1.008906,-10.089 -1.345199,1.0089 0.672604,-2.6904 c -1.059383,0.68549 -3.853479,4.27843 -3.026699,5.3808 l -1.008906,0.3363 0.672604,0.3363 v 0.33629 h -1.345198 l -0.672604,-1.34519 c 3.38546,-2.85381 4.590334,-7.09442 6.796793,-10.7616 1.366619,-2.27133 3.435766,-4.20557 4.301106,-6.72599 h 0.672604 m 65.242173,0.3363 -0.33629,0.33629 0.33629,-0.33629 m -48.42717,0.67259 -0.3363,0.3363 0.3363,-0.3363 m 9.75269,1.00891 -0.3363,0.33629 0.3363,-0.33629 m 20.178,0.33629 -2.69041,2.35411 2.69041,-2.35411 m 2.35409,1.3452 v 0.3363 l -3.363,2.6904 0.3363,-1.0089 -1.00889,-0.67259 2.35409,-2.35411 1.6815,1.0089 m -23.87729,-0.33629 0.67261,1.3452 -1.34521,-1.00891 0.6726,-0.33629 m 41.36489,0 -0.3363,0.33629 0.3363,-0.33629 m -18.8328,0.33629 0.33631,0.3363 -0.33631,-0.3363 m 0.67261,0 0.33629,0.3363 -0.33629,-0.3363 m 22.53209,0 -0.3363,0.3363 0.3363,-0.3363 m 11.09789,0.3363 -1.3452,2.35411 1.3452,-2.35411 m -58.17988,0.3363 1.0089,1.3452 -1.0089,-0.3363 v -1.0089 m 23.20469,0 0.3363,0.33631 -0.3363,-0.33631 m 23.541,0 h 1.00889 l -0.67259,2.01781 h -0.3363 v -2.01781 m 15.80609,0 -0.63857,5.7171 2.9236,5.38075 3.43207,2.80099 2.979,-0.27043 2.7381,3.18659 -5.0445,2.35409 -6.3897,-9.41639 h -0.3363 l 0.3363,1.0089 -1.0089,-0.3363 -0.3363,0.3363 1.6815,2.6904 -2.3541,-3.0267 1.6815,-0.6726 c -1.04219,-1.4635 -3.40383,-3.61193 -3.0706,-5.61452 0.24303,-1.46052 1.9805,-2.87215 2.7343,-4.13818 h 0.6726 m -63.56067,0.33631 -0.3363,0.3363 0.3363,-0.3363 m 27.24028,0 -0.6726,0.67259 0.6726,-0.67259 m 0.6726,0 -0.3363,0.3363 0.3363,-0.3363 m 0.67261,0.3363 -0.3363,0.33629 0.3363,-0.33629 m 17.48759,0 -0.33631,0.33629 0.33631,-0.33629 m -18.4965,0.33629 0.3363,1.00891 h -0.3363 v -1.00891 m 19.50539,0 -0.33629,0.3363 0.33629,-0.3363 m -20.85059,0.3363 -0.3363,0.3363 0.3363,-0.3363 m -3.0267,0.3363 0.33631,0.33631 -0.33631,-0.33631 m 4.0356,0.6726 -0.33629,0.3363 0.33629,-0.3363 m -50.781287,0.3363 -1.345199,5.0445 h -0.336302 l 1.681501,-5.0445 m 44.055297,0 v 1.6815 l -3.69931,-0.67259 3.69931,-1.00891 m 44.72788,0 6.3897,9.7527 c -4.40675,0.76839 -10.08502,-5.87694 -6.3897,-9.7527 m -38.67449,0.3363 -0.6726,0.67261 0.6726,-0.67261 m 19.16909,0.3363 -0.3363,0.33631 0.3363,-0.33631 m -10.31318,1.56941 0.11208,0.22419 -0.11208,-0.22419 m 12.33099,-0.22421 -0.33631,0.3363 0.33631,-0.3363 m 11.43419,0 0.3363,0.6726 -0.3363,-0.6726 m -0.6726,0.6726 -0.3363,0.3363 0.3363,-0.3363 m -66.92367,1.0089 c 0.30839,2.61587 2.30421,4.8103 2.44465,7.3986 0.16171,2.98018 -3.36481,5.20489 -5.47135,6.726 v 0.33629 c 7.54138,-0.93609 7.76637,-10.04954 3.0267,-14.46089 m 64.23328,0 -0.3363,0.33631 0.3363,-0.33631 m 1.68149,4.7082 v 0.33629 l -0.33629,0.67261 -4.03561,-5.38079 4.3719,4.37189 m -12.44309,-3.363 v 1.0089 h -0.3363 l 0.3363,-1.0089 m 1.6815,0 -0.3363,0.3363 0.3363,-0.3363 m 10.4253,0.3363 -0.33631,0.3363 0.33631,-0.3363 m -10.7616,0.3363 -0.3363,0.3363 0.3363,-0.3363 m 12.10679,0 0.33631,0.6726 -0.33631,-0.6726 m -83.738678,0.3363 -0.336302,3.363 h -0.336292 l 0.672594,-3.363 m 29.145998,0.1121 0.2242,0.1121 -0.2242,-0.1121 m 53.58378,-0.1121 2.6904,4.7082 h -0.3363 l -2.3541,-4.7082 m -11.43419,0.3363 -0.33631,0.3363 0.33631,-0.3363 m -41.47699,0.4484 0.22421,0.11211 -0.22421,-0.11211 m 3.1388,-0.1121 1.34521,0.6726 v -0.3363 l -1.34521,-0.3363 m 51.45388,0 2.0178,3.363 h -0.3363 l -1.6815,-3.363 m -13.452,0.3363 c -0.94803,2.77781 -3.06984,5.73157 -5.71709,7.0623 v -0.3363 l 5.71709,-6.726 m 10.08901,0.3363 0.67259,0.6726 v -0.6726 h -0.67259 m -51.11759,0.3363 1.0089,0.6726 v -0.3363 l -1.0089,-0.3363 m -34.638897,0.6726 v 0.33629 h -1.008896 l 1.008896,-0.33629 m 93.491377,0 0.3363,0.6726 -0.3363,-0.6726 m -94.500273,0.6726 -1.008897,1.0089 1.008897,-1.0089 m 0.336302,0.6726 -0.336302,0.3363 0.336302,-0.3363 m -3.026699,0.3363 -0.336302,1.0089 0.336302,-1.0089 m 2.354095,0.3363 -0.336302,0.3363 0.336302,-0.3363 m 89.455775,0 0.3363,0.6726 -0.3363,-0.6726 m -93.155069,0.6726 v 0.3363 l -1.6815,0.33629 -0.336302,0.33631 c -0.227617,1.2527 -1.197,1.38796 -2.354105,1.6815 0.688839,-1.83346 2.594382,-2.30315 4.371907,-2.6904 m 97.414879,0.5605 -0.11211,0.2242 0.11211,-0.2242 m -97.414879,0.4484 -0.336302,0.3363 0.336302,-0.3363 m 96.518069,0 0.33631,0.6726 h -0.67261 l 0.3363,-0.6726 m 3.363,0 0.3363,0.6726 -0.3363,-0.6726 m -81.384575,0.3363 -0.336293,9.7527 h 0.336293 c 0.557151,-2.44923 1.449078,-7.63235 0,-9.7527 m 77.012675,0 -0.3363,0.3363 0.3363,-0.3363 m 2.6904,0 4.3719,6.0534 -2.0178,-1.6815 1.3452,2.69039 -3.363,-4.3719 1.3452,0.67261 -2.0178,-1.6815 0.3363,-1.6815 m 3.0267,0 -0.3363,0.3363 0.3363,-0.3363 m -93.155078,0.3363 0.336302,0.3363 -0.336302,-0.3363 m 86.765378,0 0.3363,1.0089 -0.3363,-1.0089 m 2.6904,0.3363 -0.3363,0.33629 0.3363,-0.33629 m 3.0267,0 0.3363,0.6726 -0.3363,-0.6726 m -105.261868,0.33629 v 0.33631 l -2.017803,1.00889 v -0.33629 l 2.017803,-1.00891 m 34.302598,0.33631 -0.33631,0.3363 0.33631,-0.3363 m 20.85059,0 -0.3363,0.3363 0.3363,-0.3363 m 46.07308,0 5.3808,8.4075 c -2.85948,-0.96865 -5.53971,-5.40094 -6.726,-8.0712 l 1.3452,-0.3363 m -85.420179,0.3363 -0.336302,0.3363 0.336302,-0.3363 m 40.692289,0.3363 0.33631,0.67259 -0.33631,-0.67259 m 22.8684,0 -1.0089,0.67259 1.0089,-0.67259 m -77.685278,0.67259 -0.336302,0.33631 0.336302,-0.33631 m 13.788287,0.33631 -0.336293,0.3363 0.336293,-0.3363 m 62.215491,0 v 0.3363 l -1.0089,0.3363 1.0089,-0.6726 m -25.89509,0.3363 v 0.3363 l -1.0089,0.33629 1.0089,-0.67259 m 0.6726,0 1.6815,0.67259 v 0.33631 l -2.0178,-0.6726 0.3363,-0.3363 m 5.71709,0 0.33631,0.67259 -0.33631,-0.67259 m 7.3986,0 v 0.3363 h -1.0089 l 1.0089,-0.3363 m 39.01079,0 0.3363,0.3363 -0.3363,-0.3363 m -104.92557,0.3363 -4.371897,4.3719 4.371897,-4.3719 m 50.78129,0 -0.3363,0.33629 0.3363,-0.33629 m 16.47869,0 -0.33629,0.33629 0.33629,-0.33629 m 1.34521,0.11209 0.11209,0.11212 c -0.16595,0.0553 -0.37219,-0.11212 -0.11209,-0.11212 m 45.74615,0.0855 c 4.16929,-0.63867 5.18113,5.46146 0.97949,6.0802 -3.96096,0.58332 -4.87236,-5.48387 -0.97949,-6.0802 m -64.24265,0.13869 -1.00889,1.00891 1.00889,-1.00891 m 25.22249,0 v 0.33631 h -3.0267 l 3.0267,-0.33631 m 29.93069,0 0.3363,0.33631 -0.3363,-0.33631 m -53.80798,0.33631 -0.3363,0.3363 0.3363,-0.3363 m 1.3452,0 -0.3363,0.3363 0.3363,-0.3363 m 2.3541,0 0.6726,1.0089 -3.363,2.3541 2.0178,-1.6815 -0.67261,-1.0089 1.68151,0.3363 -0.3363,-1.0089 m 54.81688,0 -0.33631,2.0178 h -0.33629 l -1.0089,-1.6815 1.0089,-0.3363 h 0.6726 m -107.615975,0.3363 v 2.35409 h -0.336293 l 0.336293,-2.35409 m 13.451994,0 -0.336293,0.3363 0.336293,-0.3363 m -2.354095,0.3363 V 159.173 H 87.00595 l 0.672604,-0.67259 m 99.208466,0 c 0.14037,2.44042 0.50314,4.19986 3.363,4.03559 l -3.363,-4.03559 m -96.181767,0.3363 -0.336302,0.33629 0.336302,-0.33629 m 32.284797,0 -0.3363,0.33629 0.3363,-0.33629 m -1.0089,0.33629 -0.6726,0.67261 0.6726,-0.67261 m 1.6815,0 -0.33629,0.33631 0.33629,-0.33631 m 2.6904,0 0.3363,0.67261 -0.3363,-0.67261 m 1.0089,0 -0.3363,0.33631 0.3363,-0.33631 m -39.683396,0.33631 4.83492,4.47449 1.954528,2.76546 4.981053,-0.51395 -0.336292,0.67259 h 0.336292 l 1.681505,-1.3452 0.80633,7.73464 2.21638,3.73813 1.34918,7.69632 -1.00889,-0.33629 0.3363,-0.6726 -1.00891,-1.3452 -0.67259,0.6726 -2.0178,-7.3986 -1.345203,-3.36299 h -0.672594 l -0.672604,1.6815 h -0.336302 l 2.354103,-6.0534 -0.672603,-0.67261 c -1.305579,0.48184 -5.444839,2.16658 -5.717103,0 l -0.336302,-0.3363 -0.672604,0.3363 -1.008897,-1.00889 -0.336302,1.00889 h -0.336292 c 0.07579,-1.42946 0.102278,-3.1152 -0.875016,-4.27325 -1.07782,-1.27718 -3.011571,-1.44899 -2.824287,-3.46164 m 4.035595,0 0.336302,0.6726 -0.336302,-0.6726 m 31.275901,0.3363 -0.3363,2.0178 h -0.3363 l 0.6726,-2.0178 m 71.96817,0 h 0.33631 c 2.58883,5.36841 3.53071,12.9147 3.69929,18.83279 -2.93762,-2.27185 -3.66777,-5.84816 -5.12153,-9.0801 -0.50627,-1.12552 -1.63474,-2.76716 -1.50875,-4.0356 0.15442,-1.55479 1.89963,-4.18528 2.59468,-5.71709 m -82.39346,1.00889 1.00889,7.06231 c 1.81728,-1.35693 0.0481,-5.47307 -1.00889,-7.06231 m 13.78829,0 0.3363,1.00891 -0.3363,-1.00891 m 55.15318,0 1.3452,1.6815 -1.3452,-1.6815 m 1.6815,0 0.67259,1.6815 h -0.33629 l -0.3363,-1.6815 m -107.615972,0.67261 -0.336302,0.3363 0.336302,-0.3363 m 13.788296,0.67259 -0.336302,0.3363 0.336302,-0.3363 m 36.544596,0.22422 -0.11209,0.22418 0.11209,-0.22418 m 53.92008,-0.22422 0.6726,0.67261 -0.6726,-0.67261 m -54.14428,1.00891 -0.3363,0.33629 0.3363,-0.33629 m -0.3363,0.67259 -1.0089,7.7349 -1.3452,-0.67259 v -0.33631 l 1.0089,0.33631 c 4e-5,-2.4144 -0.16538,-5.03679 1.3452,-7.06231 m 61.20658,7.3986 h -0.3363 l -1.0089,-0.33629 -1.6815,-5.71711 c 2.5337,-0.22387 2.74764,4.12003 3.0267,6.0534 m 0.33629,-5.7171 -0.33629,0.33631 0.33629,-0.33631 m 4.03561,0 c 2.43415,4.67771 3.04318,11.69343 8.07119,14.4609 l 0.3363,3.6993 -3.69929,-0.6726 v -1.0089 l -2.69041,0.6726 c 0.54417,-5.4245 -2.6679,-11.53561 -3.69929,-16.81499 l 1.6815,-0.33631 m -3.363,0.33631 -0.33631,0.3363 0.33631,-0.3363 m -5.3808,0.3363 c 0.36793,2.22453 1.97863,4.18024 1.0089,6.38969 h 1.3452 l 2.69039,11.4342 h -0.3363 c -2.06726,-5.94609 -5.37689,-11.33707 -5.38079,-17.82389 h 0.6726 m -82.393473,0.67259 0.336303,0.3363 -0.336303,-0.3363 m 87.662173,0.22421 -0.11211,0.22419 0.11211,-0.22419 m -93.379276,0.4484 v 0.3363 h 1.008901 l -1.008901,-0.3363 m 90.800976,0 0.3363,0.3363 -0.3363,-0.3363 m 3.0267,0.3363 0.3363,2.69039 h -0.3363 v -2.69039 m -64.23328,0.33629 v 1.3452 h -0.6726 v -1.3452 h 0.6726 m 61.99127,1.56941 0.11212,0.22419 -0.11212,-0.22419 m -82.16926,0.11209 c 2.29768,1.79471 2.68999,3.23982 2.6904,6.0534 h -0.3363 c -1.34523,-1.69248 -3.03367,-3.74101 -2.3541,-6.0534 m 17.15129,0.6726 2.0178,0.33631 c -0.79701,0.7337 -1.6853,0.87143 -2.0178,-0.33631 m -9.41639,9.4164 h -3.6993 c -9.6e-4,-2.08827 -1.403,-7.5204 1.11174,-8.62085 0.99806,-0.43675 1.54236,0.85126 1.82863,1.56352 0.91254,2.2706 0.75893,4.66078 0.75893,7.05733 m 1.0089,-0.3363 c -4.2e-4,-3.38635 -0.32089,-5.65958 1.34519,-8.74379 1.62234,0.97233 2.93435,6.14707 1.63005,7.78826 -0.61197,0.77002 -2.08419,0.78783 -2.97524,0.95553 m -12.443103,-8.0712 0.336303,0.3363 -0.336303,-0.3363 m 17.487603,7.0623 1.00889,-6.726 c 3.82607,1.36946 3.1094,6.71455 -1.00889,6.726 m 69.61406,-6.726 0.3363,1.3452 -1.34519,0.3363 -0.33631,-1.34519 1.3452,-0.33631 m -63.67277,0.89681 -0.1121,0.22419 0.1121,-0.22419 m -22.42,0.44839 0.33631,0.3363 -0.33631,-0.3363 m 21.5232,0 v 1.6815 l 1.00891,-0.3363 -0.67261,-1.0089 h 1.6815 c -0.37126,1.74436 -0.72031,3.13441 -2.3541,4.0356 l 0.3363,-4.3719 m 67.93257,9.7527 -1.6815,0.33629 -1.3452,-5.71709 h 0.33631 l 1.6815,3.6993 -2.01781,-6.0534 h -0.3363 v 1.0089 h -0.33629 l -0.3363,-2.0178 c 2.73547,0.59964 3.46955,6.34498 4.03559,8.7438 m -89.34366,-8.1833 0.1121,0.22419 -0.1121,-0.22419 m 0.5605,-0.2242 0.3363,0.3363 -0.3363,-0.3363 m 85.42016,0 0.3363,0.3363 -0.3363,-0.3363 m -64.56957,0.6726 v 1.0089 h 0.3363 0.3363 l -0.6726,-1.0089 m 0,1.6815 0.3363,0.3363 -0.3363,-0.3363 m 64.90587,0 -0.3363,0.3363 0.3363,-0.3363 m -69.05357,1.12099 0.2242,0.11212 -0.2242,-0.11212 m 2.12991,3.5872 c -0.22033,2.52495 -0.24984,5.46654 -3.0267,6.3897 l -0.3363,-6.05339 3.363,-0.33631 m 1.68149,0 c 1.8723,1.58479 1.79701,3.42803 -0.3363,4.7082 l 0.3363,-4.7082 m -6.726,0.33631 c -0.004,1.89263 0.0533,4.26054 -0.74491,6.01793 -1.03183,2.27169 -2.42091,0.1077 -2.61809,-1.30973 l 1.6815,-1.0089 h -1.6815 c 0.002,-2.86334 0.39318,-3.69104 3.363,-3.6993 m -4.03559,0.3363 -1.00891,3.363 -2.69039,-3.363 h 3.6993 m -5.0445,2.35409 c 0.21972,0.65919 0.3363,0.85891 0.3363,0 h 0.33629 l 0.3363,1.00891 3.69931,5.7171 -1.6815,-1.3452 -1.3452,0.67259 -1.6815,-6.0534 m 89.11947,11.4342 c 0.7797,-3.32674 0.75886,-6.39725 0,-9.7527 h -0.33631 c -0.20191,2.47826 1.17016,10.71513 -3.363,8.74381 l 0.67261,-9.7527 c 1.80218,-0.23289 5.7219,-0.45263 7.11457,0.95553 1.36109,1.37622 1.67908,8.49921 2.3e-4,9.73574 -0.88425,0.65127 -3.0251,0.0765 -4.0881,0.0704 m -92.81877,-10.76159 -1.68151,4.37189 h -0.33629 l 2.0178,-4.37189 m 88.44687,0 -0.3363,2.35409 0.6726,-0.33629 v 0.33629 1.00891 c -1.10928,-0.95307 -0.92707,-2.12694 -0.3363,-3.363 m -83.40237,0.6726 0.3363,0.33629 -0.3363,-0.33629 m 13.11569,1.0089 h 2.69041 l -1.34521,17.48759 h -0.3363 l -1.0089,-1.3452 -1.0089,1.3452 v 0.3363 l 1.0089,2.69039 h 0.3363 l 1.0089,-2.69039 c -0.69095,2.65815 -1.45097,4.98703 -3.6993,6.726 l 0.33631,-1.00891 -1.00891,0.67261 c 1.28743,-3.53703 -1.41027,-9.17227 -5.04449,-10.4253 l -0.67261,-7.39859 4.3719,-0.33631 -3.363,-2.3541 2.69041,-2.3541 c 2.4993,0.89478 3.19905,0.4729 5.04449,-1.34519 m 67.25998,0 -2.35411,4.37189 c -2.39925,-1.55982 0.76029,-3.65417 2.35411,-4.37189 m -79.36678,2.0178 0.33631,0.33629 -0.33631,-0.33629 m 80.03937,0 -1.3452,2.6904 1.3452,-2.6904 m 2.35411,0 -0.3363,0.33629 0.3363,-0.33629 m -83.06607,0.33629 0.3363,0.3363 -0.3363,-0.3363 m 83.06607,0.3363 v 5.0445 c -1.53074,-1.13569 -0.90533,-3.60986 0,-5.0445 m -83.06607,0.33631 0.3363,0.3363 -0.3363,-0.3363 m 89.45577,0 0.33629,0.3363 -0.33629,-0.3363 m -96.29387,0.56049 -0.1121,0.22421 0.1121,-0.22421 m 0.4484,1.12101 -0.3363,0.3363 0.3363,-0.3363 m 8.40749,0 v 2.01779 -2.01779 m 77.01267,0 -0.33629,0.3363 0.33629,-0.3363 m -2.35409,0.67259 -1.3452,3.0267 1.0089,-0.33629 -1.6815,1.3452 0.6726,-4.3719 1.3452,0.33629 m -82.72977,0 v 1.00891 h -0.3363 l 0.3363,-1.00891 m 95.28495,0.2242 0.11212,0.22421 -0.11212,-0.22421 m -95.28495,1.121 -0.3363,0.3363 0.3363,-0.3363 m 10.7616,0.3363 0.33629,0.3363 -0.33629,-0.3363 m -1.00891,1.00891 0.3363,0.33629 -0.3363,-0.33629 m 0,0.67259 0.3363,0.3363 -0.3363,-0.3363 m 77.68528,0.3363 2.0178,1.0089 -0.6726,3.0267 -2.3541,-1.3452 1.0089,-2.6904 m -2.6904,0.33631 -0.3363,0.33629 0.3363,-0.33629 m -76.34008,1.34519 0.33631,2.6904 h -0.33631 l 0.33631,-1.6815 h -0.33631 v 0.6726 h -0.3363 l 0.3363,-1.6815 m 85.08388,0.33631 -0.67261,2.69039 c -2.56409,-0.63235 -1.82771,-3.14352 0.67261,-2.69039 m 3.363,0 -2.35411,3.02669 c 0.10824,-1.77272 0.46599,-2.82301 2.35411,-3.02669 m -10.7616,2.01779 2.01779,0.6726 c -0.37543,1.82655 -1.17493,2.9235 -3.0267,3.363 l 0.67261,-0.6726 v -0.3363 -0.3363 h -0.67261 l 1.00891,-2.6904 m -78.35787,1.0089 -0.3363,0.3363 0.3363,-0.3363 m 84.41127,0.3363 -0.33631,1.3452 -3.02669,1.0089 1.34519,-2.6904 2.01781,0.3363 m -86.09277,0.3363 c -0.003,1.42233 -0.48621,2.25648 -1.6815,3.0267 l 1.6815,-3.0267 m 1.0089,0.11211 c 0.26007,0 0.0539,0.16741 -0.11211,0.11208 l 0.11211,-0.11208 m 1.6815,0.56049 c 0.0316,2.58769 0.22531,4.90104 3.02669,5.7171 v 1.0089 l -2.35409,-1.0089 v 2.0178 c -1.58238,-1.26938 -1.34732,-5.92945 -0.6726,-7.7349 m -3.36301,0.6726 -0.3363,0.6726 0.3363,-0.6726 m 4.03561,0.6726 0.67259,2.3541 h -0.3363 l -0.33629,-2.3541 m -4.7082,1.3452 -0.6726,1.6815 h -0.33631 l 1.00891,-1.6815 m 12.1068,0 0.33629,0.3363 -0.33629,-0.3363 m -4.03561,0.3363 1.3452,1.3452 v 0.3363 l -1.3452,-1.6815 m -3.69929,1.6815 0.3363,0.33629 -0.3363,-0.33629 m 3.363,2.0178 1.00889,0.6726 1.0089,4.03559 c -1.64666,-0.94243 -2.6772,-2.83474 -2.01779,-4.70819 m 0,1.0089 0.33629,0.33629 -0.33629,-0.33629 m 6.0534,4.0356 v 0.3363 l -3.69931,-0.3363 z"
       id="path1" /><ellipse
       style="fill:#ff0000;stroke:none;stroke-width:14.8959"
       id="path2"
       cx="127.45403"
       cy="127.56133"
       rx="4.645299"
       ry="4.4501181" /><ellipse
       style="fill:#fefbee;fill-opacity:1;stroke:none;stroke-width:4.77237"
       id="path2-4"
       cx="127.36752"
       cy="127.44215"
       rx="1.4882679"
       ry="1.4257356" /></g></svg>
