<?xml version="1.0" encoding="UTF-8" standalone="no"?>
<svg
   width="36.777084mm"
   height="34.564167mm"
   viewBox="0 0 36.777084 34.564167"
   version="1.1"
   id="svg1"
   sodipodi:docname="kage-looking-down.svg"
   inkscape:version="1.4.3 (0d15f75, 2025-12-25)"
   xmlns:inkscape="http://www.inkscape.org/namespaces/inkscape"
   xmlns:sodipodi="http://sodipodi.sourceforge.net/DTD/sodipodi-0.dtd"
   xmlns="http://www.w3.org/2000/svg"
   xmlns:svg="http://www.w3.org/2000/svg">
  <defs
     id="defs1" />
  <sodipodi:namedview
     id="namedview1"
     pagecolor="#ffffff"
     bordercolor="#000000"
     borderopacity="0.25"
     inkscape:showpageshadow="2"
     inkscape:pageopacity="0.0"
     inkscape:pagecheckerboard="0"
     inkscape:deskcolor="#d1d1d1"
     inkscape:document-units="mm"
     inkscape:zoom="9.3006364"
     inkscape:cx="69.511372"
     inkscape:cy="65.318111"
     inkscape:window-width="5120"
     inkscape:window-height="1417"
     inkscape:window-x="-8"
     inkscape:window-y="-8"
     inkscape:window-maximized="1"
     inkscape:current-layer="svg1" />
  <g
     transform="translate(-86.611455,-131.21792)"
     id="g1">
    <path
       style="display:inline;fill:#000000"
       d="m 99.625884,159.66236 c -3.375,-0.22184 -5.86583,-0.61741 -6.53933,-1.03852 -0.5111,-0.31957 -0.16909,-0.74422 0.76453,-0.94928 0.93697,-0.20579 0.98039,-0.40724 0.2334,-1.0828 -1.20851,-1.09294 -1.68902,-2.47941 -1.68994,-4.87606 -7.8e-4,-2.01018 0.0918,-2.44162 0.85126,-3.96875 1.04771,-2.10665 2.57688,-3.91046 4.2386,-4.99986 0.91701,-0.60118 1.61737,-1.41022 2.581356,-2.98194 1.93502,-3.15491 2.35641,-3.26808 3.96875,-1.0658 0.7866,1.07441 0.8094,1.08432 2.53166,1.10034 1.61728,0.015 4.35119,0.61098 4.81435,1.04943 0.11125,0.10531 1.12885,-0.0466 2.26135,-0.33754 1.13249,-0.29096 2.26187,-0.4512 2.50971,-0.35609 0.57895,0.22216 0.6141,2.30553 0.0652,3.86139 -0.36453,1.03319 -0.35045,1.16228 0.25909,2.37584 1.75212,3.48841 1.43515,7.91206 -0.73685,10.28342 -0.52333,0.57136 -0.52438,0.59306 -0.0363,0.74913 1.93924,0.62006 2.15276,0.98348 0.83338,1.41845 -2.32516,0.76656 -11.1805,1.19525 -16.910186,0.81864 z m 10.273426,-10.65722 c 0.10753,-0.174 0.0176,-0.22294 -0.23291,-0.1268 -0.22442,0.0861 -0.54657,0.0181 -0.71588,-0.15126 -0.23406,-0.23407 -0.36152,-0.22099 -0.53182,0.0546 -0.13046,0.21108 -0.3639,0.27595 -0.55903,0.15535 -0.19309,-0.11934 -0.26892,-0.10007 -0.17897,0.0455 0.21678,0.35076 2.00454,0.36903 2.21861,0.0227 z m -4.95079,-2.31012 c 0.15214,0 0.52349,0.24688 0.82523,0.54862 l 0.54862,0.54862 -0.0856,-0.7451 c -0.17607,-1.53259 -2.64006,-1.73229 -3.01354,-0.24424 -0.25582,1.01929 0.0905,1.25029 0.8043,0.53648 0.35441,-0.35441 0.76885,-0.64438 0.92099,-0.64438 z m 6.76693,0.16583 c 0.59071,-0.22668 1.42367,0.13702 1.60222,0.69959 0.15753,0.49633 0.19471,0.50413 0.42675,0.0895 0.31532,-0.56346 -0.31665,-1.62886 -1.11686,-1.88283 -0.89115,-0.28284 -1.84947,0.51877 -1.82827,1.52932 0.0166,0.79329 0.0378,0.81271 0.29813,0.27392 0.15412,-0.31893 0.43223,-0.63821 0.61803,-0.7095 z"
       id="path1-25" />
  </g>
  <path
     style="fill:#ffffff;stroke-width:3.35042"
     d="m 101.46138,62.925801 c -0.0823,-0.133055 -0.26093,-0.56647 -0.39709,-0.963145 -0.32448,-0.945381 -0.86423,-1.646302 -1.700609,-2.208437 -1.002132,-0.673536 -1.926097,-0.921927 -3.233981,-0.869396 -0.946147,0.038 -1.1104,0.07597 -1.577284,0.364625 -0.684732,0.423338 -1.488197,1.434381 -2.183844,2.748048 -0.309513,0.584488 -0.604603,1.062705 -0.655756,1.062705 -0.164416,0 -0.240263,-0.937013 -0.189523,-2.341339 0.04151,-1.148959 0.09525,-1.486523 0.335523,-2.107541 0.759611,-1.963349 2.465232,-3.414571 4.366852,-3.715522 0.761445,-0.120507 1.284813,-0.07572 2.09479,0.179241 2.214622,0.69712 4.269552,3.227827 4.438872,5.466582 0.051,0.673851 0.0234,0.845682 -0.22155,1.380708 -0.31779,0.694147 -0.6848,1.24539 -0.82915,1.24539 -0.0537,0 -0.16501,-0.108863 -0.24725,-0.241919 z"
     id="path1"
     transform="scale(0.26458333)" />
  <path
     style="fill:#ffffff;stroke-width:3.35042"
     d="m 81.876118,67.961754 c -1.13199,-0.191151 -1.862473,-0.479279 -2.13199,-0.840931 -0.120471,-0.161656 -0.193023,-0.319935 -0.161226,-0.351732 0.0318,-0.0318 0.318859,0.06371 0.637916,0.212229 1.015509,0.472725 1.45364,0.343969 2.349876,-0.690569 0.329597,-0.380459 0.650165,-0.650082 0.772915,-0.650082 0.281098,0 0.742221,0.24669 1.005712,0.538031 0.598567,0.661836 1.773269,0.900685 2.912749,0.592242 0.778701,-0.210784 0.968705,-0.145522 0.765133,0.262805 -0.170267,0.341521 -0.705139,0.64707 -1.459104,0.833524 -0.877222,0.216934 -3.637646,0.272522 -4.691981,0.09448 z"
     id="path2"
     transform="scale(0.26458333)" />
  <path
     style="fill:#ffffff;stroke-width:3.35042"
     d="m 62.835246,62.189088 c -0.284153,-0.313985 -0.335499,-1.626675 -0.107322,-2.743718 0.453368,-2.219468 1.930225,-3.71959 4.118377,-4.183254 0.947323,-0.200736 1.674325,-0.197832 2.696484,0.01077 2.100649,0.428699 3.693908,1.721024 4.31851,3.502834 0.152693,0.435587 0.542216,3.023254 0.542216,3.602031 0,0.04426 -0.616894,-0.526248 -1.370874,-1.26779 -2.051787,-2.017939 -3.186676,-2.775692 -3.937553,-2.629062 -0.510996,0.09979 -1.927666,1.111418 -3.174235,2.266694 -1.685941,1.56247 -2.592743,1.986099 -3.085603,1.441495 z"
     id="path3"
     transform="scale(0.26458333)" />
</svg>
