<?xml version="1.0" encoding="UTF-8" standalone="no"?>
<svg
   width="36.777084mm"
   height="34.564167mm"
   viewBox="0 0 36.777084 34.564167"
   version="1.1"
   id="svg1"
   sodipodi:docname="kage-conductor.svg"
   inkscape:version="1.4.3 (0d15f75, 2025-12-25)"
   xmlns:inkscape="http://www.inkscape.org/namespaces/inkscape"
   xmlns:sodipodi="http://sodipodi.sourceforge.net/DTD/sodipodi-0.dtd"
   xmlns="http://www.w3.org/2000/svg"
   xmlns:svg="http://www.w3.org/2000/svg">
  <defs
     id="defs1" />
  <sodipodi:namedview
     id="namedview1"
     pagecolor="#ffffff"
     bordercolor="#000000"
     borderopacity="0.25"
     inkscape:showpageshadow="2"
     inkscape:pageopacity="0.0"
     inkscape:pagecheckerboard="0"
     inkscape:deskcolor="#d1d1d1"
     inkscape:document-units="mm"
     inkscape:zoom="9.3006364"
     inkscape:cx="69.511372"
     inkscape:cy="65.318111"
     inkscape:window-width="5120"
     inkscape:window-height="1417"
     inkscape:window-x="-8"
     inkscape:window-y="-8"
     inkscape:window-maximized="1"
     inkscape:current-layer="svg1" />
  <g
     transform="translate(-86.611455,-131.21792)"
     id="g1">
    <path
       style="display:inline;fill:#000000"
       d="m 100.86569,159.35407 c -1.332311,-0.18284 -2.778121,-0.64278 -2.778121,-0.88376 0,-0.12545 0.36857,-0.35657 0.81904,-0.5136 l 0.81905,-0.28552 -0.86187,-0.86188 c -1.0305,-1.0305 -1.77729,-2.62506 -2.00398,-4.27899 -0.14791,-1.07915 -0.29,-1.28292 -1.31218,-1.88196 -1.57805,-0.9248 -2.5234,-2.21984 -2.44714,-3.35232 0.0452,-0.67138 -0.42666,-1.83088 -1.88258,-4.62587 -1.82494,-3.50343 -2.19418,-4.80059 -1.26499,-4.44402 0.19363,0.0743 1.29947,1.85303 2.45741,3.95273 1.5388,2.7903 2.28336,3.88466 2.76682,4.06671 0.3638,0.137 0.85758,0.32883 1.09728,0.42631 0.34577,0.1406 0.53132,-0.11347 0.89805,-1.22971 0.25422,-0.77382 0.62365,-1.64179 0.82095,-1.92883 0.21569,-0.31381 0.35872,-1.24025 0.35872,-2.3236 0,-2.25431 0.52425,-3.6368 1.37909,-3.6368 0.336791,0 1.238401,0.42161 2.003571,0.93691 1.28337,0.86427 1.46771,0.91566 2.37772,0.66293 1.23068,-0.34179 3.02314,-0.34349 4.4934,-0.004 1.01751,0.23476 1.26106,0.1833 2.53494,-0.53564 0.7751,-0.43744 1.72248,-0.79534 2.10529,-0.79534 0.59487,0 0.74009,0.1634 0.99932,1.12447 0.16682,0.61847 0.23579,1.6965 0.15325,2.39562 -0.20123,1.70469 1.01197,5.59437 1.65987,5.32174 1.67182,-0.70347 1.85157,-0.73433 2.51552,-0.43181 1.31388,0.59864 0.53824,2.58016 -1.62483,4.15095 -0.76764,0.55745 -1.10766,1.00131 -1.11995,1.46194 -0.01,0.3638 -0.14472,1.11911 -0.30004,1.67846 -0.15531,0.55935 -0.22525,1.07414 -0.1554,1.14399 0.3575,0.3575 1.71492,-0.7803 2.16178,-1.81202 0.91071,-2.10273 1.70963,-2.57272 2.63502,-1.55018 0.75297,0.83203 0.33843,2.19116 -1.13,3.70487 -1.2937,1.33359 -2.5077,1.85769 -4.30952,1.86049 -0.59345,9.2e-4 -1.12048,0.18855 -1.40133,0.49888 -0.42834,0.47331 -0.41751,0.5056 0.22358,0.6665 0.91287,0.22912 0.84702,0.57028 -0.18618,0.96458 -0.83891,0.32016 -10.71631,0.60304 -12.50156,0.35804 z m 5.67923,-12.78788 c 0.39302,-0.73436 0.37995,-0.7473 -0.77112,-0.76319 -1.01298,-0.014 -1.03602,0.005 -0.75129,0.63027 0.35227,0.77314 1.14284,0.84216 1.52241,0.13292 z M 93.379109,144.872 c -0.42025,-0.75125 -1.34022,-2.40603 -2.04439,-3.67729 -0.70417,-1.27125 -1.32506,-2.26662 -1.37976,-2.21192 -0.18385,0.18385 3.76453,7.51281 3.97761,7.38322 0.11585,-0.0704 -0.13321,-0.74276 -0.55346,-1.49401 z m 9.869301,-0.70283 c -0.56847,-0.62816 -1.78325,-0.69683 -2.25573,-0.12752 -0.47007,0.56639 -0.18646,0.73109 0.62346,0.36207 0.55715,-0.25386 0.80046,-0.23624 1.29096,0.0935 0.77861,0.52335 0.9568,0.3521 0.34131,-0.32801 z m 7.80374,0.54644 c 0,-0.43218 -0.8139,-1.07723 -1.35921,-1.07723 -0.63623,0 -1.55121,0.45883 -1.55121,0.77788 0,0.12655 0.46082,0.16829 1.02403,0.0927 0.61194,-0.0821 1.09736,-0.0187 1.20624,0.15747 0.22078,0.35722 0.68015,0.39041 0.68015,0.0491 z"
       id="path1-82" />
  </g>
  <path
     style="fill:#ffffff;stroke-width:3.35042"
     d="M 27.22765,56.743429 C 25.087541,54.007728 15.5164,36.396381 13.247546,31.019383 c -0.799752,-1.895348 -0.721361,-1.952646 0.393163,-0.287377 1.226517,1.832603 2.635286,4.279678 7.624207,13.243479 4.926586,8.851801 5.628743,10.194884 6.163354,11.789247 0.470336,1.402672 0.39989,1.746329 -0.20062,0.978697 z"
     id="path1"
     transform="scale(0.26458333)" />
  <path
     style="fill:#ffffff;stroke-width:3.35042"
     d="m 71.917905,59.692326 c -0.610283,-0.227734 -1.134564,-0.588457 -1.534701,-1.055927 -0.401892,-0.46952 -1.038042,-1.703694 -1.255553,-2.435857 -0.127745,-0.430005 -0.120803,-0.478753 0.09952,-0.698877 0.232655,-0.232439 0.289628,-0.23663 3.21731,-0.23663 3.363362,0 3.59819,0.04253 3.658515,0.662627 0.04634,0.476359 -0.927765,2.388429 -1.516149,2.976042 -0.782715,0.781688 -1.845768,1.0958 -2.668947,0.788622 z"
     id="path2"
     transform="scale(0.26458333)" />
  <path
     style="fill:#ffffff;stroke-width:3.35042"
     d="m 63.318668,51.084828 c -0.319564,-0.129962 -0.932956,-0.464039 -1.363094,-0.742394 -2.27967,-1.475239 -2.90816,-1.530018 -5.495328,-0.478977 -2.706103,1.099359 -3.584162,0.727278 -2.323848,-0.984739 0.810974,-1.10163 1.918701,-1.664603 3.545996,-1.80216 1.721248,-0.145499 3.821645,0.611222 5.018442,1.808019 0.352783,0.352783 0.831975,0.936244 1.064872,1.29658 0.672042,1.03978 0.540664,1.305356 -0.44704,0.903671 z"
     id="path3"
     transform="scale(0.26458333)" />
  <path
     style="fill:#ffffff;stroke-width:3.35042"
     d="m 90.907758,51.725504 c -0.177408,-0.07934 -0.572617,-0.406797 -0.878243,-0.72769 -0.338387,-0.355288 -0.716792,-0.63534 -0.967676,-0.716161 -0.667613,-0.215069 -2.282879,-0.272232 -3.595771,-0.127251 -1.700696,0.187806 -3.176027,0.174498 -3.672953,-0.03313 -0.220459,-0.09211 -0.400835,-0.196543 -0.400835,-0.232065 0,-0.214428 0.38358,-0.73408 0.777848,-1.053781 1.730823,-1.403479 4.675483,-2.15348 6.257386,-1.593747 1.649004,0.583475 3.389259,2.109512 3.808747,3.339907 0.164261,0.481789 -3.82e-4,1.005273 -0.368997,1.173224 -0.344671,0.157043 -0.557334,0.150548 -0.959506,-0.02931 z"
     id="path4"
     transform="scale(0.26458333)" />
</svg>
