<?xml version="1.0" encoding="UTF-8" standalone="no"?>
<svg
   width="36.777084mm"
   height="34.564167mm"
   viewBox="0 0 36.777084 34.564167"
   version="1.1"
   id="svg1"
   sodipodi:docname="kage-looking-to-the-right.svg"
   inkscape:version="1.4.3 (0d15f75, 2025-12-25)"
   xmlns:inkscape="http://www.inkscape.org/namespaces/inkscape"
   xmlns:sodipodi="http://sodipodi.sourceforge.net/DTD/sodipodi-0.dtd"
   xmlns="http://www.w3.org/2000/svg"
   xmlns:svg="http://www.w3.org/2000/svg">
  <defs
     id="defs1" />
  <sodipodi:namedview
     id="namedview1"
     pagecolor="#ffffff"
     bordercolor="#000000"
     borderopacity="0.25"
     inkscape:showpageshadow="2"
     inkscape:pageopacity="0.0"
     inkscape:pagecheckerboard="0"
     inkscape:deskcolor="#d1d1d1"
     inkscape:document-units="mm"
     inkscape:zoom="9.3006364"
     inkscape:cx="69.457613"
     inkscape:cy="65.318111"
     inkscape:window-width="5120"
     inkscape:window-height="1417"
     inkscape:window-x="-8"
     inkscape:window-y="-8"
     inkscape:window-maximized="1"
     inkscape:current-layer="svg1" />
  <g
     transform="translate(-86.611455,-131.21792)"
     id="g1">
    <path
       style="display:inline;fill:#000000"
       d="m 96.36625,160.04133 c -3.15146,-0.26012 -5.3344,-0.73853 -5.48656,-1.20242 -0.0599,-0.18267 0.37625,-0.45288 1.03796,-0.64302 0.62772,-0.18038 1.18777,-0.36288 1.24456,-0.40555 0.0568,-0.0427 -0.31334,-0.53869 -0.8225,-1.10227 -1.40696,-1.55734 -1.88593,-3.07883 -1.74354,-5.53854 0.14237,-2.45927 0.90237,-4.30428 2.86183,-6.94744 0.72641,-0.97987 1.32075,-1.96284 1.32075,-2.18438 0,-0.89498 1.11621,-3.93589 1.68928,-4.60212 l 0.612,-0.71149 0.89988,0.55692 c 0.49493,0.30631 1.24017,0.91264 1.65608,1.34739 0.75234,0.78643 0.76177,0.78842 1.85208,0.39039 1.72863,-0.63106 5.30128,-0.74877 7.24918,-0.23884 l 1.65539,0.43336 1.76749,-1.06603 c 0.97213,-0.58631 1.97919,-1.06602 2.23792,-1.06602 0.74763,0 1.05916,0.93774 1.17094,3.52469 0.0926,2.14365 0.18849,2.52845 0.86629,3.47773 1.84529,2.58436 2.81754,5.64119 2.6154,8.22308 -0.14607,1.8658 -0.67781,3.04237 -1.99749,4.41981 -0.62085,0.64802 -0.81095,0.99219 -0.54804,0.99219 0.22141,0 1.0281,0.18577 1.79266,0.41282 2.5934,0.77016 0.69347,1.46147 -5.3951,1.96307 -3.7501,0.30895 -12.60596,0.2911 -16.53646,-0.0333 z m 15.58155,-10.49071 c 0.22501,-0.42044 0.13468,-0.47382 -0.7836,-0.46302 -1.10611,0.013 -1.22643,0.11644 -0.72212,0.62075 0.46557,0.46557 1.2141,0.38716 1.50572,-0.15773 z m -5.11493,-0.97156 c 0.49221,-0.37229 0.48351,-0.38881 -0.20898,-0.39688 -1.0085,-0.0117 -1.33537,-1.2114 -0.51178,-1.8783 0.48015,-0.3888 0.50281,-0.48164 0.15054,-0.61682 -0.74418,-0.28557 -1.17861,-0.16972 -1.83864,0.49031 -0.78737,0.78737 -0.82811,1.55314 -0.12026,2.26098 0.62289,0.6229 1.80468,0.68864 2.52912,0.14071 z m 8.28839,-0.64549 c 0.2928,-0.18543 0.25291,-0.29287 -0.19843,-0.53442 -0.58769,-0.31453 -0.78226,-1.44108 -0.30033,-1.73893 0.44244,-0.27344 0.29604,-0.66145 -0.24958,-0.66145 -0.53422,0 -1.33792,0.91674 -1.33792,1.5261 0,0.37989 1.16679,1.65144 1.50933,1.64485 0.11575,-0.002 0.37537,-0.10849 0.57693,-0.23615 z"
       id="path1-1" />
  </g>
  <path
     style="fill:#ffffff;stroke-width:3.35042"
     d="m 70.014198,66.712797 c -2.033798,-0.532767 -3.630821,-1.825581 -4.508882,-3.65001 -0.708047,-1.471174 -0.586204,-2.978377 0.373823,-4.624176 0.486598,-0.834188 2.393249,-2.791343 3.290449,-3.377608 1.44031,-0.941153 2.72974,-1.082459 4.505225,-0.49372 0.992553,0.329125 1.481334,0.620562 1.481334,0.883249 0,0.06785 -0.579099,0.682856 -1.286887,1.366685 -1.675344,1.618634 -1.885318,2.026806 -1.884093,3.662515 7.35e-4,0.980307 0.03553,1.199143 0.264263,1.662016 0.351421,0.711153 0.970423,1.310772 1.696115,1.643005 0.488324,0.223562 0.858254,0.290405 2.05878,0.372004 0.804921,0.05471 1.508314,0.143717 1.563095,0.197794 0.134062,0.132338 -0.147859,0.429339 -1.024239,1.079026 -0.872973,0.647162 -1.937141,1.142964 -2.88404,1.34369 -1.016932,0.215572 -2.688785,0.186001 -3.644943,-0.06447 z"
     id="path1"
     transform="scale(0.26458333)" />
  <path
     style="fill:#ffffff;stroke-width:3.35042"
     d="m 91.921597,70.87554 c -0.75629,-0.213017 -1.399617,-0.64058 -2.115816,-1.406199 -0.758788,-0.811147 -0.876424,-1.070538 -0.616002,-1.358301 0.319956,-0.353548 1.248714,-0.471191 3.76085,-0.476377 3.246986,-0.0067 3.488218,0.111273 2.855507,1.396492 -0.57349,1.164924 -1.523239,1.808058 -2.853658,1.932389 -0.296696,0.02773 -0.760592,-0.01188 -1.030881,-0.088 z"
     id="path2"
     transform="scale(0.26458333)" />
  <path
     style="fill:#ffffff;stroke-width:3.35042"
     d="m 105.10033,63.862252 c -1.44514,-0.770154 -4.04321,-3.537805 -4.8542,-5.171035 -0.37246,-0.750081 -0.378102,-0.780567 -0.254568,-1.375624 0.382598,-1.842958 2.239188,-4.156907 3.952208,-4.925796 0.88799,-0.398576 2.16575,-0.243144 2.6064,0.317053 0.41579,0.5286 0.30331,0.843005 -0.62487,1.746573 -0.95798,0.93258 -1.09376,1.257059 -1.09376,2.613781 0,1.81928 0.85471,3.391359 2.30149,4.233163 0.79475,0.462421 1.24665,0.873548 1.24665,1.134158 0,0.238799 -0.66949,0.735067 -1.55791,1.154827 -0.88862,0.419854 -1.31797,0.487918 -1.72144,0.2729 z"
     id="path3"
     transform="scale(0.26458333)" />
</svg>
