<?xml version="1.0" encoding="UTF-8" standalone="no"?>
<!-- Created with Inkscape (http://www.inkscape.org/) -->

<svg
   width="150.18124mm"
   height="119.45544mm"
   viewBox="0 0 150.18124 119.45544"
   version="1.1"
   id="svg1"
   xml:space="preserve"
   inkscape:version="1.4.3 (0d15f75, 2025-12-25)"
   sodipodi:docname="kage-icon.svg"
   xmlns:inkscape="http://www.inkscape.org/namespaces/inkscape"
   xmlns:sodipodi="http://sodipodi.sourceforge.net/DTD/sodipodi-0.dtd"
   xmlns="http://www.w3.org/2000/svg"
   xmlns:svg="http://www.w3.org/2000/svg"><sodipodi:namedview
     id="namedview1"
     pagecolor="#ffffff"
     bordercolor="#000000"
     borderopacity="0.25"
     inkscape:showpageshadow="2"
     inkscape:pageopacity="0.0"
     inkscape:pagecheckerboard="0"
     inkscape:deskcolor="#d1d1d1"
     inkscape:document-units="mm"
     inkscape:zoom="0.67150344"
     inkscape:cx="217.42256"
     inkscape:cy="276.24579"
     inkscape:window-width="1280"
     inkscape:window-height="777"
     inkscape:window-x="-8"
     inkscape:window-y="-8"
     inkscape:window-maximized="1"
     inkscape:current-layer="layer1" /><defs
     id="defs1" /><g
     inkscape:label="Layer 1"
     inkscape:groupmode="layer"
     id="layer1"
     transform="translate(-30.458003,-97.463952)"><rect
       style="fill:#ffffff;stroke-width:0.740304"
       id="rect3"
       width="98.898102"
       height="42.159748"
       x="52.404175"
       y="123.72113" /><path
       style="fill:#000000"
       d="m 83.074164,216.82204 c -24.927968,-0.71263 -46.780908,-3.18458 -51.249348,-5.7972 -1.34,-0.78347 -1.50019,-1.01264 -1.29086,-1.84667 0.3959,-1.57739 5.60892,-3.08931 14.77702,-4.28573 l 1.52744,-0.19933 -1.8521,-1.41055 c -9.88782,-7.53051 -15.00548,-21.16884 -12.99769,-34.63826 1.63887,-10.99449 6.57514,-21.53577 15.29905,-32.67073 l 2.41679,-3.08473 -1.32094,-1.98348 c -0.72651,-1.09092 -2.09767,-3.55914 -3.04702,-5.48495 -3.62012,-7.34358 -5.65401,-13.57753 -5.65401,-17.32977 0,-3.35518 0.87252,-3.95476 5.68854,-3.90907 4.59733,0.0436 10.363,1.01112 16.53646,2.77489 3.10851,0.88812 8.46324,2.74437 9.62097,3.33518 0.72882,0.37193 0.87414,0.32622 3.84599,-1.20986 8.339808,-4.31064 16.718168,-6.50489 26.088244,-6.83239 10.72679,-0.37492 21.01748,1.94421 30.81344,6.94418 1.79536,0.91637 2.87083,1.32696 3.06142,1.16878 0.41422,-0.34377 31.24932,-12.687301 32.13774,-12.864991 0.40152,-0.0803 0.98271,-0.0108 1.29153,0.1545 1.1447,0.61262 1.1804,0.42283 -4.49725,23.912081 l -3.18556,13.17916 1.15862,1.24063 c 4.11822,4.40969 9.24905,11.82945 12.11006,17.51251 4.40982,8.7596 7.01253,19.58196 6.10763,25.39623 -0.77398,4.97302 -2.56107,5.13573 -9.05793,0.8247 -1.94111,-1.28804 -3.7561,-2.59498 -4.03332,-2.90432 -0.76367,-0.85218 -0.93494,-0.68082 -0.56172,0.56203 0.18572,0.61846 0.48615,2.37998 0.66763,3.91449 0.93424,7.89958 -2.45212,16.59971 -8.5289,21.91216 l -1.51868,1.32766 1.2541,0.16532 c 2.8969,0.38188 9.26887,1.48097 10.88662,1.87781 2.44917,0.6008 4.97801,1.83694 5.20206,2.54285 0.24706,0.77842 -0.94644,1.82515 -2.92523,2.56551 -6.07967,2.2747 -25.82093,4.35897 -47.69343,5.03544 -6.67901,0.20657 -35.001976,0.2796 -41.077366,0.10592 z m 52.387486,-58.54892 c 6.81244,-2.28755 10.74808,-9.31323 9.2271,-16.47167 -0.75664,-3.56107 -3.98455,-7.76519 -7.13366,-9.29107 -5.02845,-2.43652 -11.51312,-1.80082 -15.19031,1.48911 l -1.05833,0.94688 1.70448,-0.67799 c 1.44907,-0.5764 2.00566,-0.66056 3.7143,-0.56165 4.33684,0.25106 7.36987,3.27625 8.21559,8.19438 1.23917,7.20612 -4.80909,13.7998 -11.00585,11.99835 -3.33506,-0.96952 -5.39066,-3.1 -6.31936,-6.54953 -0.20646,-0.76688 -0.38322,-1.15144 -0.39279,-0.85459 -0.01,0.29684 0.16456,1.23837 0.38697,2.09227 1.30478,5.00939 5.11261,8.80259 10.10622,10.06741 2.08318,0.52765 5.54533,0.35694 7.74564,-0.3819 z m -31.67232,-1.2019 c 2.46635,-0.6424 4.68482,-2.49933 4.68482,-3.92133 0,-0.76571 -0.52238,-0.75307 -2.6409,0.0639 -3.24193,1.25022 -5.74236,1.03348 -8.784546,-0.76145 -0.86319,-0.5093 -0.96583,-0.51872 -1.29743,-0.11917 -0.30927,0.37264 -0.26607,0.60227 0.30611,1.62714 0.80699,1.44545 2.42176,2.66674 4.134976,3.12738 1.66286,0.4471 1.8199,0.44638 3.59697,-0.0165 z m -27.790844,-0.78804 c 2.682108,-0.56836 5.227748,-2.02473 7.088388,-4.05529 1.7601,-1.92084 2.03909,-2.55231 0.66438,-1.50376 -2.0096,1.53279 -5.37453,2.15788 -7.582918,1.40864 -4.98818,-1.69232 -7.7998,-7.92479 -6.07504,-13.46644 0.903,-2.90136 3.07511,-5.35635 5.50704,-6.22426 1.16837,-0.41697 4.239398,-0.48717 5.207638,-0.11905 1.15051,0.43742 0.75213,-0.10171 -0.74611,-1.00974 -4.195158,-2.54254 -9.079228,-2.82496 -13.391868,-0.7744 -2.1473,1.021 -4.8986,3.71327 -5.88572,5.75944 -3.10981,6.44626 -1.30717,13.75454 4.37732,17.7466 3.31862,2.33058 6.90537,3.07139 10.83689,2.23826 z M 121.8059,144.96342 c 0.57733,-0.91675 -0.72361,-1.94907 -1.5705,-1.24622 -0.52368,0.43462 -0.48359,1.2274 0.0789,1.55932 0.61418,0.36244 1.13507,0.25311 1.49164,-0.3131 z m -36.775406,-1.32291 c 0.39664,-0.63347 -0.087,-1.36471 -0.97304,-1.47107 -0.87992,-0.10562 -1.41029,0.73936 -0.97481,1.55307 0.35401,0.66146 1.51289,0.61267 1.94785,-0.082 z m 40.501986,-0.19393 c 1.11211,-0.68732 1.85011,-2.30849 1.61687,-3.55178 -0.23983,-1.27841 -1.30777,-2.46612 -2.55285,-2.83915 -2.02274,-0.60603 -4.2161,1.12215 -4.2161,3.32194 0,2.83884 2.81311,4.51456 5.15208,3.06899 z m -42.586826,-1.59435 c 2.81674,-1.74084 1.35202,-6.61224 -1.98816,-6.61224 -1.90313,0 -3.175828,1.40044 -3.174008,3.49259 0.002,2.78808 2.882478,4.52858 5.162168,3.11965 z"
       id="path1" /></g></svg>
