<?xml version="1.0" encoding="UTF-8" standalone="no"?>
<svg
   width="36.777084mm"
   height="34.564167mm"
   viewBox="0 0 36.777084 34.564167"
   version="1.1"
   id="svg1"
   sodipodi:docname="kage-big-fish.svg"
   inkscape:version="1.4.3 (0d15f75, 2025-12-25)"
   xmlns:inkscape="http://www.inkscape.org/namespaces/inkscape"
   xmlns:sodipodi="http://sodipodi.sourceforge.net/DTD/sodipodi-0.dtd"
   xmlns="http://www.w3.org/2000/svg"
   xmlns:svg="http://www.w3.org/2000/svg">
  <defs
     id="defs1" />
  <sodipodi:namedview
     id="namedview1"
     pagecolor="#ffffff"
     bordercolor="#000000"
     borderopacity="0.25"
     inkscape:showpageshadow="2"
     inkscape:pageopacity="0.0"
     inkscape:pagecheckerboard="0"
     inkscape:deskcolor="#d1d1d1"
     inkscape:document-units="mm"
     inkscape:zoom="9.3006364"
     inkscape:cx="69.511372"
     inkscape:cy="65.318111"
     inkscape:window-width="5120"
     inkscape:window-height="1417"
     inkscape:window-x="-8"
     inkscape:window-y="-8"
     inkscape:window-maximized="1"
     inkscape:current-layer="svg1" />
  <g
     transform="translate(-86.611455,-131.21792)"
     id="g1">
    <path
       style="display:inline;fill:#000000"
       d="m 103.65545,159.37577 c -2.72637,-0.49625 -5.925219,-1.90252 -7.899412,-3.47272 l -0.68597,-0.54559 -1.284059,0.81433 c -2.853564,1.80967 -4.57891,0.44728 -2.997316,-2.36679 l 0.564393,-1.0042 -0.564393,-1.16588 c -0.760798,-1.5716 -0.757741,-3.061 0.0069,-3.34385 0.912121,-0.33741 1.720457,-0.0494 2.984533,1.06324 l 1.180184,1.03884 1.314613,-0.86991 c 1.230624,-0.81433 1.334536,-0.97117 1.626427,-2.45483 0.340232,-1.72936 0.771024,-2.7174 1.761964,-4.04112 0.393996,-0.52632 0.748666,-1.50406 0.910816,-2.51092 0.31397,-1.94957 0.74161,-2.94035 1.31695,-3.05115 0.22985,-0.0443 1.0108,0.3185 1.73544,0.80615 1.22558,0.82475 1.43752,0.87898 3.03726,0.77712 1.05362,-0.0671 2.34893,0.0517 3.34413,0.30664 l 1.6244,0.41615 1.6924,-0.79196 c 2.45231,-1.14758 2.81809,-0.85379 2.82518,2.26908 0.003,1.32365 0.18058,1.94477 1.0519,3.67919 0.57657,1.14768 1.12986,2.63059 1.22955,3.29535 0.0997,0.66475 0.47109,1.74756 0.82533,2.40622 0.50439,0.93784 0.61873,1.47442 0.52719,2.47406 -0.20072,2.19196 -1.69794,3.47353 -4.50269,3.85414 -0.77977,0.10582 -1.77048,0.44355 -2.20158,0.75052 -1.94622,1.38583 -6.5233,2.19589 -9.42411,1.66789 z m 6.37955,-1.03605 c 1.93708,-0.60289 3.60086,-1.55301 4.64785,-2.65421 0.59056,-0.62115 0.79527,-1.11 0.84851,-2.02625 0.063,-1.08508 -0.0367,-1.32359 -0.98355,-2.35074 -1.25709,-1.36378 -3.95845,-2.83839 -6.33184,-3.4564 -1.26631,-0.32974 -2.38258,-0.41414 -4.23334,-0.32009 -2.98665,0.15179 -4.828383,0.77658 -7.322461,2.4841 l -1.717514,1.17585 -1.152914,-1.06272 c -2.537805,-2.33926 -3.85494,-1.51568 -2.345911,1.46686 l 0.690363,1.36448 -0.581302,0.78625 c -0.319717,0.43244 -0.600615,1.18935 -0.624218,1.68203 -0.03732,0.77904 0.0459,0.9061 0.638597,0.97505 0.438364,0.051 1.179426,-0.2558 2.077108,-0.8599 0.767579,-0.51654 1.454004,-0.93917 1.525389,-0.93917 0.07138,0 0.6007,0.40308 1.176256,0.89574 1.348493,1.15426 3.961887,2.43637 5.943577,2.91586 2.30607,0.55799 5.81781,0.5232 7.7454,-0.0767 z m 1.18736,-5.71846 c -0.0914,-0.23827 -0.044,-0.55544 0.10537,-0.70483 0.4313,-0.4313 1.25386,-0.14062 1.25386,0.4431 0,0.67301 -1.11874,0.88843 -1.35923,0.26173 z m 6.50278,2.87691 c 1.54593,-0.91321 1.9565,-2.95215 1.01191,-5.0253 l -0.32332,-0.70962 -0.17772,0.63487 c -0.0977,0.34917 -0.18958,1.16571 -0.20409,1.81452 -0.0236,1.05643 -0.16457,1.31147 -1.34929,2.44145 -0.7276,0.69399 -1.32292,1.37523 -1.32292,1.51386 0,0.32523 1.30797,-0.0451 2.36543,-0.66978 z m -10.03834,-9.11513 c 0,-0.1601 -0.22714,-0.20841 -0.52917,-0.11255 -0.29104,0.0924 -0.52916,0.0706 -0.52916,-0.0483 0,-0.11895 -0.29766,-0.21627 -0.66146,-0.21627 -0.63196,0 -0.81616,0.15398 -0.52841,0.44173 0.26668,0.26668 2.2482,0.20976 2.2482,-0.0646 z m 4.7625,-0.46842 c 0,-0.29271 -0.80145,-0.9747 -1.39136,-1.18399 -0.54213,-0.19234 -1.78364,0.21878 -1.78364,0.59063 0,0.13998 0.38695,0.19396 0.85989,0.11997 0.54845,-0.0858 1.05156,0.013 1.38907,0.2728 0.59689,0.45947 0.92604,0.53077 0.92604,0.20059 z m -7.9375,-1.32292 c 0,-0.12296 -0.22759,-0.42955 -0.50577,-0.68129 -0.54024,-0.48891 -1.90045,-0.48878 -2.06063,1.9e-4 -0.0575,0.17565 0.19555,0.24351 0.6561,0.17591 0.47213,-0.0693 0.87867,0.0453 1.09785,0.30936 0.3755,0.45245 0.81245,0.55777 0.81245,0.19583 z m -9.789583,-0.57021 c -0.290179,-0.18753 -0.09037,-0.25757 0.743219,-0.26053 0.693574,-0.002 1.076051,0.0996 0.976573,0.26053 -0.207428,0.33562 -1.200449,0.33562 -1.719792,0 z m 0.992188,-1.63044 c -0.400183,-0.14616 -0.727604,-0.37488 -0.727604,-0.50828 0,-0.33212 0.165844,-0.30718 1.071472,0.16114 1.229434,0.63576 1.021399,0.84578 -0.343868,0.34714 z m 1.149721,-1.3854 c -0.329047,-0.35026 -0.480173,-0.70298 -0.338665,-0.79044 0.252294,-0.15592 1.250866,1.10495 1.041163,1.31465 -0.05956,0.0596 -0.375685,-0.17633 -0.702498,-0.52421 z"
       id="path1-48" />
  </g>
  <path
     style="fill:#ffffff;stroke-width:3.35042"
     d="m 70.04897,104.17359 c -3.057807,-0.16076 -7.30954,-0.68076 -9.618921,-1.17641 -5.632333,-1.20885 -12.808231,-4.19524 -18.60706,-7.743706 -1.86783,-1.142976 -3.426168,-2.248762 -5.019581,-3.561855 -2.98584,-2.460558 -4.192502,-3.36433 -4.491851,-3.36433 -0.191307,0 -2.311072,1.289984 -4.947838,3.011008 -3.451955,2.253099 -4.677579,2.910232 -6.504007,3.4872 -1.545804,0.488319 -3.277507,0.353549 -3.937493,-0.306437 -0.440204,-0.440204 -0.57791,-0.958331 -0.578652,-2.17721 -7.17e-4,-1.178403 0.189758,-2.243749 0.64383,-3.601005 0.539011,-1.611144 1.206807,-2.817667 2.630203,-4.752049 l 1.333184,-1.811785 -1.794693,-3.564192 c -2.516019,-4.996715 -3.157222,-6.833007 -3.178075,-9.101447 -0.01058,-1.151102 0.0096,-1.27917 0.29229,-1.854854 0.717857,-1.461878 2.331933,-1.615811 4.780499,-0.455914 2.181148,1.033219 3.884857,2.336272 7.922484,6.059373 1.358349,1.252537 2.525388,2.25598 2.593416,2.229874 0.06803,-0.0261 1.279075,-0.841297 2.691211,-1.811539 6.448943,-4.430896 8.420895,-5.657457 11.706681,-7.281596 6.323092,-3.125457 11.906597,-4.361411 21.462573,-4.750919 8.060448,-0.328548 13.659832,0.614806 20.846359,3.512084 6.884536,2.775528 12.952511,6.518389 16.719291,10.312817 3.06445,3.086953 4.01541,4.583278 4.25547,6.695888 0.10859,0.955717 -0.0151,3.524574 -0.22672,4.709189 -0.41486,2.322133 -1.54276,4.216031 -3.77758,6.343093 -3.77592,3.593846 -9.118265,6.639162 -15.454097,8.809352 -2.972259,1.01808 -6.04044,1.60912 -10.386724,2.00085 -1.291274,0.11638 -7.936625,0.21905 -9.354199,0.14452 z M 96.458762,82.141917 c 1.061494,-0.361687 1.706564,-1.214029 1.706564,-2.254911 0,-1.385508 -1.178236,-2.444284 -2.741748,-2.463764 -1.570695,-0.01957 -2.631554,0.97315 -2.633629,2.464474 -0.0021,1.474845 0.963364,2.41848 2.474307,2.41848 0.391805,0 0.929332,-0.07393 1.194506,-0.164279 z"
     id="path1"
     transform="scale(0.26458333)" />
  <path
     style="fill:#ffffff;stroke-width:3.35042"
     d="m 72.844478,58.045502 c -0.83321,-0.126527 -1.488634,-0.388647 -1.78606,-0.714286 -0.788678,-0.863493 -0.05918,-1.36052 2.001099,-1.363399 1.425632,-0.002 2.526708,0.353327 2.526708,0.815373 0,0.406843 0.849368,0.46411 2.183616,0.147227 0.783587,-0.186102 0.968184,-0.197319 1.325603,-0.08055 0.505949,0.165291 0.62114,0.529658 0.23361,0.73894 -0.618441,0.333982 -1.466409,0.439477 -3.796588,0.47233 -1.300987,0.01834 -2.510581,0.01131 -2.687988,-0.01563 z"
     id="path2"
     transform="scale(0.26458333)" />
  <path
     style="fill:#ffffff;stroke-width:3.35042"
     d="m 96.133373,55.960844 c -0.378378,-0.179001 -1.031559,-0.575683 -1.451514,-0.881516 -1.028036,-0.748667 -1.825932,-1.132857 -2.770592,-1.334049 -0.783784,-0.166929 -1.380526,-0.162543 -3.925687,0.02885 -1.054755,0.07932 -1.770301,-0.01281 -2.086189,-0.2686 -0.225281,-0.182422 -0.227021,-0.200275 -0.05242,-0.537907 0.57505,-1.112024 4.263649,-2.32104 5.981695,-1.960626 1.278041,0.268109 3.010651,1.324698 4.470531,2.72624 0.967665,0.928997 1.38211,1.603465 1.267033,2.061969 -0.0701,0.279284 -0.330614,0.491342 -0.603426,0.491178 -0.07781,-4.7e-5 -0.451048,-0.14654 -0.829426,-0.325542 z"
     id="path3"
     transform="scale(0.26458333)" />
  <path
     style="fill:#ffffff;stroke-width:3.35042"
     d="m 66.500826,51.209234 c -0.483878,-0.171556 -0.877715,-0.467621 -1.846307,-1.387947 -0.780913,-0.741999 -0.96452,-0.860936 -1.650899,-1.069418 -0.71518,-0.217229 -0.903143,-0.228837 -2.542712,-0.157029 -2.280386,0.09987 -2.732874,-0.05545 -2.345245,-0.805041 0.668342,-1.292432 4.254989,-1.526255 6.557255,-0.427485 0.779687,0.37211 1.922445,1.454365 2.543692,2.409015 0.483338,0.742731 0.506787,0.947804 0.149259,1.305332 -0.288552,0.288552 -0.383892,0.303163 -0.865043,0.132573 z"
     id="path4"
     transform="scale(0.26458333)" />
</svg>
