<?xml version="1.0" encoding="UTF-8" standalone="no"?>
<svg
   width="36.777084mm"
   height="34.564167mm"
   viewBox="0 0 36.777084 34.564167"
   version="1.1"
   id="svg1"
   sodipodi:docname="kage-winking.svg"
   inkscape:version="1.4.3 (0d15f75, 2025-12-25)"
   xmlns:inkscape="http://www.inkscape.org/namespaces/inkscape"
   xmlns:sodipodi="http://sodipodi.sourceforge.net/DTD/sodipodi-0.dtd"
   xmlns="http://www.w3.org/2000/svg"
   xmlns:svg="http://www.w3.org/2000/svg">
  <defs
     id="defs1" />
  <sodipodi:namedview
     id="namedview1"
     pagecolor="#ffffff"
     bordercolor="#000000"
     borderopacity="0.25"
     inkscape:showpageshadow="2"
     inkscape:pageopacity="0.0"
     inkscape:pagecheckerboard="0"
     inkscape:deskcolor="#d1d1d1"
     inkscape:document-units="mm"
     inkscape:zoom="9.3006364"
     inkscape:cx="69.511372"
     inkscape:cy="65.318111"
     inkscape:window-width="5120"
     inkscape:window-height="1417"
     inkscape:window-x="-8"
     inkscape:window-y="-8"
     inkscape:window-maximized="1"
     inkscape:current-layer="svg1" />
  <g
     transform="translate(-86.611455,-131.21792)"
     id="g1">
    <path
       style="display:inline;fill:#000000"
       d="m 95.132769,159.92058 c -2.678191,-0.27838 -4.402641,-0.73132 -4.272361,-1.12216 0.0549,-0.16466 0.60213,-0.46683 1.21609,-0.67149 l 1.1163,-0.3721 -0.91256,-1.01009 c -1.20165,-1.33008 -1.4511,-1.83252 -1.7722,-3.56952 -0.52383,-2.83364 0.60041,-6.13049 3.17946,-9.32378 0.812321,-1.00579 1.544571,-2.27929 1.875611,-3.26197 0.59924,-1.7788 1.70026,-3.68705 2.12736,-3.68705 0.51029,0 1.69929,0.74225 2.443681,1.52551 l 0.74035,0.77901 1.6409,-0.38541 c 1.94165,-0.45605 5.59168,-0.31695 7.21154,0.27483 1.05681,0.38608 1.09434,0.37848 2.52995,-0.51271 0.80148,-0.49754 1.884,-0.97386 2.40561,-1.05851 0.82694,-0.13419 0.97658,-0.0738 1.16869,0.47159 0.12118,0.34401 0.22281,1.69704 0.22585,3.00673 0.005,2.30069 0.0385,2.43048 0.98073,3.83646 2.13325,3.18322 2.82065,7.62324 1.55553,10.04755 -0.33983,0.65121 -0.97073,1.51363 -1.40201,1.9165 -0.83932,0.78405 -0.79963,0.83583 0.85564,1.1161 2.40373,0.407 2.01989,1.06708 -0.95484,1.64202 -2.43359,0.47035 -18.378821,0.73066 -21.959321,0.35849 z m 18.887111,-10.6077 c 0.0623,-0.32374 -0.098,-0.38962 -0.72457,-0.29766 -0.83091,0.12195 -1.05309,0.44056 -0.4739,0.6796 0.56002,0.23113 1.11443,0.0544 1.19847,-0.38194 z m -6.8196,-1.48193 c 1.16873,-0.41509 1.34382,-0.41676 2.34797,-0.0223 1.05105,0.41287 1.07661,0.41043 0.81528,-0.0779 -0.34435,-0.64343 -1.61385,-1.30333 -2.50732,-1.30333 -1.15189,0 -2.23099,0.73268 -2.24065,1.52135 -0.005,0.42458 0.0742,0.41868 1.58472,-0.11782 z m 9.10522,0.28795 c 0.52845,-0.20278 0.54658,-0.63315 0.0267,-0.63315 -0.50041,0 -0.83187,-1.26338 -0.43546,-1.65979 0.44587,-0.44587 0.36118,-0.72146 -0.22173,-0.72146 -1.08368,0 -1.33732,1.8092 -0.38689,2.75962 0.47388,0.47388 0.45726,0.46972 1.0174,0.25478 z"
       id="path1-7" />
  </g>
  <path
     style="fill:#ffffff;stroke-width:3.35042"
     d="m 109.91238,64.173544 c -0.19189,-0.0946 -0.79951,-0.641474 -1.35026,-1.215281 -1.54001,-1.604468 -2.18998,-3.07961 -2.30246,-5.225497 -0.1191,-2.272186 0.72441,-4.12717 2.20801,-4.85573 0.51458,-0.252694 0.7465,-0.299881 1.47104,-0.299308 0.97003,7.69e-4 1.40794,0.162166 1.65999,0.611814 0.14968,0.267038 0.14366,0.328751 -0.0762,0.781391 -0.13132,0.2703 -0.42605,0.696242 -0.65494,0.946538 -0.64644,0.70688 -0.80093,1.092633 -0.85316,2.130229 -0.0812,1.613294 0.52805,3.403015 1.39818,4.10727 0.26971,0.218297 0.56502,0.330997 1.04514,0.398862 1.07595,0.152085 1.41059,0.4961 1.13053,1.162188 -0.19491,0.46354 -0.86718,0.915381 -1.93898,1.303202 -1.04056,0.376519 -1.24861,0.395005 -1.73684,0.154322 z"
     id="path1"
     transform="scale(0.26458333)" />
  <path
     style="fill:#ffffff;stroke-width:3.35042"
     d="m 72.156828,64.174166 c -0.23644,-0.165609 -0.248763,-0.229005 -0.203767,-1.048315 0.03431,-0.624681 0.11779,-1.009293 0.294305,-1.355884 0.88451,-1.736758 2.734874,-3.091075 5.220451,-3.820949 0.741094,-0.217618 1.294961,-0.29753 2.36543,-0.341285 1.255798,-0.05133 1.515401,-0.02866 2.556163,0.223265 3.626099,0.877711 7.003719,3.244518 7.717759,5.408081 0.247062,0.748603 0.136988,0.730976 -3.193319,-0.511356 -2.877823,-1.073539 -3.459003,-1.213545 -4.715174,-1.13588 -1.159634,0.0717 -2.001122,0.302733 -5.322216,1.461259 -2.179551,0.760312 -3.973011,1.293958 -4.357497,1.29658 -0.06076,4.14e-4 -0.223722,-0.07857 -0.362135,-0.175516 z"
     id="path2"
     transform="scale(0.26458333)" />
  <path
     style="fill:#ffffff;stroke-width:3.35042"
     d="m 99.778118,70.008928 c -0.557044,-0.162248 -1.365465,-0.554482 -1.639672,-0.795546 -0.294904,-0.259258 -0.23652,-0.717397 0.130812,-1.026486 0.604872,-0.508967 2.373622,-0.944998 3.943242,-0.972087 0.73735,-0.01273 0.91285,0.01877 1.11318,0.199762 0.20258,0.183029 0.23087,0.298694 0.19091,0.780574 -0.0563,0.679489 -0.45159,1.234945 -1.16043,1.630827 -0.56303,0.314446 -1.82027,0.403669 -2.578042,0.182956 z"
     id="path3"
     transform="scale(0.26458333)" />
</svg>
