<?xml version="1.0" encoding="UTF-8" standalone="no"?>
<svg
   width="36.777084mm"
   height="34.564167mm"
   viewBox="0 0 36.777084 34.564167"
   version="1.1"
   id="svg1"
   sodipodi:docname="kage-buttefly.svg"
   inkscape:version="1.4.3 (0d15f75, 2025-12-25)"
   xmlns:inkscape="http://www.inkscape.org/namespaces/inkscape"
   xmlns:sodipodi="http://sodipodi.sourceforge.net/DTD/sodipodi-0.dtd"
   xmlns="http://www.w3.org/2000/svg"
   xmlns:svg="http://www.w3.org/2000/svg">
  <defs
     id="defs1" />
  <sodipodi:namedview
     id="namedview1"
     pagecolor="#3c41ff"
     bordercolor="#000000"
     borderopacity="0.25"
     inkscape:showpageshadow="2"
     inkscape:pageopacity="0.0"
     inkscape:pagecheckerboard="0"
     inkscape:deskcolor="#d1d1d1"
     inkscape:document-units="mm"
     inkscape:zoom="3.2882715"
     inkscape:cx="135.63357"
     inkscape:cy="78.91684"
     inkscape:window-width="2193"
     inkscape:window-height="1211"
     inkscape:window-x="2405"
     inkscape:window-y="43"
     inkscape:window-maximized="0"
     inkscape:current-layer="svg1" />
  <path
     id="rect2"
     style="fill:#ffffff;stroke-width:7.43318"
     d="M 26.499158 6.6001139 C 26.285255 6.6001139 26.103759 6.7334459 26.033036 6.9220581 C 25.803664 6.9666995 25.63151 7.1681024 25.63151 7.4109172 L 25.63151 7.9369832 C 25.63151 8.0657197 25.680028 8.1826179 25.759668 8.270813 L 25.759668 9.0108195 C 25.759668 9.329962 26.016718 9.5870117 26.33586 9.5870117 L 27.139429 9.5870117 L 27.139429 9.6722778 L 25.460978 9.6722778 L 25.460978 10.582817 L 27.139429 10.582817 L 27.139429 10.682035 L 27.597282 10.682035 C 27.523985 10.778671 27.480493 10.89967 27.480493 11.030851 C 27.480493 11.349994 27.737543 11.606527 28.056685 11.606527 L 28.085107 11.606527 C 28.40425 11.606527 28.6613 11.349994 28.6613 11.030851 C 28.6613 10.89967 28.617807 10.778671 28.544511 10.682035 L 28.859737 10.682035 C 28.814706 10.764222 28.789457 10.858852 28.789457 10.959538 L 28.789457 11.884029 C 28.789457 12.203172 29.04599 12.460221 29.365133 12.460221 L 29.749605 12.460221 C 30.068748 12.460221 30.325281 12.203172 30.325281 11.884029 L 30.325281 11.265462 L 31.18621 11.265462 C 31.423251 11.265462 31.625729 11.12344 31.714343 10.919747 C 31.73697 10.922426 31.760219 10.923881 31.78359 10.923881 L 31.996497 10.923881 C 32.315639 10.923881 32.572689 10.666831 32.572689 10.347689 L 32.572689 10.006624 C 32.572689 9.6874819 32.315639 9.4304321 31.996497 9.4304321 L 31.78359 9.4304321 C 31.760219 9.4304321 31.73697 9.4318872 31.714343 9.4345662 C 31.625729 9.2308728 31.423251 9.0888509 31.18621 9.0888509 L 30.147514 9.0888509 C 30.040967 9.0888509 29.941492 9.1178878 29.856059 9.1679159 L 29.856059 8.5912069 L 29.788879 8.5912069 C 29.883599 8.4886251 29.941325 8.3512943 29.941325 8.2000163 L 29.941325 8.1860636 C 29.941325 7.8669212 29.684275 7.6098714 29.365133 7.6098714 L 29.251444 7.6098714 C 28.932302 7.6098714 28.675252 7.8669212 28.675252 8.1860636 L 28.675252 8.2000163 C 28.675252 8.3512943 28.732978 8.4886251 28.827698 8.5912069 L 28.291296 8.5912069 L 28.291296 8.2429077 C 28.291296 7.9237652 28.034247 7.6667155 27.715104 7.6667155 L 27.62312 7.6667155 L 27.62312 7.4393392 C 27.62312 7.2108174 27.438747 7.0264445 27.210225 7.0264445 C 27.159427 7.0264445 27.110912 7.0356327 27.066048 7.0522827 C 27.043267 6.7979062 26.830972 6.6001139 26.570471 6.6001139 L 26.499158 6.6001139 z " />
  <rect
     style="fill:#ffffff;stroke-width:8.24468"
     id="rect1"
     width="10.155891"
     height="5.2059608"
     x="12.886887"
     y="13.854115" />
  <g
     transform="translate(-86.611455,-131.21792)"
     id="g1">
    <path
       style="display:inline;fill:#000000"
       d="m 97.822306,159.77311 c -3.84884,-0.21369 -6.55767,-0.68546 -7.00066,-1.21923 -0.3668,-0.44197 0.0704,-0.86629 0.9001,-0.87355 0.25466,-0.002 0.46151,-0.0338 0.45967,-0.0702 -0.002,-0.0364 -0.35903,-0.76754 -0.79375,-1.62479 -1.37702,-2.71543 -1.00316,-5.95236 1.02212,-8.84975 0.29988,-0.42902 0.55487,-1.40129 0.65265,-2.48858 0.16665,-1.85309 0.52145,-2.84574 1.01714,-2.84574 0.15878,0 0.99445,0.35865 1.85706,0.79699 l 1.56837,0.79699 1.49129,-0.43353 c 1.097424,-0.31903 2.138964,-0.39965 3.943524,-0.30526 2.28127,0.11932 2.49086,0.0871 3.00646,-0.4617 0.30483,-0.32448 0.96359,-0.81041 1.4639,-1.07984 0.80011,-0.43089 0.955,-0.44296 1.2861,-0.1002 0.41718,0.43185 1.21557,2.94595 1.21557,3.82778 0,0.31017 0.3462,0.89562 0.76934,1.30101 2.04121,1.9556 2.80945,6.10904 1.62515,8.78633 -0.30944,0.69954 -0.75578,1.48533 -0.99186,1.7462 -0.50912,0.56258 -0.51912,0.55203 0.91248,0.96314 2.10775,0.60528 1.24016,1.20711 -2.50747,1.73937 -3.32205,0.47182 -7.81917,0.62096 -11.897184,0.39455 z m 4.622344,-10.71079 c 0.79579,-0.5574 0.74008,-0.88878 -0.1393,-0.82856 -0.5829,0.0399 -0.74512,-0.0756 -0.8169,-0.58172 -0.0493,-0.34735 0.0697,-0.73248 0.26432,-0.85585 0.26487,-0.16789 0.22602,-0.22532 -0.15446,-0.22836 -0.71283,-0.006 -1.47604,0.75811 -1.47604,1.47716 0,0.5786 0.86609,1.42921 1.45521,1.42921 0.15352,0 0.54375,-0.18535 0.86717,-0.41188 z m 3.68545,-0.0165 c 0.0622,-0.18673 -0.1484,-0.24883 -0.5703,-0.16818 -0.36788,0.0703 -0.59962,0.2399 -0.51499,0.37684 0.19873,0.32155 0.95733,0.1757 1.08529,-0.20866 z m 3.21201,-1.39317 c 0.39858,-0.6031 0.3924,-0.62309 -0.14024,-0.45404 -0.65024,0.20638 -1.51394,-0.5029 -1.29791,-1.06586 0.1717,-0.44744 -0.15738,-0.4729 -0.58502,-0.0453 -0.47532,0.47532 -0.38602,1.73217 0.14552,2.04797 0.69087,0.41046 1.40941,0.2257 1.87765,-0.48281 z m 6.25828,-3.99932 c -0.26338,-0.29105 -0.75809,-0.52917 -1.09934,-0.52917 -0.37512,0 -0.62045,-0.15693 -0.62045,-0.39688 0,-0.22469 -0.23711,-0.39687 -0.54656,-0.39687 -0.84459,0 -1.5701,-0.49334 -1.5701,-1.06764 0,-0.28592 0.12445,-0.51986 0.27657,-0.51986 0.17268,0 0.21144,-0.34719 0.10317,-0.9243 -0.40911,-2.18077 0.76786,-3.03202 2.0634,-1.49237 0.57446,0.68272 0.68894,0.72116 1.148,0.38547 0.3309,-0.24198 0.47866,-0.6115 0.42092,-1.05264 -0.0574,-0.43857 0.013,-0.61675 0.19844,-0.50215 0.15808,0.0977 0.28741,0.48215 0.28741,0.85434 0,0.69202 0.17485,0.71969 1.38907,0.21982 0.25911,-0.10667 0.46302,-0.0743 0.46302,0.0736 0,0.14531 -0.28354,0.33537 -0.63008,0.42234 -0.38693,0.0971 -0.67641,0.40056 -0.75016,0.78636 -0.10944,0.57252 -0.0305,0.62821 0.89022,0.62821 0.55567,0 1.1909,0.14988 1.41162,0.33306 0.88456,0.73412 0.20135,2.01483 -1.22727,2.30055 -0.42407,0.0848 -0.71156,0.21368 -0.63887,0.28638 0.22199,0.22198 -0.37432,1.12092 -0.74356,1.12092 -0.1906,0 -0.56206,-0.23812 -0.82545,-0.52916 z m 1.19063,-0.3099 c 0,-0.36931 -0.78156,-1.2776 -1.09934,-1.2776 -0.3359,0 -0.2688,0.90727 0.0939,1.27 0.40598,0.40597 1.00542,0.4105 1.00542,0.008 z m -1.756,-1.34862 c 0.0327,-0.22262 0.21326,-0.59016 0.40131,-0.81674 0.34692,-0.41801 0.17367,-1.08326 -0.21892,-0.84062 -0.39341,0.24314 -1.10218,1.99501 -0.92387,2.28353 0.21148,0.34218 0.65423,-0.0317 0.74148,-0.62617 z m 3.762,-0.21746 c 0.49116,-0.54272 0.49098,-0.56004 -0.01,-0.92605 -0.68678,-0.50218 -2.12402,-0.47218 -2.65155,0.0554 -0.3947,0.3947 -0.39297,0.46738 0.0221,0.92604 0.61316,0.67754 2.00211,0.64841 2.639,-0.0553 z m -4.65183,-0.21481 c 0,-0.13128 -0.34987,-0.36066 -0.77749,-0.50973 -0.57986,-0.20214 -0.84828,-0.18572 -1.05603,0.0646 -0.15321,0.1846 -0.20022,0.41398 -0.10447,0.50973 0.26402,0.26402 1.93799,0.20821 1.93799,-0.0646 z m 0.41433,-1.19186 c 0.18026,-0.71823 -0.10805,-1.38524 -0.91403,-2.11464 -0.44985,-0.40711 -0.62111,-0.43649 -0.95055,-0.16308 -0.78759,0.65364 -0.39161,1.96338 0.78879,2.60901 0.76563,0.41877 0.89775,0.37808 1.07579,-0.33129 z m 1.80718,-0.57769 c 0.19684,-0.51296 -0.0141,-0.90216 -0.48903,-0.90216 -0.48275,0 -0.69964,0.66242 -0.33597,1.02609 0.40667,0.40667 0.63452,0.37244 0.825,-0.12393 z"
       id="path1-35" />
  </g>
</svg>
