<?xml version="1.0" encoding="UTF-8" standalone="no"?>
<svg
   width="36.777084mm"
   height="34.564167mm"
   viewBox="0 0 36.777084 34.564167"
   version="1.1"
   id="svg1"
   sodipodi:docname="kage-bat.svg"
   inkscape:version="1.4.3 (0d15f75, 2025-12-25)"
   xmlns:inkscape="http://www.inkscape.org/namespaces/inkscape"
   xmlns:sodipodi="http://sodipodi.sourceforge.net/DTD/sodipodi-0.dtd"
   xmlns="http://www.w3.org/2000/svg"
   xmlns:svg="http://www.w3.org/2000/svg">
  <defs
     id="defs1" />
  <sodipodi:namedview
     id="namedview1"
     pagecolor="#ffffff"
     bordercolor="#000000"
     borderopacity="0.25"
     inkscape:showpageshadow="2"
     inkscape:pageopacity="0.0"
     inkscape:pagecheckerboard="0"
     inkscape:deskcolor="#d1d1d1"
     inkscape:document-units="mm"
     inkscape:zoom="9.3006364"
     inkscape:cx="69.511372"
     inkscape:cy="65.318111"
     inkscape:window-width="5120"
     inkscape:window-height="1417"
     inkscape:window-x="-8"
     inkscape:window-y="-8"
     inkscape:window-maximized="1"
     inkscape:current-layer="svg1" />
  <g
     transform="translate(-86.611455,-131.21792)"
     id="g1">
    <path
       style="display:inline;fill:#000000"
       d="m 101.93511,157.21824 c -2.485316,-0.28701 -4.114986,-1.10116 -5.148946,-2.57231 -0.65137,-0.92679 -0.80642,-1.44435 -0.8933,-2.9819 -0.0943,-1.66885 -0.17198,-1.89092 -0.75425,-2.15623 -0.47039,-0.21432 -0.85835,-0.21679 -1.40891,-0.009 -0.83976,0.31698 -1.05501,0.2202 -1.05501,-0.47432 0,-0.75743 -1.26752,-1.56121 -2.48308,-1.57462 l -1.08879,-0.012 1.43915,-1.31064 c 1.21588,-1.1073 3.61001,-2.36951 4.49445,-2.36951 0.12387,0 0.29982,0.39768 0.391,0.88373 0.0912,0.48605 0.44619,1.14715 0.7889,1.46911 l 0.62312,0.58539 0.46199,-1.13838 c 0.2664,-0.65641 0.49186,-2.00729 0.53252,-3.19066 0.0684,-1.98998 0.38158,-2.84252 1.04427,-2.84252 0.17485,0 0.87543,0.39638 1.556836,0.88085 l 1.23893,0.88084 1.65191,-0.34666 c 1.54668,-0.32458 3.92967,-0.168 4.70134,0.30891 0.13237,0.0818 0.85321,-0.27261 1.60188,-0.7876 0.74866,-0.51499 1.51185,-0.93634 1.69599,-0.93634 0.67433,0 0.98759,0.83076 1.07073,2.83953 0.0841,2.03155 0.67481,4.03964 1.18837,4.03964 0.35186,0 1.31324,-1.59644 1.31449,-2.18282 10e-4,-0.67274 0.74819,-0.57719 2.53842,0.3248 1.66866,0.84075 3.66759,2.50878 3.44264,2.87276 -0.0748,0.12097 -0.4847,0.16876 -0.91095,0.1062 -1.06228,-0.15591 -1.86683,0.33663 -2.31948,1.41995 -0.3256,0.77928 -0.45358,0.87172 -0.88624,0.64016 -0.69273,-0.37073 -1.74386,-0.34006 -2.0594,0.0601 -0.14343,0.1819 -0.27994,0.97487 -0.30334,1.76216 -0.0763,2.56807 -1.31865,4.38748 -3.6017,5.27478 -0.94626,0.36776 -4.33403,0.82867 -5.82084,0.79192 -0.58208,-0.0144 -1.9513,-0.12928 -3.0427,-0.25532 z m 3.83645,-9.75635 c 0.0957,-0.15478 -0.17884,-0.26458 -0.66145,-0.26458 -0.48262,0 -0.75712,0.1098 -0.66146,0.26458 0.0899,0.14552 0.38759,0.26458 0.66146,0.26458 0.27386,0 0.57152,-0.11906 0.66145,-0.26458 z m -3.27912,-1.36673 c 0.48038,0.3 0.53515,0.28336 0.45523,-0.1383 -0.16553,-0.87334 -2.60006,-0.694 -2.60006,0.19153 0,0.11506 0.35972,0.0734 0.79937,-0.0925 0.61943,-0.23381 0.92231,-0.22496 1.34546,0.0393 z m 6.60243,-0.008 c 0.69942,0.43679 1.05608,0.39512 0.86564,-0.10116 -0.27158,-0.70773 -1.39228,-0.97878 -2.10799,-0.50983 -0.84565,0.55409 -0.80514,0.99737 0.0553,0.60532 0.52313,-0.23836 0.79838,-0.23704 1.18703,0.006 z"
       id="path1-15" />
  </g>
  <path
     style="fill:#ffffff;stroke-width:3.35042"
     d="m 60.318453,56.342351 c -1.399817,-0.811757 -1.865201,-0.952985 -2.942496,-0.89295 -0.659872,0.03677 -1.25237,0.173013 -2.414578,0.555211 -1.522799,0.500779 -2.829153,0.733998 -2.956574,0.527827 -0.133275,-0.215643 0.173149,-0.929504 0.595815,-1.388043 0.775515,-0.841334 2.293297,-1.390493 4.169689,-1.508664 2.682763,-0.168953 4.624032,0.714334 4.94103,2.248193 0.25094,1.214225 0.03372,1.285717 -1.392886,0.458426 z"
     id="path1"
     transform="scale(0.26458333)" />
  <path
     style="fill:#ffffff;stroke-width:3.35042"
     d="m 68.611803,62.106521 c -0.667489,-0.236539 -1.262033,-0.764793 -1.160007,-1.030668 0.128149,-0.333952 0.823134,-0.521883 2.117074,-0.57248 1.403386,-0.05488 2.318974,0.08921 2.675076,0.420967 0.210587,0.196191 0.22059,0.246598 0.08981,0.452565 -0.08094,0.12748 -0.4346,0.376934 -0.785901,0.554341 -0.828439,0.418362 -2.045122,0.490995 -2.936052,0.175275 z"
     id="path2"
     transform="scale(0.26458333)" />
  <path
     style="fill:#ffffff;stroke-width:3.35042"
     d="m 86.660136,57.005479 c -0.325577,-0.13396 -1.027563,-0.494966 -1.559969,-0.802235 -1.672532,-0.965275 -2.45768,-0.978897 -4.664316,-0.08092 -1.353163,0.550662 -1.914796,0.666452 -2.204372,0.45447 -0.344896,-0.252478 -0.133929,-0.695609 0.726882,-1.526799 0.868787,-0.838891 1.865955,-1.472144 2.756477,-1.750504 0.904339,-0.282679 2.6438,-0.250483 3.568621,0.06605 0.919599,0.314747 1.87957,0.935579 2.334162,1.509549 0.387108,0.488764 0.763428,1.366764 0.763428,1.781171 0,0.624979 -0.703659,0.767769 -1.720913,0.349216 z"
     id="path3"
     transform="scale(0.26458333)" />
</svg>
