<?xml version="1.0" encoding="UTF-8" standalone="no"?>
<svg
   width="36.777084mm"
   height="34.564167mm"
   viewBox="0 0 36.777084 34.564167"
   version="1.1"
   id="svg1"
   sodipodi:docname="kage-happy-with-bow.svg"
   inkscape:version="1.4.3 (0d15f75, 2025-12-25)"
   xmlns:inkscape="http://www.inkscape.org/namespaces/inkscape"
   xmlns:sodipodi="http://sodipodi.sourceforge.net/DTD/sodipodi-0.dtd"
   xmlns="http://www.w3.org/2000/svg"
   xmlns:svg="http://www.w3.org/2000/svg">
  <defs
     id="defs1" />
  <sodipodi:namedview
     id="namedview1"
     pagecolor="#ffffff"
     bordercolor="#000000"
     borderopacity="0.25"
     inkscape:showpageshadow="2"
     inkscape:pageopacity="0.0"
     inkscape:pagecheckerboard="0"
     inkscape:deskcolor="#d1d1d1"
     inkscape:document-units="mm"
     inkscape:zoom="9.3006364"
     inkscape:cx="69.511372"
     inkscape:cy="65.318111"
     inkscape:window-width="5120"
     inkscape:window-height="1417"
     inkscape:window-x="-8"
     inkscape:window-y="-8"
     inkscape:window-maximized="1"
     inkscape:current-layer="svg1" />
  <g
     transform="translate(-86.611455,-131.21792)"
     id="g1">
    <path
       style="display:inline;fill:#000000"
       d="m 101.0133,160.30509 c -3.799361,-0.5125 -4.617291,-1.18858 -2.050521,-1.6949 1.868021,-0.36848 2.206201,-0.48248 1.521361,-0.51286 -1.002001,-0.0445 -3.238251,-1.286 -3.915421,-2.17382 -1.95727,-2.56612 -2.19062,-6.80254 -0.53709,-9.75073 0.57714,-1.02901 0.66408,-1.49591 0.64052,-3.43959 -0.015,-1.23693 0.0794,-2.41348 0.20974,-2.61457 0.27852,-0.42965 1.6978,-0.23692 3.06837,0.41665 0.827331,0.39453 0.937981,0.38085 2.359801,-0.29178 0.90323,-0.4273 2.36891,-0.81895 3.71504,-0.99272 1.9497,-0.25168 2.24122,-0.35857 2.36927,-0.86875 0.0803,-0.31997 0.58532,-0.89433 1.12225,-1.27636 1.17025,-0.83265 1.78995,-0.63553 2.37055,0.75404 0.30993,0.74176 0.51947,0.90474 1.16318,0.90474 0.60736,0 0.82113,0.1433 0.94398,0.63279 0.0874,0.34804 0.1226,0.85405 0.0783,1.12448 -0.0505,0.30826 0.44115,1.01129 1.31779,1.88451 3.48396,3.47037 3.82232,7.94958 0.82678,10.94512 -1.5691,1.5691 -4.59969,3.10134 -7.86333,3.97563 l -2.31351,0.61976 3.96875,0.16296 c 6.20312,0.2547 8.6787,1.01713 5.88697,1.81306 -1.08819,0.31025 -13.12487,0.61947 -14.88281,0.38234 z m 9.60438,-13.39148 c 0.37634,-0.37635 0.42456,-1.27 0.0685,-1.27 -0.13693,0 -0.32896,0.12943 -0.42674,0.28763 -0.0978,0.1582 -0.40233,0.22891 -0.67681,0.15713 -0.69929,-0.18287 -0.9444,0.35658 -0.35713,0.786 0.60234,0.44044 0.9803,0.45109 1.39215,0.0392 z m -4.46727,-1.21683 c 1.02116,0.14987 1.06485,-0.17924 0.0699,-0.52611 -0.85775,-0.29901 -2.2498,0.15394 -2.5033,0.81452 -0.25499,0.66451 0.0916,0.71994 0.87586,0.1401 0.50428,-0.37283 1.00271,-0.50995 1.55759,-0.42851 z m 6.90485,-2.25803 c 0.96131,0 1.03958,-0.36834 0.12695,-0.59739 -0.78514,-0.19706 -1.98245,0.48515 -1.98245,1.12956 0,0.3827 0.0605,0.37699 0.53258,-0.0502 0.29292,-0.26509 0.88823,-0.48198 1.32292,-0.48198 z m 0.47637,-3.28525 c 0.0736,-0.7633 0.008,-0.85989 -0.5797,-0.85989 -0.81469,0 -1.05938,0.35549 -0.84168,1.22284 0.12484,0.49742 0.31328,0.64273 0.75251,0.58027 0.446,-0.0634 0.60576,-0.28871 0.66887,-0.94322 z m -3.26974,-0.55803 c 0.19574,-0.61673 -0.0459,-1.27497 -0.53727,-1.46352 -0.46771,-0.17948 -1.28705,1.00597 -1.0758,1.55649 0.22116,0.57633 1.42262,0.50708 1.61307,-0.093 z m 1.46704,0.12332 c 0,-0.51418 -0.69676,-0.72856 -1.0367,-0.31896 -0.3376,0.40678 -0.11234,0.68753 0.55163,0.68753 0.26679,0 0.48507,-0.16586 0.48507,-0.36857 z m -18.752211,7.7268 c -0.14985,-0.39133 -0.52267,-0.84542 -0.82849,-1.00909 -0.55399,-0.29649 -0.55355,-0.29951 0.11963,-0.82904 0.37161,-0.29231 0.67565,-0.70142 0.67565,-0.90914 0,-0.20772 0.11906,-0.37767 0.26458,-0.37767 0.14552,0 0.26459,0.16995 0.26459,0.37767 0,0.20772 0.31164,0.62281 0.69253,0.92242 0.60855,0.47869 0.63707,0.56604 0.23516,0.72026 -0.25155,0.0965 -0.61348,0.54465 -0.80428,0.99581 l -0.34691,0.8203 z m 0.72715,-0.94589 c 0.16793,-0.31377 0.14247,-0.61359 -0.0777,-0.91465 -0.2997,-0.40985 -0.36329,-0.41207 -0.74926,-0.0261 -0.33576,0.33576 -0.359,0.52227 -0.11395,0.91465 0.38449,0.61568 0.62183,0.62226 0.94088,0.0261 z m 22.703481,-6.32233 c -0.23867,-0.4598 -0.58529,-0.88995 -0.77025,-0.95589 -0.23786,-0.0848 -0.16204,-0.30978 0.25901,-0.76857 0.32743,-0.35676 0.59532,-0.78981 0.59532,-0.96233 0,-0.51284 0.47998,-0.35628 0.66154,0.21577 0.0924,0.2912 0.41018,0.65903 0.70612,0.81742 0.53193,0.28468 0.5306,0.296 -0.1172,0.9919 -0.3604,0.38717 -0.71047,0.88253 -0.77793,1.10082 -0.0851,0.27547 -0.25539,0.14115 -0.55661,-0.43912 z m 0.92773,-0.81766 c 0.35411,-0.41351 0.34774,-0.50913 -0.0596,-0.89436 -0.42182,-0.39891 -0.48483,-0.3978 -0.83806,0.0147 -0.28416,0.33187 -0.30955,0.56085 -0.0992,0.89436 0.35564,0.56381 0.50328,0.56163 0.99684,-0.0147 z"
       id="path1-08" />
  </g>
  <path
     style="fill:#ffffff;stroke-width:3.35042"
     d="m 85.299942,33.385156 c -1.014826,-0.21167 -1.895927,-0.93536 -2.033838,-1.670486 -0.338874,-1.806354 1.651605,-5.033772 3.416747,-5.540008 0.290598,-0.08334 0.45005,-0.05322 0.910377,0.172 0.689988,0.33758 1.149829,0.850114 1.583182,1.764601 0.307235,0.648346 0.333594,0.793173 0.333594,1.832924 0,0.623169 -0.06322,1.337954 -0.141114,1.595457 -0.190651,0.630268 -0.906068,1.328816 -1.643459,1.60471 -0.693798,0.259583 -1.806038,0.370006 -2.425489,0.240802 z"
     id="path1"
     transform="scale(0.26458333)" />
  <path
     style="fill:#ffffff;stroke-width:3.35042"
     d="m 92.251752,33.416778 c -1.150138,-0.197978 -1.720313,-0.587337 -1.720313,-1.174762 0,-0.801667 0.785004,-1.752369 1.636202,-1.981573 1.319435,-0.355287 2.664579,0.573895 2.664579,1.840604 0,0.96668 -1.163078,1.559712 -2.580468,1.315731 z"
     id="path2"
     transform="scale(0.26458333)" />
  <path
     style="fill:#ffffff;stroke-width:3.35042"
     d="m 97.877032,37.244658 c -0.790599,-0.228783 -1.400356,-1.438473 -1.66339,-3.299979 -0.306708,-2.170586 0.590991,-3.212271 2.871035,-3.331532 2.488053,-0.130141 2.885103,0.299074 2.627813,2.840667 -0.26293,2.597336 -0.7456,3.411049 -2.230616,3.760509 -0.701524,0.165085 -1.112353,0.172851 -1.604842,0.03034 z"
     id="path3"
     transform="scale(0.26458333)" />
  <path
     style="fill:#ffffff;stroke-width:3.35042"
     d="m 113.35806,32.013938 c -0.36469,-0.344716 -0.87395,-1.072667 -1.20048,-1.716029 -0.33343,-0.656936 -0.30453,-1.350318 0.0842,-2.020274 0.42043,-0.724608 1.3244,-1.714027 1.7131,-1.875031 0.4574,-0.189464 0.84194,0.04322 2.03183,1.229494 0.9235,0.920692 0.99455,1.022266 0.99455,1.421766 0,0.491325 -0.24503,0.902406 -1.16526,1.95488 -1.14912,1.314276 -1.83442,1.594535 -2.45792,1.005194 z"
     id="path4"
     transform="scale(0.26458333)" />
  <path
     style="fill:#ffffff;stroke-width:3.35042"
     d="m 93.069652,49.020109 c -0.157557,-0.410587 -0.05967,-1.304201 0.199894,-1.824807 1.029556,-2.064983 4.569986,-3.723856 6.901084,-3.233511 1.40848,0.296274 2.61804,0.899567 2.61804,1.305806 0,0.466658 -0.89504,0.749674 -2.849272,0.900958 -0.768765,0.05951 -1.688057,0.185273 -2.042871,0.279466 -1.010656,0.268301 -2.355382,0.972208 -3.146796,1.647213 -1.36741,1.166277 -1.54907,1.26628 -1.680079,0.924875 z"
     id="path5"
     transform="scale(0.26458333)" />
  <path
     style="fill:#ffffff;stroke-width:3.35042"
     d="M 87.735932,60.302668 C 86.3947,59.865501 84.921321,58.81236 84.50256,57.991521 c -0.282454,-0.553656 -0.262503,-0.977773 0.06426,-1.366114 0.395031,-0.469468 1.028909,-0.578952 2.184326,-0.377277 1.473914,0.257267 1.977276,0.103837 2.993587,-0.912473 1.241456,-1.241457 2.076936,-0.886548 2.076936,0.882275 0,1.732781 -0.941173,3.283428 -2.392844,3.942376 -0.427511,0.194058 -1.307305,0.268042 -1.692898,0.14236 z"
     id="path6"
     transform="scale(0.26458333)" />
  <path
     style="fill:#ffffff;stroke-width:3.35042"
     d="m 64.573154,57.622785 c -0.232466,-0.232466 -0.2116,-0.737824 0.0643,-1.557356 0.521383,-1.548692 2.54043,-2.862244 5.303992,-3.450672 0.354815,-0.07555 1.225723,-0.134597 1.935352,-0.13122 1.105921,0.0053 1.409936,0.04706 2.128169,0.292548 1.50983,0.516063 2.763969,1.25833 2.763969,1.635866 0,0.305017 -0.629078,0.403515 -1.969487,0.30837 -3.53272,-0.250758 -4.668144,0.02627 -7.127392,1.738958 -1.11257,0.774827 -2.217884,1.332255 -2.641949,1.33238 -0.158399,4.7e-5 -0.36403,-0.07595 -0.456958,-0.168874 z"
     id="path7"
     transform="scale(0.26458333)" />
  <path
     style="fill:#ffffff;stroke-width:3.35042"
     d="M 24.730609,59.215449 C 24.00608,58.851715 22.84033,57.105968 22.719272,56.20341 c -0.06227,-0.464267 0.110653,-0.887818 0.634774,-1.554772 0.453072,-0.576543 1.382274,-1.343345 1.735183,-1.43192 0.266398,-0.06686 0.362828,-0.01141 0.811854,0.466865 1.262138,1.344344 1.544766,2.595131 0.887895,3.929424 -0.371518,0.754662 -1.116811,1.632102 -1.469256,1.72977 -0.118891,0.03295 -0.383992,-0.02435 -0.589113,-0.127328 z"
     id="path8"
     transform="scale(0.26458333)" />
</svg>
