<svg xmlns="http://www.w3.org/2000/svg" xml:space="preserve" width="567.614" height="451.485" viewBox="0 0 150.181 119.455"><path d="M52.404 123.721h98.898v42.16H52.404z" style="fill:#fff;stroke-width:.740304" transform="translate(-30.458 -97.464)"/><path d="M83.074 216.822c-24.928-.713-46.78-3.185-51.25-5.797-1.34-.784-1.5-1.013-1.29-1.847.396-1.577 5.609-3.09 14.777-4.286l1.527-.199-1.852-1.41c-9.888-7.53-15.005-21.17-12.997-34.639 1.638-10.994 6.575-21.535 15.299-32.67l2.416-3.085-1.32-1.984c-.727-1.09-2.098-3.559-3.047-5.485-3.62-7.343-5.655-13.577-5.655-17.33 0-3.355.873-3.954 5.689-3.908 4.597.043 10.363 1.01 16.536 2.774 3.109.889 8.464 2.745 9.621 3.336.73.372.875.326 3.846-1.21 8.34-4.31 16.719-6.505 26.089-6.833 10.726-.375 21.017 1.945 30.813 6.945 1.795.916 2.871 1.327 3.062 1.168.414-.343 31.249-12.687 32.137-12.865.402-.08.983-.01 1.292.155 1.145.612 1.18.423-4.497 23.912l-3.186 13.18 1.159 1.24c4.118 4.41 9.249 11.83 12.11 17.512 4.41 8.76 7.012 19.582 6.107 25.396-.774 4.973-2.56 5.136-9.058.825-1.94-1.288-3.756-2.595-4.033-2.904-.764-.852-.935-.681-.562.562.186.618.487 2.38.668 3.914.934 7.9-2.452 16.6-8.529 21.913l-1.519 1.327 1.255.166c2.896.381 9.268 1.48 10.886 1.877 2.45.601 4.978 1.837 5.202 2.543.247.779-.946 1.825-2.925 2.566-6.08 2.274-25.821 4.359-47.693 5.035-6.68.207-35.002.28-41.078.106m52.388-58.549c6.812-2.287 10.748-9.313 9.227-16.472-.757-3.56-3.985-7.765-7.134-9.29-5.028-2.437-11.513-1.801-15.19 1.488l-1.059.947 1.705-.678c1.449-.576 2.006-.66 3.714-.561 4.337.25 7.37 3.276 8.216 8.194 1.239 7.206-4.81 13.8-11.006 11.998-3.335-.97-5.39-3.1-6.32-6.55-.206-.766-.383-1.15-.392-.854-.01.297.164 1.239.387 2.093 1.305 5.009 5.112 8.802 10.106 10.067 2.083.528 5.545.357 7.746-.382m-31.673-1.202c2.467-.642 4.685-2.5 4.685-3.921 0-.766-.522-.753-2.64.064-3.243 1.25-5.743 1.033-8.785-.762-.863-.509-.966-.518-1.298-.119-.309.373-.266.602.306 1.627.807 1.446 2.422 2.667 4.135 3.128 1.663.447 1.82.446 3.597-.017M76 156.283a13.57 13.57 0 0 0 7.088-4.055c1.76-1.921 2.039-2.552.664-1.504-2.01 1.533-5.374 2.158-7.583 1.409-4.988-1.693-7.8-7.925-6.075-13.467.903-2.901 3.075-5.356 5.507-6.224 1.169-.417 4.24-.487 5.208-.119 1.15.437.752-.102-.746-1.01-4.195-2.542-9.08-2.825-13.392-.774-2.147 1.02-4.899 3.713-5.886 5.76-3.11 6.446-1.307 13.754 4.378 17.746 3.318 2.33 6.905 3.071 10.836 2.238m45.807-11.32c.577-.916-.724-1.949-1.57-1.246-.524.435-.484 1.228.078 1.56.614.362 1.135.253 1.492-.314m-36.776-1.322c.397-.634-.087-1.365-.973-1.472-.88-.105-1.41.74-.974 1.554.354.661 1.513.612 1.947-.082m40.502-.194c1.113-.688 1.85-2.309 1.617-3.552-.24-1.279-1.307-2.466-2.552-2.84-2.023-.605-4.217 1.123-4.217 3.323 0 2.838 2.814 4.514 5.152 3.069m-42.586-1.595c2.816-1.74 1.352-6.612-1.989-6.612-1.903 0-3.175 1.4-3.174 3.493.002 2.788 2.883 4.528 5.163 3.12" style="fill:#000" transform="translate(-30.458 -97.464)"/></svg>