<?xml version="1.0" encoding="UTF-8" standalone="no"?>
<svg
   width="36.777084mm"
   height="34.564167mm"
   viewBox="0 0 36.777084 34.564167"
   version="1.1"
   id="svg1"
   sodipodi:docname="kage-cat-loaf.svg"
   inkscape:version="1.4.3 (0d15f75, 2025-12-25)"
   xmlns:inkscape="http://www.inkscape.org/namespaces/inkscape"
   xmlns:sodipodi="http://sodipodi.sourceforge.net/DTD/sodipodi-0.dtd"
   xmlns="http://www.w3.org/2000/svg"
   xmlns:svg="http://www.w3.org/2000/svg">
  <defs
     id="defs1" />
  <sodipodi:namedview
     id="namedview1"
     pagecolor="#ffffff"
     bordercolor="#000000"
     borderopacity="0.25"
     inkscape:showpageshadow="2"
     inkscape:pageopacity="0.0"
     inkscape:pagecheckerboard="0"
     inkscape:deskcolor="#d1d1d1"
     inkscape:document-units="mm"
     inkscape:zoom="9.3006364"
     inkscape:cx="69.511372"
     inkscape:cy="65.318111"
     inkscape:window-width="5120"
     inkscape:window-height="1417"
     inkscape:window-x="-8"
     inkscape:window-y="-8"
     inkscape:window-maximized="1"
     inkscape:current-layer="svg1" />
  <path
     id="rect3"
     style="fill:#ffffff;stroke-width:8.24468"
     d="M 16.983459 22.871989 L 16.983459 25.802043 L 17.576705 25.802043 L 17.576705 27.670146 L 22.156787 27.670146 L 22.156787 25.802043 L 28.675252 25.802043 L 28.675252 22.871989 L 16.983459 22.871989 z " />
  <g
     transform="translate(-86.611455,-131.21792)"
     id="g1">
    <path
       style="display:inline;fill:#000000"
       d="m 107.19739,158.7375 c -1.66248,-0.46942 -2.68558,-1.45772 -2.45599,-2.37246 0.24119,-0.96097 0.9449,-1.06502 2.81827,-0.4167 2.15385,0.74538 5.28343,0.6335 6.64406,-0.23753 1.07345,-0.68718 0.91223,-0.74913 -0.32533,-0.125 -1.39307,0.70255 -4.04173,0.74419 -5.9029,0.0928 -1.95501,-0.68423 -2.6618,-0.68801 -3.33202,-0.0178 -0.72795,0.72795 -0.6676,1.14684 0.3287,2.28155 l 0.85786,0.97705 -3.70213,-0.16131 c -5.377668,-0.23431 -5.272288,-0.18984 -8.986678,-3.79182 -0.68789,-0.66707 -1.29382,-1.5855 -1.55848,-2.36224 -0.57218,-1.67924 -0.54265,-4.6457 0.0631,-6.33594 0.35005,-0.97679 0.41282,-1.54907 0.23991,-2.18729 -0.1288,-0.4754 -0.19826,-1.48743 -0.15436,-2.24896 0.0725,-1.25733 0.14061,-1.39091 0.74128,-1.45341 0.3638,-0.0379 1.25677,0.20972 1.98437,0.55018 l 1.32292,0.619 1.18636,-0.52379 c 0.6525,-0.28808 2.02172,-0.5827 3.042708,-0.6547 1.79087,-0.1263 1.89513,-0.17241 2.95574,-1.30739 0.69617,-0.74499 1.27841,-1.14333 1.5875,-1.0861 0.4459,0.0826 1.42278,1.75195 2.18174,3.72839 0.24601,0.64065 0.41805,0.72761 1.43958,0.72761 3.26575,0 6.46984,1.27062 8.32099,3.2998 3.11461,3.41414 3.11075,9.00842 -0.008,11.26746 -2.36616,1.71404 -6.582,2.50308 -9.2894,1.7386 z m -10.116168,-9.58729 c 0.69096,-0.26515 0.47297,-0.59931 -0.37524,-0.57519 -0.81102,0.0231 -1.05702,0.32088 -0.46302,0.56056 0.1819,0.0734 0.35076,0.14285 0.37524,0.15434 0.0245,0.0115 0.23283,-0.0514 0.46302,-0.13971 z m -2.41348,-1.18752 c 0.14524,-0.23213 0.18475,-0.73815 0.0878,-1.12447 -0.14147,-0.56365 -0.33211,-0.70241 -0.965,-0.70241 -0.83215,0 -1.06258,0.36745 -0.39184,0.62484 0.54224,0.20808 0.50083,1.13737 -0.0661,1.48413 -0.38858,0.23766 -0.3397,0.27168 0.30404,0.21159 0.42188,-0.0394 0.8859,-0.26154 1.03115,-0.49368 z m 6.741868,-0.1221 c 1.12649,-0.78902 0.34859,-2.65467 -1.02306,-2.45365 -0.678738,0.0995 -1.029618,0.74887 -0.404628,0.74887 0.683828,0 0.991278,0.89221 0.532928,1.54659 -0.49403,0.70534 -0.009,0.79112 0.89476,0.15819 z"
       id="path1-38" />
  </g>
  <path
     style="fill:#ffffff;stroke-width:3.35042"
     d="m 51.929112,64.130131 c -0.157566,-0.294416 0.01851,-0.818436 0.56816,-1.690916 1.090178,-1.730473 1.216025,-3.351256 0.370126,-4.766832 -0.474148,-0.793467 -1.22449,-1.240878 -2.250617,-1.34199 -0.966801,-0.09527 -1.330391,-0.363042 -1.213789,-0.893929 0.104909,-0.477645 0.802777,-1.152506 1.545354,-1.494407 0.807146,-0.371631 2.26397,-0.455467 3.197717,-0.184019 1.382326,0.401853 2.457444,1.344581 3.152913,2.764662 1.308559,2.671951 0.497277,5.149508 -2.222016,6.785772 -1.656111,0.996521 -2.882889,1.316738 -3.147848,0.821659 z"
     id="path1"
     transform="scale(0.26458333)" />
  <path
     style="fill:#ffffff;stroke-width:3.35042"
     d="m 36.724013,67.783714 c -1.128985,-0.498168 -1.480713,-0.785266 -1.435619,-1.171825 0.045,-0.385746 0.783846,-0.724532 1.910894,-0.876209 1.606929,-0.216259 3.196827,0.0053 3.672676,0.511829 0.214679,0.228515 0.223089,0.278994 0.08842,0.530636 -0.08186,0.152954 -0.360256,0.401999 -0.618661,0.553434 -0.542349,0.317838 -2.124229,0.889108 -2.441086,0.881558 -0.118271,-0.0028 -0.64775,-0.196058 -1.176619,-0.429423 z"
     id="path2"
     transform="scale(0.26458333)" />
  <path
     style="fill:#ffffff;stroke-width:3.35042"
     d="m 24.584031,65.128669 c -0.03712,-0.06007 0.247593,-0.314504 0.632704,-0.565414 0.385111,-0.25091 0.822777,-0.601872 0.972591,-0.779915 0.698623,-0.830267 1.053637,-2.044784 0.905679,-3.098372 -0.151756,-1.080646 -0.521901,-1.530627 -1.806702,-2.196388 -1.24119,-0.643163 -1.379059,-1.189363 -0.417685,-1.654756 1.068457,-0.517231 3.566273,-0.508847 4.516457,0.01516 0.914593,0.504379 1.51141,2.067903 1.509026,3.953306 -0.0017,1.348111 -0.230158,2.121249 -0.813951,2.75459 -0.51686,0.560726 -1.641103,1.140071 -2.667642,1.374687 -0.933353,0.213319 -2.74259,0.339306 -2.830477,0.197102 z"
     id="path3"
     transform="scale(0.26458333)" />
</svg>
