<?xml version="1.0" encoding="UTF-8" standalone="no"?>
<svg
   width="36.777084mm"
   height="34.564167mm"
   viewBox="0 0 36.777084 34.564167"
   version="1.1"
   id="svg1"
   sodipodi:docname="kage-cloud-hiding.svg"
   inkscape:version="1.4.3 (0d15f75, 2025-12-25)"
   xmlns:inkscape="http://www.inkscape.org/namespaces/inkscape"
   xmlns:sodipodi="http://sodipodi.sourceforge.net/DTD/sodipodi-0.dtd"
   xmlns="http://www.w3.org/2000/svg"
   xmlns:svg="http://www.w3.org/2000/svg">
  <defs
     id="defs1" />
  <sodipodi:namedview
     id="namedview1"
     pagecolor="#3755ff"
     bordercolor="#000000"
     borderopacity="0.25"
     inkscape:showpageshadow="2"
     inkscape:pageopacity="0.0"
     inkscape:pagecheckerboard="0"
     inkscape:deskcolor="#d1d1d1"
     inkscape:document-units="mm"
     inkscape:zoom="9.3006364"
     inkscape:cx="69.457613"
     inkscape:cy="65.318111"
     inkscape:window-width="2585"
     inkscape:window-height="1211"
     inkscape:window-x="2123"
     inkscape:window-y="71"
     inkscape:window-maximized="0"
     inkscape:current-layer="svg1" />
  <g
     transform="translate(-86.611455,-131.21792)"
     id="g1">
    <path
       style="display:inline;fill:#000000"
       d="m 100.36588,161.93202 c -1.581073,-0.56366 -3.081572,-1.63395 -3.717496,-2.65165 -0.244004,-0.39049 -0.46865,-0.74857 -0.499212,-0.79572 -0.03056,-0.0471 -0.633348,0.11948 -1.339524,0.37029 -3.251044,1.15467 -6.702566,-0.99439 -6.702566,-4.17328 0,-0.71331 0.172512,-1.63053 0.383359,-2.03827 0.401411,-0.77624 2.108606,-2.40738 2.51963,-2.40738 0.131308,0 0.17094,-0.41782 0.08807,-0.92848 -0.18127,-1.11704 0.47301,-2.99155 1.315078,-3.7677 0.323759,-0.29842 1.055732,-0.76284 1.626606,-1.03206 0.734611,-0.34642 1.121912,-0.74164 1.325242,-1.35231 0.434998,-1.30645 1.651269,-2.67384 2.931652,-3.2959 1.004384,-0.48797 1.219351,-0.75342 1.718331,-2.12192 0.6753,-1.85209 1.8318,-3.27731 2.46286,-3.03515 0.23682,0.0909 0.8619,0.7656 1.38907,1.49938 l 0.95849,1.33415 h 1.66711 c 1.80185,0 4.50452,0.72579 5.89751,1.58376 l 0.86738,0.53423 1.24929,-0.62427 c 2.78401,-1.39118 3.37606,-1.17695 3.34273,1.20953 -0.0128,0.9143 -0.16381,2.08759 -0.33566,2.60731 -0.25629,0.77514 -0.23644,1.15552 0.11045,2.11667 0.23259,0.64444 0.48893,2.12421 0.56965,3.28838 0.13528,1.95107 0.21551,2.18647 1.02552,3.00893 0.60564,0.61495 0.97682,1.33049 1.1943,2.30228 0.3,1.34054 0.27776,1.48562 -0.45129,2.9442 -0.99729,1.99525 -2.43233,2.83054 -4.52192,2.63207 -1.04662,-0.0994 -1.45623,-0.0309 -1.71979,0.28764 -0.48358,0.58445 -2.31819,1.37983 -3.19872,1.38678 -0.40486,0.003 -1.15928,-0.171 -1.67649,-0.38711 -0.89045,-0.37205 -0.98484,-0.35966 -1.77744,0.23335 -2.20001,1.646 -4.4538,2.07382 -6.70222,1.27225 z m 5.32877,-0.96216 c 0.58641,-0.34367 1.28699,-0.8688 1.55683,-1.16698 0.48869,-0.53999 0.49441,-0.5401 1.45097,-0.0274 0.52819,0.28309 1.29335,0.51471 1.70036,0.51471 1.05504,0 2.42901,-0.63281 2.99067,-1.37742 0.4303,-0.57047 0.58232,-0.61124 1.43264,-0.38428 1.42907,0.38144 2.78935,0.0169 3.83354,-1.02726 2.34536,-2.34536 1.44711,-5.99135 -1.7376,-7.05292 -1.05418,-0.35139 -1.08956,-0.40099 -1.137,-1.59364 -0.078,-1.96202 -1.69241,-3.3067 -3.58584,-2.98681 l -0.99528,0.16815 -0.34194,-1.22127 c -0.48747,-1.74106 -2.23015,-3.57691 -4.28687,-4.51607 -1.43492,-0.65522 -1.99853,-0.76239 -4.04825,-0.76973 -2.03817,-0.007 -2.568533,0.0879 -3.681071,0.66043 -1.508214,0.77621 -2.784088,2.22775 -3.034548,3.45236 -0.142605,0.69726 -0.367633,0.92316 -1.210154,1.21485 -1.359253,0.47058 -1.964487,1.03602 -2.578929,2.40935 -0.369868,0.82669 -0.460673,1.43319 -0.337527,2.25438 0.164945,1.09993 0.148823,1.13054 -0.770497,1.46297 -2.566165,0.92794 -3.186657,4.41833 -1.122526,6.31443 1.572144,1.44416 4.067021,1.74315 5.709029,0.68418 0.61248,-0.395 0.667836,-0.38346 1.046137,0.21801 0.844235,1.34229 2.679493,2.87046 3.924226,3.26761 1.65232,0.52719 3.82868,0.31986 5.22363,-0.49763 z m -1.65965,-8.93469 c -0.45939,-0.45939 -0.39089,-0.86653 0.08,-0.4757 0.24209,0.20091 0.72028,0.26537 1.22289,0.16485 0.7125,-0.1425 0.78034,-0.11083 0.49611,0.23164 -0.39553,0.4766 -1.35921,0.51903 -1.79903,0.0792 z m 3.38667,-1.49785 c 0,-0.12062 0.21773,-0.41635 0.48385,-0.65718 0.76856,-0.69554 2.69115,-0.51964 2.69115,0.24621 0,0.29208 -0.13044,0.30346 -0.66847,0.0583 -0.53703,-0.24469 -0.84916,-0.2184 -1.5875,0.13368 -0.50546,0.24105 -0.91903,0.33958 -0.91903,0.21897 z m -5.68896,-0.47539 c -0.34195,-0.25571 -0.87928,-0.35043 -1.52094,-0.26813 -1.122501,0.14398 -1.314819,-0.21589 -0.35024,-0.65538 0.8339,-0.37995 1.911,-0.0995 2.28227,0.5942 0.38138,0.71261 0.24625,0.82086 -0.41109,0.32931 z m 19.18231,-0.23507 c -0.38325,-0.2121 -0.49427,-0.36809 -0.26418,-0.37118 0.47259,-0.006 1.22827,0.434 1.05027,0.612 -0.0688,0.0688 -0.42251,-0.0396 -0.78609,-0.24082 z m -0.39648,-1.44294 c 0.0899,-0.14552 0.48392,-0.26276 0.87551,-0.26053 0.55689,0.003 0.62554,0.0599 0.31512,0.26053 -0.52278,0.33785 -1.39943,0.33785 -1.19063,0 z m -0.16095,-1.33833 c 0.34803,-0.28984 0.69653,-0.46324 0.77443,-0.38534 0.16871,0.16871 -0.76342,0.91326 -1.14264,0.91271 -0.14552,-2.2e-4 0.0202,-0.23753 0.36821,-0.52737 z m -28.873986,-4.66963 c 0.329119,-0.0633 0.805369,-0.0609 1.058334,0.005 0.252965,0.0662 -0.01631,0.118 -0.598398,0.11507 -0.582083,-0.003 -0.789054,-0.0571 -0.459936,-0.12041 z m 0.555394,-1.39156 c -0.343543,-0.2862 -0.494249,-0.52432 -0.334902,-0.52916 0.159347,-0.005 0.505222,0.22932 0.768611,0.52036 0.612755,0.67709 0.374281,0.68193 -0.433709,0.009 z m 1.141404,-0.67444 c -0.181848,-0.39911 -0.27629,-0.78 -0.209871,-0.84642 0.179626,-0.17963 0.742139,0.96717 0.633811,1.29215 -0.05132,0.15396 -0.242092,-0.0466 -0.42394,-0.44573 z"
       id="path1-2" />
  </g>
  <path
     style="fill:#ffffff;stroke-width:3.35042"
     d="m 57.361666,115.26012 c -3.8347,-0.39616 -6.488921,-1.31892 -9.515478,-3.30813 -4.094835,-2.69135 -7.808983,-6.3151 -10.200704,-9.95244 -1.497004,-2.276644 -1.758288,-2.340476 -3.9701,-0.96989 -3.046883,1.88805 -6.348942,2.67194 -10.073516,2.39139 C 16.196096,102.86323 9.8366172,98.232861 8.0256648,92.07993 7.4144814,90.003361 7.2575748,87.399935 7.6212924,85.370502 c 0.380081,-2.120735 1.3417378,-4.39723 2.5404706,-6.01396 1.657116,-2.234952 3.730668,-3.73202 6.632612,-4.788629 2.756575,-1.003679 2.984696,-1.449405 2.50538,-4.895261 -0.54069,-3.887072 -0.160511,-6.158803 1.664588,-9.946615 2.070201,-4.296498 4.48437,-6.437467 9.087364,-8.058989 2.420461,-0.852668 3.568638,-1.619119 4.152984,-2.772269 0.147395,-0.290871 0.405756,-1.069154 0.574134,-1.729518 0.521512,-2.045309 1.014619,-3.172265 2.124918,-4.856328 0.908759,-1.378374 1.769022,-2.411439 3.108299,-3.732665 2.202234,-2.172554 4.018463,-3.464814 6.855134,-4.877477 2.714268,-1.351706 4.420222,-1.837153 7.322664,-2.083737 1.665323,-0.141481 9.352394,-0.143537 11.23579,-0.003 3.896859,0.29077 6.497738,1.056647 10.842956,3.19291 3.236766,1.591309 6.128307,3.670353 8.788288,6.31886 2.309349,2.299386 3.93595,4.459104 5.143958,6.829888 0.777288,1.525471 1.208038,2.729858 1.99963,5.591015 0.368122,1.330554 0.686272,2.438116 0.707,2.461249 0.02073,0.02313 1.158447,-0.140795 2.528266,-0.364285 2.252033,-0.367424 2.620457,-0.400599 3.846564,-0.34636 3.018378,0.133524 5.450898,1.203054 7.537668,3.31417 2.01541,2.038918 3.1099,4.572919 3.33879,7.730049 0.26528,3.659118 0.41756,4.311251 1.15865,4.961936 0.46246,0.406042 1.01441,0.656715 2.92209,1.327096 3.15017,1.107 5.21535,2.352393 7.21052,4.34826 2.28093,2.281722 3.64308,4.773294 4.31324,7.889569 0.3402,1.581905 0.33744,4.384349 -0.006,5.982932 -1.30169,6.061038 -6.17967,11.201497 -11.88515,12.524687 -2.2139,0.51344 -4.40299,0.44722 -7.23485,-0.21884 -3.28982,-0.77377 -3.70566,-0.67208 -5.32917,1.30312 -0.97426,1.18532 -1.563212,1.71784 -2.820316,2.55013 -3.258625,2.15742 -7.339094,3.201 -10.180445,2.60363 -1.450053,-0.30486 -3.243657,-0.98535 -5.328877,-2.02178 -3.110103,-1.54583 -3.085895,-1.54692 -4.852106,0.21765 -1.306411,1.3052 -3.320977,2.88663 -5.120699,4.01974 -2.774997,1.74713 -5.913784,2.83727 -9.569238,3.32349 -1.177056,0.15657 -4.957618,0.22437 -6.074853,0.10895 z M 70.348033,79.724596 c 0.706017,-0.166454 1.361963,-0.460983 1.884931,-0.84636 0.422653,-0.311455 1.041592,-1.174092 1.041592,-1.451704 0,-0.202923 -0.06101,-0.227393 -0.564478,-0.226401 -0.310462,6.13e-4 -1.114646,0.09738 -1.787074,0.215039 -2.406881,0.421149 -3.501283,0.247735 -5.059147,-0.801645 -0.766049,-0.516013 -1.123202,-0.495494 -1.170024,0.06722 -0.04116,0.494724 0.236679,1.055725 0.873839,1.764402 1.097457,1.220636 2.93912,1.713552 4.780361,1.27945 z m 10.137041,-6.816549 c 0.498964,-0.17201 1.442954,-0.555536 2.097757,-0.852277 2.411488,-1.09283 3.481145,-1.149567 5.569223,-0.295404 1.489618,0.609353 2.177007,0.733947 2.396105,0.434312 0.225979,-0.309044 0.17494,-1.117877 -0.101473,-1.60811 -1.127147,-1.999051 -6.586679,-2.358127 -9.277876,-0.610212 -1.1493,0.746462 -2.518278,2.390967 -2.518278,3.025117 0,0.186846 0.06866,0.219323 0.463668,0.219323 0.255018,0 0.871911,-0.140737 1.370874,-0.312749 z M 59.490303,71.849518 c -0.02942,-0.306176 -0.235897,-0.888071 -0.514939,-1.451201 -1.07024,-2.159836 -3.113931,-3.315327 -5.860719,-3.313618 -1.457719,9.06e-4 -2.138309,0.166182 -3.559282,0.864343 -1.627815,0.799786 -2.286617,1.661011 -1.609828,2.104461 0.428436,0.280722 1.499863,0.378328 2.80368,0.255415 3.367573,-0.31747 4.999534,-0.03471 6.621726,1.147288 0.827981,0.603304 1.42463,0.901781 1.805357,0.903138 l 0.363118,0.0013 z"
     id="path1"
     transform="scale(0.26458333)" />
</svg>
