<?xml version="1.0" encoding="UTF-8" standalone="no"?>
<svg
   width="36.777084mm"
   height="34.564167mm"
   viewBox="0 0 36.777084 34.564167"
   version="1.1"
   id="svg1"
   sodipodi:docname="kage-coffee.svg"
   inkscape:version="1.4.3 (0d15f75, 2025-12-25)"
   xmlns:inkscape="http://www.inkscape.org/namespaces/inkscape"
   xmlns:sodipodi="http://sodipodi.sourceforge.net/DTD/sodipodi-0.dtd"
   xmlns="http://www.w3.org/2000/svg"
   xmlns:svg="http://www.w3.org/2000/svg">
  <defs
     id="defs1" />
  <sodipodi:namedview
     id="namedview1"
     pagecolor="#ffffff"
     bordercolor="#000000"
     borderopacity="0.25"
     inkscape:showpageshadow="2"
     inkscape:pageopacity="0.0"
     inkscape:pagecheckerboard="0"
     inkscape:deskcolor="#d1d1d1"
     inkscape:document-units="mm"
     inkscape:zoom="9.3006364"
     inkscape:cx="69.511372"
     inkscape:cy="65.318111"
     inkscape:window-width="5120"
     inkscape:window-height="1417"
     inkscape:window-x="-8"
     inkscape:window-y="-8"
     inkscape:window-maximized="1"
     inkscape:current-layer="svg1" />
  <g
     transform="translate(-86.611455,-131.21792)"
     id="g1">
    <path
       style="display:inline;fill:#000000"
       d="m 94.30995,158.59672 c -4.09246,-0.40015 -5.53938,-1.10579 -3.47906,-1.69668 0.94128,-0.26995 1.02868,-0.47121 0.42296,-0.97392 -0.22892,-0.18998 -0.65962,-0.82255 -0.95712,-1.40569 -0.44636,-0.87493 -0.52001,-1.40989 -0.42137,-3.06041 0.13564,-2.26965 0.71596,-3.65192 2.36594,-5.63544 0.57374,-0.68972 1.21974,-1.84863 1.43555,-2.57535 0.21581,-0.72672 0.66802,-1.64175 1.0049,-2.03339 l 0.61251,-0.71209 0.93628,0.57866 c 0.51496,0.31826 1.07266,0.74297 1.23934,0.94381 0.25742,0.31017 0.49098,0.30769 1.5511,-0.0165 0.79968,-0.24455 2.10469,-0.35482 3.63258,-0.30695 2.21931,0.0695 2.44847,0.0268 3.30729,-0.61744 2.07587,-1.55711 2.79218,-1.07272 3.13319,2.11876 0.11444,1.07103 0.37799,2.06859 0.61852,2.3412 0.23052,0.26125 0.75987,1.12985 1.17633,1.93021 0.66466,1.27735 0.75721,1.73818 0.75721,3.77031 v 2.31511 h 0.74075 c 1.10075,0 2.18436,-0.66483 2.55941,-1.57027 0.40522,-0.9783 0.20468,-1.60473 -0.51373,-1.60473 -0.79162,0 -1.67137,-0.98581 -1.4976,-1.67815 0.10982,-0.43759 -0.0412,-0.68027 -0.6356,-1.02141 -0.88778,-0.50952 -0.82537,-1.1827 0.13193,-1.42297 0.56486,-0.14177 0.57717,-0.19771 0.24701,-1.12219 -0.19112,-0.53515 -0.35271,-1.36289 -0.3591,-1.83943 -0.0147,-1.09549 0.64114,-1.38252 3.15888,-1.38252 2.05738,0 4.33882,0.91979 4.64071,1.87095 0.24198,0.76244 -0.54006,1.82097 -1.48496,2.00995 l -0.79349,0.1587 0.79998,0.48649 c 1.0442,0.63502 0.82334,1.1622 -0.64145,1.53104 l -1.1519,0.29005 0.40897,1.04115 c 1.23018,3.13172 -1.41188,6.3491 -5.22616,6.36419 -1.34551,0.005 -2.10344,0.3125 -2.10344,0.85248 0,0.11642 0.2749,0.21167 0.61089,0.21167 0.33599,0 0.8337,0.16292 1.10602,0.36205 0.48254,0.35284 0.48212,0.369 -0.0169,0.63606 -1.10691,0.5924 -3.92738,0.8884 -9.37295,0.98366 -3.12869,0.0547 -6.70324,2.9e-4 -7.94344,-0.12097 z m 7.29756,-9.39301 c 0.50151,-0.37932 0.49981,-0.38866 -0.0724,-0.39688 -0.83131,-0.0119 -1.26136,-0.90137 -0.70489,-1.45784 0.56665,-0.56666 0.26405,-0.8268 -0.53712,-0.46176 -0.86161,0.39257 -1.09847,1.24849 -0.56908,2.05644 0.48278,0.73681 1.13424,0.82676 1.8835,0.26004 z m 4.03292,-0.11139 c 0.0847,-0.257 0.0114,-0.29878 -0.24386,-0.1389 -0.20078,0.12577 -0.58642,0.19218 -0.85699,0.14759 -0.31305,-0.0516 -0.42424,0.0285 -0.30577,0.22018 0.24718,0.39993 1.25326,0.23624 1.40662,-0.22887 z m 1.04828,-1.66005 c 0.1693,-0.1693 0.74084,-0.29154 1.27008,-0.27164 0.81951,0.0308 0.91427,-0.0217 0.63875,-0.35365 -0.5704,-0.68728 -2.12979,-0.35314 -2.46826,0.52888 -0.18357,0.4784 0.12437,0.53147 0.55943,0.0964 z m 11.55475,0.0498 c 0.37328,-0.14192 0.67868,-0.36714 0.67868,-0.50048 0,-0.45784 -1.26594,-0.56259 -2.02359,-0.16744 -0.41499,0.21644 -1.05219,0.39353 -1.41599,0.39353 -0.3638,0 -1.001,-0.17709 -1.41599,-0.39353 -0.73499,-0.38333 -2.02359,-0.29492 -2.02359,0.13884 0,0.67292 4.75499,1.07866 6.20048,0.52908 z m -1.39819,-1.08618 c 0.55817,-0.29872 1.28312,-1.7394 1.28312,-2.54989 0,-0.42087 -0.28421,-0.47152 -2.64583,-0.47152 -2.58969,0 -2.64583,0.013 -2.64583,0.61271 0,0.67411 0.37849,1.51785 1.00105,2.23156 0.4608,0.52828 2.16395,0.62859 3.00749,0.17714 z m 2.55312,-1.35453 c 0.49193,-0.49193 0.37508,-1.48516 -0.21166,-1.79917 -0.63965,-0.34233 -0.70466,-0.0544 -0.0893,0.39559 0.55406,0.40514 0.30602,1.12229 -0.50015,1.44608 -0.56324,0.22622 -0.56695,0.24251 -0.0588,0.25822 0.29832,0.009 0.68527,-0.1261 0.85989,-0.30072 z m -0.4564,-0.8136 c -0.0327,-0.31636 -0.39563,-0.25509 -0.50932,0.086 -0.0582,0.17463 0.037,0.26988 0.21166,0.21167 0.17463,-0.0582 0.30857,-0.19216 0.29766,-0.29766 z m -2.07037,-1.15539 c 1.29852,-0.21464 1.26064,-0.53206 -0.0907,-0.76038 -1.27155,-0.21483 -4.10782,0.0842 -3.77583,0.39815 0.49849,0.47133 2.2269,0.63325 3.86657,0.36223 z m -0.53748,-2.73584 c 0.0125,-0.43918 0.12364,-0.79851 0.24702,-0.79851 0.30545,0 0.28574,1.25373 -0.0227,1.44436 -0.13586,0.084 -0.2368,-0.20666 -0.22431,-0.64585 z m -2.26726,-0.0663 c -0.085,-0.32491 -0.0542,-0.69108 0.0685,-0.81371 0.12263,-0.12262 0.2767,0.14321 0.34239,0.59075 0.13723,0.93506 -0.17967,1.10703 -0.41086,0.22296 z m 1.18264,-0.28637 c -0.37856,-0.95217 -0.37475,-1.42431 0.0134,-1.66421 0.21073,-0.13024 0.25326,-0.0446 0.13324,0.26813 -0.097,0.2527 -0.0499,0.69555 0.10449,0.98412 0.15444,0.28856 0.22773,0.66689 0.16288,0.84073 -0.0648,0.17383 -0.25117,-0.0191 -0.41403,-0.42877 z"
       id="path1-89" />
  </g>
  <path
     style="fill:#ffffff;stroke-width:3.35042"
     d="m 52.155474,69.119671 c -0.705333,-0.246913 -1.181137,-0.581488 -1.84188,-1.295169 -1.165315,-1.258679 -1.768092,-2.801419 -1.694661,-4.337293 0.05704,-1.192988 0.470685,-2.10067 1.36436,-2.993867 1.306809,-1.30611 4.012252,-2.250776 4.642125,-1.620903 0.349412,0.349412 0.129019,0.859331 -0.8502,1.967089 -0.846817,0.957977 -1.025553,1.427552 -0.961901,2.527107 0.05699,0.98438 0.329667,1.553124 1.061734,2.214503 0.808051,0.730026 1.495345,0.907968 3.943573,1.021002 0.341165,0.01575 0.05407,0.369785 -0.860156,1.060722 -1.955174,1.477639 -3.449091,1.930763 -4.802994,1.456809 z"
     id="path1"
     transform="scale(0.26458333)" />
  <path
     style="fill:#ffffff;stroke-width:3.35042"
     d="m 67.468501,68.992061 c -0.736595,-0.351032 -1.143952,-0.955604 -0.845187,-1.25437 0.139171,-0.13917 0.349643,-0.155384 1.258786,-0.09697 1.342917,0.08628 2.102943,-0.05295 3.168105,-0.580389 0.89718,-0.444256 1.031724,-0.392255 0.848881,0.328091 -0.146888,0.578691 -0.788764,1.190271 -1.562582,1.488826 -0.86966,0.335534 -2.285884,0.392229 -2.868003,0.114814 z"
     id="path2"
     transform="scale(0.26458333)" />
  <path
     style="fill:#ffffff;stroke-width:3.35042"
     d="m 73.68779,62.141161 c -0.103213,-0.268967 0.03156,-0.975291 0.286641,-1.502212 0.564043,-1.165158 1.885037,-2.185345 3.487943,-2.693695 1.577354,-0.500247 3.083244,-0.45844 4.34829,0.120717 0.674735,0.308904 0.974428,0.554409 1.42402,1.166539 0.639341,0.870477 0.420085,0.963677 -2.326242,0.988816 -3.058247,0.028 -4.248475,0.305035 -5.302397,1.234192 -0.866633,0.764041 -1.764958,1.085129 -1.918255,0.685643 z"
     id="path3"
     transform="scale(0.26458333)" />
  <path
     style="fill:#ffffff;stroke-width:3.35042"
     d="m 108.05712,62.299218 c -5.10648,-0.274007 -9.167924,-0.997216 -11.000752,-1.958871 -1.21516,-0.637574 -1.121004,-1.391603 0.239631,-1.919035 0.464375,-0.180008 0.905241,-0.243429 1.944522,-0.279727 1.745559,-0.06097 2.990809,0.18237 4.519759,0.883211 4.07642,1.868565 6.42031,1.879241 10.58673,0.04822 1.79708,-0.789759 2.31408,-0.901116 4.19327,-0.903182 1.81941,-0.002 2.47813,0.14966 3.12787,0.720142 0.67346,0.591298 0.4066,1.132508 -0.96379,1.954686 -2.08165,1.248906 -6.66214,1.775706 -12.64724,1.454554 z"
     id="path4"
     transform="scale(0.26458333)" />
  <path
     style="fill:#ffffff;stroke-width:3.35042"
     d="m 107.55666,58.32406 c -2.19022,-0.205651 -3.75947,-0.809733 -4.67572,-1.799916 -1.41081,-1.524662 -2.85825,-4.134817 -3.381318,-6.097487 -0.382841,-1.436515 -0.424007,-3.00343 -0.09088,-3.459368 0.625648,-0.856319 1.460148,-0.939711 9.401018,-0.939451 9.52034,3.11e-4 10.21664,0.127104 10.21276,1.85973 -0.007,3.03217 -2.80476,8.393172 -4.9443,9.473404 -1.59067,0.803109 -4.16946,1.183938 -6.52156,0.963088 z"
     id="path5"
     transform="scale(0.26458333)" />
  <path
     style="fill:#ffffff;stroke-width:3.35042"
     d="m 105.16561,45.0959 c -2.29285,-0.257054 -4.37083,-0.883967 -5.14327,-1.551695 l -0.402145,-0.347624 0.3701,-0.225072 c 1.285065,-0.781494 7.902295,-1.460141 11.730865,-1.203089 3.12298,0.209679 5.90997,0.912668 6.15556,1.552678 0.0737,0.191958 -0.30825,0.545941 -0.81949,0.759547 -0.61333,0.256267 -2.04482,0.573511 -3.69772,0.819485 -1.70372,0.253537 -6.629,0.371212 -8.1939,0.19577 z"
     id="path6"
     transform="scale(0.26458333)" />
  <path
     style="fill:#ffffff;stroke-width:3.35042"
     d="m 120.39499,50.203713 c -0.15208,-0.154062 -0.0798,-0.744823 0.13406,-1.095559 0.23398,-0.383759 0.85227,-0.73803 1.11325,-0.637881 0.27903,0.107071 0.52957,0.586959 0.45714,0.87557 -0.0366,0.145611 -0.23361,0.392244 -0.43791,0.548073 -0.37071,0.282757 -1.11382,0.464521 -1.26654,0.309797 z"
     id="path7"
     transform="scale(0.26458333)" />
  <path
     style="fill:#ffffff;stroke-width:3.35042"
     d="m 119.99179,53.271806 -0.69888,-0.05788 0.75264,-0.351296 c 1.80772,-0.843763 2.12371,-1.025051 2.69199,-1.544428 0.82279,-0.751981 1.16912,-1.442879 1.17452,-2.34306 0.005,-0.829823 -0.3233,-1.494986 -0.98504,-1.995908 -0.67842,-0.513557 -1.43967,-1.259135 -1.59779,-1.564916 -0.12789,-0.247305 -0.12715,-0.306436 0.005,-0.416295 0.1847,-0.153281 0.64774,-0.02473 1.56682,0.434985 2.10066,1.050733 2.78401,4.1598 1.37165,6.240675 -0.7859,1.157892 -2.38571,1.755093 -4.28113,1.598122 z"
     id="path8"
     transform="scale(0.26458333)" />
</svg>
