<?xml version="1.0" encoding="UTF-8" standalone="no"?>
<svg
   width="36.777084mm"
   height="34.564167mm"
   viewBox="0 0 36.777084 34.564167"
   version="1.1"
   id="svg1"
   sodipodi:docname="kage-magnifying-glass.svg"
   inkscape:version="1.4.3 (0d15f75, 2025-12-25)"
   xmlns:inkscape="http://www.inkscape.org/namespaces/inkscape"
   xmlns:sodipodi="http://sodipodi.sourceforge.net/DTD/sodipodi-0.dtd"
   xmlns="http://www.w3.org/2000/svg"
   xmlns:svg="http://www.w3.org/2000/svg">
  <defs
     id="defs1" />
  <sodipodi:namedview
     id="namedview1"
     pagecolor="#ffffff"
     bordercolor="#000000"
     borderopacity="0.25"
     inkscape:showpageshadow="2"
     inkscape:pageopacity="0.0"
     inkscape:pagecheckerboard="0"
     inkscape:deskcolor="#d1d1d1"
     inkscape:document-units="mm"
     inkscape:zoom="9.3006364"
     inkscape:cx="69.511372"
     inkscape:cy="65.318111"
     inkscape:window-width="5120"
     inkscape:window-height="1417"
     inkscape:window-x="-8"
     inkscape:window-y="-8"
     inkscape:window-maximized="1"
     inkscape:current-layer="svg1" />
  <g
     transform="translate(-86.611455,-131.21792)"
     id="g1">
    <path
       style="display:inline;fill:#000000"
       d="m 96.849603,158.90957 c -0.61179,-0.61178 -0.66587,-0.85733 -0.66587,-3.0232 v -2.35733 l -1.18577,-0.45285 c -4.24244,-1.6202 -5.82039,-8.75635 -2.9109,-13.16431 1.98546,-3.00803 6.0861,-3.16194 8.579577,-0.32203 0.91929,1.04702 1.86709,2.99693 1.86709,3.84117 0,0.4851 0.0359,0.48978 0.65366,0.085 0.35951,-0.23556 0.93987,-1.04197 1.2897,-1.79203 0.34982,-0.75007 0.89482,-1.63278 1.21109,-1.9616 0.69091,-0.71829 1.23354,-0.51931 2.26238,0.82957 0.59743,0.78326 0.85518,0.90233 2.22155,1.02622 0.85014,0.0771 2.14831,0.42856 2.88482,0.78104 1.29214,0.6184 1.37006,0.62535 2.22098,0.19806 0.48503,-0.24356 1.21119,-0.52185 1.6137,-0.61844 0.62938,-0.15102 0.77179,-0.0729 1.01725,0.55811 0.15697,0.40354 0.22512,1.42689 0.15142,2.27411 -0.1118,1.28531 -0.0186,1.78921 0.5628,3.04271 0.57104,1.23117 0.69613,1.88431 0.69315,3.61897 -0.004,2.12318 -0.36125,3.27304 -1.37875,4.43339 -0.46248,0.52741 -0.46423,0.52479 0.58193,0.86889 3.28038,1.07897 -3.13615,2.17312 -10.95859,1.86868 -5.00186,-0.19467 -7.4937,-0.60341 -7.616767,-1.24937 -0.0596,-0.31297 0.249217,-0.51171 1.146237,-0.73758 l 1.22786,-0.30918 -1.05278,-1.14213 c -0.57903,-0.62817 -1.13601,-1.40436 -1.23773,-1.72486 -0.112667,-0.35499 -0.357067,-0.54841 -0.625367,-0.49492 -0.47286,0.0943 -0.47953,0.23112 -0.17121,3.51416 0.18876,2.00999 -0.0305,2.57525 -1.12469,2.90013 -0.431,0.12796 -0.77111,-0.005 -1.25677,-0.49042 z m 1.73094,-0.57637 c 0.28259,-0.3405 0.2838,-0.84754 0.007,-2.80535 -0.18603,-1.31435 -0.23737,-2.47334 -0.1141,-2.57554 0.12327,-0.1022 0.67235,-0.51405 1.22017,-0.91522 2.805257,-2.05432 3.440417,-7.6557 1.258287,-11.09657 -2.260717,-3.56478 -6.396067,-3.8111 -8.492207,-0.50582 -1.07783,1.69955 -1.38124,3.01218 -1.24504,5.38623 0.19638,3.42277 1.96369,6.12563 4.50636,6.89183 l 0.99219,0.29899 v 2.35676 c 0,1.29622 0.12325,2.58706 0.27389,2.86854 0.3308,0.61811 1.12099,0.66578 1.59374,0.0962 z m -3.32285,-6.77231 c -2.44874,-1.35435 -3.75433,-4.86232 -3.05801,-8.2165 0.84267,-4.0591 4.5017,-5.6235 7.1451,-3.05485 1.454277,1.41316 1.992757,2.89762 1.995737,5.50176 0.002,1.90433 -0.10297,2.46115 -0.67456,3.57187 -0.875587,1.70149 -2.059027,2.50902 -3.661457,2.49844 -0.6697,-0.004 -1.45577,-0.13975 -1.74681,-0.30072 z m 2.86512,-0.31672 c 1.995327,-0.8337 2.950247,-2.8898 2.766947,-5.95769 -0.45824,-7.66924 -8.410187,-7.69894 -8.410187,-0.0314 0,2.75138 1.16224,5.00374 3.01653,5.84585 1.30826,0.59414 1.51995,0.60569 2.62671,0.14325 z m -3.52658,-4.28941 c 0,-0.12624 1.0335,-1.51239 2.83586,-3.80351 0.17727,-0.22535 0.3261,-0.28128 0.33073,-0.12429 0.008,0.28186 -2.83412,4.08019 -3.05335,4.08019 -0.0623,0 -0.11324,-0.0686 -0.11324,-0.15239 z m 0,-2.10786 c 0,-0.29174 2.16841,-3.06787 2.29635,-2.93993 0.0729,0.0729 -0.36868,0.79657 -0.98137,1.60806 -1.05681,1.39974 -1.31498,1.66123 -1.31498,1.33187 z m 17.144997,3.79484 c 0.72377,-0.72377 0.18736,-2.06375 -0.82614,-2.06375 -0.42213,0 -0.45263,0.0675 -0.17927,0.39687 0.43204,0.52057 -0.14669,1.28317 -0.83682,1.1027 -0.39701,-0.10382 -0.4318,-0.0404 -0.20762,0.37848 0.30604,0.57183 1.55095,0.6846 2.04985,0.1857 z M 107.8254,147.945 c 0,-0.12127 -0.14883,-0.22615 -0.33073,-0.23307 -0.1819,-0.007 -0.56885,-0.10859 -0.85989,-0.22593 -0.47091,-0.18985 -0.48919,-0.16419 -0.16604,0.23307 0.37227,0.45766 1.35666,0.62159 1.35666,0.22593 z m -2.16958,-1.68451 c 0.6692,-0.6692 0.20033,-2.06375 -0.69386,-2.06375 -0.3031,0 -0.31279,0.0766 -0.0498,0.3935 0.44599,0.53738 0.14327,1.194 -0.55046,1.194 -0.47655,0 -0.51593,0.065 -0.24049,0.39687 0.39661,0.47789 1.0997,0.51425 1.53458,0.0794 z"
       id="path1-16" />
  </g>
  <path
     style="fill:#ffffff;stroke-width:3.35042"
     d="m 37.255515,76.55619 c -1.018662,-0.302066 -3.022766,-1.148109 -4.379446,-1.848808 -4.732031,-2.443998 -8.354166,-7.678955 -9.812666,-14.181933 -0.520818,-2.322161 -0.710324,-3.92387 -0.775039,-6.550648 -0.134815,-5.472163 0.666508,-9.759356 2.562313,-13.708739 0.972648,-2.026243 1.857609,-3.285001 3.365616,-4.787213 1.361341,-1.35611 2.246932,-2.012037 3.686143,-2.730201 5.208337,-2.598951 11.267967,-1.25615 15.697845,3.478608 3.253598,3.477523 5.31622,8.44399 6.120419,14.736998 0.241257,1.887879 0.277195,7.338634 0.0599,9.0854 -0.508495,4.087682 -1.666622,7.428693 -3.502062,10.102887 -0.302919,0.441347 -1.004868,1.276616 -1.559884,1.856154 -1.683627,1.758008 -3.231186,2.786362 -5.734041,3.810274 -2.625561,1.07411 -3.997609,1.250665 -5.729102,0.737221 z M 31.521199,59.319126 c 2.105427,-2.231863 8.229684,-10.411578 10.096409,-13.485023 0.898008,-1.478512 0.634115,-2.126757 -0.43929,-1.079101 -0.938854,0.916333 -8.77817,11.144337 -10.359225,13.515745 -0.742728,1.114011 -0.786193,1.227373 -0.602324,1.570937 0.211538,0.395262 0.576545,0.249038 1.30443,-0.522558 z m -0.3593,-7.805638 c 0.962931,-0.914562 4.46448,-5.451565 6.066592,-7.860561 1.485473,-2.233612 1.965164,-3.278697 1.505418,-3.279795 -0.669291,-0.0016 -7.000079,7.952406 -8.343477,10.482747 -0.306593,0.57748 -0.356014,0.908236 -0.164344,1.099905 0.172065,0.172065 0.404749,0.06209 0.935811,-0.442296 z"
     id="path1"
     transform="scale(0.26458333)" />
  <path
     style="fill:#ffffff;stroke-width:3.35042"
     d="m 41.394321,103.82355 c -0.848806,-0.27832 -1.69126,-0.95156 -2.043048,-1.63269 -0.288835,-0.55924 -0.500414,-1.4841 -0.687245,-3.004099 -0.31083,-2.528828 -0.387077,-4.64506 -0.387077,-10.743225 V 82.340758 L 36.04592,81.664887 C 34.818854,81.293158 33.464249,80.850484 33.035687,80.681166 26.684418,78.17189 21.800041,72.505823 19.197828,64.628714 c -0.824302,-2.495231 -1.411063,-5.474368 -1.685413,-8.557282 -0.172523,-1.938677 -0.172144,-6.93655 6.45e-4,-8.494043 0.473892,-4.27159 1.646467,-7.674502 4.022087,-11.672444 3.178104,-5.348443 7.152172,-8.416528 12.333503,-9.521787 1.463487,-0.312185 4.366398,-0.346098 5.859814,-0.06846 2.971815,0.552491 5.774797,1.807878 8.347905,3.738823 0.494326,0.370958 1.576249,1.356925 2.404273,2.191037 2.328201,2.345318 3.734232,4.344263 5.221073,7.422763 2.287635,4.736545 3.345799,9.677841 3.340205,15.59771 -0.0073,7.732585 -2.083543,14.626427 -5.92589,19.676073 -1.202621,1.580495 -2.708576,2.948948 -5.674509,5.156393 -1.980943,1.47435 -2.737769,2.097935 -2.795507,2.303346 -0.137767,0.490132 -0.06091,3.975309 0.128329,5.818923 0.100153,0.975739 0.322091,2.814323 0.493197,4.085741 1.038776,7.718763 0.973924,9.180043 -0.466336,10.507633 -0.749821,0.69116 -1.49621,1.02438 -2.384752,1.06466 -0.41395,0.0188 -0.873909,-0.006 -1.022131,-0.0542 z m -0.54719,-25.826209 c 5.608642,-0.525367 9.580497,-3.721166 12.751554,-10.260041 1.11234,-2.2937 1.585584,-3.886382 1.900902,-6.397411 0.19419,-1.546423 0.194949,-9.56536 0.0011,-11.34331 -0.615214,-5.641894 -2.044305,-9.480567 -4.843416,-13.009863 -2.162103,-2.726118 -4.420249,-4.660999 -6.896799,-5.909488 -7.715594,-3.889619 -16.379484,-0.280609 -20.639338,8.597476 -1.841047,3.836978 -2.737206,8.175755 -2.720455,13.171142 0.02527,7.5346 2.39151,14.427914 6.688787,19.485695 1.574978,1.853707 3.816655,3.702763 5.567824,4.592643 1.17956,0.59941 3.650745,1.041558 6.533603,1.169002 0.236542,0.01046 0.981861,-0.03267 1.656264,-0.09584 z"
     id="path2"
     transform="scale(0.26458333)" />
  <path
     style="fill:#ffffff;stroke-width:3.35042"
     d="m 67.83627,57.647365 c -0.948361,-0.390143 -1.799344,-1.157615 -2.159117,-1.947232 -0.192463,-0.42241 -0.02474,-0.503882 1.223174,-0.594165 0.74146,-0.05364 1.277648,-0.153398 1.595164,-0.296775 1.730926,-0.781615 1.987193,-2.74996 0.584578,-4.490056 -0.789377,-0.979308 -0.736323,-1.185753 0.302544,-1.177279 2.108881,0.0172 3.88184,2.38125 3.70301,4.937561 -0.08047,1.150313 -0.424935,1.925821 -1.199412,2.700299 -0.820253,0.820252 -1.539718,1.120728 -2.674551,1.116994 -0.558278,-0.0018 -0.943511,-0.07168 -1.37539,-0.249347 z"
     id="path3"
     transform="scale(0.26458333)" />
  <path
     style="fill:#ffffff;stroke-width:3.35042"
     d="m 78.005415,63.924347 c -1.002287,-0.214918 -1.901436,-0.674868 -2.615957,-1.338164 -0.448087,-0.415963 -1.139161,-1.343959 -1.05988,-1.423241 0.03263,-0.03263 0.776269,0.18421 1.652539,0.481858 0.876271,0.297648 2.015898,0.610909 2.532504,0.696135 0.930789,0.153554 1.436101,0.372488 1.551039,0.672011 0.0965,0.25147 -0.04559,0.627757 -0.295335,0.782138 -0.294921,0.182305 -1.206266,0.249053 -1.76491,0.129263 z"
     id="path4"
     transform="scale(0.26458333)" />
  <path
     style="fill:#ffffff;stroke-width:3.35042"
     d="m 90.585199,66.930364 c -1.810168,-0.251393 -2.981191,-1.018835 -3.563399,-2.335312 -0.445459,-1.007262 -0.359348,-1.086798 0.914937,-0.84507 0.934026,0.177182 1.654061,0.11368 2.259187,-0.199243 0.966787,-0.499945 1.561715,-1.444349 1.562059,-2.479649 2.3e-4,-0.693126 -0.14959,-1.049898 -0.851508,-2.027732 -0.20627,-0.287351 -0.375036,-0.566756 -0.375036,-0.620898 0,-0.205738 0.623712,-0.326466 1.468129,-0.284175 1.13558,0.05687 2.018517,0.469238 2.820611,1.317335 1.664241,1.759689 1.789717,4.393124 0.292656,6.142104 -0.861568,1.006548 -2.789556,1.574022 -4.527636,1.33264 z"
     id="path5"
     transform="scale(0.26458333)" />
</svg>
