<?xml version="1.0" encoding="UTF-8" standalone="no"?>
<svg
   width="36.777084mm"
   height="34.564167mm"
   viewBox="0 0 36.777084 34.564167"
   version="1.1"
   id="svg1"
   sodipodi:docname="kage-balloon.svg"
   inkscape:version="1.4.3 (0d15f75, 2025-12-25)"
   xmlns:inkscape="http://www.inkscape.org/namespaces/inkscape"
   xmlns:sodipodi="http://sodipodi.sourceforge.net/DTD/sodipodi-0.dtd"
   xmlns="http://www.w3.org/2000/svg"
   xmlns:svg="http://www.w3.org/2000/svg">
  <defs
     id="defs1" />
  <sodipodi:namedview
     id="namedview1"
     pagecolor="#ffffff"
     bordercolor="#000000"
     borderopacity="0.25"
     inkscape:showpageshadow="2"
     inkscape:pageopacity="0.0"
     inkscape:pagecheckerboard="0"
     inkscape:deskcolor="#d1d1d1"
     inkscape:document-units="mm"
     inkscape:zoom="9.3006364"
     inkscape:cx="69.511372"
     inkscape:cy="56.716549"
     inkscape:window-width="2410"
     inkscape:window-height="1211"
     inkscape:window-x="1876"
     inkscape:window-y="72"
     inkscape:window-maximized="0"
     inkscape:current-layer="svg1" />
  <rect
     style="fill:#ffffff;stroke-width:8.24468"
     id="rect1"
     width="9.2171116"
     height="5.3482003"
     x="13.825666"
     y="19.742823" />
  <g
     transform="translate(-86.611455,-131.21792)"
     id="g1">
    <path
       style="display:inline;fill:#000000"
       d="m 92.863708,162.711 c 0,-0.12 0.37834,-0.35007 0.84075,-0.51126 l 0.84074,-0.29309 -0.69162,-0.72498 c -1.99835,-2.09476 -1.62583,-5.59537 0.99472,-9.34748 0.65159,-0.93295 1.1886,-1.87486 1.19337,-2.09314 0.0177,-0.81071 1.03547,-2.64584 1.46739,-2.64584 0.24083,0 0.87173,0.3405 1.40199,0.75666 0.94155,0.73895 1.00338,0.75006 2.641482,0.47487 1.35258,-0.22722 1.98206,-0.2024 3.25099,0.1282 0.86549,0.22549 1.62996,0.31883 1.69881,0.20742 0.0688,-0.1114 0.67501,-0.41253 1.34701,-0.66917 1.1806,-0.45088 1.23407,-0.44987 1.58477,0.0297 0.20925,0.28616 0.36294,1.1494 0.36294,2.03854 0,1.16357 0.1529,1.78448 0.6228,2.52911 0.34254,0.54282 0.7087,1.25781 0.81369,1.58889 0.18953,0.59768 0.19654,0.59589 0.98997,-0.25348 l 0.79909,-0.85543 -0.18886,-4.0297 c -0.13724,-2.92836 -0.28316,-4.06589 -0.5339,-4.16211 -0.20134,-0.0773 -0.28565,-0.35954 -0.20244,-0.67776 0.10059,-0.38466 0.0166,-0.54535 -0.28512,-0.54535 -0.69413,0 -2.39852,-1.90933 -2.74919,-3.07976 -0.93164,-3.10955 0.39014,-5.98092 3.0836,-6.69862 3.76497,-1.00321 6.5364,3.3253 4.68082,7.31066 -0.46572,1.00026 -0.92746,1.53447 -1.71517,1.98437 -0.75707,0.43241 -1.07849,0.79282 -1.07992,1.21095 -0.001,0.35188 -0.16433,0.59532 -0.39892,0.59532 -0.46183,0 -0.48901,0.33854 -0.40359,5.02708 0.0521,2.85821 0.12847,3.37156 0.56265,3.78062 0.62894,0.59255 0.63337,1.13688 0.0188,2.30871 -0.32347,0.61674 -0.41983,1.14119 -0.29096,1.58359 0.10597,0.36381 0.18671,1.19725 0.17941,1.85209 -0.009,0.80883 -0.0481,0.9361 -0.12195,0.39687 -0.0598,-0.43656 -0.22506,-1.24001 -0.3673,-1.78544 -0.2526,-0.96863 -0.27314,-0.98218 -0.88294,-0.58262 -0.35923,0.23537 -0.69497,0.78561 -0.79069,1.29582 -0.0915,0.4877 -0.46085,1.32071 -0.82081,1.85113 -0.80104,1.1804 -0.80195,1.20549 -0.0436,1.20549 0.72016,0 1.72464,0.66308 1.43828,0.94944 -0.81522,0.81522 -19.247092,0.2188 -19.247092,-0.1503 z m 13.970662,-7.33379 c 0.0536,-0.36206 -0.099,-0.58692 -0.46302,-0.68211 -0.42831,-0.11201 -0.54305,-0.0168 -0.54305,0.45058 0,1.07174 0.8525,1.26792 1.00607,0.23153 z m -2.92266,-0.80752 c 0.0649,-0.19752 -0.12673,-0.33073 -0.47569,-0.33073 -0.5081,0 -0.56359,-0.1035 -0.42554,-0.79375 0.17459,-0.87291 0.11345,-0.92264 -0.63916,-0.51985 -0.5777,0.30917 -0.67885,1.30528 -0.1829,1.80122 0.40314,0.40315 1.57441,0.29651 1.72329,-0.15689 z m 5.38992,-0.77714 c 0.31521,-0.38751 0.30628,-0.42515 -0.0677,-0.28526 -0.54318,0.20321 -1.03202,-0.26358 -0.8293,-0.79188 0.10188,-0.26549 0.0279,-0.35883 -0.21911,-0.27656 -0.42149,0.14035 -0.62269,0.84766 -0.40357,1.41869 0.19913,0.51892 1.07514,0.48146 1.51964,-0.065 z m 4.13895,-9.55814 c 0.0576,-0.17281 -0.0838,-0.3142 -0.31419,-0.3142 -0.23041,0 -0.41893,0.18852 -0.41893,0.41893 0,0.46723 0.56959,0.38586 0.73312,-0.10473 z m 1.91044,-1.79883 c 3.27146,-2.95556 1.51327,-8.63418 -2.54601,-8.22313 -2.08889,0.21152 -3.53713,2.01079 -3.53713,4.39447 0,1.75466 0.477,2.86369 1.68959,3.92836 0.78719,0.69117 1.20174,0.85577 2.15531,0.85577 0.98462,0 1.35626,-0.15865 2.23824,-0.95547 z m -5.01445,-5.04905 c -0.0123,-0.68919 1.17187,-2.16074 1.48628,-1.84699 0.12031,0.12005 6.1e-4,0.34035 -0.266,0.48956 -0.26661,0.1492 -0.64791,0.64629 -0.84734,1.10463 -0.30082,0.6914 -0.36435,0.73446 -0.37294,0.2528 z"
       id="path1-9" />
  </g>
</svg>
