<?xml version="1.0" encoding="UTF-8" standalone="no"?>
<svg
   width="36.777084mm"
   height="34.564167mm"
   viewBox="0 0 36.777084 34.564167"
   version="1.1"
   id="svg1"
   sodipodi:docname="kage-harmonica-with-lead.svg"
   inkscape:version="1.4.3 (0d15f75, 2025-12-25)"
   xmlns:inkscape="http://www.inkscape.org/namespaces/inkscape"
   xmlns:sodipodi="http://sodipodi.sourceforge.net/DTD/sodipodi-0.dtd"
   xmlns="http://www.w3.org/2000/svg"
   xmlns:svg="http://www.w3.org/2000/svg">
  <defs
     id="defs1" />
  <sodipodi:namedview
     id="namedview1"
     pagecolor="#ffffff"
     bordercolor="#000000"
     borderopacity="0.25"
     inkscape:showpageshadow="2"
     inkscape:pageopacity="0.0"
     inkscape:pagecheckerboard="0"
     inkscape:deskcolor="#d1d1d1"
     inkscape:document-units="mm"
     inkscape:zoom="9.3006364"
     inkscape:cx="69.511372"
     inkscape:cy="65.318111"
     inkscape:window-width="5120"
     inkscape:window-height="1417"
     inkscape:window-x="-8"
     inkscape:window-y="-8"
     inkscape:window-maximized="1"
     inkscape:current-layer="svg1" />
  <g
     transform="translate(-86.611455,-131.21792)"
     id="g1">
    <path
       style="display:inline;fill:#000000"
       d="m 99.934174,160.91941 c -2.31347,-0.26492 -4.04424,-0.76069 -4.02264,-1.15227 0.008,-0.14552 0.36363,-0.37013 0.79023,-0.49912 1.52138,-0.46006 1.55483,-0.52055 0.37876,-0.685 -2.01735,-0.28209 -3.18978,-1.10127 -4.07357,-2.84621 -1.23935,-2.44695 -0.45364,-6.15612 1.30405,-6.15612 0.85833,0 1.2726,0.63755 1.07293,1.65122 -0.50641,2.57079 -0.48414,3.49289 0.10228,4.23575 0.89546,1.13434 1.32826,0.96493 1.01391,-0.39687 -0.483,-2.09239 0.30331,-6.10666 1.58195,-8.07623 0.2818,-0.43406 0.37727,-1.26352 0.34261,-2.97656 l -0.048,-2.37481 h 0.92965 c 0.51131,0 1.499596,0.22087 2.196206,0.49084 1.2287,0.47616 1.29821,0.47637 2.3249,0.007 0.58209,-0.26614 1.39964,-0.48702 1.8168,-0.49084 0.65625,-0.006 0.73696,-0.0872 0.59892,-0.60225 -0.0877,-0.32742 -0.16116,-0.68461 -0.16315,-0.79375 -0.002,-0.10914 -0.48161,-0.19843 -1.06583,-0.19843 -0.83476,0 -1.25769,-0.18414 -1.97508,-0.8599 -0.50207,-0.47294 -0.98948,-1.18732 -1.08313,-1.5875 l -0.17027,-0.7276 h 1.51003 c 1.32966,0 1.59679,0.0929 2.23637,0.77754 l 0.72633,0.77754 0.44085,-0.92446 c 0.64372,-1.34989 3.13914,-2.27097 3.51301,-1.29668 0.0828,0.21576 -0.0102,0.88113 -0.20674,1.4786 -0.35349,1.07482 -0.91111,1.55903 -2.40779,2.09083 -0.52077,0.18503 -0.72761,0.43966 -0.72761,0.89571 0,0.58794 0.1309,0.6512 1.69359,0.81855 1.65306,0.17703 1.72319,0.15877 2.93068,-0.76292 1.65963,-1.26682 2.40863,-1.25387 2.77015,0.0479 0.15155,0.5457 0.27621,1.5606 0.27702,2.25534 0.001,1.00475 0.18737,1.53338 0.91019,2.58419 1.54954,2.25263 2.10968,4.03139 2.12119,6.73599 0.0111,2.61092 -0.55693,4.34907 -1.8691,5.71934 l -0.66291,0.69226 1.19056,0.29978 c 4.0372,1.01658 -1.37021,2.18334 -9.81396,2.11756 -2.44321,-0.019 -5.36071,-0.13979 -6.483336,-0.26834 z m 6.288786,-6.44844 c 0.32297,-0.76243 0.46405,-0.82063 3.14281,-1.29654 1.54256,-0.27405 2.74949,-0.55344 2.68207,-0.62087 -0.11448,-0.11447 -4.48423,0.59634 -5.50847,0.89605 -0.25466,0.0745 -0.46302,0.35645 -0.46302,0.62652 0,0.27007 -0.32323,0.88713 -0.71829,1.37123 -0.62044,0.76029 -0.63349,0.80811 -0.0958,0.35103 0.34239,-0.29104 0.77469,-0.88838 0.96068,-1.32742 z m 7.0669,-0.6598 c -0.22927,-0.58364 -0.46479,-1.01323 -0.52339,-0.95464 -0.12741,0.12741 0.63675,2.01582 0.81572,2.01582 0.0685,0 -0.0631,-0.47753 -0.29233,-1.06118 z m -9.85934,-0.90758 c 0,-0.0642 -0.11906,-0.19026 -0.26459,-0.2802 -0.14552,-0.0899 -0.26458,-0.0374 -0.26458,0.11668 0,0.15411 0.11906,0.2802 0.26458,0.2802 0.14553,0 0.26459,-0.0525 0.26459,-0.11668 z m 3.70416,-0.1479 c 0,-0.14553 -0.11203,-0.26459 -0.24896,-0.26459 -0.13694,0 -0.32256,0.11906 -0.41249,0.26459 -0.0899,0.14552 0.0221,0.26458 0.24896,0.26458 0.22687,0 0.41249,-0.11906 0.41249,-0.26458 z m 1.85209,-0.11668 c 0,-0.0642 -0.11906,-0.19026 -0.26459,-0.2802 -0.14552,-0.0899 -0.26458,-0.0374 -0.26458,0.11668 0,0.15411 0.11906,0.2802 0.26458,0.2802 0.14553,0 0.26459,-0.0525 0.26459,-0.11668 z m -5.02709,-0.34885 c 0,-0.11051 -0.23812,-0.34965 -0.52916,-0.53141 -0.57934,-0.3618 -0.71752,-0.091 -0.21167,0.41485 0.35838,0.35838 0.74083,0.41855 0.74083,0.11656 z m 6.61459,-0.75975 c 2.11005,-0.40484 3.65786,-0.77205 3.43958,-0.81603 -0.5111,-0.10297 -8.19672,1.4137 -8.42569,1.66272 -0.0953,0.10364 0.12439,0.12115 0.48819,0.0389 0.3638,-0.0822 2.38787,-0.48077 4.49792,-0.8856 z m -5.55625,0.1428 c 0,-0.14162 -0.26789,-0.36517 -0.59531,-0.49678 -0.32743,-0.13161 -0.4244,-0.24683 -0.2155,-0.25606 0.20891,-0.009 0.62563,0.20606 0.92605,0.47842 0.53514,0.48514 0.64013,0.4771 5.17642,-0.39648 2.54662,-0.49042 4.86423,-0.99135 5.15025,-1.11319 0.48881,-0.20823 0.47538,-0.25078 -0.22376,-0.70888 -0.68888,-0.45136 -0.92264,-0.46212 -3.16587,-0.14563 -3.4151,0.48181 -8.6205,1.49662 -8.84657,1.72466 -0.10455,0.10547 0.16017,0.47166 0.58826,0.81376 0.75081,0.59999 1.20603,0.63781 1.20603,0.10018 z m 8.73125,-2.10814 c 0,-0.15411 0.11906,-0.20661 0.26458,-0.11668 0.14552,0.0899 0.26458,0.21603 0.26458,0.2802 0,0.0642 -0.11906,0.11668 -0.26458,0.11668 -0.14552,0 -0.26458,-0.12609 -0.26458,-0.2802 z m -2.38125,2.54477 c 0,-0.0642 -0.11906,-0.19026 -0.26459,-0.2802 -0.14552,-0.0899 -0.26458,-0.0374 -0.26458,0.11668 0,0.15411 0.11906,0.2802 0.26458,0.2802 0.14553,0 0.26459,-0.0525 0.26459,-0.11668 z m 4.49791,-0.93335 c 0,-0.14095 -0.16655,-0.19237 -0.37011,-0.11426 -0.20356,0.0781 -0.44871,0.0148 -0.54478,-0.14059 -0.10164,-0.16446 0.0466,-0.28262 0.3545,-0.28262 0.29104,0 0.61525,-0.1393 0.72047,-0.30955 0.13044,-0.21104 0.0443,-0.25314 -0.2706,-0.13229 -0.25406,0.0975 -0.6945,0.17726 -0.97876,0.17726 -0.43485,0 -0.47191,0.0839 -0.23363,0.52916 0.28575,0.53394 1.32291,0.74788 1.32291,0.27289 z m -5.78598,-2.58316 c 0.18284,-0.18283 0.0489,-0.26942 -0.41671,-0.26942 -0.37737,0 -0.75171,0.10613 -0.83187,0.23583 -0.0802,0.12971 -0.25659,0.16733 -0.39205,0.0836 -0.13547,-0.0837 -0.2463,-0.04 -0.2463,0.0972 0,0.32367 1.53587,0.20383 1.88693,-0.14723 z m -4.31928,-0.70302 c 0.99147,-0.0126 1.07944,-0.0584 0.67703,-0.35269 -0.68875,-0.50363 -1.80902,-0.4096 -2.51485,0.21108 l -0.62462,0.54927 0.66145,-0.19658 c 0.36381,-0.10811 1.17425,-0.2031 1.80099,-0.21108 z m 7.1287,-1.02421 c 1.00243,0.0363 1.06846,-0.0656 0.30673,-0.47326 -0.60382,-0.32315 -2.09267,0.10544 -2.09267,0.60242 0,0.15219 0.19282,0.17311 0.46303,0.0503 0.25466,-0.1158 0.84997,-0.19653 1.32291,-0.17941 z m -7.34219,-7.32462 c 0,-0.1373 -0.35718,-0.46062 -0.79375,-0.71851 -0.43656,-0.25788 -0.79375,-0.57403 -0.79375,-0.70255 0,-0.12852 0.41672,0.0122 0.92605,0.31271 1.05003,0.61953 1.21897,0.40072 0.33073,-0.42838 -0.67393,-0.62905 -1.84978,-0.99313 -2.45606,-0.76048 -0.36407,0.13971 -0.36234,0.2419 0.0165,0.97455 0.52679,1.0187 2.77025,2.08984 2.77025,1.32266 z m 3.70576,-1.26771 c 0.71428,-0.90805 0.70426,-1.92225 -0.019,-1.92225 -1.11685,0 -2.33907,1.003 -2.35544,1.93298 -0.007,0.38477 0.11597,0.33326 0.63053,-0.26458 0.35142,-0.4083 0.7135,-0.66801 0.80462,-0.57715 0.0911,0.0909 -0.13687,0.52478 -0.50665,0.96424 -0.36979,0.43946 -0.67234,0.86494 -0.67234,0.9455 0,0.36159 1.64376,-0.4755 2.11826,-1.07874 z"
       id="path1-81" />
  </g>
  <path
     style="fill:#ffffff;stroke-width:3.35042"
     d="m 63.445479,64.314028 c 0.02464,-0.02002 0.480254,-0.422868 1.012476,-0.895209 1.421185,-1.261286 1.946376,-1.638364 2.903027,-2.084323 1.227463,-0.572203 2.158269,-0.781541 3.494384,-0.785886 1.276536,-0.0042 2.158582,0.185453 3.181726,0.683941 0.649778,0.31658 1.656653,1.107815 1.656653,1.301851 0,0.235277 -0.734747,0.335049 -3.118066,0.423407 -3.788657,0.140459 -5.589211,0.376972 -7.765798,1.020082 -1.193932,0.352767 -1.467929,0.42027 -1.364402,0.336137 z"
     id="path1"
     transform="scale(0.26458333)" />
  <path
     style="fill:#ffffff;stroke-width:3.35042"
     d="m 82.747127,66.815814 c -0.669409,-0.101552 -1.139808,-0.335023 -1.139808,-0.565716 0,-0.07604 0.06867,-0.232157 0.152591,-0.346931 0.140843,-0.192614 0.180166,-0.196698 0.510718,-0.05305 0.196969,0.0856 0.586902,0.15783 0.866517,0.160512 0.447006,0.0043 0.554551,-0.04265 0.890691,-0.388721 0.448324,-0.461572 1.032115,-0.68236 2.257513,-0.853785 0.945018,-0.132201 2.330445,-0.01092 2.565999,0.224639 0.221851,0.221851 -0.174081,0.683857 -0.904178,1.05507 -1.180314,0.600123 -3.7778,0.983738 -5.200043,0.767978 z"
     id="path2"
     transform="scale(0.26458333)" />
  <path
     style="fill:#ffffff;stroke-width:3.35042"
     d="m 92.750814,59.888239 c -0.249338,-0.249337 -0.04236,-0.792911 0.481907,-1.265614 1.023626,-0.922945 3.141854,-1.59236 5.046743,-1.594904 0.711274,-9.49e-4 1.303111,0.0562 1.583961,0.152966 0.606595,0.208991 2.006665,1.018854 2.298625,1.329632 0.43589,0.463978 0.21353,0.511676 -2.73858,0.587461 -2.893466,0.07428 -3.914126,0.209515 -5.181443,0.686532 -0.80711,0.303795 -1.259796,0.335345 -1.491213,0.103927 z"
     id="path3"
     transform="scale(0.26458333)" />
  <path
     style="fill:#ffffff;stroke-width:3.35042"
     d="m 77.66735,30.856466 c -0.09225,-0.240395 0.467549,-1.096864 1.861244,-2.84763 1.46582,-1.841371 1.999708,-2.604587 2.353438,-3.364342 0.490219,-1.05291 0.284549,-1.470618 -0.528042,-1.072435 -0.700682,0.343346 -1.459913,1.020264 -2.727088,2.431426 -1.250383,1.392462 -1.689648,1.737306 -1.863308,1.462785 -0.154939,-0.244929 -0.119124,-1.188562 0.06947,-1.830228 0.70712,-2.40594 3.174945,-4.730331 6.038395,-5.687431 0.886599,-0.296344 2.551532,-0.584837 2.847784,-0.493453 0.07431,0.02292 0.26727,0.07061 0.428809,0.105969 0.876378,0.191843 1.456914,1.32175 1.337288,2.602791 -0.22269,2.384735 -1.9308,4.899043 -4.475725,6.588189 -2.344815,1.556325 -5.131356,2.653966 -5.34226,2.104359 z"
     id="path4"
     transform="scale(0.26458333)" />
  <path
     style="fill:#ffffff;stroke-width:3.35042"
     d="M 69.155913,32.199505 C 66.50588,31.505261 62.954863,29.104199 61.567051,27.068207 60.9112,26.106041 60.1046,24.302384 60.103935,23.796498 c -3.91e-4,-0.296399 0.0683,-0.44953 0.274361,-0.611616 1.390483,-1.093754 4.790545,-0.657013 7.772935,0.998441 1.492836,0.828637 3.618866,2.78749 4.15897,3.831935 0.387286,0.748927 -0.405615,0.679195 -2.024124,-0.178013 -2.733607,-1.447795 -3.714953,-1.889342 -4.239163,-1.907371 -0.487355,-0.01676 -0.512421,-0.0039 -0.487632,0.25113 0.04234,0.435522 1.265846,1.504089 3.119685,2.724624 1.732653,1.140749 2.821517,2.128522 2.821517,2.559566 0,0.354606 -0.212289,0.639208 -0.596559,0.799766 -0.471975,0.197204 -0.791003,0.185257 -1.748012,-0.06546 z"
     id="path5"
     transform="scale(0.26458333)" />
  <path
     style="fill:#ffffff;stroke-width:3.35042"
     d="m 67.140255,78.23528 c -1.386025,-0.673578 -2.996483,-1.990553 -3.878379,-3.1716 -0.561627,-0.752139 -0.599199,-1.071919 -0.15305,-1.302631 1.206317,-0.623811 11.294557,-2.737831 21.509039,-4.507283 9.627623,-1.66779 16.693845,-2.646771 19.083015,-2.643832 2.05086,0.0025 2.77059,0.237797 4.79215,1.566519 1.17468,0.772084 1.71448,1.237363 1.71448,1.477773 0,0.236473 -0.46321,0.566406 -1.16476,0.829621 -1.64905,0.618712 -10.302418,2.472031 -22.059455,4.72454 -12.105223,2.319217 -14.282942,2.580068 -15.729543,1.884115 -0.189544,-0.09119 -0.802664,-0.534698 -1.362489,-0.985576 -1.247677,-1.004868 -2.515636,-1.649656 -3.244005,-1.649656 -1.00515,0 -0.785927,0.370473 0.605492,1.023237 1.645155,0.771802 2.269793,1.353237 2.221657,2.067997 -0.0802,1.190842 -0.838079,1.413833 -2.334152,0.686776 z m 37.103375,-7.912025 c 0.50253,-0.209968 0.48186,-0.484134 -0.077,-1.021117 -0.74601,-0.716833 -1.57293,-0.814792 -1.6054,-0.190181 -0.0579,1.11371 0.66693,1.635583 1.68238,1.211298 z"
     id="path6"
     transform="scale(0.26458333)" />
  <path
     style="fill:#ffffff;stroke-width:3.35042"
     d="m 64.446805,80.211184 c -0.242675,-0.07201 -0.661716,-0.282623 -0.931203,-0.468034 -1.039663,-0.715307 -2.084472,-2.200635 -1.794089,-2.550525 0.198592,-0.239289 0.436493,-0.190371 1.386409,0.285077 1.155106,0.578149 2.371468,1.711345 2.371468,2.209325 0,0.537594 -0.364219,0.722478 -1.032585,0.524157 z"
     id="path7"
     transform="scale(0.26458333)" />
  <path
     style="fill:#ffffff;stroke-width:3.35042"
     d="m 61.957958,82.064277 c -0.468377,-0.501789 -0.394298,-1.263355 0.122889,-1.263355 0.277499,0 1.18309,0.645203 1.354111,0.964758 0.268775,0.502211 -1.039977,0.766794 -1.477,0.298597 z"
     id="path8"
     transform="scale(0.26458333)" />
  <path
     style="fill:#ffffff;stroke-width:3.35042"
     d="m 71.772112,80.160384 c -0.102384,-0.165662 0.445623,-0.38967 1.935169,-0.791035 6.30765,-1.699628 24.980969,-5.307608 29.027629,-5.608596 0.84231,-0.06265 0.85253,-0.0605 0.49252,0.10369 -1.02766,0.468693 -5.914975,1.530079 -17.050531,3.702892 -4.553452,0.888488 -9.48586,1.858557 -10.960905,2.155711 -2.710036,0.545946 -3.328239,0.624452 -3.443882,0.437338 z"
     id="path9"
     transform="scale(0.26458333)" />
  <path
     style="fill:#ffffff;stroke-width:3.35042"
     d="m 108.29911,76.226489 c -1.41152,-0.38009 -2.22736,-1.027148 -2.83097,-2.245281 -0.45692,-0.922101 -0.48743,-1.26223 -0.12566,-1.401053 0.0991,-0.03803 0.78674,-0.114095 1.52806,-0.169029 1.30464,-0.09668 2.56529,-0.342195 3.53865,-0.689171 0.63521,-0.226435 0.87352,-0.215773 0.87352,0.03908 0,0.312662 -0.50543,0.848914 -1.06232,1.127109 -0.61517,0.307305 -0.91935,0.382653 -1.97902,0.490222 -0.94725,0.09616 -1.25944,0.289045 -1.25944,0.778146 0,0.397117 0.42325,0.798787 1.01038,0.958865 0.35216,0.09601 0.58711,0.08553 1.16491,-0.05197 1.10573,-0.263135 1.59468,0.05076 1.21694,0.781238 -0.27151,0.525036 -1.027,0.66406 -2.07505,0.381845 z"
     id="path10"
     transform="scale(0.26458333)" />
  <path
     style="fill:#ffffff;stroke-width:3.35042"
     d="m 91.949589,79.048561 c -0.526438,-0.560368 -0.337495,-1.361084 0.284345,-1.205012 0.320621,0.08047 1.051573,0.63617 1.198899,0.911451 0.276874,0.517343 -1.030015,0.776001 -1.483244,0.293561 z"
     id="path11"
     transform="scale(0.26458333)" />
  <path
     style="fill:#ffffff;stroke-width:3.35042"
     d="m 82.978006,81.067091 c -0.51043,-0.510431 -0.43795,-1.233844 0.123622,-1.233844 0.234173,0 0.469993,0.142231 0.890501,0.537089 l 0.571977,0.53709 -0.253831,0.215547 c -0.368796,0.313174 -0.989237,0.28715 -1.332269,-0.05588 z"
     id="path12"
     transform="scale(0.26458333)" />
  <path
     style="fill:#ffffff;stroke-width:3.35042"
     d="m 75.287591,82.13882 c -0.453555,-0.317683 -0.24138,-0.83584 0.566851,-1.38432 0.56741,-0.385055 1.034236,-0.366677 1.388778,0.05467 0.153096,0.181944 0.278357,0.413098 0.278357,0.513674 0,0.268223 -0.291411,0.639162 -0.646305,0.822684 -0.407133,0.210537 -1.282801,0.206836 -1.587681,-0.0067 z"
     id="path13"
     transform="scale(0.26458333)" />
  <path
     style="fill:#ffffff;stroke-width:3.35042"
     d="m 69.350093,93.647184 c 0,-0.0389 0.467754,-0.659086 1.039453,-1.378195 2.19703,-2.763524 3.010003,-4.313557 3.314003,-6.318554 0.07474,-0.492942 0.58728,-1.262783 1.0451,-1.569753 0.194556,-0.130451 0.934344,-0.381392 1.643973,-0.557647 4.190948,-1.040932 16.977133,-3.146623 18.957762,-3.122056 l 0.610791,0.0076 -0.430078,0.160216 c -1.049433,0.390942 -4.823671,1.195721 -10.287524,2.193606 -6.178723,1.128444 -7.718097,1.495513 -9.018002,2.150371 -0.915149,0.461028 -1.330526,0.963299 -2.135681,2.58245 -1.050772,2.11308 -2.204467,3.734603 -3.498742,4.917497 -0.670224,0.612548 -1.241055,1.042371 -1.241055,0.934489 z"
     id="path14"
     transform="scale(0.26458333)" />
  <path
     style="fill:#ffffff;stroke-width:3.35042"
     d="m 101.45346,88.716003 c -1.0502,-1.619725 -2.98426,-6.839885 -2.534159,-6.839885 0.374174,0 2.095669,3.824675 2.744269,6.096999 0.38033,1.332469 0.31711,1.556011 -0.21011,0.742886 z"
     id="path15"
     transform="scale(0.26458333)" />
</svg>
