<?xml version="1.0" encoding="UTF-8" standalone="no"?>
<svg
   width="36.777084mm"
   height="34.564167mm"
   viewBox="0 0 36.777084 34.564167"
   version="1.1"
   id="svg1"
   sodipodi:docname="kage-with-star.svg"
   inkscape:version="1.4.3 (0d15f75, 2025-12-25)"
   xmlns:inkscape="http://www.inkscape.org/namespaces/inkscape"
   xmlns:sodipodi="http://sodipodi.sourceforge.net/DTD/sodipodi-0.dtd"
   xmlns="http://www.w3.org/2000/svg"
   xmlns:svg="http://www.w3.org/2000/svg">
  <defs
     id="defs1" />
  <sodipodi:namedview
     id="namedview1"
     pagecolor="#ffffff"
     bordercolor="#000000"
     borderopacity="0.25"
     inkscape:showpageshadow="2"
     inkscape:pageopacity="0.0"
     inkscape:pagecheckerboard="0"
     inkscape:deskcolor="#d1d1d1"
     inkscape:document-units="mm"
     inkscape:zoom="9.3006364"
     inkscape:cx="69.511372"
     inkscape:cy="65.318111"
     inkscape:window-width="5120"
     inkscape:window-height="1417"
     inkscape:window-x="-8"
     inkscape:window-y="-8"
     inkscape:window-maximized="1"
     inkscape:current-layer="svg1" />
  <g
     transform="translate(-86.611455,-131.21792)"
     id="g1">
    <path
       style="display:inline;fill:#000000"
       d="m 97.123482,161.52276 c -4.40563,-0.30878 -7.67292,-0.96593 -7.67292,-1.54327 0,-0.29861 1.20389,-0.84277 1.86454,-0.84277 0.66516,0 0.66196,-0.0172 -0.28034,-1.50303 -0.43838,-0.69125 -0.91397,-1.67765 -1.05686,-2.192 -0.6357,-2.28824 -0.0448,-5.75872 1.30276,-7.65118 0.40931,-0.57481 0.55794,-1.20612 0.57753,-2.45296 0.0429,-2.73231 0.19252,-3.00885 1.60265,-2.96265 0.65829,0.0216 1.6991,0.29542 2.31289,0.60855 l 1.116,0.56934 1.44579,-0.54094 c 1.981408,-0.74134 4.728818,-1.11472 6.328588,-0.86007 1.30105,0.20711 1.3444,0.19156 2.62318,-0.94061 1.7337,-1.53495 2.40679,-1.46936 3.39397,0.33076 0.39902,0.72761 0.79788,1.7487 0.88636,2.26909 0.10781,0.63414 0.53507,1.31494 1.29555,2.06437 3.39569,3.34635 4.02506,8.29809 1.42948,11.24682 l -1.01682,1.15517 1.07972,0.17266 c 1.25233,0.20025 2.61168,0.84365 2.61168,1.23614 0,1.31246 -11.7739,2.40216 -19.843748,1.83658 z m 0.74074,-1.43637 c 0.9593,-0.50117 2.07268,-1.70809 2.417428,-2.62054 0.78596,-2.08021 -0.093,-5.4215 -1.805228,-6.86222 -3.0084,-2.53141 -7.40384,0.23302 -6.38522,4.01586 0.6948,2.58031 3.87458,3.24083 5.04785,1.04856 0.38805,-0.72507 0.0593,-2.02891 -0.60067,-2.3821 -0.5228,-0.27979 -0.52674,-0.2682 -0.11079,0.32566 0.58624,0.83697 0.54178,1.53696 -0.14398,2.26691 -0.71082,0.75664 -1.77579,0.78809 -2.67717,0.0791 -1.73968,-1.36844 -1.38798,-4.38838 0.63278,-5.43335 2.72278,-1.40801 5.794678,1.20337 5.794678,4.92598 0,2.61596 -1.491498,4.36989 -4.030988,4.74025 l -1.39297,0.20315 1.26991,0.033 c 0.69845,0.0182 1.59142,-0.13495 1.98437,-0.34024 z m 5.873838,-10.47467 c 0.72751,-0.7275 0.66309,-0.98634 -0.21348,-0.85768 -1.01953,0.14963 -1.56071,-0.50649 -1.154,-1.39911 0.36342,-0.79763 0.0794,-0.83298 -0.84579,-0.10525 -0.41107,0.32334 -0.69714,0.81192 -0.69714,1.19062 0,0.83225 0.87814,1.70059 1.71979,1.70059 0.3638,0 0.89958,-0.23813 1.19062,-0.52917 z m 4.26709,-0.18183 c 0.31965,-0.39297 0.3051,-0.42464 -0.12154,-0.26458 -0.26656,0.10001 -0.66054,0.18183 -0.87551,0.18183 -0.21497,0 -0.31726,0.11906 -0.22733,0.26458 0.24826,0.4017 0.81862,0.317 1.22438,-0.18183 z m 3.08238,-1.28838 c 0.8753,-0.61308 0.77,-1.19878 -0.18132,-1.00852 -0.61043,0.12208 -0.83284,0.0352 -1.07669,-0.4204 -0.23467,-0.43848 -0.23277,-0.66413 0.008,-0.95424 0.25123,-0.30271 0.23111,-0.37996 -0.0989,-0.37996 -0.43431,0 -1.23803,0.95976 -1.23803,1.4784 0,0.51884 1.07449,1.6966 1.54784,1.6966 0.2481,0 0.71571,-0.18535 1.03913,-0.41188 z m 5.74741,-5.67372 c -0.63101,-0.41804 -1.05049,-0.49219 -2.04598,-0.36164 -1.47478,0.19339 -1.74868,-0.14582 -1.27547,-1.57964 0.25826,-0.78254 0.22085,-1.03683 -0.27654,-1.87984 -0.69381,-1.17591 -0.47249,-1.5091 1.07564,-1.61937 0.80945,-0.0577 1.27565,-0.28282 1.84295,-0.89013 0.41768,-0.44712 0.89447,-0.81295 1.05954,-0.81295 0.16507,0 0.52134,0.51609 0.79172,1.14686 0.34022,0.7937 0.74201,1.25058 1.30475,1.48368 1.49938,0.62106 1.60303,1.03427 0.49319,1.96606 -0.542,0.45505 -0.98707,1.06549 -0.98905,1.35653 -0.0118,1.7369 -0.6117,2.09744 -1.98075,1.19044 z m 1.45521,-0.83964 c 0,-0.58616 0.25475,-1.04194 0.92604,-1.65682 0.50932,-0.46652 0.92604,-0.93514 0.92604,-1.04137 0,-0.10624 -0.42893,-0.37237 -0.95317,-0.59142 -0.70368,-0.29401 -1.06047,-0.67139 -1.36305,-1.4417 -0.22544,-0.5739 -0.50997,-1.04345 -0.63229,-1.04345 -0.12232,0 -0.54066,0.35719 -0.92964,0.79375 -0.58013,0.6511 -0.91336,0.79375 -1.85413,0.79375 -1.25999,0 -1.42164,0.28374 -0.7268,1.27577 0.31743,0.45319 0.37635,0.91783 0.24109,1.90127 l -0.179,1.30151 1.32691,-0.15715 c 1.10084,-0.13038 1.44823,-0.0617 2.03897,0.40295 0.86244,0.6784 1.17903,0.53418 1.17903,-0.53709 z m -2.24896,-1.54143 c -0.0899,-0.14552 0.0291,-0.26458 0.26458,-0.26458 0.23546,0 0.35452,0.11906 0.26459,0.26458 -0.0899,0.14552 -0.209,0.26459 -0.26459,0.26459 -0.0556,0 -0.17464,-0.11907 -0.26458,-0.26459 z m 1.37421,-0.69836 c -0.21139,-0.21138 0.0276,-0.62455 0.3612,-0.62455 0.13693,0 0.24896,0.17859 0.24896,0.39687 0,0.40916 -0.31219,0.52565 -0.61016,0.22768 z m -2.38845,-0.27179 c -0.30444,-0.30443 -0.19268,-0.61736 0.22049,-0.61736 0.21828,0 0.39687,0.1786 0.39687,0.39688 0,0.41316 -0.31292,0.52492 -0.61736,0.22048 z"
       id="path1-4" />
  </g>
  <path
     style="fill:#ffffff;stroke-width:3.35042"
     d="m 117.13281,42.524414 c -0.34947,-0.177166 -1.15972,-0.707879 -1.80055,-1.179364 -2.11673,-1.557361 -2.83294,-1.77974 -5.44731,-1.691355 -0.97574,0.03299 -2.98366,0.208018 -4.46206,0.388955 -1.47839,0.180938 -2.71445,0.329417 -2.74679,0.329955 -0.0323,5.37e-4 0.12411,-1.317482 0.34766,-2.928931 0.804,-5.795467 0.69403,-7.086347 -0.79684,-9.354193 -1.38428,-2.105696 -1.67659,-3.127303 -1.06874,-3.735161 0.50334,-0.503337 1.22532,-0.651004 3.6889,-0.75449 3.12214,-0.131149 3.9607,-0.310783 5.15613,-1.104528 0.31934,-0.21204 1.5241,-1.32018 2.67725,-2.462534 1.15315,-1.142354 2.27903,-2.169814 2.50196,-2.283244 l 0.40532,-0.206236 0.33118,0.313756 c 0.46137,0.437111 1.18911,1.710517 1.77674,3.108956 1.01798,2.422579 1.57929,3.329397 2.69202,4.349011 0.61369,0.562328 1.06749,0.834304 2.81782,1.68877 2.07371,1.01233 3.30573,1.745329 3.41584,2.032278 0.11365,0.296175 -0.47128,0.99911 -2.8135,3.381078 -1.30835,1.330554 -2.52536,2.612724 -2.70447,2.849267 -0.9936,1.312262 -1.31736,2.292646 -1.4379,4.354091 -0.0502,0.857716 -0.16646,1.806779 -0.25848,2.10903 -0.35126,1.153802 -1.07037,1.405151 -2.27418,0.794889 z m -4.25744,-8.443376 c 0.58355,-0.662946 0.6578,-0.997565 0.29131,-1.312806 -0.27089,-0.233008 -0.58689,-0.292704 -1.29262,-0.244187 -0.96915,0.06663 -1.03861,0.82705 -0.15614,1.709513 0.18368,0.183684 0.4229,0.333969 0.5316,0.333969 0.10869,0 0.39033,-0.21892 0.62585,-0.486489 z m 5.44728,-2.780497 c 0.7147,-0.714699 0.54565,-2.417825 -0.27368,-2.757201 -0.57768,-0.239282 -1.42998,0.202525 -1.80723,0.936821 -0.0664,0.129168 -0.12065,0.427854 -0.12065,0.663747 0,1.04401 1.51713,1.841065 2.20156,1.156633 z m -9.0028,-0.947952 c 0.47014,-0.389885 0.60043,-1.516785 0.24313,-2.102817 -0.348,-0.57076 -0.81054,-0.797064 -1.53418,-0.750617 -1.03615,0.0665 -1.52685,0.635474 -1.27449,1.477767 0.14089,0.470256 0.84486,1.238787 1.338,1.460704 0.37862,0.170381 0.96884,0.129493 1.22754,-0.08504 z"
     id="path1"
     transform="scale(0.26458333)" />
  <path
     style="fill:#ffffff;stroke-width:3.35042"
     d="m 87.85584,65.25924 c -1.57198,-0.68236 -4.192521,-3.536969 -4.851149,-5.284455 -0.304679,-0.808383 -0.236937,-1.445899 0.260857,-2.454879 0.718675,-1.456685 2.200907,-3.10192 3.293312,-3.655484 0.609208,-0.308709 1.499192,-0.364294 1.712751,-0.106971 0.146049,0.175978 0.114086,0.240142 -0.733976,1.473431 -0.459007,0.667507 -0.466433,0.692489 -0.428808,1.442578 0.03191,0.636099 0.113881,0.915859 0.491875,1.678682 0.947959,1.913062 1.795082,2.286109 4.220972,1.858792 0.502653,-0.08854 1.059067,-0.160782 1.236474,-0.160533 0.875761,0.0012 1.666553,0.48493 1.666553,1.019376 0,0.828142 -1.408858,2.392692 -2.941425,3.266481 -1.035051,0.59013 -2.447997,1.087342 -3.079669,1.083726 -0.26611,-0.0015 -0.647605,-0.07386 -0.847767,-0.160744 z"
     id="path2"
     transform="scale(0.26458333)" />
  <path
     style="fill:#ffffff;stroke-width:3.35042"
     d="m 77.037739,70.176518 c -0.374392,-0.239637 -0.746464,-0.639685 -0.838744,-0.90181 -0.03552,-0.100897 0.02037,-0.287581 0.124652,-0.416364 0.154094,-0.190298 0.356842,-0.249218 1.096685,-0.318707 1.116344,-0.104851 1.686412,-0.23043 3.027428,-0.666907 0.574526,-0.186998 1.077647,-0.306941 1.118048,-0.26654 0.223302,0.223302 -1.490015,2.064508 -2.277654,2.447666 -0.723515,0.351965 -1.800458,0.410665 -2.250415,0.122662 z"
     id="path3"
     transform="scale(0.26458333)" />
  <path
     style="fill:#ffffff;stroke-width:3.35042"
     d="m 58.934005,71.277098 c -1.09693,-0.295032 -2.043352,-0.885915 -3.081027,-1.92359 -1.858639,-1.85864 -2.479263,-3.850444 -1.764655,-5.663418 0.273897,-0.694883 0.845257,-1.583394 1.419289,-2.207111 0.840917,-0.913702 2.934338,-2.395082 3.802796,-2.690995 0.951455,-0.324194 1.00743,0.178531 0.229379,2.060124 -0.423958,1.025274 -0.44652,1.135488 -0.45202,2.208093 -0.0049,0.959896 0.02903,1.193358 0.226709,1.559033 0.329403,0.609338 0.848805,1.070357 1.595334,1.416013 0.582806,0.269849 0.759355,0.298549 1.827832,0.297133 0.650493,-8.62e-4 1.6441,-0.02379 2.208015,-0.05096 0.856383,-0.04126 1.073376,-0.01799 1.317114,0.141245 0.526383,0.343878 0.312972,0.919698 -0.836186,2.256168 -1.821965,2.118944 -4.415603,3.156892 -6.49258,2.598265 z"
     id="path4"
     transform="scale(0.26458333)" />
  <path
     style="fill:#ffffff;stroke-width:3.35042"
     d="m 32.470896,110.27394 -1.451513,-0.0664 2.15039,-0.305 c 1.182715,-0.16775 2.755188,-0.42266 3.494385,-0.56647 8.936332,-1.73854 14.088983,-8.21697 14.084176,-17.708033 -0.0015,-2.906329 -0.327729,-5.006317 -1.180978,-7.601499 -2.138828,-6.505314 -6.771889,-11.115289 -12.387527,-12.325805 -1.117171,-0.240819 -3.669881,-0.267888 -4.762692,-0.0505 -4.862803,0.967318 -8.523752,4.400153 -9.781024,9.171569 -0.64406,2.444243 -0.622934,4.917065 0.06171,7.222868 0.880187,2.964384 3.060708,5.526292 5.736084,6.739366 1.992807,0.903581 4.279128,0.899854 6.125855,-0.01 1.330884,-0.655699 2.791679,-2.136259 3.508188,-3.555655 1.120764,-2.220221 0.782304,-4.107674 -1.289646,-7.191851 -0.417139,-0.620925 -0.712089,-1.144465 -0.655448,-1.163421 0.05664,-0.01896 0.492048,0.167946 0.967569,0.415339 1.088259,0.566175 1.821262,1.34171 2.383831,2.522154 0.558957,1.172868 0.749645,1.945202 0.816484,3.306973 0.111674,2.275239 -0.454203,3.678923 -2.214115,5.492229 -1.172478,1.20805 -2.308508,1.896613 -3.959875,2.400134 -0.844926,0.257628 -1.114981,0.288356 -2.506008,0.285142 -1.234385,-0.0029 -1.730882,-0.05017 -2.384292,-0.227215 -3.838863,-1.040181 -6.907627,-3.957721 -8.186059,-7.782665 -0.60597,-1.813005 -0.773079,-2.891755 -0.771431,-4.979871 0.0012,-1.478818 0.04851,-2.150937 0.200697,-2.849267 1.285133,-5.897012 5.908979,-10.368355 11.972222,-11.577354 1.406914,-0.280536 4.034583,-0.253693 5.483879,0.05602 4.331683,0.925679 8.002704,3.653014 10.638583,7.903789 1.855905,2.992944 3.238896,6.877303 3.852843,10.821351 0.268791,1.72674 0.328009,5.03792 0.11847,6.624374 -0.489863,3.708846 -1.572828,5.952128 -4.449935,9.217718 -1.591601,1.80651 -4.161595,3.87161 -5.758081,4.62687 -1.968098,0.93106 -5.55862,1.35184 -9.85674,1.15513 z"
     id="path5"
     transform="scale(0.26458333)" />
</svg>
