<?xml version="1.0" encoding="UTF-8" standalone="no"?>
<svg
   width="36.777084mm"
   height="34.564167mm"
   viewBox="0 0 36.777084 34.564167"
   version="1.1"
   id="svg1"
   sodipodi:docname="kage-in-a-fish.svg"
   inkscape:version="1.4.3 (0d15f75, 2025-12-25)"
   xmlns:inkscape="http://www.inkscape.org/namespaces/inkscape"
   xmlns:sodipodi="http://sodipodi.sourceforge.net/DTD/sodipodi-0.dtd"
   xmlns="http://www.w3.org/2000/svg"
   xmlns:svg="http://www.w3.org/2000/svg">
  <defs
     id="defs1" />
  <sodipodi:namedview
     id="namedview1"
     pagecolor="#ffffff"
     bordercolor="#000000"
     borderopacity="0.25"
     inkscape:showpageshadow="2"
     inkscape:pageopacity="0.0"
     inkscape:pagecheckerboard="0"
     inkscape:deskcolor="#d1d1d1"
     inkscape:document-units="mm"
     inkscape:zoom="9.3006364"
     inkscape:cx="69.511372"
     inkscape:cy="65.318111"
     inkscape:window-width="5120"
     inkscape:window-height="1417"
     inkscape:window-x="-8"
     inkscape:window-y="-8"
     inkscape:window-maximized="1"
     inkscape:current-layer="svg1" />
  <g
     transform="translate(-86.611455,-131.21792)"
     id="g1">
    <path
       style="display:inline;fill:#000000"
       d="m 102.36227,159.33202 c -0.44787,-0.19502 -1.22178,-0.7005 -1.71979,-1.12328 -0.49802,-0.42279 -1.744262,-1.03148 -2.769442,-1.35264 -3.12234,-0.97814 -6.04232,-2.98703 -7.30782,-5.02761 -0.44894,-0.72391 -0.48094,-0.93601 -0.19348,-1.28238 0.28767,-0.34662 0.27019,-0.45655 -0.10609,-0.66713 -1.56335,-0.87489 1.19405,-5.24912 4.75,-7.53524 0.75024,-0.48233 1.88133,-1.07885 2.51354,-1.3256 0.63221,-0.24675 1.71892,-0.97308 2.41492,-1.61407 1.463142,-1.34751 3.411652,-2.29834 4.268962,-2.08317 0.64997,0.16313 1.21247,1.15488 1.21247,2.13772 0,0.49342 0.21323,0.69673 0.99219,0.946 2.06052,0.65939 5.19405,2.50088 6.70966,3.94309 l 1.5622,1.48654 0.7813,-0.97222 c 1.0613,-1.32065 2.99842,-2.25746 3.85805,-1.86578 0.34875,0.15889 0.71042,0.59305 0.80372,0.96478 0.21421,0.8535 -0.29372,2.90995 -1.00224,4.05775 l -0.5427,0.87917 0.69495,1.41928 c 0.88509,1.80759 0.98187,4.19083 0.18745,4.61599 -0.86067,0.46062 -2.11411,-0.005 -3.55339,-1.32066 l -1.377,-1.2585 -1.28455,1.29634 c -1.52777,1.54179 -4.91152,3.32164 -6.78822,3.57059 -1.25397,0.16635 -1.306,0.20668 -1.306,1.01229 0,1.4527 -1.04428,1.86267 -2.79869,1.09874 z m 1.96249,-0.38663 c 0.21451,-0.13595 0.31896,-0.57068 0.26459,-1.10112 l -0.0898,-0.87647 1.98437,-0.43276 c 2.64094,-0.57594 4.53447,-1.59186 6.51918,-3.49767 l 1.64004,-1.57485 1.2782,1.32381 c 1.25653,1.30136 2.34519,1.83491 3.1297,1.53387 0.66432,-0.25493 0.48136,-2.04491 -0.38446,-3.76141 l -0.78193,-1.55019 0.8001,-1.62523 c 0.57156,-1.16101 0.77601,-1.91916 0.71578,-2.65429 -0.0748,-0.91303 -0.17007,-1.03885 -0.8449,-1.11596 -0.63512,-0.0726 -1.02107,0.18096 -2.33974,1.53696 l -1.57916,1.62386 -1.23213,-1.28228 c -1.96658,-2.04662 -5.37108,-4.09397 -7.75558,-4.66394 -0.60943,-0.14567 -0.72675,-0.34354 -0.88472,-1.49209 -0.10016,-0.72828 -0.31977,-1.33786 -0.48802,-1.35462 -1.19729,-0.11925 -3.13598,0.84503 -4.18062,2.07939 -0.342762,0.40501 -1.675642,1.24041 -2.961962,1.85643 -2.73001,1.30743 -5.40454,3.75598 -6.29062,5.75911 l -0.5451,1.23229 0.57211,0.60899 c 0.48286,0.51398 0.52134,0.69027 0.24671,1.13003 -0.27751,0.44437 -0.21896,0.66061 0.39786,1.4693 1.10892,1.45387 4.03546,3.30713 6.5643,4.15692 1.39505,0.46879 2.593182,1.06849 3.146202,1.57478 0.49122,0.44971 1.25033,0.92218 1.68689,1.04992 1.04762,0.30654 1.00585,0.30514 1.41276,0.0472 z m -3.26485,-4.93425 c -0.58208,-0.2097 -1.085672,-0.38307 -1.119102,-0.38526 -0.0334,-0.002 -0.30131,-0.47549 -0.59531,-1.05177 -0.74818,-1.46655 -0.70066,-3.27458 0.12691,-4.82918 0.36381,-0.6834 0.663092,-1.51589 0.665082,-1.84997 0.0104,-1.74911 0.62102,-2.20468 1.82484,-1.3615 0.43975,0.30802 1.18682,0.43656 2.53717,0.43656 1.35034,0 2.09741,-0.12854 2.53717,-0.43656 1.16873,-0.81861 1.82845,-0.45296 1.82845,1.01342 0,0.33712 0.36888,1.30965 0.81973,2.16117 0.70666,1.33466 0.80054,1.73983 0.68058,2.93729 -0.16024,1.59955 0.12653,1.77125 0.88384,0.52916 0.67523,-1.10744 0.6619,-1.75719 -0.0668,-3.25705 -0.57199,-1.17731 -0.57577,-1.23332 -0.10658,-1.5764 0.68886,-0.50371 1.12475,-0.24393 1.60511,0.95662 0.91012,2.27461 0.23387,4.67864 -1.60578,5.70846 -2.38172,1.33327 -7.63964,1.86089 -10.01533,1.00501 z m 3.83646,-5.12335 c 0,-0.0988 -0.23812,-0.17958 -0.52916,-0.17958 -0.52802,0 -0.67038,0.18637 -0.37101,0.48574 0.18987,0.18987 0.90017,-0.0517 0.90017,-0.30616 z m -1.97349,-1.06912 c -0.22382,-0.36215 -1.38232,-0.3672 -1.60494,-0.007 -0.10941,0.17703 0.0635,0.21657 0.48469,0.11085 0.37929,-0.0952 0.73371,-0.0366 0.84241,0.13929 0.10321,0.167 0.24719,0.2441 0.31995,0.17134 0.0728,-0.0728 0.0538,-0.25928 -0.0421,-0.41448 z m 3.89672,0.28505 c 0.40383,0.21613 0.49284,0.19867 0.40044,-0.0785 -0.16164,-0.48492 -1.32401,-0.45304 -1.4748,0.0404 -0.0956,0.31285 -0.0497,0.32947 0.21693,0.0785 0.24434,-0.23001 0.48228,-0.24123 0.85743,-0.0405 z m -11.183642,5.66559 c 0,-0.0644 0.26789,-0.57045 0.59531,-1.12448 0.50509,-0.85464 0.5952,-1.38825 0.59458,-3.52085 -6.2e-4,-2.11998 -0.0967,-2.69362 -0.61377,-3.66366 -0.33717,-0.63256 -0.55312,-1.21003 -0.47989,-1.28326 0.28784,-0.28785 0.68719,0.25843 1.20955,1.65458 0.78771,2.10534 0.7444,4.84012 -0.10557,6.66578 -0.35569,0.76398 -0.77124,1.38906 -0.92346,1.38906 -0.15221,0 -0.27675,-0.0527 -0.27675,-0.11717 z m -2.24484,-5.53564 c -0.57662,-0.42163 -0.32011,-1.49094 0.35767,-1.49094 0.53748,0 1.09342,0.49301 1.09342,0.96965 0,0.5732 -0.92544,0.90565 -1.45109,0.52129 z"
       id="path1-09" />
  </g>
  <path
     style="fill:#ffffff;stroke-width:3.35042"
     d="m 63.866597,105.20093 c -3.402316,-0.88652 -5.40271,-1.9338 -8.23671,-4.31221 -2.054469,-1.724198 -4.426667,-3.117415 -7.622419,-4.476728 -1.395214,-0.593454 -2.107203,-0.862067 -5.909967,-2.229656 -5.038125,-1.811863 -11.293029,-5.124053 -16.002744,-8.474012 -4.511556,-3.209011 -7.568739,-6.280831 -9.133436,-9.177164 -0.661499,-1.224469 -0.638915,-1.653988 0.167085,-3.177657 0.433252,-0.819024 0.612315,-1.27663 0.612315,-1.564803 0,-0.827514 -0.554727,-1.611244 -2.762672,-3.903155 -0.491145,-0.509823 -0.892991,-0.996823 -0.892991,-1.082223 0,-0.234535 2.277687,-5.279145 2.855158,-6.32359 2.857755,-5.168687 8.857837,-11.236187 15.597738,-15.772999 2.502673,-1.684617 4.119536,-2.616693 7.886068,-4.546098 6.256851,-3.205071 9.052645,-5.030302 11.108119,-7.251923 3.731181,-4.032775 9.985914,-7.239368 14.246735,-7.303825 1.001276,-0.01515 1.009244,-0.01319 1.309437,0.322242 0.55867,0.624243 1.120232,2.507728 1.505423,5.049198 0.294683,1.944305 0.582114,3.144669 0.904796,3.778598 0.472505,0.928263 0.913509,1.19939 2.768278,1.701922 3.215747,0.871276 6.272747,2.073951 9.824347,3.865063 5.366066,2.706167 10.384985,5.994547 14.945214,9.792059 1.318154,1.097688 4.426239,4.128528 7.519589,7.332709 l 1.37958,1.429004 2.58191,-2.665479 c 6.08995,-6.287047 8.01433,-8.07218 9.48523,-8.798846 1.03831,-0.512958 1.70703,-0.622582 2.90302,-0.475901 2.44477,0.299836 2.89047,1.060179 2.89731,4.942714 0.003,1.937737 -0.0181,2.178116 -0.28313,3.171826 -0.60236,2.258058 -1.1555,3.570623 -3.63359,8.622293 l -1.75071,3.568876 1.82618,3.634932 c 2.42689,4.830594 3.20485,6.865974 3.81222,9.973934 0.3134,1.603652 0.33588,3.804359 0.0486,4.758224 -0.38517,1.278928 -1.14548,1.834435 -2.64808,1.934772 -2.23415,0.149185 -5.10361,-1.274376 -8.3347,-4.134907 -0.53115,-0.470242 -2.2721,-2.204812 -3.86876,-3.854602 -1.59667,-1.649789 -2.95958,-2.999617 -3.02869,-2.999617 -0.0691,0 -1.56901,1.383715 -3.33311,3.074921 -3.860016,3.700535 -4.679933,4.458006 -6.217987,5.744414 -5.754266,4.812798 -11.520489,7.764151 -18.875313,9.661044 -1.031775,0.266105 -3.690347,0.878562 -5.907937,1.361015 -2.21759,0.482452 -4.039654,0.884541 -4.049028,0.89353 -0.0094,0.009 0.07886,0.887252 0.19608,1.951696 0.305126,2.770779 0.172399,4.230989 -0.466494,5.132119 -0.114542,0.16155 -0.512633,0.46395 -0.884647,0.67199 -0.801048,0.44798 -1.299982,0.47871 -2.537317,0.1563 z m 7.741406,-17.627008 c 9.781095,-0.792326 18.413125,-3.179559 22.470032,-6.214207 6.107455,-4.568495 7.786005,-13.745655 3.987178,-21.799162 -1.715464,-3.636782 -3.268246,-4.229621 -5.898877,-2.25214 -0.775088,0.582644 -0.98978,0.927554 -0.98978,1.590115 0,0.645171 0.243325,1.302618 1.341286,3.624075 1.890538,3.997229 2.358408,5.470385 2.356202,7.418847 -0.0018,1.549759 -0.175487,2.227734 -1.005651,3.924463 -1.103347,2.255073 -2.8286,4.56958 -3.406205,4.56958 -0.768987,0 -0.943032,-1.411248 -0.619244,-5.021159 0.207642,-2.314981 0.150354,-4.220081 -0.165236,-5.494883 -0.306857,-1.239531 -1.037215,-2.977201 -2.155363,-5.128049 -1.61758,-3.111544 -2.707549,-5.723267 -3.110342,-7.452831 -0.119595,-0.51353 -0.263923,-1.538489 -0.320728,-2.277686 -0.177157,-2.305271 -0.734588,-3.557157 -1.831238,-4.112622 -1.225675,-0.620815 -2.549792,-0.28864 -5.012156,1.257377 -1.143118,0.717716 -2.394148,1.14751 -4.14248,1.423158 -1.026287,0.161808 -1.910247,0.193863 -5.368101,0.194659 -4.416141,0.001 -5.445758,-0.07557 -7.288048,-0.54211 -1.014686,-0.256959 -1.617411,-0.543123 -3.246271,-1.541277 -1.177015,-0.721266 -2.134254,-1.017442 -3.11015,-0.962298 -0.556702,0.03146 -0.826954,0.105398 -1.124081,0.307551 -1.12359,0.764444 -1.715411,2.474467 -1.850615,5.347207 -0.110361,2.344892 -0.572086,3.821257 -2.361999,7.552476 -1.253672,2.613379 -1.863216,4.278157 -2.282467,6.233835 -0.269076,1.255155 -0.28849,1.524612 -0.286782,3.980519 0.002,2.922525 0.120679,3.784108 0.820715,5.959763 0.365657,1.136434 1.868044,4.252529 2.743573,5.690439 l 0.514203,0.844491 2.419189,0.849974 c 4.065645,1.42845 6.077326,1.845139 10.321874,2.138017 1.594905,0.110049 6.700544,0.04587 8.601562,-0.108122 z M 35.761412,85.289863 c 0.576361,-0.609292 0.858671,-1.010366 1.596789,-2.26853 1.829418,-3.118357 2.903534,-6.263606 3.512155,-10.284375 0.223631,-1.477382 0.25247,-2.050996 0.254064,-5.053418 0.0019,-3.642293 -0.10403,-4.864456 -0.661872,-7.633886 -0.92109,-4.572797 -3.387622,-10.326352 -4.79465,-11.184245 -0.407778,-0.24863 -0.804058,-0.267509 -1.088912,-0.05188 -0.169308,0.128165 -0.192952,0.243847 -0.140447,0.687168 0.08038,0.678682 0.862617,2.59895 1.734965,4.259061 1.203017,2.289387 1.753029,3.938695 2.060906,6.180003 0.224269,1.632638 0.352399,7.269607 0.251781,11.076881 -0.14811,5.604345 -0.472794,6.990444 -2.423548,10.346312 -1.124171,1.933904 -1.978954,3.589344 -1.978954,3.8326 0,0.326695 0.329798,0.509474 0.972169,0.53879 0.191458,0.0087 0.40273,-0.12436 0.705554,-0.444485 z M 29.273431,64.674296 c 1.246174,-0.468152 2.037944,-1.613656 1.864606,-2.69765 -0.337843,-2.112746 -3.174033,-3.891177 -5.05807,-3.171656 -0.987454,0.377112 -1.673035,1.585913 -1.673035,2.949856 0,1.620123 0.846633,2.754299 2.33688,3.130555 0.607529,0.153388 1.831207,0.05127 2.529619,-0.211105 z"
     id="path1"
     transform="scale(0.26458333)" />
  <path
     style="fill:#ffffff;stroke-width:3.35042"
     d="m 60.796044,63.76688 c -0.368219,-0.380173 -0.709199,-0.623539 -0.978356,-0.698278 -0.580952,-0.161316 -1.801724,-0.14074 -2.563541,0.04321 -1.338449,0.323181 -1.992588,0.147668 -1.549421,-0.415727 0.938781,-1.193467 4.746689,-1.230022 5.735355,-0.05506 0.379662,0.451202 0.560103,1.096268 0.403064,1.440929 -0.183135,0.401939 -0.422353,0.329958 -1.047101,-0.315073 z"
     id="path2"
     transform="scale(0.26458333)" />
  <path
     style="fill:#ffffff;stroke-width:3.35042"
     d="m 65.784772,67.908146 c -0.143668,-0.113009 -0.352278,-0.374565 -0.463577,-0.581234 -0.186394,-0.346114 -0.188988,-0.396172 -0.03287,-0.634432 0.09322,-0.142268 0.361396,-0.316167 0.595951,-0.386441 0.613905,-0.183931 1.919768,-0.150621 2.551905,0.06509 0.715951,0.244316 0.759093,0.50696 0.166579,1.014129 -0.794129,0.679745 -2.270342,0.953661 -2.817984,0.522885 z"
     id="path3"
     transform="scale(0.26458333)" />
  <path
     style="fill:#ffffff;stroke-width:3.35042"
     d="m 72.25312,64.289977 c 0,-0.501402 0.387688,-1.154241 0.871891,-1.468204 0.603406,-0.391256 1.403181,-0.553293 2.435856,-0.493512 1.141685,0.06609 1.806809,0.394828 2.151953,1.063602 0.299514,0.580358 0.280669,0.9148 -0.04962,0.880542 -0.128699,-0.01335 -0.660764,-0.227146 -1.182367,-0.475105 -1.503763,-0.714858 -2.349402,-0.702849 -3.269479,0.04643 -0.987457,0.804152 -0.958236,0.790543 -0.958236,0.446246 z"
     id="path4"
     transform="scale(0.26458333)" />
</svg>
