<?xml version="1.0" encoding="UTF-8" standalone="no"?>
<svg
   width="36.777084mm"
   height="34.564167mm"
   viewBox="0 0 36.777084 34.564167"
   version="1.1"
   id="svg1"
   sodipodi:docname="kage-house-peeking.svg"
   inkscape:version="1.4.3 (0d15f75, 2025-12-25)"
   xmlns:inkscape="http://www.inkscape.org/namespaces/inkscape"
   xmlns:sodipodi="http://sodipodi.sourceforge.net/DTD/sodipodi-0.dtd"
   xmlns="http://www.w3.org/2000/svg"
   xmlns:svg="http://www.w3.org/2000/svg">
  <defs
     id="defs1" />
  <sodipodi:namedview
     id="namedview1"
     pagecolor="#ffffff"
     bordercolor="#000000"
     borderopacity="0.25"
     inkscape:showpageshadow="2"
     inkscape:pageopacity="0.0"
     inkscape:pagecheckerboard="0"
     inkscape:deskcolor="#d1d1d1"
     inkscape:document-units="mm"
     inkscape:zoom="9.3006364"
     inkscape:cx="69.511372"
     inkscape:cy="65.318111"
     inkscape:window-width="5120"
     inkscape:window-height="1417"
     inkscape:window-x="-8"
     inkscape:window-y="-8"
     inkscape:window-maximized="1"
     inkscape:current-layer="svg1" />
  <g
     transform="translate(-86.611455,-131.21792)"
     id="g1">
    <path
       style="display:inline;fill:#000000"
       d="m 94.880364,161.00879 c -0.34209,-0.48841 -0.41187,-1.56182 -0.41187,-6.3355 v -5.74747 l -1.25047,-0.0806 c -1.00196,-0.0646 -1.31135,-0.20339 -1.55688,-0.69829 -0.16854,-0.3397 -0.25083,-0.83026 -0.18288,-1.09011 0.11254,-0.43035 8.772186,-8.29208 11.743586,-10.66151 0.68435,-0.54571 1.53623,-0.99219 1.89307,-0.99219 0.42426,0 1.37265,0.63263 2.74025,1.82788 l 2.09144,1.82789 0.0878,-0.83464 c 0.13234,-1.25847 0.47433,-1.49866 2.12745,-1.49416 2.23252,0.006 2.27053,0.0602 2.36083,3.35933 l 0.0781,2.85432 1.9724,1.87661 c 1.46116,1.3902 1.97239,2.05393 1.97239,2.56079 0,0.97452 -0.66303,1.51573 -1.85691,1.51573 h -1.02537 l -0.0802,5.91312 c -0.0615,4.52954 -0.16519,6.01534 -0.44334,6.35 -0.32552,0.39163 -1.37212,0.43688 -10.10531,0.43688 h -9.742186 z m 6.393786,-0.47132 c -1.05329,-0.82852 -1.778576,-2.59079 -1.778576,-4.32152 0,-1.16381 -0.15021,-1.73661 -0.65571,-2.50048 -0.36064,-0.54496 -0.73271,-1.37585 -0.82682,-1.84641 l -0.17112,-0.85556 h 1.63609 c 1.419816,0 1.765866,-0.1043 2.617936,-0.78904 0.54001,-0.43396 1.54168,-0.97979 2.22592,-1.21293 0.99301,-0.33835 1.36678,-0.64634 1.85207,-1.52607 0.84326,-1.52866 1.41971,-1.45158 2.64012,0.35304 l 0.98412,1.4552 0.008,5.88698 0.008,5.88698 2.18281,-0.004 c 1.20055,-0.002 2.36141,-0.11682 2.57969,-0.25465 0.32964,-0.20814 0.41172,-1.28088 0.48452,-6.33233 l 0.0876,-6.08173 1.20817,-0.0798 c 0.80815,-0.0534 1.30475,-0.23523 1.49986,-0.54929 0.24845,-0.39992 -0.0319,-0.78784 -1.89113,-2.61703 l -2.18281,-2.14751 v -2.73574 c 0,-2.69938 -0.009,-2.73795 -0.6632,-2.90219 -0.36476,-0.0915 -1.07913,-0.0884 -1.5875,0.007 -0.88953,0.16688 -0.9243,0.21715 -0.9243,1.33642 0,0.63967 -0.0893,1.21777 -0.19844,1.28467 -0.10914,0.0669 -1.15094,-0.71094 -2.3151,-1.72854 -2.8671,-2.50615 -2.88388,-2.51317 -4.05662,-1.69749 -1.87009,1.30073 -11.813536,10.35957 -11.907656,10.84831 -0.12717,0.66031 0.38988,0.94503 1.72504,0.94992 l 1.10659,0.004 0.084,6.01927 c 0.0462,3.3106 0.18036,6.1681 0.29809,6.35 0.15177,0.23451 1.14361,0.33073 3.40912,0.33073 h 3.195056 z m 1.77165,-4.65749 c 0.63028,-0.24186 0.50246,-0.81042 -0.17679,-0.78645 -0.48124,0.017 -0.59326,-0.1191 -0.58461,-0.71017 0.0119,-0.81621 -0.31703,-0.83015 -0.84446,-0.0358 -0.29447,0.44349 -0.2852,0.61927 0.0585,1.10998 0.41851,0.59751 0.81152,0.70481 1.54735,0.42244 z m 2.91961,-0.9402 c 0.67074,-0.30561 0.91356,-0.75128 0.40933,-0.75128 -0.14552,0 -0.26459,0.11532 -0.26459,0.25628 0,0.14095 -0.16323,0.19364 -0.36273,0.11708 -0.1995,-0.0766 -0.43389,0.0462 -0.52086,0.27289 -0.18935,0.49342 -0.13159,0.50163 0.73885,0.10503 z m 2.73766,-1.86253 c 0.17462,-0.17463 0.3175,-0.56754 0.3175,-0.87313 0,-1.14746 -1.57491,-1.67373 -2.09585,-0.70034 -0.22774,0.42552 -0.17699,0.47395 0.38427,0.36665 0.76551,-0.14633 1.15231,0.52611 0.65045,1.13081 -0.26302,0.31693 -0.25333,0.39351 0.0498,0.39351 0.207,0 0.51923,-0.14288 0.69386,-0.3175 z"
       id="path1-59" />
  </g>
  <path
     style="fill:#ffffff;stroke-width:3.35042"
     d="m 39.352146,112.66274 c -3.878013,-0.16674 -6.089224,-0.5998 -6.330363,-1.23978 -0.381826,-1.01336 -0.825302,-9.8884 -1.035868,-20.730241 -0.05425,-2.793472 -0.372944,-24.540563 -0.374606,-25.562767 l -5.69e-4,-0.349439 h -2.349816 c -5.053861,0 -7.009509,-0.401698 -8.012177,-1.645733 -0.279948,-0.347338 -0.336066,-0.519183 -0.370907,-1.135783 l -0.04105,-0.726523 0.645476,-0.799569 c 2.501705,-3.098932 21.054914,-20.324286 34.159387,-31.714594 7.295851,-6.341498 10.527453,-8.897188 12.542143,-9.918866 0.588314,-0.298343 0.793708,-0.346087 1.488859,-0.346087 1.719924,0 3.21235,1.018437 9.626274,6.56901 4.177779,3.615425 4.856049,4.184733 6.669935,5.598434 1.782045,1.388882 3.236538,2.375357 3.697034,2.507426 0.294604,0.08449 0.345434,0.06375 0.475112,-0.193839 0.363313,-0.721681 0.495615,-1.777289 0.602135,-4.804274 0.05202,-1.478393 0.148493,-2.867924 0.214375,-3.087847 0.279561,-0.933221 0.927236,-1.315077 2.907801,-1.714379 1.051007,-0.211893 1.565145,-0.249283 3.439851,-0.25016 3.620348,-0.0017 4.567598,0.385029 5.001318,2.04184 0.24929,0.952249 0.36581,4.952787 0.37056,12.722494 l 0.004,6.7014 6.76156,6.73854 c 3.71887,3.706197 7.07772,7.143192 7.46413,7.637768 0.89447,1.144863 1.37644,2.04356 1.38385,2.580367 0.0207,1.502373 -1.76195,2.570677 -4.86788,2.917167 -0.55613,0.06204 -2.01928,0.180437 -3.25144,0.263105 -1.23216,0.08267 -2.2688,0.178817 -2.30365,0.213667 -0.0349,0.03485 -0.12421,4.357 -0.19858,9.604777 -0.41629,29.374396 -0.57327,33.615866 -1.33544,36.083496 -0.3548,1.14871 -0.6212,1.32021 -2.5236,1.62462 -2.12547,0.34009 -3.512,0.40527 -9.703634,0.45609 l -6.370531,0.0523 V 90.549268 68.343176 l -2.0593,-3.044686 C 83.00854,61.353847 81.97915,59.974793 80.915854,58.920699 79.88296,57.896745 79.148113,57.469548 78.285009,57.391285 c -1.446425,-0.131158 -2.686273,1.023623 -4.470357,4.163643 -1.844256,3.245922 -3.058367,4.228804 -7.045125,5.703371 -2.957394,1.09384 -5.810973,2.674639 -8.582511,4.75446 -3.413263,2.561386 -4.29596,2.76707 -11.874936,2.76707 -3.724233,0 -3.960689,0.01138 -3.909641,0.188159 0.02988,0.103488 0.20703,0.958573 0.393659,1.90019 0.186628,0.941616 0.507133,2.199594 0.712232,2.795507 0.478738,1.390967 1.757594,3.993098 2.672597,5.438018 0.907759,1.433483 1.237228,2.08257 1.647434,3.245613 0.514413,1.458494 0.663601,2.488206 0.775988,5.355949 0.05678,1.448826 0.153171,3.069683 0.214205,3.601904 0.465465,4.058951 2.067432,8.311361 4.17199,11.074511 0.827047,1.08586 1.726542,1.96411 3.21519,3.13925 0.783549,0.61853 1.424634,1.14501 1.424634,1.16995 0,0.0486 -17.109172,0.0241 -18.278319,-0.0261 z"
     id="path1"
     transform="scale(0.26458333)" />
  <path
     style="fill:#ffffff;stroke-width:3.35042"
     d="m 80.424604,83.733623 c -0.572456,-0.101973 -0.532631,-0.267153 0.33865,-1.404588 1.188977,-1.552178 1.058056,-3.286714 -0.303721,-4.023924 -0.722699,-0.39124 -1.302956,-0.44743 -2.593882,-0.251185 -1.133453,0.172306 -1.526789,0.121007 -1.526789,-0.199127 0,-0.381453 0.797411,-1.697544 1.305087,-2.153989 0.572987,-0.515164 1.587703,-0.920981 2.302851,-0.920981 1.99302,0 3.968104,1.479264 4.514932,3.381514 0.461638,1.605901 -0.202197,3.814936 -1.427202,4.749279 -0.720245,0.549349 -1.956934,0.93932 -2.609926,0.823001 z"
     id="path2"
     transform="scale(0.26458333)" />
  <path
     style="fill:#ffffff;stroke-width:3.35042"
     d="m 70.1418,90.53193 c -0.18311,-0.477178 0.519461,-1.872991 1.075587,-2.13689 0.435348,-0.206586 0.628754,-0.215026 1.323209,-0.05774 0.67072,0.151907 1.078792,0.0089 1.168476,-0.409403 0.123388,-0.575548 0.267449,-0.795563 0.614039,-0.937783 0.427951,-0.175605 0.974888,-0.104619 1.211915,0.157292 0.164196,0.181435 0.163396,0.223616 -0.01122,0.591601 -0.340324,0.717181 -1.427022,1.453593 -3.3782,2.289275 -1.523248,0.6524 -1.909469,0.749476 -2.003801,0.503651 z"
     id="path3"
     transform="scale(0.26458333)" />
  <path
     style="fill:#ffffff;stroke-width:3.35042"
     d="m 58.557004,93.542194 c -0.667574,-0.256028 -1.412788,-0.89264 -2.061321,-1.76092 -1.106345,-1.481214 -1.34467,-2.188854 -1.037044,-3.079214 0.361177,-1.045354 1.821907,-2.973949 2.50194,-3.303298 0.804559,-0.38966 1.116759,0.174144 1.217592,2.19886 0.116737,2.344092 0.280479,2.553592 2.089118,2.672945 1.223746,0.08075 1.611701,0.207698 2.041662,0.668055 0.479893,0.513821 0.240368,1.336399 -0.539404,1.852428 -1.064675,0.704568 -3.296389,1.102508 -4.212543,0.751144 z"
     id="path4"
     transform="scale(0.26458333)" />
</svg>
