<?xml version="1.0" encoding="UTF-8" standalone="no"?>
<svg
   width="36.777084mm"
   height="34.564167mm"
   viewBox="0 0 36.777084 34.564167"
   version="1.1"
   id="svg1"
   sodipodi:docname="kage-in-cute-box.svg"
   inkscape:version="1.4.3 (0d15f75, 2025-12-25)"
   xmlns:inkscape="http://www.inkscape.org/namespaces/inkscape"
   xmlns:sodipodi="http://sodipodi.sourceforge.net/DTD/sodipodi-0.dtd"
   xmlns="http://www.w3.org/2000/svg"
   xmlns:svg="http://www.w3.org/2000/svg">
  <defs
     id="defs1" />
  <sodipodi:namedview
     id="namedview1"
     pagecolor="#ffffff"
     bordercolor="#000000"
     borderopacity="0.25"
     inkscape:showpageshadow="2"
     inkscape:pageopacity="0.0"
     inkscape:pagecheckerboard="0"
     inkscape:deskcolor="#d1d1d1"
     inkscape:document-units="mm"
     inkscape:zoom="9.3006364"
     inkscape:cx="69.511372"
     inkscape:cy="65.318111"
     inkscape:window-width="5120"
     inkscape:window-height="1417"
     inkscape:window-x="-8"
     inkscape:window-y="-8"
     inkscape:window-maximized="1"
     inkscape:current-layer="svg1" />
  <g
     transform="translate(-86.611455,-131.21792)"
     id="g1">
    <path
       style="display:inline;fill:#000000"
       d="m 99.140077,160.48205 -6.35,-0.15196 -0.0741,-3.37343 -0.074,-3.37344 h -1.34587 c -1.63876,0 -1.63388,-0.0861 0.17727,-3.13087 0.9614,-1.61623 1.48179,-2.21485 2.21289,-2.54557 l 0.9559,-0.43241 3e-5,-2.1711 c 3e-5,-1.9426 0.0868,-2.32424 0.82456,-3.6263 0.45349,-0.80037 0.90974,-1.87193 1.0139,-2.38125 0.43286,-2.11676 0.71383,-2.91042 1.03032,-2.91042 0.18418,0 0.87845,0.34472 1.54282,0.76605 1.094763,0.69428 1.366103,0.75337 2.896073,0.63065 0.92847,-0.0745 2.16172,-0.005 2.74055,0.15529 0.94406,0.26077 1.15297,0.22416 2.02911,-0.35565 0.53718,-0.35549 1.28219,-0.72302 1.65558,-0.81673 0.77788,-0.19524 1.01874,0.22289 1.32313,2.29685 0.17155,1.16887 0.25537,1.26618 1.95429,2.2689 1.2817,0.75646 2.02896,1.42817 2.68859,2.41677 0.82807,1.24103 1.00585,1.36912 1.9002,1.36912 0.92344,0 1.07257,0.12194 2.32761,1.90331 0.73752,1.04681 1.34095,2.05684 1.34095,2.2445 0,0.18766 -0.59532,0.64286 -1.32292,1.01157 l -1.32292,0.67037 v 2.89839 2.89839 l -3.9026,1.90234 c -4.52562,2.20603 -3.6282,2.09013 -14.221363,1.83663 z m 9.622713,-3.3931 c -0.019,-1.56435 -0.10831,-3.73724 -0.19843,-4.82865 l -0.16386,-1.98437 -0.92604,1.81505 -0.92604,1.81506 -6.680733,-0.12538 -6.68073,-0.12537 v 2.96258 c 0,1.62941 0.0794,3.04195 0.17639,3.13896 0.097,0.097 3.60936,0.17639 7.805213,0.17639 h 7.62882 z m -12.904113,0.66146 c -0.40609,-1.09075 0.46689,-2.32417 1.39336,-1.96864 0.63219,0.24259 0.52875,0.62497 -0.16248,0.60058 -0.46567,-0.0164 -0.61427,0.14503 -0.68239,0.74144 -0.0791,0.69228 -0.0243,0.75045 0.59531,0.63201 0.46317,-0.0885 0.6824,-0.0147 0.6824,0.22973 0,0.22467 -0.30186,0.36019 -0.80228,0.36019 -0.58993,0 -0.86094,-0.15757 -1.02392,-0.59531 z m 2.79633,0.41892 c -0.28097,-0.28097 -0.20401,-2.20486 0.0882,-2.20486 0.14552,0 0.26458,0.41672 0.26458,0.92604 0,0.61515 0.12374,0.92604 0.36857,0.92604 0.40455,0 0.689773,-0.55596 0.689773,-1.34455 0,-0.27914 0.11906,-0.50753 0.26458,-0.50753 0.34631,0 0.34025,1.21632 -0.009,1.86948 -0.26337,0.49211 -1.300853,0.70092 -1.666393,0.33538 z m 3.175003,0 c -0.097,-0.097 -0.17638,-0.57326 -0.17638,-1.05833 0,-0.48507 -0.10786,-0.88195 -0.23969,-0.88195 -0.13183,0 -0.10207,-0.29673 0.0661,-0.65939 0.33837,-0.72953 0.70271,-0.8746 0.70271,-0.2798 0,0.21105 0.20836,0.50509 0.46302,0.65342 0.44098,0.25684 0.44098,0.27006 0,0.27773 -0.33629,0.006 -0.46302,0.22529 -0.46302,0.80179 0,0.52917 0.13229,0.79375 0.39688,0.79375 0.21828,0 0.39687,0.11906 0.39687,0.26459 0,0.29558 -0.87205,0.36266 -1.14653,0.0882 z m 2.00513,-0.12918 c -0.84568,-0.84568 0.25799,-2.60589 1.36707,-2.1803 0.74963,0.28766 0.40775,1.26789 -0.50588,1.45042 -0.64907,0.12967 -0.70863,0.19569 -0.32677,0.36225 0.25684,0.11202 0.71012,0.1401 1.0073,0.0624 0.34235,-0.0895 0.50308,-0.0277 0.43869,0.16862 -0.14253,0.43462 -1.58304,0.534 -1.98041,0.13663 z m 1.25807,-1.54651 c 0,-0.14553 -0.11204,-0.26459 -0.24897,-0.26459 -0.13693,0 -0.32255,0.11906 -0.41249,0.26459 -0.0899,0.14552 0.0221,0.26458 0.24897,0.26458 0.22687,0 0.41249,-0.11906 0.41249,-0.26458 z m 11.32148,-0.11721 c 0.24226,-0.22691 0.31902,-1.01967 0.26458,-2.73256 l -0.0767,-2.41292 -2.09467,0.91155 c -1.15207,0.50135 -2.24543,0.91155 -2.42968,0.91155 -0.18426,0 -0.78351,-0.56555 -1.33168,-1.25677 -0.54816,-0.69122 -1.09191,-1.36988 -1.20833,-1.50812 -0.11642,-0.13825 -0.21168,1.96694 -0.21168,4.67819 v 4.92954 l 3.37344,-1.60041 c 1.85539,-0.88022 3.52701,-1.74425 3.71471,-1.92005 z m -9.07419,-5.19916 1.11052,-2.00908 -7.51878,-0.17758 c -4.135343,-0.0977 -7.627493,-0.1104 -7.760343,-0.0283 -0.24806,0.15332 -2.36619,3.67249 -2.36619,3.93132 0,0.17958 5.06105,0.32034 10.953283,0.30463 l 4.47098,-0.0119 z m 8.27349,-0.13509 c 1.85342,-0.81548 3.46894,-1.57538 3.59006,-1.68865 0.29898,-0.27961 -1.97077,-3.42973 -2.46917,-3.42689 -0.6195,0.004 -6.9843,2.81258 -7.08978,3.12902 -0.0867,0.26016 2.20603,3.46923 2.47863,3.46923 0.0662,0 1.63685,-0.66722 3.49026,-1.48271 z m -14.09266,-6.71938 c 0.0931,-0.15065 -0.13474,-0.26458 -0.52916,-0.26458 -0.39442,0 -0.62228,0.11393 -0.52917,0.26458 0.0899,0.14552 0.32806,0.26459 0.52917,0.26459 0.2011,0 0.43923,-0.11907 0.52916,-0.26459 z m 3.99903,-1.69337 c -0.22575,-0.89945 -1.31134,-1.19208 -2.02531,-0.54594 -0.28518,0.25808 -0.51668,0.65915 -0.51446,0.89126 0.003,0.33301 0.0514,0.34738 0.22836,0.0681 0.37011,-0.58389 1.47457,-0.26589 1.57637,0.45388 0.0802,0.56712 0.12926,0.5889 0.49732,0.22083 0.26946,-0.26945 0.35031,-0.63955 0.23772,-1.08816 z m -6.137103,-0.25138 c -0.41462,-1.08048 -1.92156,-1.08636 -2.33494,-0.009 -0.22984,0.59894 0.007,0.77865 0.4945,0.37445 0.50674,-0.42055 1.20039,-0.16793 1.20039,0.43717 0,0.41546 0.0409,0.42102 0.4066,0.0553 0.23383,-0.23383 0.33302,-0.59832 0.23345,-0.8578 z"
       id="path1-77" />
  </g>
  <path
     style="fill:#ffffff;stroke-width:3.35042"
     d="M 95.842566,80.027362 C 93.92031,78.258463 87.500221,69.139347 87.142977,67.670436 c -0.06175,-0.253912 -0.001,-0.326581 0.611636,-0.731866 2.711295,-1.793576 18.186827,-8.710496 23.904417,-10.684277 1.68985,-0.58336 2.20357,-0.67436 2.61266,-0.46281 2.06255,1.066585 8.62501,10.042792 8.91323,12.19161 0.0561,0.418031 0.0408,0.445157 -0.41162,0.731967 -1.24708,0.790569 -9.32401,4.492196 -18.1568,8.321201 -3.4227,1.483736 -7.624199,3.251283 -8.033027,3.379449 -0.18672,0.05854 -0.346014,-0.02496 -0.740907,-0.388348 z"
     id="path1"
     transform="scale(0.26458333)" />
  <path
     style="fill:#ffffff;stroke-width:3.35042"
     d="m 85.939813,93.837665 c 0.05092,-13.58296 0.120434,-17.029682 0.402784,-19.971752 0.132283,-1.378378 0.196575,-1.687923 0.333063,-1.603569 0.05473,0.03382 1.343067,1.618058 2.862977,3.520521 3.807905,4.766336 5.82108,6.771278 6.785714,6.757965 0.906137,-0.01251 4.942109,-1.57591 12.102629,-4.688169 2.65756,-1.155084 4.8418,-2.089182 4.85387,-2.075774 0.0121,0.01341 0.10612,2.637102 0.209,5.830432 0.30757,9.546714 0.11514,12.357339 -0.91632,13.383716 -0.53124,0.528619 -2.87218,1.802902 -8.01079,4.360648 -4.34887,2.164647 -18.393243,8.866717 -18.580458,8.866717 -0.05662,0 -0.07414,-5.93316 -0.04247,-14.380735 z"
     id="path2"
     transform="scale(0.26458333)" />
  <path
     style="fill:#ffffff;stroke-width:3.35042"
     d="m 35.965281,108.3163 c -4.189804,-0.0846 -8.800926,-0.26528 -9.819834,-0.38485 -0.691797,-0.0812 -0.701655,-0.1 -0.865775,-1.6502 -0.249423,-2.35597 -0.332214,-5.68376 -0.333654,-13.411261 l -0.0015,-7.983325 h 1.129583 c 0.621271,0 6.197502,0.09712 12.391626,0.215829 6.194122,0.118705 16.28234,0.312241 22.418262,0.430078 6.135922,0.117837 11.918114,0.214249 12.849316,0.214249 h 1.693094 l 3.439892,-6.745879 c 1.891941,-3.710234 3.451797,-6.649549 3.466347,-6.531811 0.06273,0.507606 0.674804,8.323963 0.774521,9.890825 0.32384,5.088555 0.514237,11.202693 0.61021,19.595435 l 0.07408,6.47805 -21.870219,-0.0173 c -12.02862,-0.01 -23.708802,-0.0545 -25.95596,-0.0998 z m 4.106369,-5.84842 c 0.754808,-0.0829 1.240171,-0.30194 1.589969,-0.71765 0.238197,-0.28308 0.281078,-0.41822 0.231537,-0.72969 -0.100791,-0.63368 -0.475476,-0.86645 -1.391171,-0.86423 -0.425436,10e-4 -1.184783,0.0693 -1.687437,0.15163 -1.051867,0.17236 -1.447048,0.12726 -1.66965,-0.19055 -0.188007,-0.268421 -0.204646,-1.105571 -0.04559,-2.293723 0.266607,-1.991583 0.7822,-2.614483 2.165133,-2.615751 0.96155,-8.82e-4 1.922444,-0.177749 2.23752,-0.41185 0.169894,-0.12623 0.282082,-0.328777 0.303777,-0.548448 0.06581,-0.666326 -1.122278,-1.471224 -2.469942,-1.673318 -1.039172,-0.155834 -2.458717,0.448502 -3.300905,1.405279 -1.821168,2.068956 -2.020548,5.791918 -0.404529,7.553651 0.558693,0.60907 1.181423,0.88711 2.211299,0.98731 0.796775,0.0775 1.111997,0.0701 2.229992,-0.0527 z m 9.396704,-0.14501 c 1.32777,-0.46295 1.974285,-0.94415 2.438373,-1.81486 1.161143,-2.178532 1.290299,-6.276963 0.219036,-6.950544 -0.324325,-0.203927 -0.759902,0.04091 -1.024505,0.575877 -0.18401,0.372023 -0.263968,0.806858 -0.34599,1.881592 -0.157116,2.058684 -0.55904,3.202236 -1.389039,3.95209 -0.74384,0.672015 -1.520264,0.653365 -1.946027,-0.04675 -0.308362,-0.507064 -0.434923,-1.23182 -0.541149,-3.098949 -0.128489,-2.258448 -0.46393,-3.333105 -1.040388,-3.333105 -0.207026,0 -0.306926,0.10048 -0.472866,0.475617 -0.314211,0.710326 -0.528912,2.394647 -0.528711,4.147723 3.55e-4,3.104729 0.345776,3.987569 1.712285,4.376329 0.656373,0.18674 2.152728,0.10215 2.918981,-0.16503 z m 11.854717,-0.0629 c 0.532816,-0.26333 0.685842,-0.58327 0.497019,-1.03913 -0.165847,-0.40039 -0.808868,-0.73788 -1.412747,-0.74149 -0.502976,-0.003 -0.968118,-0.38237 -1.221855,-0.99652 -0.280197,-0.678194 -0.342404,-2.622121 -0.112612,-3.519085 0.271935,-1.061465 0.693932,-1.399313 1.750955,-1.401801 0.750344,-0.0018 1.129117,-0.09094 1.07954,-0.254141 -0.02017,-0.06639 -0.413154,-0.369051 -0.873305,-0.67258 -0.460152,-0.303528 -1.002821,-0.712939 -1.205932,-0.909802 -0.472494,-0.45796 -0.903265,-1.321328 -0.904035,-1.811904 -0.0022,-1.431931 -0.730809,-1.787952 -1.611471,-0.787466 -1.051308,1.194348 -2.020121,3.726965 -1.638748,4.283924 0.04345,0.06345 0.160846,0.14552 0.260887,0.182381 0.462085,0.170253 0.834302,1.447205 0.837764,2.874083 0.0027,1.127391 0.189907,2.955131 0.372974,3.642121 0.29558,1.10921 0.884144,1.41686 2.63935,1.37962 0.856076,-0.0182 1.228844,-0.0733 1.542216,-0.22821 z m 9.034514,-0.0757 c 1.323906,-0.22782 2.325613,-0.91879 2.325613,-1.6042 0,-0.5756 -0.51657,-0.643266 -2.41311,-0.31608 -1.020186,0.17601 -2.332617,0.004 -3.250129,-0.424949 -1.089828,-0.509991 -0.989383,-0.612071 1.101081,-1.119015 1.824499,-0.442447 2.79623,-1.088086 3.372096,-2.240495 0.373472,-0.747385 0.448447,-1.697535 0.175588,-2.225188 -0.614725,-1.188746 -2.320897,-1.706315 -3.946978,-1.197321 -2.665301,0.834292 -4.490686,4.478873 -3.526149,7.040338 0.34456,0.91503 1.148568,1.70024 1.995429,1.94878 1.230351,0.36108 2.6059,0.40668 4.166559,0.13813 z"
     id="path3"
     transform="scale(0.26458333)" />
  <path
     style="fill:#ffffff;stroke-width:3.35042"
     d="M 40.266062,82.943927 C 26.523958,82.784065 16.364341,82.363409 15.937542,81.93661 c -0.240029,-0.240028 4.102151,-7.787027 7.025162,-12.210199 1.826484,-2.76388 1.673609,-2.610493 2.694233,-2.703257 1.260194,-0.11454 12.603376,-0.104828 19.232464,0.01647 12.131288,0.221969 37.374479,0.834564 37.448711,0.908796 0.02483,0.02483 -1.810213,3.40281 -4.077872,7.506626 l -4.123014,7.461482 -7.088403,0.07115 c -8.215703,0.08247 -17.193201,0.0678 -26.782761,-0.04375 z"
     id="path4"
     transform="scale(0.26458333)" />
  <path
     style="fill:#ffffff;stroke-width:3.35042"
     d="m 69.142568,47.962762 c -0.06948,-0.08372 -0.22153,-0.625446 -0.337879,-1.203827 -0.325901,-1.62008 -0.782805,-2.238663 -2.115867,-2.864585 -1.153212,-0.541476 -2.565061,-0.505221 -3.367043,0.08646 -0.191735,0.141457 -0.513011,0.48843 -0.713947,0.771051 -0.200936,0.282621 -0.423273,0.513856 -0.494082,0.513856 -0.07759,0 -0.141885,-0.205849 -0.161816,-0.518091 -0.09416,-1.474986 1.394712,-3.570212 3.15531,-4.440347 2.445303,-1.208534 5.321391,-0.03091 6.201551,2.539248 0.332616,0.971275 0.335921,2.421589 0.0072,3.143155 -0.31466,0.690623 -0.736041,1.222714 -1.357283,1.713882 -0.57997,0.458539 -0.635918,0.476309 -0.816107,0.259195 z"
     id="path5"
     transform="scale(0.26458333)" />
  <path
     style="fill:#ffffff;stroke-width:3.35042"
     d="m 53.753483,50.384456 c -0.700783,-0.227912 -1.391475,-0.776103 -1.391475,-1.104391 0,-0.498817 1.516657,-0.847982 2.754718,-0.634193 1.218782,0.21046 1.510867,0.557778 0.927826,1.103277 -0.606192,0.56716 -1.628746,0.850711 -2.291069,0.635307 z"
     id="path6"
     transform="scale(0.26458333)" />
  <path
     style="fill:#ffffff;stroke-width:3.35042"
     d="m 45.972673,46.152756 c -0.02738,-0.133056 -0.06939,-0.580991 -0.09335,-0.995413 -0.04743,-0.820231 -0.213001,-1.234052 -0.68426,-1.710199 -0.448771,-0.453426 -1.075006,-0.703056 -1.770537,-0.705772 -0.786882,-0.0031 -1.360622,0.207635 -2.203911,0.809394 -1.210604,0.863869 -1.765912,0.972234 -1.99155,0.388639 -0.147358,-0.381127 0.04386,-1.25582 0.473329,-2.165111 0.433029,-0.916838 1.262492,-1.740234 2.200778,-2.184679 0.682439,-0.323256 0.802824,-0.344989 1.911034,-0.344989 1.107665,0 1.228827,0.02184 1.909388,0.344219 0.915203,0.433523 1.775598,1.241165 2.242209,2.104732 0.479254,0.886966 0.500721,1.783335 0.06408,2.675794 -0.279302,0.570874 -1.637648,2.025304 -1.891505,2.025304 -0.06376,0 -0.138327,-0.108864 -0.165705,-0.241919 z"
     id="path7"
     transform="scale(0.26458333)" />
</svg>
