<?xml version="1.0" encoding="UTF-8" standalone="no"?>
<svg
   width="36.777084mm"
   height="34.564167mm"
   viewBox="0 0 36.777084 34.564167"
   version="1.1"
   id="svg1"
   sodipodi:docname="kage-paint.svg"
   inkscape:version="1.4.3 (0d15f75, 2025-12-25)"
   xmlns:inkscape="http://www.inkscape.org/namespaces/inkscape"
   xmlns:sodipodi="http://sodipodi.sourceforge.net/DTD/sodipodi-0.dtd"
   xmlns="http://www.w3.org/2000/svg"
   xmlns:svg="http://www.w3.org/2000/svg">
  <defs
     id="defs1" />
  <sodipodi:namedview
     id="namedview1"
     pagecolor="#ffffff"
     bordercolor="#000000"
     borderopacity="0.25"
     inkscape:showpageshadow="2"
     inkscape:pageopacity="0.0"
     inkscape:pagecheckerboard="0"
     inkscape:deskcolor="#d1d1d1"
     inkscape:document-units="mm"
     inkscape:zoom="9.3006364"
     inkscape:cx="69.511372"
     inkscape:cy="65.318111"
     inkscape:window-width="5120"
     inkscape:window-height="1417"
     inkscape:window-x="-8"
     inkscape:window-y="-8"
     inkscape:window-maximized="1"
     inkscape:current-layer="svg1" />
  <g
     transform="translate(-86.611455,-131.21792)"
     id="g1">
    <path
       style="display:inline;fill:#000000"
       d="m 110.36375,159.23836 c -0.61846,-0.2899 -1.12448,-0.64975 -1.12448,-0.79967 0,-0.18173 -1.21248,-0.21824 -3.63802,-0.10955 -2.02857,0.0909 -5.39778,0.0273 -7.615797,-0.14374 -5.96384,-0.4599 -8.20317,-1.20171 -5.67927,-1.88132 l 1.0928,-0.29426 -0.89388,-0.98942 c -2.42891,-2.6885 -1.93107,-7.35701 1.19362,-11.19329 0.9276,-1.13885 1.28059,-1.83994 1.4861,-2.95164 0.34564,-1.86976 0.95435,-3.32135 1.47684,-3.52185 0.44417,-0.17044 1.45505,0.38498 2.54886,1.40046 0.6257,0.5809 0.790657,0.61377 1.852087,0.3691 1.70611,-0.39329 4.99044,-0.33923 6.47155,0.10651 1.27053,0.38238 1.30696,0.37685 2.48944,-0.37814 0.66003,-0.42141 1.51768,-0.84461 1.90591,-0.94045 1.02132,-0.25212 1.36612,0.56967 1.33079,3.17175 -0.025,1.83955 0.0566,2.24859 0.60854,3.05046 1.28742,1.87048 1.81195,3.46895 1.93371,5.89284 l 0.11659,2.32097 0.83436,-0.15652 c 1.30939,-0.24565 2.27535,0.65371 2.27535,2.11847 0,3.52479 -5.26808,6.52162 -8.6651,4.92929 z m 4.85003,-0.5258 c 2.39684,-1.08858 4.08153,-3.817 3.26172,-5.28247 -0.46057,-0.8233 -1.29949,-1.00188 -2.6354,-0.56099 -1.43552,0.47376 -2.18054,0.0168 -1.95271,-1.19758 0.15018,-0.80055 0.0967,-0.91798 -0.48433,-1.06381 -1.81448,-0.45541 -5.0448,1.69855 -5.47735,3.65226 -0.12159,0.5492 -0.15824,1.23883 -0.0814,1.5325 0.12141,0.46429 0.28394,0.51233 1.2455,0.36813 0.84358,-0.1265 1.19028,-0.0641 1.46177,0.263 0.30638,0.36917 0.25441,0.53478 -0.37346,1.19013 l -0.72936,0.76129 0.75517,0.40918 c 1.06076,0.57475 3.66877,0.53746 5.00989,-0.0716 z m -3.32868,-0.68863 c -0.41404,-0.49889 0.0708,-1.19062 0.83445,-1.19062 0.6385,0 0.91416,0.6777 0.48567,1.19399 -0.41677,0.50219 -0.90157,0.50095 -1.32012,-0.003 z m 3.02544,-0.77366 c -0.63933,-0.46748 -0.30681,-1.27472 0.47911,-1.16312 0.37124,0.0527 0.62676,0.29679 0.67663,0.64634 0.0989,0.69304 -0.53008,0.97428 -1.15574,0.51678 z m 1.18949,-2.42351 c -0.25238,-0.3041 -0.2715,-0.53999 -0.0697,-0.8599 0.36654,-0.58108 1.14698,-0.56166 1.51449,0.0377 0.23493,0.38313 0.19105,0.55453 -0.22017,0.85989 -0.64981,0.48253 -0.79663,0.47801 -1.22461,-0.0377 z m -7.29554,-0.24578 c -0.17535,-0.45695 0.33621,-1.18725 0.83165,-1.18725 0.18265,0 0.48031,0.17859 0.66146,0.39687 0.26278,0.31663 0.26278,0.47712 0,0.79375 -0.42562,0.51284 -1.29577,0.51088 -1.49311,-0.003 z m 2.33978,-1.50475 c -0.17463,-0.17463 -0.3175,-0.47484 -0.3175,-0.66713 0,-0.45133 1.1661,-0.98425 1.70292,-0.77825 0.57846,0.22198 0.51671,1.15999 -0.098,1.48898 -0.65994,0.3532 -0.89868,0.34511 -1.28739,-0.0436 z m 1.40229,-0.74084 c 0,-0.57381 -1.03223,-0.49476 -1.14439,0.0876 -0.0724,0.37572 0.0456,0.46483 0.52554,0.39687 0.34037,-0.0482 0.61885,-0.26623 0.61885,-0.48451 z M 108.383,148.3636 c 0.0537,-0.27865 -0.15826,-0.39383 -0.72457,-0.39383 -0.44022,0 -0.80041,0.1389 -0.80041,0.30868 0,0.66847 1.39761,0.74651 1.52498,0.0852 z m -5.20959,-0.75416 c -0.39689,-0.7416 0.23757,-1.47316 1.12971,-1.30262 1.03294,0.19746 0.84002,-0.48999 -0.30711,-1.09437 -1.2683,-0.66823 -2.59682,1.00065 -1.78404,2.2411 0.51566,0.787 1.37365,0.92611 0.96144,0.15589 z m 7.46003,-1.46479 c 0.3349,-0.21125 0.59597,-0.20033 0.98258,0.0411 0.75182,0.46953 0.80338,0.42249 0.49779,-0.45414 -0.15012,-0.43061 -0.50111,-0.85536 -0.77999,-0.94387 -1.32533,-0.42064 -2.34044,0.82379 -1.78629,2.18983 l 0.29516,0.72761 0.16733,-0.63642 c 0.092,-0.35003 0.37257,-0.76588 0.62342,-0.92411 z"
       id="path1-860" />
  </g>
  <path
     style="fill:#ffffff;stroke-width:3.35042"
     d="m 87.153103,60.53189 c -0.815823,-2.048908 -0.952535,-2.592754 -0.959098,-3.815341 -0.0062,-1.155388 0.185543,-1.948394 0.710231,-2.937304 0.715274,-1.34812 2.215314,-2.415723 3.767887,-2.681668 0.861531,-0.147574 2.170318,0.0062 2.936254,0.345026 0.619229,0.273914 1.587207,1.264437 2.113215,2.162433 0.442633,0.755657 1.261019,3.120916 1.261019,3.644532 0,0.286808 -0.03721,0.327137 -0.301809,0.327137 -0.177432,0 -0.843527,-0.311454 -1.616334,-0.755769 -1.54525,-0.888419 -2.327708,-1.133475 -3.080497,-0.964771 -0.974961,0.218493 -1.653222,0.689094 -2.383158,1.653518 -0.682608,0.901892 -1.047602,1.72112 -1.44302,3.238848 -0.184881,0.709629 -0.346929,1.30189 -0.360106,1.316136 -0.01318,0.01425 -0.30324,-0.675504 -0.644584,-1.532777 z"
     id="path1"
     transform="scale(0.26458333)" />
  <path
     style="fill:#ffffff;stroke-width:3.35042"
     d="m 78.633732,66.394893 c -0.978472,-0.206808 -1.77703,-0.812671 -1.984689,-1.505776 -0.156829,-0.523448 -0.02052,-0.774085 0.57879,-1.064204 0.610564,-0.295569 1.423965,-0.442154 2.453518,-0.442154 2.091158,0 2.9158,0.595651 2.423663,1.750646 -0.191328,0.449027 -0.544822,0.767639 -1.147419,1.034197 -0.569518,0.251924 -1.689183,0.361436 -2.323863,0.227291 z"
     id="path2"
     transform="scale(0.26458333)" />
  <path
     style="fill:#ffffff;stroke-width:3.35042"
     d="m 61.314148,63.487307 c -0.720796,-0.360186 -1.958997,-1.573448 -2.435371,-2.386319 -0.718996,-1.226874 -0.9585,-2.668279 -0.663606,-3.993773 0.742993,-3.339608 3.877589,-5.438123 6.681875,-4.473307 1.631762,0.561409 3.924451,2.307597 4.334155,3.301037 0.331579,0.804002 -0.171804,1.191573 -1.440141,1.108811 -0.41395,-0.02701 -1.284858,-0.0512 -1.935351,-0.05376 -1.060121,-0.0042 -1.245661,0.02486 -1.789981,0.280058 -0.694595,0.325651 -1.357911,0.941421 -1.628608,1.511872 -0.483583,1.019078 -0.439128,2.054617 0.141469,3.295324 0.333146,0.711917 0.413252,1.38462 0.191309,1.606563 -0.218877,0.218878 -0.774614,0.14386 -1.45575,-0.196506 z"
     id="path3"
     transform="scale(0.26458333)" />
  <path
     style="fill:#ffffff;stroke-width:3.35042"
     d="m 93.972064,81.468539 c -0.395285,-0.322364 -0.362529,-1.231751 0.06954,-1.930607 0.780265,-1.262049 3.025754,-1.527861 3.690887,-0.436912 0.709242,1.163295 -0.536365,2.38057 -2.582004,2.523274 -0.810948,0.05657 -0.938783,0.03968 -1.178423,-0.155755 z"
     id="path4"
     transform="scale(0.26458333)" />
  <path
     style="fill:#ffffff;stroke-width:3.35042"
     d="m 94.88598,105.56271 c -0.999054,-0.0908 -3.180547,-0.50259 -3.978222,-0.75098 -0.729075,-0.22704 -3.438157,-1.54392 -4.217214,-2.04999 -0.234041,-0.15203 -0.198622,-0.1978 1.709743,-2.20928 2.234295,-2.355023 2.776269,-3.097987 2.776269,-3.805841 0,-0.259299 -0.09257,-0.652896 -0.205701,-0.87466 -0.299626,-0.587315 -1.030445,-1.295893 -1.605322,-1.556467 -0.745164,-0.337758 -2.422253,-0.368981 -4.522366,-0.08419 -2.013354,0.273023 -3.121369,0.289016 -3.620304,0.05226 -0.822354,-0.390233 -1.162045,-1.883984 -0.994315,-4.372385 0.211705,-3.140813 0.929424,-5.096564 2.771134,-7.551215 3.538503,-4.716154 10.068668,-8.66 15.202095,-9.181196 1.887963,-0.191684 3.967813,0.20785 4.653973,0.894017 0.49669,0.496687 0.53937,0.913255 0.26945,2.629621 -0.36361,2.312104 -0.26885,3.48658 0.3577,4.433359 0.64973,0.98181 1.64089,1.386845 3.38414,1.38292 1.24136,-0.0028 2.04091,-0.153494 4.19356,-0.790405 2.39214,-0.70777 4.10181,-0.877591 5.61218,-0.557454 1.92948,0.408974 3.41812,1.804344 4.14065,3.881226 0.26416,0.75932 0.29771,1.007931 0.29694,2.200051 -6.7e-4,1.02342 -0.0574,1.571051 -0.2378,2.295927 -0.78717,3.16279 -2.70379,6.312975 -5.60584,9.213876 -2.66254,2.661476 -5.74457,4.672336 -8.64623,5.641226 -1.38293,0.46177 -3.42841,0.87589 -5.31561,1.07618 -1.330677,0.14122 -5.225589,0.19183 -6.41891,0.0834 z m 4.35476,-3.10015 c 0.619879,-0.30972 1.56069,-1.30333 1.84706,-1.95073 0.26625,-0.601889 0.29626,-1.631573 0.0637,-2.185225 -0.43037,-1.024574 -1.259427,-1.528045 -2.508132,-1.523148 -2.117827,0.0083 -3.703618,1.289079 -3.703618,2.991245 0,0.736748 0.189338,1.187688 0.757475,1.804048 1.086017,1.17818 2.314824,1.47774 3.543525,0.86381 z m 10.66776,-3.280531 c 0.91331,-0.253651 1.47533,-1.092163 1.47937,-2.207145 0.004,-1.24358 -0.52543,-2.175817 -1.54068,-2.710326 -0.48903,-0.257469 -0.67272,-0.291521 -1.57503,-0.291977 -0.92355,-4.67e-4 -1.07011,0.02809 -1.52929,0.29802 -1.6029,0.942233 -1.41913,3.137995 0.35808,4.278422 1.03286,0.662786 1.95318,0.870287 2.80755,0.633006 z m 4.68932,-8.750728 c 0.71581,-0.365209 2.2267,-1.516247 2.55464,-1.946211 0.44245,-0.580078 0.45733,-1.108208 0.0543,-1.926887 -0.6673,-1.355467 -1.72009,-2.114462 -3.03892,-2.190863 -1.38765,-0.08039 -2.54181,0.618505 -3.20149,1.938643 -0.59096,1.182614 -0.38386,2.06195 0.79598,3.379687 1.02163,1.141033 1.70716,1.321302 2.83549,0.745631 z M 87.219922,89.713356 c 1.547639,-0.323799 3.098693,-1.78389 3.095469,-2.913937 -0.0022,-0.782501 -1.130818,-2.148522 -2.239049,-2.710106 -0.685744,-0.347492 -1.440977,-0.3681 -2.102052,-0.05736 -0.618074,0.29053 -1.516314,1.204491 -1.843873,1.876145 -0.279665,0.573448 -0.495367,1.501999 -0.427099,1.838569 0.02279,0.112366 0.06924,0.33647 0.103229,0.498009 0.0754,0.358399 0.626853,1.004974 1.038824,1.218013 0.676976,0.350078 1.489451,0.435844 2.374551,0.250665 z m 8.706906,-6.123466 c 2.094255,-0.705503 3.189259,-1.738423 3.520484,-3.320878 0.310433,-1.483115 -0.427046,-2.910022 -1.665133,-3.221776 -0.687289,-0.173062 -1.414052,-0.143174 -2.368282,0.09739 -1.593439,0.401717 -3.336971,1.453055 -3.757108,2.26551 -0.49827,0.963549 0.26,2.749804 1.586238,3.736702 0.960399,0.714664 1.575902,0.816273 2.683801,0.443048 z"
     id="path5"
     transform="scale(0.26458333)" />
</svg>
