<?xml version="1.0" encoding="UTF-8" standalone="no"?>
<svg
   width="36.777084mm"
   height="34.564167mm"
   viewBox="0 0 36.777084 34.564167"
   version="1.1"
   xmlns="http://www.w3.org/2000/svg">
  <g transform="translate(-86.611455,-131.21792)">
    <path
       style="display:inline;fill:#000000"
       d="m 99.736577,159.45704 c -0.65485,-0.0482 -1.96453,-0.2108 -2.91042,-0.36126 -3.54617,-0.56409 -4.44616,-1.28381 -2.32097,-1.85607 l 1.11862,-0.30121 -1.05247,-0.50023 c -2.68468,-1.276 -3.9968,-4.59244 -2.92157,-7.38441 0.19615,-0.50932 0.61557,-1.63023 0.93204,-2.4909 l 0.57542,-1.56487 -0.81137,-1.54785 c -0.94435,-1.80156 -0.98054,-2.09876 -0.32751,-2.68975 1.66224,-1.5043 4.10418,1.47106 3.6318,4.42515 -0.0922,0.57684 -0.51554,1.84129 -0.94066,2.80989 -1.12102,2.55415 -1.21919,3.58391 -0.478,5.01386 0.33566,0.64757 0.72936,1.21295 0.87488,1.2564 0.16133,0.0482 0.265,-0.77269 0.26565,-2.10345 0.001,-2.75843 0.80141,-5.3228 2.43306,-7.79852 0.79547,-1.20696 1.2557,-2.24413 1.40932,-3.17598 0.29033,-1.7611 1.175103,-3.77564 1.658233,-3.77564 0.48488,0 2.47428,1.44443 2.87654,2.08855 0.27729,0.44401 0.5486,0.48477 2.38777,0.35871 1.51449,-0.10381 2.53393,-0.018 3.77432,0.31779 1.64931,0.44644 1.74092,0.44447 3.10808,-0.067 1.31329,-0.49137 2.26163,-0.6809 3.05526,-0.61062 0.45543,0.0403 0.42941,2.26312 -0.0449,3.83927 -0.36161,1.20153 -0.34825,1.30464 0.3567,2.75403 1.61742,3.32543 1.79464,6.67478 0.49241,9.30611 -0.3922,0.7925 -0.68894,1.44812 -0.65941,1.45693 1.43831,0.42921 2.41893,0.86665 2.4996,1.11505 0.15497,0.47715 -2.29938,1.08635 -5.62092,1.39518 -2.66777,0.24804 -10.50435,0.30135 -13.361463,0.0909 z m 9.645993,-10.12031 c 0.0837,-0.13547 0.0245,-0.32527 -0.13171,-0.42179 -0.40264,-0.24884 -1.63083,0.102 -1.4397,0.41126 0.20249,0.32763 1.37059,0.33546 1.57141,0.0105 z m -5.54239,-1.14276 c -0.002,-0.7003 0.11198,-0.87612 0.61457,-0.94731 0.33942,-0.0481 0.86327,0.13052 1.1641,0.39688 0.5413,0.47927 0.54503,0.47607 0.36057,-0.30947 -0.22835,-0.97245 -0.81902,-1.45521 -1.78049,-1.45521 -0.75506,0 -1.55194,0.81515 -1.55194,1.5875 0,0.45717 0.71896,1.5875 1.00975,1.5875 0.1023,0 0.18484,-0.38695 0.18344,-0.85989 z m 8.33023,-0.72676 c 0.67974,-0.36379 1.29752,-0.0682 1.49407,0.71494 0.12269,0.48883 0.22284,0.56616 0.39054,0.30154 0.63589,-1.00334 -0.15015,-2.34024 -1.37597,-2.34024 -1.28898,0 -1.92613,1.19233 -1.36695,2.55804 0.1652,0.4035 0.21246,0.36279 0.28217,-0.24304 0.0461,-0.40024 0.30531,-0.8463 0.57614,-0.99124 z"
       id="path1" />
  </g>
</svg>
