<?xml version="1.0" encoding="UTF-8" standalone="no"?>
<svg
   width="36.777084mm"
   height="34.564167mm"
   viewBox="0 0 36.777084 34.564167"
   version="1.1"
   id="svg1"
   sodipodi:docname="kage-sleeping-yarn.svg"
   inkscape:version="1.4.3 (0d15f75, 2025-12-25)"
   xmlns:inkscape="http://www.inkscape.org/namespaces/inkscape"
   xmlns:sodipodi="http://sodipodi.sourceforge.net/DTD/sodipodi-0.dtd"
   xmlns="http://www.w3.org/2000/svg"
   xmlns:svg="http://www.w3.org/2000/svg">
  <defs
     id="defs1" />
  <sodipodi:namedview
     id="namedview1"
     pagecolor="#a0ffff"
     bordercolor="#000000"
     borderopacity="0.25"
     inkscape:showpageshadow="2"
     inkscape:pageopacity="0.0"
     inkscape:pagecheckerboard="0"
     inkscape:deskcolor="#d1d1d1"
     inkscape:document-units="mm"
     inkscape:zoom="9.3006364"
     inkscape:cx="69.511372"
     inkscape:cy="65.318111"
     inkscape:window-width="5120"
     inkscape:window-height="1417"
     inkscape:window-x="-8"
     inkscape:window-y="-8"
     inkscape:window-maximized="1"
     inkscape:current-layer="svg1" />
  <ellipse
     style="fill:#ffffff;stroke-width:10.0729"
     id="path6"
     cx="19.7286"
     cy="23.839319"
     rx="6.130517"
     ry="6.0593972" />
  <g
     transform="translate(-86.611455,-131.21792)"
     id="g1">
    <path
       style="display:inline;fill:#000000"
       d="m 110.31765,161.84429 c -0.46578,-0.1347 -0.91119,-0.34898 -0.9898,-0.47618 -0.0786,-0.12719 -1.13235,-0.16953 -2.34164,-0.0941 -1.76391,0.11005 -2.37918,0.0458 -3.11124,-0.32495 -1.66429,-0.84282 -2.6326,-1.74069 -3.3021,-3.06189 -0.47393,-0.93526 -0.818576,-1.30651 -1.212896,-1.30651 -0.30297,0 -0.868,-0.3395 -1.25562,-0.75446 -0.38762,-0.41495 -1.07874,-0.94784 -1.53582,-1.18421 -0.87673,-0.45337 -1.78421,-1.70142 -2.06999,-2.84683 -0.0978,-0.39196 -0.72847,-1.10081 -1.47583,-1.65877 -1.88348,-1.40615 -1.75238,-2.16776 0.48759,-2.83271 0.85972,-0.25521 1.3466,-0.63564 2.0288,-1.58521 0.51729,-0.72003 1.56298,-1.6601 2.46799,-2.2187 1.24325,-0.76738 1.69681,-1.23924 2.177346,-2.26522 0.33384,-0.71276 0.75437,-1.35249 0.93451,-1.42162 0.18014,-0.0691 0.65671,0.21792 1.05905,0.63787 l 0.73152,0.76354 0.77833,-0.55422 c 1.14388,-0.81451 3.73294,-1.54196 5.488,-1.54196 0.84483,0 2.34066,0.24852 3.32407,0.55226 6.4969,2.00669 7.94598,11.85238 2.18087,14.81781 -0.53991,0.27771 -1.15173,0.50493 -1.35962,0.50493 -0.22644,0 -0.45166,0.39284 -0.56179,0.97988 -0.2452,1.30703 -1.08396,2.90847 -1.93776,3.69974 -0.57986,0.5374 -0.63091,0.68657 -0.3083,0.90097 0.21264,0.14131 0.86287,0.19559 1.44495,0.12061 3.03966,-0.39154 4.78916,-0.42127 5.40307,-0.0918 0.72564,0.38941 0.89755,0.72876 0.60368,1.19168 -0.15461,0.24355 -0.48884,0.21575 -1.4164,-0.11779 -1.13157,-0.40691 -1.34028,-0.4061 -3.07234,0.012 -2.06959,0.49952 -1.98486,0.49534 -3.15863,0.15589 z m 3.41472,-0.5549 c 1.21112,-0.25015 1.80323,-0.24833 2.7635,0.009 1.53605,0.41082 1.82482,0.18928 0.48368,-0.37108 -0.6364,-0.26591 -1.41393,-0.37248 -2.09114,-0.28664 -0.59293,0.0752 -1.69526,0.21895 -2.44962,0.31952 -0.79884,0.1065 -1.71033,0.0648 -2.18282,-0.1 -0.93629,-0.32639 -1.10115,-0.002 -0.21593,0.42508 0.79908,0.38539 1.84232,0.38667 3.69233,0.005 z m -7.46264,-0.44708 c 0,-0.30857 -0.77279,-0.60165 -1.08221,-0.41042 -0.46633,0.2882 -0.23308,0.6467 0.42075,0.6467 0.3638,0 0.66146,-0.10632 0.66146,-0.23628 z m -1.35205,-0.98945 c -0.39935,-0.48118 -0.67172,-0.45632 -0.87756,0.0801 -0.21177,0.55185 0.37378,0.94895 0.83494,0.56622 0.25824,-0.21432 0.26876,-0.37383 0.0426,-0.64632 z m 3.58356,0.72479 c 0.0804,-0.13 -0.18052,-0.31702 -0.57969,-0.41561 -2.09998,-0.51863 -4.84322,-3.10468 -6.12386,-5.77294 -0.86843,-1.8094 -1.25272,-1.49223 -0.53235,0.43938 0.92351,2.47631 2.69559,4.38543 5.07185,5.46407 1.22817,0.5575 1.93791,0.651 2.16405,0.2851 z m -4.61276,-1.06978 c 0,-0.69082 -0.61528,-1.14775 -1.01171,-0.75132 -0.44311,0.44311 -0.38502,0.93152 0.14616,1.22879 0.56623,0.31687 0.86555,0.15176 0.86555,-0.47747 z m 5.75647,0.55776 c 0.21931,-0.13923 -0.17416,-0.42111 -1.15565,-0.82791 -2.0302,-0.84147 -4.61485,-3.29663 -5.64884,-5.36583 -0.44224,-0.88499 -0.80406,-1.76865 -0.80406,-1.96369 0,-0.49812 -0.43888,-0.44236 -0.63983,0.0813 -0.27346,0.71262 1.30233,3.69033 2.77939,5.2521 0.79438,0.83994 2.04225,1.78534 2.96552,2.2467 1.69352,0.84626 1.97693,0.91162 2.50347,0.57733 z m 1.06894,-0.8912 c 0.24582,-0.24582 -0.0947,-0.50718 -1.52212,-1.16836 -1.01132,-0.46844 -2.45203,-1.42533 -3.20157,-2.12644 -1.36464,-1.27646 -2.89547,-3.83941 -2.89547,-4.84766 0,-0.63362 -0.33416,-0.69361 -0.79183,-0.14215 -0.26736,0.32215 -0.15359,0.76067 0.61998,2.38957 1.15412,2.43027 3.06298,4.38718 5.32178,5.45579 1.79227,0.8479 2.02006,0.88842 2.46923,0.43925 z m -8.13928,-0.494 c 0.38518,-0.71972 -0.14378,-1.47857 -0.70561,-1.01229 -0.44617,0.37029 -0.46231,0.82282 -0.0443,1.24087 0.41073,0.41073 0.40715,0.41182 0.74988,-0.22858 z m 9.40585,-1.96465 c 0.0757,-0.41772 0.19806,-0.85713 0.27182,-0.97646 0.0738,-0.11934 0.015,-0.21698 -0.13049,-0.21698 -0.14552,0 -0.33964,0.12145 -0.43139,0.2699 -0.0917,0.14844 -0.83738,0.60898 -1.65697,1.02341 -1.31405,0.66446 -1.42078,0.77553 -0.90313,0.93983 0.39242,0.12455 0.88112,0.005 1.47415,-0.36196 0.48791,-0.30154 0.99212,-0.54626 1.12047,-0.54381 0.12834,0.002 -0.16243,0.25786 -0.64616,0.56758 -0.64975,0.416 -0.78799,0.61992 -0.52917,0.78058 0.47268,0.2934 1.25604,-0.51801 1.43087,-1.48209 z m -10.35366,0.69873 c 0.0854,-0.26899 -0.0249,-0.83454 -0.24513,-1.25677 -0.22019,-0.42223 -0.4029,-0.94629 -0.40603,-1.16457 -0.005,-0.35277 -0.0337,-0.35277 -0.25773,0 -0.16009,0.25207 -0.15938,0.4288 0.002,0.48437 0.15527,0.0535 0.14002,0.30046 -0.0393,0.63543 -0.24553,0.45876 -0.22511,0.52179 0.12544,0.38727 0.34237,-0.13138 0.39018,-0.0181 0.26229,0.62134 -0.17227,0.86133 0.29953,1.1088 0.55848,0.29293 z m 9.44654,-1.5668 c 0.9602,-0.59785 1.40479,-1.23525 1.1496,-1.64815 -0.0737,-0.11918 -0.9168,0.30828 -1.87365,0.94992 -0.95685,0.64163 -1.90197,1.16661 -2.10028,1.16661 -0.51547,0 -0.78581,0.55023 -0.3904,0.7946 0.3568,0.22052 1.64489,-0.28554 3.21473,-1.26298 z m -2.15875,-0.19259 c 1.74042,-0.88193 3.18866,-2.1731 2.99717,-2.67211 -0.13233,-0.34485 -0.21906,-0.34309 -0.71352,0.0145 -0.30959,0.22386 -1.42609,0.8943 -2.48111,1.48986 -2.74316,1.54851 -2.57037,2.57036 0.19746,1.16779 z m -2.1928,-1.91872 c 0.16557,-1.12778 0.38359,-2.31841 0.48451,-2.64583 0.25533,-0.82843 -0.60257,-0.81234 -0.91797,0.0172 -0.59916,1.57593 -0.63733,4.67914 -0.0575,4.67914 0.10449,0 0.32545,-0.92273 0.49101,-2.05052 z m 1.89215,0.4606 c 0.82074,-0.4379 1.84944,-1.10067 2.286,-1.47283 l 0.79375,-0.67666 -1.14876,0.15693 c -2.00659,0.2741 -3.74603,1.4381 -3.74603,2.50676 0,0.41198 0.1687,0.36419 1.81504,-0.5142 z m -2.76186,-2.81666 c 0.23701,-1.07493 -0.28015,-1.43649 -0.65279,-0.45638 -0.5094,1.33984 -0.61443,2.97155 -0.22179,3.44572 0.32481,0.39224 0.38451,0.29549 0.52836,-0.85621 0.0892,-0.71413 0.24499,-1.67404 0.34622,-2.13313 z m -0.51543,-1.90377 c -0.24576,-0.25282 -0.61949,0.3357 -0.88646,1.39593 -0.52563,2.08746 -0.28348,2.46026 0.35646,0.5488 0.34103,-1.01865 0.57953,-1.89377 0.53,-1.94473 z m 2.91282,3.13772 c 0.56831,-0.28975 1.4321,-0.60162 1.91954,-0.69307 0.49278,-0.0924 0.83925,-0.29906 0.78039,-0.46538 -0.27645,-0.78123 -3.65724,0.31764 -3.83918,1.24786 -0.10695,0.54687 -0.10911,0.54704 1.13925,-0.0894 z m -10.098276,-0.57114 c 0.66938,-0.35234 0.96502,-0.7348 0.97074,-1.2558 0.002,-0.22411 -0.2511,-0.0941 -0.64478,0.33073 -0.35685,0.38505 -0.84013,0.70009 -1.07394,0.70009 -0.23382,0 -0.35154,0.11907 -0.26161,0.26459 0.20745,0.33564 0.30384,0.33186 1.00959,-0.0396 z m 15.739066,-0.0656 c 0.81351,-0.42068 1.85723,-1.48229 1.45732,-1.48229 -0.14552,0 -0.4904,0.24952 -0.7664,0.55449 -0.27599,0.30497 -0.85999,0.71198 -1.29777,0.90446 -0.43779,0.19248 -0.64123,0.35968 -0.4521,0.37155 0.18912,0.0119 0.66565,-0.14482 1.05895,-0.34821 z m -9.53948,-2.16652 c -0.0671,-0.0671 -0.31761,-0.0469 -0.55672,0.0448 -0.45024,0.17277 -0.56866,1.04087 -0.2539,1.86113 0.13959,0.36375 0.26661,0.21399 0.55673,-0.65636 0.20673,-0.6202 0.32099,-1.18253 0.25389,-1.24962 z m 5.35685,1.01569 0.65978,-0.2512 -0.87722,-0.45363 c -0.68617,-0.35483 -0.95952,-0.38533 -1.25509,-0.14003 -0.55771,0.46286 -0.46084,0.841 0.1339,0.52271 0.28148,-0.15065 0.66843,-0.27128 0.8599,-0.26809 0.19147,0.003 -0.15789,0.2355 -0.77636,0.51623 -1.32347,0.60075 -1.57082,1.2468 -0.26458,0.69106 0.47294,-0.20121 1.15679,-0.47888 1.51967,-0.61705 z m -8.2917,-0.21058 c 0.24254,-0.63205 -0.0216,-0.68991 -0.51555,-0.11296 -0.38313,0.44746 -0.38932,0.52124 -0.0437,0.52124 0.22143,0 0.4731,-0.18373 0.55927,-0.40828 z m 1.69619,-2.51144 c 0.28148,-0.15064 0.50816,-0.5376 0.50373,-0.8599 -0.007,-0.54382 -0.0284,-0.55095 -0.29112,-0.0991 -0.1557,0.26782 -0.65809,0.65012 -1.11644,0.84954 -0.73307,0.31895 -0.75962,0.36383 -0.22065,0.37294 0.33699,0.006 0.84301,-0.11289 1.12448,-0.26353 z m -7.954886,-6.7224 c 0,-0.24108 0.19059,-0.80688 0.42353,-1.25734 l 0.42353,-0.81901 -0.82041,0.16408 c -1.12817,0.22563 -1.03592,-0.23969 0.12337,-0.62229 1.17427,-0.38755 1.35929,-0.21562 0.95906,0.89118 -0.43205,1.1948 -0.40944,1.26504 0.34613,1.0754 0.37526,-0.0942 0.66146,-0.0515 0.66146,0.0986 0,0.14552 -0.2866,0.33651 -0.63688,0.42443 -0.35029,0.0879 -0.82654,0.23262 -1.05834,0.32157 -0.28103,0.10785 -0.42145,0.0157 -0.42145,-0.27659 z m 2.57846,-4.30902 -0.99341,-0.10386 0.67847,-0.88953 0.67847,-0.88952 -0.6111,-0.11674 c -0.39732,-0.0759 -0.26401,-0.12933 0.38109,-0.15276 1.11639,-0.0405 1.23639,0.19012 0.46302,0.89001 -0.29104,0.26339 -0.52917,0.5795 -0.52917,0.70247 0,0.12296 0.23813,0.22357 0.52917,0.22357 0.29104,0 0.52917,0.11907 0.52917,0.26459 0,0.14552 -0.0298,0.24456 -0.0661,0.2201 -0.0364,-0.0245 -0.51318,-0.0912 -1.05956,-0.14833 z"
       id="path1-26" />
  </g>
  <path
     style="fill:#ffffff;stroke-width:3.35042"
     d="m 57.049178,64.694567 c -0.429396,-0.103517 -0.323535,-0.176369 1.556968,-1.071478 2.532694,-1.205548 4.052522,-2.375172 4.812613,-3.703673 0.668003,-1.167547 0.812088,-1.075855 0.753988,0.479816 -0.0324,0.867582 -0.08352,1.093791 -0.385852,1.707414 -0.634273,1.287354 -1.441465,1.838063 -3.468442,2.366355 -0.848863,0.221239 -2.739209,0.349353 -3.269275,0.221566 z"
     id="path1"
     transform="scale(0.26458333)" />
  <path
     style="fill:#ffffff;stroke-width:3.35042"
     d="m 53.021238,74.635554 c -0.16192,-0.195101 0.315309,-0.906824 1.334509,-1.99024 1.56907,-1.667931 2.273885,-1.555536 1.659218,0.264592 -0.269226,0.797223 -0.714263,1.351347 -1.321344,1.64523 -0.536016,0.259481 -1.485868,0.305155 -1.672383,0.08042 z"
     id="path2"
     transform="scale(0.26458333)" />
  <path
     style="fill:#ffffff;stroke-width:3.35042"
     d="m 40.46304,79.571861 c -0.311668,-0.225337 -0.680816,-0.836773 -0.680816,-1.127666 0,-0.275776 0.543319,-0.54611 1.098622,-0.546631 0.826606,-7.76e-4 2.444246,-1.080471 4.125571,-2.753617 1.141954,-1.136398 1.779801,-1.605256 2.045255,-1.503392 0.148944,0.05715 0.169388,0.181826 0.123521,0.753245 -0.144174,1.796101 -1.392281,3.143433 -4.236128,4.5729 -1.419111,0.71332 -2.097203,0.879051 -2.476025,0.605161 z"
     id="path3"
     transform="scale(0.26458333)" />
  <path
     style="fill:#ffffff;stroke-width:3.35042"
     d="m 98.917962,79.638349 c 0,-0.186515 0.824639,-0.704345 1.985508,-1.246797 1.58238,-0.739411 3.32926,-1.952281 4.71344,-3.27257 0.66206,-0.631491 1.39727,-1.298195 1.63382,-1.481564 0.78937,-0.61193 1.44709,-0.846006 1.61478,-0.574686 0.1302,0.210675 -0.52692,1.123752 -1.5118,2.100655 -1.95229,1.936494 -4.3313,3.46066 -6.53835,4.188953 -0.982987,0.324369 -1.897398,0.462206 -1.897398,0.286009 z"
     id="path4"
     transform="scale(0.26458333)" />
  <path
     style="fill:#ffffff;stroke-width:3.35042"
     d="m 91.8776,114.5572 c -1.887061,-0.29675 -4.078812,-1.1859 -4.984681,-2.02219 -0.517818,-0.47805 -0.563681,-0.72951 -0.160977,-0.88262 0.369517,-0.14049 1.024837,-0.0408 2.294224,0.34903 0.561789,0.17252 1.481081,0.38467 2.042871,0.47143 1.226451,0.18943 4.70312,0.21609 6.084865,0.0467 0.526716,-0.0646 2.969768,-0.38049 5.428998,-0.70202 2.45924,-0.32152 4.87843,-0.61518 5.37598,-0.65258 1.61383,-0.12128 4.00981,0.21911 5.84984,0.83107 1.97897,0.65817 4.39381,2.02782 4.09572,2.32302 -0.13979,0.13844 -1.57339,0.0649 -2.53599,-0.13006 -0.50265,-0.10182 -1.67153,-0.37082 -2.5975,-0.59779 -2.16799,-0.53141 -2.99856,-0.6419 -4.82543,-0.6419 -1.69579,0 -3.07626,0.17019 -5.7297,0.70639 -3.25823,0.65841 -5.290937,0.91553 -7.598639,0.96118 -1.153147,0.0228 -2.385958,-0.004 -2.739581,-0.0596 z"
     id="path5"
     transform="scale(0.26458333)" />
</svg>
