<?xml version="1.0" encoding="UTF-8" standalone="no"?>
<svg
   width="36.777084mm"
   height="34.564167mm"
   viewBox="0 0 36.777084 34.564167"
   version="1.1"
   id="svg1"
   sodipodi:docname="kage-with-bow.svg"
   inkscape:version="1.4.3 (0d15f75, 2025-12-25)"
   xmlns:inkscape="http://www.inkscape.org/namespaces/inkscape"
   xmlns:sodipodi="http://sodipodi.sourceforge.net/DTD/sodipodi-0.dtd"
   xmlns="http://www.w3.org/2000/svg"
   xmlns:svg="http://www.w3.org/2000/svg">
  <defs
     id="defs1" />
  <sodipodi:namedview
     id="namedview1"
     pagecolor="#ffffff"
     bordercolor="#000000"
     borderopacity="0.25"
     inkscape:showpageshadow="2"
     inkscape:pageopacity="0.0"
     inkscape:pagecheckerboard="0"
     inkscape:deskcolor="#d1d1d1"
     inkscape:document-units="mm"
     inkscape:zoom="9.3006364"
     inkscape:cx="69.511372"
     inkscape:cy="65.318111"
     inkscape:window-width="5120"
     inkscape:window-height="1417"
     inkscape:window-x="-8"
     inkscape:window-y="-8"
     inkscape:window-maximized="1"
     inkscape:current-layer="svg1" />
  <g
     transform="translate(-86.611455,-131.21792)"
     id="g1">
    <path
       style="display:inline;fill:#000000"
       d="m 100.47347,160.02005 c -7.663522,-0.31602 -10.766112,-1.19415 -7.301522,-2.06654 l 1.17108,-0.29488 -0.78931,-0.84496 c -1.4683,-1.57182 -1.91776,-2.77639 -1.90769,-5.11266 0.011,-2.54172 0.645,-4.37721 2.39508,-6.93346 0.82233,-1.20114 1.25003,-2.14798 1.4076,-3.11617 0.3259,-2.00241 0.72889,-3.38555 1.15697,-3.97098 0.31863,-0.43575 0.47235,-0.4654 1.04954,-0.20241 0.37193,0.16946 1.14365,0.73039 1.71493,1.24651 l 1.038682,0.93839 1.15833,-0.44533 c 0.8155,-0.31353 2.0361,-0.45355 4.1241,-0.47311 2.6134,-0.0245 3.03778,-0.0933 3.57187,-0.57953 0.33336,-0.30347 0.76261,-0.4949 0.95388,-0.42541 0.19127,0.0695 0.86487,-0.14798 1.49688,-0.48326 1.33941,-0.71056 1.84591,-0.49547 2.12685,0.90316 0.30836,1.53518 0.40819,1.71381 1.04743,1.87425 0.89716,0.22518 1.07796,1.06125 0.45706,2.11359 l -0.5186,0.87896 1.06388,1.67328 c 1.55188,2.44082 2.124,4.23804 2.12099,6.66278 -0.002,1.67771 -0.12984,2.30272 -0.71532,3.4994 -0.39203,0.80129 -1.00308,1.68523 -1.35788,1.96432 -0.81865,0.64395 -0.81312,0.82815 0.0249,0.82815 0.36847,0 1.10393,0.18133 1.63434,0.40295 0.72118,0.30133 0.88842,0.47892 0.66314,0.7042 -0.51119,0.51118 -3.47283,1.00092 -6.93619,1.14697 -1.81901,0.0767 -4.02167,0.17377 -4.89479,0.2157 -0.87313,0.0419 -3.55341,-0.005 -5.95619,-0.10391 z m 10.17062,-10.71918 c 0.70274,-0.70274 0.50706,-1.12194 -0.51027,-1.0931 -0.69599,0.0197 -0.92604,0.14141 -0.92604,0.48983 0,0.35695 0.56227,0.941 0.97329,1.01099 0.026,0.004 0.23435,-0.17905 0.46302,-0.40772 z m -4.10613,-2.00113 c 0.34873,-0.62433 0.34204,-0.76937 -0.064,-1.38907 -0.35085,-0.53545 -0.67018,-0.69194 -1.41196,-0.69194 h -0.95858 l 0.71499,0.66262 c 0.72427,0.67124 0.71514,0.8861 -0.0768,1.80603 -0.39397,0.45766 -0.36678,0.47947 0.49501,0.39687 0.65823,-0.0631 1.0202,-0.28131 1.30127,-0.78451 z m 7.49847,-1.13583 c 0.92821,0.19799 0.96937,-0.3172 0.0585,-0.73222 -0.55989,-0.25511 -0.78389,-0.21917 -1.37238,0.2202 -0.99429,0.74235 -1.10272,1.24569 -0.16167,0.75044 0.43543,-0.22916 1.05195,-0.32877 1.47555,-0.23842 z m 0.80194,-4.16567 c 0.75004,-1.00557 0.44508,-1.59555 -0.77117,-1.49197 -1.17524,0.1001 -1.60678,0.88823 -0.97794,1.78603 0.50138,0.71581 1.06676,0.62076 1.74911,-0.29406 z m -2.24063,-1.34741 c 0.11354,-0.58959 -0.6298,-0.88344 -1.14763,-0.45368 -0.30802,0.25563 -0.3275,0.41275 -0.0871,0.7024 0.40239,0.48485 1.12135,0.34002 1.23473,-0.24872 z m -1.59423,-0.57345 c 0.24195,-0.53103 0.19979,-0.76213 -0.24132,-1.32292 -0.29396,-0.37371 -0.64683,-0.67948 -0.78414,-0.67948 -0.38425,0 -1.13044,1.75053 -0.9484,2.22491 0.26534,0.69146 1.62738,0.53793 1.97386,-0.22251 z"
       id="path1-34" />
  </g>
  <path
     style="fill:#ffffff;stroke-width:3.35042"
     d="m 101.99598,43.44746 c -0.59588,-0.221205 -1.11463,-0.66956 -1.75953,-1.520759 -0.809496,-1.068436 -1.138657,-1.930352 -1.147457,-3.004633 -0.006,-0.730462 0.03588,-0.941866 0.277658,-1.402071 0.738329,-1.405359 2.348259,-2.208041 4.766009,-2.37625 2.63323,-0.183201 4.17023,0.741188 3.99853,2.404812 -0.12646,1.225249 -1.43965,3.356447 -2.92338,4.744408 -1.17924,1.103122 -2.28222,1.499589 -3.21183,1.154493 z"
     id="path1"
     transform="scale(0.26458333)" />
  <path
     style="fill:#ffffff;stroke-width:3.35042"
     d="m 95.148198,37.538616 c -0.599687,-0.161448 -1.026841,-0.456815 -1.596413,-1.103884 -0.769856,-0.874603 -0.689306,-1.568224 0.273763,-2.357387 1.761006,-1.443011 4.161646,-0.903757 4.31701,0.969727 0.05951,0.717652 -0.09674,1.197971 -0.56931,1.750065 -0.580823,0.678561 -1.553767,0.976047 -2.42505,0.741479 z"
     id="path2"
     transform="scale(0.26458333)" />
  <path
     style="fill:#ffffff;stroke-width:3.35042"
     d="m 86.669485,35.794489 c -0.73919,-0.198738 -1.225206,-0.499285 -1.596963,-0.987544 -0.275719,-0.362124 -0.29304,-0.450494 -0.287781,-1.468202 0.0051,-0.977811 0.04851,-1.209115 0.447846,-2.383795 0.788108,-2.318279 2.085553,-4.5748 2.800727,-4.871035 0.44979,-0.186309 0.827101,0.02375 1.892404,1.053555 1.590371,1.537376 2.616809,3.100868 2.725201,4.151081 0.105982,1.026871 -0.63474,2.717121 -1.497603,3.417373 -0.64815,0.526003 -1.495578,0.928043 -2.328096,1.104504 -0.888098,0.188241 -1.41068,0.184378 -2.155735,-0.01594 z"
     id="path3"
     transform="scale(0.26458333)" />
  <path
     style="fill:#ffffff;stroke-width:3.35042"
     d="m 95.826776,58.044242 c -0.643586,-0.265186 1.249764,-2.33579 3.521264,-3.850923 1.06385,-0.709604 1.80325,-1.024914 2.40343,-1.024914 0.8913,0 2.89789,0.878686 3.79078,1.659982 0.93623,0.819222 1.00122,1.438378 0.17506,1.667819 -0.54093,0.150225 -0.7978,0.142501 -2.09106,-0.06287 -1.92079,-0.305031 -3.61021,-0.0076 -5.891003,1.037043 -1.132961,0.518931 -1.658373,0.67692 -1.908471,0.573868 z"
     id="path4"
     transform="scale(0.26458333)" />
  <path
     style="fill:#ffffff;stroke-width:3.35042"
     d="m 88.263823,69.492272 c -0.892485,-0.442452 -2.101785,-1.637636 -2.511866,-2.482543 -0.244532,-0.503819 -0.291276,-0.720692 -0.249359,-1.156924 0.09397,-0.977974 0.70924,-1.339729 2.599991,-1.528696 2.558625,-0.255717 4.260403,0.32237 4.255632,1.44562 -0.0017,0.401794 -0.473993,1.277094 -1.053495,1.952471 -0.546624,0.637059 -2.135879,2.111731 -2.275814,2.111731 -0.04176,0 -0.386046,-0.153746 -0.765089,-0.341659 z"
     id="path5"
     transform="scale(0.26458333)" />
  <path
     style="fill:#ffffff;stroke-width:3.35042"
     d="m 67.753079,63.726169 c -0.199047,-0.138202 -0.07529,-0.349061 0.880668,-1.500544 1.720149,-2.071968 2.218701,-2.9239 2.220569,-3.794533 0.0022,-1.010103 -0.572583,-1.759193 -3.278295,-4.272705 l -1.290234,-1.198583 2.20415,5.32e-4 c 4.111555,9.92e-4 5.089768,0.422264 6.682885,2.878016 1.126475,1.736433 1.252342,2.448153 0.667119,3.772245 -1.027248,2.324193 -2.370841,3.50215 -4.482192,3.929636 -1.014471,0.205399 -3.399453,0.328422 -3.60467,0.185936 z"
     id="path6"
     transform="scale(0.26458333)" />
</svg>
