<?xml version="1.0" encoding="UTF-8" standalone="no"?>
<svg
   width="36.777084mm"
   height="34.564167mm"
   viewBox="0 0 36.777084 34.564167"
   version="1.1"
   id="svg1"
   sodipodi:docname="kage-harmonica.svg"
   inkscape:version="1.4.3 (0d15f75, 2025-12-25)"
   xmlns:inkscape="http://www.inkscape.org/namespaces/inkscape"
   xmlns:sodipodi="http://sodipodi.sourceforge.net/DTD/sodipodi-0.dtd"
   xmlns="http://www.w3.org/2000/svg"
   xmlns:svg="http://www.w3.org/2000/svg">
  <defs
     id="defs1" />
  <sodipodi:namedview
     id="namedview1"
     pagecolor="#ffffff"
     bordercolor="#000000"
     borderopacity="0.25"
     inkscape:showpageshadow="2"
     inkscape:pageopacity="0.0"
     inkscape:pagecheckerboard="0"
     inkscape:deskcolor="#d1d1d1"
     inkscape:document-units="mm"
     inkscape:zoom="9.3006364"
     inkscape:cx="69.511372"
     inkscape:cy="65.318111"
     inkscape:window-width="5120"
     inkscape:window-height="1417"
     inkscape:window-x="-8"
     inkscape:window-y="-8"
     inkscape:window-maximized="1"
     inkscape:current-layer="svg1" />
  <g
     transform="translate(-86.611455,-131.21792)"
     id="g1">
    <path
       style="display:inline;fill:#000000"
       d="m 99.532013,161.03997 c -2.72483,-0.30267 -5.15418,-0.77103 -5.80498,-1.11916 -0.49845,-0.26664 -0.49569,-0.28885 0.0955,-0.76753 0.33482,-0.27112 0.8337,-0.49294 1.10862,-0.49294 0.6377,0 0.63596,-0.32398 -0.005,-0.90391 -0.27758,-0.25121 -0.77573,-1.07333 -1.107,-1.82694 -1.21956,-2.77445 -0.62734,-6.28865 1.62928,-9.66796 0.8752,-1.31062 1.04076,-1.77555 1.04076,-2.92274 0,-0.75031 0.17619,-1.78588 0.39153,-2.30127 0.45558,-1.09036 0.81495,-1.06722 2.79288,0.17982 1.152167,0.72642 1.247167,0.74255 2.381247,0.40432 1.81778,-0.54214 3.96164,-0.72823 5.35333,-0.46466 0.69393,0.13142 1.31917,0.14595 1.38941,0.0323 0.27389,-0.44316 2.62588,-1.84355 3.09629,-1.84355 0.61551,0 1.14722,1.19836 1.49791,3.37594 0.18732,1.16318 0.50757,1.92464 1.17984,2.80536 1.50008,1.96522 2.1365,3.90749 2.13594,6.5187 -5.2e-4,2.48697 -0.51209,4.01156 -1.80766,5.38726 -0.39212,0.41637 -0.67659,0.77646 -0.63215,0.80018 0.0444,0.0237 0.60789,0.21884 1.2521,0.43358 3.5211,1.17372 -0.46233,2.29571 -8.84422,2.49112 -2.76489,0.0645 -5.97958,0.0114 -7.143747,-0.11792 z m 2.699127,-5.54392 c 0.46588,-0.28407 1.02535,-0.86127 1.24327,-1.28268 0.37125,-0.71791 0.6013,-0.80574 3.65086,-1.39377 1.79006,-0.34517 3.35778,-0.63073 3.48383,-0.63457 0.12605,-0.004 0.42371,0.51896 0.66146,1.16178 0.23775,0.64283 0.56767,1.21382 0.73315,1.26887 0.16547,0.055 0.026,-0.44283 -0.30994,-1.1064 -0.33595,-0.66357 -0.65127,-1.32787 -0.70072,-1.47622 -0.0566,-0.16964 -1.43055,-0.004 -3.70293,0.44553 -3.15491,0.62456 -3.64815,0.79234 -3.89004,1.32322 -0.15235,0.33438 -0.77544,0.96903 -1.38463,1.41033 -1.23652,0.89573 -1.09444,1.08274 0.21569,0.28391 z m 1.93108,-2.92113 c 0,-0.14552 -0.12609,-0.26458 -0.2802,-0.26458 -0.15411,0 -0.20662,0.11906 -0.11668,0.26458 0.0899,0.14552 0.21603,0.26458 0.2802,0.26458 0.0642,0 0.11668,-0.11906 0.11668,-0.26458 z m -3.24161,-0.86127 c -0.0543,-0.16296 -0.24023,-0.34344 -0.41313,-0.40107 -0.19335,-0.0644 -0.25248,0.0565 -0.1536,0.31419 0.0884,0.23044 0.029,0.41898 -0.13211,0.41898 -0.16109,0 -0.292887,0.12325 -0.292887,0.27389 0,0.18301 0.180927,0.17707 0.545247,-0.0179 0.29988,-0.16049 0.5008,-0.42513 0.44648,-0.58808 z m 4.29994,0.59669 c 0,-0.14553 -0.11906,-0.26459 -0.26458,-0.26459 -0.14553,0 -0.26459,0.11906 -0.26459,0.26459 0,0.14552 0.11906,0.26458 0.26459,0.26458 0.14552,0 0.26458,-0.11906 0.26458,-0.26458 z m 1.25126,-0.15986 c -0.0879,-0.0879 -0.31612,-0.0973 -0.50712,-0.0209 -0.21107,0.0845 -0.14837,0.14716 0.15985,0.15986 0.27892,0.0115 0.43519,-0.051 0.34727,-0.13897 z m 3.22795,-1.42683 c 2.97289,-0.58621 5.4732,-1.14096 5.55625,-1.23279 0.17805,-0.19686 0.11863,-0.18694 -6.79241,1.13418 -2.94575,0.56311 -5.35677,1.1154 -5.35781,1.22732 -0.001,0.11191 0.26598,0.14354 0.5934,0.0703 0.32743,-0.0733 3.02768,-0.6128 6.00057,-1.19901 z m -2.03182,1.14687 c -0.1819,-0.0734 -0.47955,-0.0734 -0.66145,0 -0.1819,0.0734 -0.0331,0.13346 0.33073,0.13346 0.3638,0 0.51263,-0.0601 0.33072,-0.13346 z m -5.88697,-0.29689 c 0,-0.11414 -0.38696,-0.43361 -0.8599,-0.70992 l -0.8599,-0.50238 0.66146,0.70535 c 0.66243,0.70638 1.05834,0.89602 1.05834,0.50695 z m 7.14375,-0.057 c 0,-0.14553 -0.11907,-0.26459 -0.26459,-0.26459 -0.14552,0 -0.26458,0.11906 -0.26458,0.26459 0,0.14552 0.11906,0.26458 0.26458,0.26458 0.14552,0 0.26459,-0.11906 0.26459,-0.26458 z m 5.39421,-0.40514 c -0.24135,-0.36834 -0.50133,-0.6072 -0.57774,-0.53079 -0.12724,0.12725 0.6945,1.20051 0.91917,1.20051 0.0536,0 -0.10008,-0.30137 -0.34143,-0.66972 z m -5.32807,-0.94123 c 3.16508,-0.60201 5.75469,-1.18145 5.75469,-1.28765 0,-0.10619 -0.39978,-0.40837 -0.88839,-0.6715 -1.02403,-0.55148 -0.82432,-0.57048 -8.08796,0.76969 -2.82693,0.52158 -5.20818,0.95153 -5.29166,0.95544 -0.0835,0.004 0.26494,0.3546 0.77426,0.7793 0.55944,0.4665 1.13553,0.72807 1.45521,0.66073 0.29104,-0.0613 3.11877,-0.604 6.28385,-1.20601 z m -6.94531,0.28803 c 0,-0.14552 0.11203,-0.26458 0.24897,-0.26458 0.13693,0 0.32255,0.11906 0.41249,0.26458 0.0899,0.14552 -0.0221,0.26459 -0.24897,0.26459 -0.22687,0 -0.41249,-0.11907 -0.41249,-0.26459 z m 10.45104,-1.85208 c -0.20695,-0.33486 0.14331,-0.33486 0.66146,0 0.34202,0.22103 0.33504,0.25704 -0.0505,0.26053 -0.24607,0.002 -0.52099,-0.11501 -0.61093,-0.26053 z m -2.24896,2.79374 c 0,-0.27926 -0.50776,-0.39659 -0.65879,-0.15222 -0.0914,0.14789 0.0194,0.2689 0.2463,0.2689 0.22687,0 0.41249,-0.0525 0.41249,-0.11668 z m 4.67431,-0.80937 c 0,-0.21828 -0.0992,-0.39687 -0.22049,-0.39687 -0.26424,0 -0.29072,0.37073 -0.0441,0.61736 0.24525,0.24525 0.26458,0.22913 0.26458,-0.22049 z m -8.37847,-2.36563 c 0,-0.0642 -0.11907,-0.19026 -0.26459,-0.2802 -0.14552,-0.0899 -0.26458,-0.0374 -0.26458,0.11668 0,0.15411 0.11906,0.2802 0.26458,0.2802 0.14552,0 0.26459,-0.0525 0.26459,-0.11668 z m 1.71206,-0.39999 c 0.0642,-0.10389 -0.23521,-0.18889 -0.66537,-0.18889 -0.43016,0 -0.78211,0.14224 -0.78211,0.31609 0,0.3306 1.23142,0.22239 1.44748,-0.1272 z m -4.58045,-0.74364 c 0.42626,0.0626 0.82694,0.0297 0.89041,-0.073 0.0635,-0.10269 -0.31571,-0.25666 -0.8426,-0.34216 -0.97584,-0.15836 -1.94192,0.1579 -1.94192,0.63571 0,0.16539 0.20977,0.15232 0.55955,-0.0349 0.30775,-0.1647 0.9083,-0.24828 1.33456,-0.18571 z m 7.38835,-1.14299 c 0.66505,-0.66505 0.44923,-1.04078 -0.2397,-0.4173 -0.26701,0.24164 -0.75102,0.43935 -1.07557,0.43935 -0.32602,0 -0.51691,0.1184 -0.42657,0.26458 0.2734,0.44237 1.15848,0.29672 1.74184,-0.28663 z m -5.5783,-7.26234 c 0,-0.22285 0.18594,-0.47653 0.41319,-0.56373 0.2773,-0.10641 0.38607,-0.42119 0.33073,-0.95711 -0.0732,-0.70893 0.0257,-0.83602 0.88139,-1.1324 0.95778,-0.33174 0.96486,-0.32878 1.12448,0.46932 0.30072,1.50362 0.20119,2.05993 -0.36854,2.05993 -0.60573,0 -0.66806,-0.31393 -0.20845,-1.04989 0.39904,-0.63897 0.23089,-0.82771 -0.55446,-0.62233 -0.48306,0.12632 -0.58113,0.29689 -0.47872,0.83263 0.0708,0.37057 0.0688,0.83014 -0.005,1.02126 -0.18603,0.48479 -1.13507,0.43656 -1.13507,-0.0577 z m 8.31013,0.0405 c -0.19607,-0.51097 0.0726,-0.95827 0.57558,-0.95827 0.21329,0 0.50589,-0.3106 0.65023,-0.69021 0.22915,-0.60274 0.31738,-0.64466 0.69611,-0.33073 0.37826,0.31354 0.38213,0.36956 0.0302,0.43836 -0.2219,0.0434 -0.51256,0.45929 -0.6459,0.92423 -0.25999,0.90654 -1.05161,1.28022 -1.30626,0.61662 z"
       id="path1-14" />
  </g>
  <path
     style="fill:#ffffff;stroke-width:3.35042"
     d="m 57.496066,61.063453 c -0.147188,-0.149603 -0.08273,-0.63274 0.131243,-0.983667 0.446835,-0.732845 1.576978,-1.306585 3.174982,-1.611846 1.879212,-0.358978 5.225661,0.02197 6.53426,0.743831 0.521961,0.28793 0.544117,0.402828 0.120004,0.622307 -0.242675,0.125583 -0.604573,0.150972 -1.654606,0.116079 -3.947316,-0.131175 -4.848773,-0.03265 -6.492764,0.709634 -0.849862,0.383724 -1.656131,0.563226 -1.813119,0.403662 z"
     id="path1"
     transform="scale(0.26458333)" />
  <path
     style="fill:#ffffff;stroke-width:3.35042"
     d="m 73.750123,64.358706 c -0.378615,-0.378615 -0.44043,-1.008391 -0.116019,-1.18201 0.259865,-0.139076 0.988959,0.213885 1.365035,0.660826 0.313207,0.372225 0.299862,0.512551 -0.06652,0.699487 -0.439483,0.224233 -0.840414,0.163779 -1.182495,-0.178303 z"
     id="path2"
     transform="scale(0.26458333)" />
  <path
     style="fill:#ffffff;stroke-width:3.35042"
     d="m 77.057745,63.811056 c -1.017003,-0.305275 -0.748467,-1.077593 0.505499,-1.453835 1.191016,-0.357354 3.394176,-0.28887 4.026046,0.125147 0.244793,0.160395 0.246164,0.17012 0.05396,0.382826 -0.30287,0.335178 -1.167566,0.732938 -1.957192,0.900308 -0.779731,0.165272 -2.150343,0.189028 -2.628315,0.04555 z"
     id="path3"
     transform="scale(0.26458333)" />
  <path
     style="fill:#ffffff;stroke-width:3.35042"
     d="m 87.340948,57.573084 c -0.829993,-0.166242 -1.59635,-0.755239 -1.517226,-1.166092 0.05995,-0.311298 0.673402,-0.546384 1.705113,-0.65343 1.666492,-0.172909 2.735003,-0.626777 4.182676,-1.776661 1.071796,-0.851326 1.426009,-1.047553 1.810734,-1.003108 0.405965,0.0469 0.423185,0.391239 0.05403,1.080511 -0.403068,0.752603 -1.853122,2.186823 -2.722299,2.692574 -1.146532,0.667136 -2.600257,1.009028 -3.513033,0.826206 z"
     id="path4"
     transform="scale(0.26458333)" />
  <path
     style="fill:#ffffff;stroke-width:3.35042"
     d="M 59.350777,75.974352 C 57.600303,75.407 54.827718,73.439435 52.9501,71.43211 l -0.532452,-0.569235 0.321619,-0.08129 c 0.17689,-0.04471 4.990653,-0.928266 10.697252,-1.963456 5.706599,-1.03519 13.422273,-2.440242 17.145944,-3.122338 12.198068,-2.234423 15.050847,-2.66664 17.690382,-2.68022 2.074625,-0.01067 2.282245,0.04046 4.193265,1.03284 1.88086,0.97672 3.76318,2.300386 3.76318,2.646311 0,0.466854 -9.238158,2.502379 -25.213329,5.555476 -3.902958,0.745914 -10.098076,1.934723 -13.766928,2.641797 -3.668853,0.707075 -6.813799,1.282988 -6.98877,1.279807 -0.17497,-0.0032 -0.584239,-0.09203 -0.909486,-0.197448 z m 1.370874,-2.44143 c 0.728014,-0.468866 -0.381304,-1.859481 -1.490773,-1.868798 -0.674632,-0.0057 -1.172273,0.886949 -0.806072,1.445844 0.418975,0.639436 1.617907,0.860213 2.296845,0.422954 z m 40.539939,-7.050699 c 0.0227,-0.118574 -0.17847,-0.324208 -0.59015,-0.603353 -2.084685,-1.413559 -3.659769,-1.548617 -2.930631,-0.251292 0.228049,0.405759 0.780442,0.80189 1.373524,0.984982 0.158107,0.04881 0.698185,0.07992 1.200177,0.06914 0.75817,-0.01628 0.91852,-0.05006 0.94708,-0.199481 z"
     id="path5"
     transform="scale(0.26458333)" />
  <path
     style="fill:#ffffff;stroke-width:3.35042"
     d="m 56.178951,77.394596 c -0.677167,-0.361366 -1.694078,-1.272094 -3.276781,-2.934632 -0.902147,-0.947653 -1.615785,-1.723006 -1.585862,-1.723006 0.106027,0 3.046909,1.747952 3.841208,2.283072 1.013705,0.682934 1.854183,1.396344 2.028266,1.721621 0.09754,0.182251 0.103879,0.330077 0.02326,0.542132 -0.130699,0.343766 -0.5159,0.385205 -1.030087,0.110813 z"
     id="path6"
     transform="scale(0.26458333)" />
  <path
     style="fill:#ffffff;stroke-width:3.35042"
     d="m 50.498337,80.084126 c -0.03942,-0.03942 -0.07168,-0.210967 -0.07168,-0.381206 0,-0.373147 0.395164,-0.801958 0.824016,-0.894177 0.861666,-0.185292 1.018455,-0.470649 0.793647,-1.444441 -0.312948,-1.355582 -0.279681,-1.477245 0.370577,-1.355256 0.437124,0.082 1.368511,0.889187 1.560313,1.352238 0.11656,0.281402 0.108299,0.391361 -0.05693,0.757772 -0.106301,0.235733 -0.405199,0.623951 -0.664219,0.862707 -0.805922,0.742873 -2.455386,1.402702 -2.755725,1.102363 z"
     id="path7"
     transform="scale(0.26458333)" />
  <path
     style="fill:#ffffff;stroke-width:3.35042"
     d="m 62.657003,78.253857 c -0.42811,-0.111876 -0.162968,-0.354564 0.677406,-0.620038 3.104859,-0.980825 10.423487,-2.536586 25.04664,-5.324304 15.087161,-2.876175 17.701631,-3.352228 19.246151,-3.504413 0.74112,-0.07302 0.79438,-0.06515 0.65937,0.09754 -0.43568,0.525003 -6.52887,1.857713 -28.877979,6.316234 -14.212529,2.835318 -16.16323,3.188738 -16.751588,3.034984 z"
     id="path8"
     transform="scale(0.26458333)" />
  <path
     style="fill:#ffffff;stroke-width:3.35042"
     d="m 65.450111,81.345591 c -0.441929,-0.388018 -0.78044,-0.993467 -0.688871,-1.23209 0.16568,-0.431758 0.988604,-0.383222 1.311188,0.07733 0.274073,0.391293 0.154453,1.470246 -0.163001,1.470246 -0.055,0 -0.26169,-0.14197 -0.459316,-0.315488 z"
     id="path9"
     transform="scale(0.26458333)" />
  <path
     style="fill:#ffffff;stroke-width:3.35042"
     d="m 68.849636,80.485782 c -1.000181,-0.60987 -0.133939,-2.116912 0.907298,-1.578468 0.379661,0.196331 0.597177,0.708827 0.457154,1.077115 -0.113416,0.298307 -0.607183,0.709138 -0.851615,0.708572 -0.09551,-2.21e-4 -0.326289,-0.09347 -0.512837,-0.207219 z"
     id="path10"
     transform="scale(0.26458333)" />
  <path
     style="fill:#ffffff;stroke-width:3.35042"
     d="m 73.220796,79.547183 c -0.444733,-0.09051 -0.474648,-0.222964 -0.09473,-0.419428 0.49739,-0.25721 1.530226,-0.26942 1.77924,-0.02103 0.128659,0.128335 0.153029,0.222226 0.07733,0.297926 -0.125668,0.125668 -1.355738,0.225182 -1.761841,0.142535 z"
     id="path11"
     transform="scale(0.26458333)" />
  <path
     style="fill:#ffffff;stroke-width:3.35042"
     d=""
     id="path12"
     transform="scale(0.26458333)" />
  <path
     style="fill:#ffffff;stroke-width:3.35042"
     d="m 82.885517,77.521615 c -0.15446,-0.08395 -0.343206,-0.303206 -0.419436,-0.487242 -0.184187,-0.444665 0.0566,-0.979537 0.529072,-1.17524 0.724192,-0.29997 1.491841,0.456258 1.193727,1.175967 -0.132997,0.321085 -0.587741,0.652541 -0.882789,0.643451 -0.07686,-0.0024 -0.266115,-0.07299 -0.420574,-0.156936 z"
     id="path13"
     transform="scale(0.26458333)" />
  <path
     style="fill:#ffffff;stroke-width:3.35042"
     d="m 87.440916,76.603272 c -0.429909,-0.09331 -0.67266,-0.285195 -0.67266,-0.531712 0,-0.26587 0.484845,-0.716703 0.849126,-0.789559 0.664019,-0.132804 1.623823,0.385955 1.623823,0.87765 0,0.34758 -1.050324,0.606397 -1.800289,0.443621 z"
     id="path14"
     transform="scale(0.26458333)" />
  <path
     style="fill:#ffffff;stroke-width:3.35042"
     d="m 104.94818,76.84958 c -1.15839,-1.165614 -2.37455,-2.924534 -2.37455,-3.4343 0,-0.303887 0.0421,-0.306208 0.49354,-0.02721 0.4812,0.297401 1.33407,1.38864 2.15968,2.763283 0.9946,1.656026 0.90251,1.886762 -0.27867,0.698225 z"
     id="path15"
     transform="scale(0.26458333)" />
  <path
     style="fill:#ffffff;stroke-width:3.35042"
     d="m 106.12685,74.053331 c -0.62853,-0.652092 -0.83195,-1.253126 -0.60664,-1.792379 0.34613,-0.828404 1.12773,-0.524214 1.36382,0.530788 0.14066,0.628501 0.0473,1.77305 -0.14465,1.77305 -0.0657,0 -0.34139,-0.230157 -0.61253,-0.511459 z"
     id="path16"
     transform="scale(0.26458333)" />
  <path
     style="fill:#ffffff;stroke-width:3.35042"
     d="m 55.149836,93.395057 c 0.177385,-0.331447 1.171805,-1.188229 2.977002,-2.564955 2.788581,-2.126699 4.603612,-3.970635 5.424622,-5.511008 1.012889,-1.900374 2.688619,-2.489055 13.040897,-4.581245 6.114419,-1.235721 10.492261,-1.962822 13.207213,-2.193542 1.221906,-0.103839 1.541776,-0.09442 2.135063,0.0629 0.0917,0.02431 0.23065,0.225448 0.308789,0.446965 0.07814,0.221516 0.857601,1.878463 1.732139,3.682103 1.601015,3.301924 2.094526,4.480252 2.163296,5.165177 0.03117,0.31046 0.0025,0.372078 -0.17317,0.372078 -0.465109,0 -1.714259,-2.137685 -2.673787,-4.575684 -0.958114,-2.434405 -1.876547,-4.15931 -2.349382,-4.412364 -0.247647,-0.132537 -0.14231,-0.147238 -4.335541,0.605079 -6.413718,1.1507 -14.588846,2.751173 -16.826806,3.294242 -3.764998,0.913625 -4.942173,1.58583 -5.930419,3.386465 -1.497177,2.727934 -3.85014,4.806204 -7.394595,6.531328 -1.113791,0.542093 -1.483217,0.624864 -1.305321,0.292462 z"
     id="path17"
     transform="scale(0.26458333)" />
</svg>
