<?xml version="1.0" encoding="UTF-8" standalone="no"?>
<svg
   width="36.777084mm"
   height="34.564167mm"
   viewBox="0 0 36.777084 34.564167"
   version="1.1"
   id="svg1"
   sodipodi:docname="kage-moon.svg"
   inkscape:version="1.4.3 (0d15f75, 2025-12-25)"
   xmlns:inkscape="http://www.inkscape.org/namespaces/inkscape"
   xmlns:sodipodi="http://sodipodi.sourceforge.net/DTD/sodipodi-0.dtd"
   xmlns="http://www.w3.org/2000/svg"
   xmlns:svg="http://www.w3.org/2000/svg">
  <defs
     id="defs1" />
  <sodipodi:namedview
     id="namedview1"
     pagecolor="#ffffff"
     bordercolor="#000000"
     borderopacity="0.25"
     inkscape:showpageshadow="2"
     inkscape:pageopacity="0.0"
     inkscape:pagecheckerboard="0"
     inkscape:deskcolor="#d1d1d1"
     inkscape:document-units="mm"
     inkscape:zoom="9.3006364"
     inkscape:cx="69.511372"
     inkscape:cy="65.318111"
     inkscape:window-width="5120"
     inkscape:window-height="1417"
     inkscape:window-x="-8"
     inkscape:window-y="-8"
     inkscape:window-maximized="1"
     inkscape:current-layer="svg1" />
  <g
     transform="translate(-86.611455,-131.21792)"
     id="g1">
    <path
       style="display:inline;fill:#000000"
       d="m 102.68275,162.92347 c -9.788127,-1.96467 -14.990347,-12.78702 -10.362617,-21.55772 1.15415,-2.1874 3.88607,-4.87088 6.01251,-5.9059 2.689987,-1.30931 6.304857,-2.06023 6.715937,-1.39509 0.0814,0.13179 -0.44545,0.66604 -1.17089,1.18722 -3.36469,2.41729 -5.265947,7.10231 -4.537157,11.18035 0.41249,2.3082 0.702427,2.84054 1.049667,1.92724 0.13825,-0.36364 0.66791,-1.20686 1.17701,-1.87381 0.50909,-0.66695 1.01246,-1.61555 1.1186,-2.10799 0.27116,-1.25819 0.87224,-2.35056 1.29339,-2.35056 0.19626,0 0.81178,0.41672 1.36783,0.92604 0.89125,0.81636 1.17825,0.92605 2.42301,0.92605 0.7766,0 1.83405,0.17634 2.34988,0.39187 0.86246,0.36036 1.02052,0.34972 1.96534,-0.13229 1.92642,-0.98279 2.37145,-0.6825 2.37145,1.60014 0,0.85571 0.21593,1.6934 0.6441,2.49867 0.90535,1.70272 1.30795,3.8405 0.99744,5.29637 -0.24413,1.14466 -0.236,1.16785 0.31065,0.8865 0.30874,-0.1589 0.94036,-0.57163 1.40359,-0.91717 1.10591,-0.82494 1.77081,-0.83928 1.52682,-0.0329 -0.46243,1.52826 -1.97881,3.87983 -3.45146,5.35248 -3.42063,3.42063 -8.59202,5.02649 -13.2051,4.10055 z m 5.55625,-0.65509 c 3.99155,-0.83436 7.83147,-3.67534 9.72892,-7.19799 l 0.73309,-1.36098 -1.62348,0.9636 c -0.89291,0.52998 -1.67553,1.14594 -1.73915,1.3688 -0.30909,1.08275 -1.27721,2.6791 -1.85394,3.05698 -0.35445,0.23225 -1.02483,0.38545 -1.48974,0.34045 -1.27248,-0.12317 -1.28095,-1.01461 -0.0188,-1.97505 l 0.98905,-0.7526 -2.75986,-0.15885 c -3.29964,-0.18991 -5.23624,-0.84932 -7.19275,-2.44912 -5.549927,-4.5381 -5.895977,-13.03467 -0.74083,-18.18982 l 1.5116,-1.51159 -0.94707,0.14203 c -4.228977,0.63419 -8.223527,3.5986 -10.148307,7.53119 -4.10402,8.38507 0.70273,18.18649 9.897327,20.18156 2.20626,0.47872 3.40665,0.48114 5.65392,0.0114 z m -2.13526,-12.53817 c 0.0797,-0.12898 -0.0919,-0.29642 -0.38126,-0.37211 -0.34099,-0.0892 -0.52619,-0.007 -0.52619,0.23451 0,0.40883 0.67643,0.5114 0.90745,0.1376 z m 3.72842,-1.08216 c -0.5714,-0.63139 -1.52587,-0.69784 -1.99004,-0.13855 -0.28033,0.33778 -0.21118,0.39688 0.46438,0.39688 0.43656,0 0.94616,0.18364 1.13243,0.40809 0.22995,0.27706 0.42522,0.32154 0.60823,0.13854 0.183,-0.183 0.11398,-0.44145 -0.215,-0.80496 z m -5.16504,-0.8999 c 0,-0.60515 -0.73413,-1.03077 -1.46259,-0.84794 -0.37164,0.0933 -0.60309,0.28711 -0.51432,0.43074 0.0888,0.14363 0.25469,0.20348 0.36872,0.13301 0.11403,-0.0705 0.43322,0.0429 0.70932,0.25185 0.6381,0.48301 0.89887,0.49239 0.89887,0.0323 z"
       id="path1-18" />
  </g>
  <path
     style="fill:#ffffff;stroke-width:3.35042"
     d="m 69.081294,118.58094 c -2.049672,-0.13441 -4.719262,-0.51809 -7.472607,-1.07396 -11.471181,-2.31595 -21.129034,-7.49596 -28.976511,-15.54164 -4.073453,-4.176327 -7.108213,-8.469123 -9.679332,-13.691811 -2.997239,-6.08826 -4.620542,-11.855372 -5.341626,-18.977196 -0.201295,-1.988098 -0.165888,-7.381626 0.06247,-9.515478 0.442184,-4.131986 1.272548,-7.986048 2.536596,-11.773387 2.778926,-8.326215 6.897909,-14.918571 13.133895,-21.020555 4.188007,-4.098012 8.379347,-7.095579 13.534338,-9.679502 5.017065,-2.514788 9.451952,-3.910556 15.19055,-4.78084 1.19562,-0.181321 2.294812,-0.355511 2.442651,-0.38709 0.18488,-0.03949 -0.908483,1.128004 -3.502141,3.739588 -2.074016,2.088352 -4.134951,4.232458 -4.579855,4.76468 -6.251287,7.478174 -9.968039,16.359092 -10.894705,26.032133 -0.187438,1.956571 -0.215014,6.478818 -0.05074,8.320355 1.13767,12.753304 7.082367,24.02343 16.769529,31.792154 5.711041,4.580031 11.362863,7.013156 19.075418,8.21202 3.066622,0.476686 5.222265,0.658857 13.333897,1.126837 2.538534,0.146454 4.631807,0.282571 4.651717,0.302481 0.01991,0.01991 -0.942534,0.781442 -2.138766,1.692295 -1.196233,0.910852 -2.524814,2.001146 -2.952403,2.422876 -2.395926,2.36311 -2.603833,4.53952 -0.534494,5.59519 1.941541,0.99047 5.881276,0.62498 7.917055,-0.73446 1.02763,-0.68623 2.28896,-2.20422 3.67595,-4.42397 1.00477,-1.608044 2.56227,-4.794728 3.0581,-6.256959 0.37381,-1.102364 0.44562,-1.226754 1.05705,-1.830933 0.73633,-0.727607 2.639,-2.182796 4.07249,-3.114702 1.10558,-0.71873 7.53012,-4.554093 7.57104,-4.519806 0.0407,0.03414 -3.01888,5.657852 -3.65806,6.723693 -6.2796,10.471157 -17.437005,19.408357 -29.396516,23.546897 -3.872953,1.34022 -8.352386,2.34177 -12.722615,2.84463 -1.458285,0.1678 -4.979014,0.28538 -6.182373,0.20646 z"
     id="path1"
     transform="scale(0.26458333)" />
  <path
     style="fill:#ffffff;stroke-width:3.35042"
     d="m 66.687667,63.439805 c -0.311188,-0.144877 -1.017813,-0.578563 -1.570279,-0.963745 -1.490129,-1.038928 -2.365046,-1.360124 -3.040031,-1.116047 -0.298662,0.107998 -0.419384,0.09945 -0.737391,-0.05219 -0.534654,-0.254959 -0.693848,-0.639633 -0.417747,-1.00944 0.276856,-0.370818 1.201232,-0.836795 1.993514,-1.004929 0.761241,-0.161546 2.094427,-0.08515 2.778696,0.159232 1.108864,0.396021 2.050409,1.292323 2.362202,2.248694 0.179355,0.550142 0.09538,1.508863 -0.156544,1.787237 -0.255969,0.282842 -0.523157,0.272086 -1.21242,-0.04881 z"
     id="path2"
     transform="scale(0.26458333)" />
  <path
     style="fill:#ffffff;stroke-width:3.35042"
     d="m 71.339204,70.68313 c -0.927575,-0.284929 -1.3522,-1.361134 -0.757486,-1.919838 0.481359,-0.452213 1.878246,-0.256847 2.712334,0.379343 0.451921,0.344697 0.460887,0.678209 0.02982,1.109276 -0.491057,0.491057 -1.251783,0.656344 -1.984668,0.431219 z"
     id="path3"
     transform="scale(0.26458333)" />
  <path
     style="fill:#ffffff;stroke-width:3.35042"
     d="M 87.256009,69.128854 C 87.080755,69.037468 86.658908,68.697095 86.31857,68.372468 85.235913,67.339788 84.140277,66.965252 81.783896,66.822319 80.64422,66.753189 80.11237,66.676912 79.92808,66.55616 79.677582,66.392028 79.675025,66.376715 79.843643,66.050642 80.164806,65.429583 80.93983,64.7124 81.61937,64.40744 c 1.955428,-0.877543 4.244774,-0.337437 5.963575,1.406937 0.667393,0.677322 1.336084,1.796954 1.3353,2.235775 -6.09e-4,0.340044 -0.380449,0.892644 -0.742141,1.079682 -0.400888,0.207308 -0.520896,0.20718 -0.920095,-9.8e-4 z"
     id="path4"
     transform="scale(0.26458333)" />
</svg>
