<?xml version="1.0" encoding="UTF-8" standalone="no"?>
<svg
   width="36.777084mm"
   height="34.564167mm"
   viewBox="0 0 36.777084 34.564167"
   version="1.1"
   id="svg1"
   sodipodi:docname="kage-brush.svg"
   inkscape:version="1.4.3 (0d15f75, 2025-12-25)"
   xmlns:inkscape="http://www.inkscape.org/namespaces/inkscape"
   xmlns:sodipodi="http://sodipodi.sourceforge.net/DTD/sodipodi-0.dtd"
   xmlns="http://www.w3.org/2000/svg"
   xmlns:svg="http://www.w3.org/2000/svg">
  <defs
     id="defs1" />
  <sodipodi:namedview
     id="namedview1"
     pagecolor="#ffffff"
     bordercolor="#000000"
     borderopacity="0.25"
     inkscape:showpageshadow="2"
     inkscape:pageopacity="0.0"
     inkscape:pagecheckerboard="0"
     inkscape:deskcolor="#d1d1d1"
     inkscape:document-units="mm"
     inkscape:zoom="4.6503182"
     inkscape:cx="77.736616"
     inkscape:cy="91.284076"
     inkscape:window-width="2118"
     inkscape:window-height="1211"
     inkscape:window-x="1576"
     inkscape:window-y="51"
     inkscape:window-maximized="0"
     inkscape:current-layer="svg1" />
  <rect
     style="fill:#ffffff;stroke-width:7.02457"
     id="rect3"
     width="0.69697291"
     height="2.1051426"
     x="5.207592"
     y="23.913605"
     transform="rotate(-7.97982)" />
  <path
     id="rect2-8"
     style="fill:#ffffff;stroke-width:1.80113"
     transform="matrix(0.98732324,-0.15872246,0.46857102,0.88342584,0,0)"
     d="m -2.1976745,16.625751 0.4798467,-0.06032 0.6443117,0.569102 -0.4431304,2.351885 -1.58034,-0.397536 z"
     sodipodi:nodetypes="cccccc" />
  <rect
     style="fill:#ffffff;stroke-width:8.24468"
     id="rect1"
     width="11.208463"
     height="5.4904399"
     x="11.379149"
     y="14.992029" />
  <rect
     style="fill:#ffffff;stroke-width:2.18783"
     id="rect2"
     width="1.2020202"
     height="3.5537722"
     x="2.9319642"
     y="19.260468"
     transform="matrix(0.92054098,-0.39064605,0.19699244,0.98040502,0,0)" />
  <g
     transform="translate(-86.611455,-131.21792)"
     id="g1">
    <path
       style="display:inline;fill:#000000"
       d="m 99.966032,162.36505 c -3.55908,-0.46532 -4.47103,-1.07517 -2.39102,-1.59892 l 1.20966,-0.30459 -0.7656,-0.87198 c -0.97232,-1.1074 -1.45101,-2.54914 -1.23272,-3.71273 0.13712,-0.73092 0.0868,-0.90879 -0.25731,-0.90879 -0.28154,0 -0.41131,0.20352 -0.37957,0.59531 0.095,1.17258 0.0279,1.29588 -0.53952,0.99219 -0.29104,-0.15577 -0.52917,-0.46163 -0.52917,-0.67969 0,-0.21807 -0.40393,-0.63482 -0.89763,-0.92611 -1.05541,-0.62271 -1.2668,-1.19947 -0.82643,-2.25484 0.3781,-0.90614 -0.10677,-2.96856 -0.94989,-4.04041 -0.6793,-0.86359 -0.60154,-2.25321 0.17741,-3.17057 0.0427,-0.0503 0.43979,0.30692 0.88245,0.79375 0.5205,0.57246 0.80757,1.17079 0.81258,1.69368 0.009,0.95319 1.02231,4.08627 1.32141,4.08627 0.11371,0 0.2176,-0.54122 0.23088,-1.20271 0.0133,-0.66149 0.31661,-1.88188 0.67406,-2.71198 0.40637,-0.94368 0.703,-2.24501 0.79155,-3.47258 0.0933,-1.29328 0.28578,-2.10594 0.56402,-2.38125 0.38526,-0.3812 0.55978,-0.34348 1.98517,0.429 1.486178,0.80543 1.639328,0.83461 3.125088,0.59533 1.07924,-0.17381 2.00296,-0.15737 2.98739,0.0532 1.91045,0.40856 2.53138,0.37961 3.95666,-0.18452 1.81385,-0.71791 2.09861,-0.49032 2.09861,1.67726 0,1.74149 0.0468,1.8744 1.16865,3.31912 l 1.16864,1.50499 0.52921,-0.67278 c 1.39796,-1.77722 0.8816,-3.87768 -1.65756,-6.74261 -0.83833,-0.94589 -1.69141,-2.10292 -1.89575,-2.57119 -1.15164,-2.63918 0.63245,-6.07879 2.67119,-5.14987 0.78311,0.35681 0.87563,1.32301 0.26632,2.7813 -0.50688,1.21313 -0.30678,1.71925 1.49903,3.79148 1.77725,2.03947 2.46303,3.80674 2.25592,5.81353 -0.16462,1.595 -1.16815,3.56671 -2.13914,4.20293 -0.54532,0.35731 -0.58719,0.52466 -0.41321,1.65168 0.35917,2.32666 -0.68291,6.11572 -1.97745,7.19009 -0.56075,0.46538 -0.52698,0.81088 0.0793,0.81088 0.27322,0 0.63234,0.16335 0.79803,0.363 0.23852,0.2874 0.14884,0.42446 -0.43062,0.65808 -1.81189,0.73051 -10.10778,1.06013 -13.970598,0.5551 z m -4.31822,-7.67399 c -0.19893,-0.51761 -0.28379,-0.56453 -0.41904,-0.23167 -0.0933,0.22956 -0.0244,0.76535 0.15303,1.19062 0.2816,0.67494 0.33487,0.70439 0.41903,0.23167 0.053,-0.29785 -0.0158,-0.83364 -0.15302,-1.19062 z m -0.83523,-2.83188 c -0.012,-0.65647 -0.37517,-1.38906 -0.6887,-1.38906 -0.43544,0 -0.4675,0.37434 -0.0921,1.07573 0.26741,0.49966 0.78802,0.70857 0.78082,0.31333 z m 8.122348,-1.27331 c 0.0451,-0.13642 -0.27488,-0.26072 -0.71107,-0.27622 -0.85877,-0.0305 -1.08218,0.31173 -0.33006,0.50561 0.59951,0.15453 0.93892,0.0797 1.04113,-0.22939 z m -8.825198,-1.06369 c -0.22292,-0.5809 -0.85325,-0.45817 -0.6979,0.13588 0.076,0.29061 0.28626,0.45228 0.48769,0.37498 0.19475,-0.0747 0.28935,-0.30462 0.21021,-0.51086 z m 13.088968,0.36586 c 0.17462,-0.17463 0.3175,-0.62707 0.3175,-1.00542 0,-0.84476 -0.44383,-1.32292 -1.22793,-1.32292 -0.80374,0 -1.04625,0.47009 -0.29735,0.5764 0.44011,0.0625 0.59924,0.26071 0.59924,0.74652 0,0.48581 -0.15913,0.68404 -0.59924,0.74652 -0.32958,0.0468 -0.53091,0.19561 -0.44741,0.33073 0.21639,0.35012 1.27936,0.30399 1.65519,-0.0718 z m -4.37886,-0.3869 c -0.1819,-0.0734 -0.47955,-0.0734 -0.66146,0 -0.1819,0.0734 -0.0331,0.13345 0.33073,0.13345 0.36381,0 0.51263,-0.0601 0.33073,-0.13345 z m -2.59858,-0.50513 c 0.48755,-0.48755 0.51399,-0.75841 0.14188,-1.4537 -0.28838,-0.53884 -1.428408,-0.70359 -1.710478,-0.24719 -0.0908,0.14688 0.10824,0.26638 0.4474,0.26863 0.49637,0.003 0.53651,0.0538 0.21405,0.26943 -0.34614,0.23145 -0.33768,0.30026 0.0661,0.53826 0.633858,0.37358 0.58075,0.71628 -0.13229,0.85362 -0.59033,0.1137 -0.59049,0.11496 -0.0189,0.15069 0.31703,0.0198 0.76351,-0.15106 0.992188,-0.37974 z m -6.243718,-0.99689 c 0.0898,-0.47089 -0.88053,-1.76233 -1.32413,-1.76233 -0.2663,0 -0.29355,1.95338 -0.0309,2.21602 0.34525,0.34525 1.26117,0.0386 1.35504,-0.45369 z"
       id="path1-37" />
  </g>
</svg>
