<?xml version="1.0" encoding="UTF-8" standalone="no"?>
<svg
   width="36.777084mm"
   height="34.564167mm"
   viewBox="0 0 36.777084 34.564167"
   version="1.1"
   id="svg1"
   sodipodi:docname="kage-in-cute-box-with-tail.svg"
   inkscape:version="1.4.3 (0d15f75, 2025-12-25)"
   xmlns:inkscape="http://www.inkscape.org/namespaces/inkscape"
   xmlns:sodipodi="http://sodipodi.sourceforge.net/DTD/sodipodi-0.dtd"
   xmlns="http://www.w3.org/2000/svg"
   xmlns:svg="http://www.w3.org/2000/svg">
  <defs
     id="defs1" />
  <sodipodi:namedview
     id="namedview1"
     pagecolor="#ffffff"
     bordercolor="#000000"
     borderopacity="0.25"
     inkscape:showpageshadow="2"
     inkscape:pageopacity="0.0"
     inkscape:pagecheckerboard="0"
     inkscape:deskcolor="#d1d1d1"
     inkscape:document-units="mm"
     inkscape:zoom="9.3006364"
     inkscape:cx="69.511372"
     inkscape:cy="65.318111"
     inkscape:window-width="5120"
     inkscape:window-height="1417"
     inkscape:window-x="-8"
     inkscape:window-y="-8"
     inkscape:window-maximized="1"
     inkscape:current-layer="svg1" />
  <g
     transform="translate(-86.611455,-131.21792)"
     id="g1">
    <path
       style="display:inline;fill:#000000"
       d="m 100.6878,161.05079 -7.805212,-0.13229 -0.0741,-3.37344 -0.074,-3.37343 h -1.27091 c -0.699,0 -1.34519,-0.0743 -1.43597,-0.16506 -0.18649,-0.18649 0.5043,-1.63782 1.82624,-3.83689 0.73359,-1.22033 1.1356,-1.59202 2.23214,-2.06374 1.1852,-0.50986 1.31328,-0.64159 1.12534,-1.15743 -0.11664,-0.32015 -0.20478,-1.26225 -0.19587,-2.09356 0.0128,-1.1978 0.21899,-1.91158 0.99338,-3.43958 0.54839,-1.08208 0.9832,-2.33446 0.99092,-2.85416 0.008,-0.50932 0.15867,-1.34276 0.3358,-1.85208 0.38385,-1.10374 0.87137,-1.10584 2.36247,-0.0102 0.928852,0.68251 1.086132,0.71418 2.379252,0.47915 0.9322,-0.16943 1.8583,-0.15655 2.83416,0.0394 1.40246,0.28166 1.48552,0.26525 2.5588,-0.50552 1.52253,-1.0934 2.05555,-1.04389 2.4361,0.22626 0.16855,0.56259 0.30646,1.33239 0.30646,1.71068 0,0.37829 0.44155,1.4911 0.98121,2.4729 0.53967,0.9818 1.11822,2.32535 1.28567,2.98567 0.50158,1.9779 1.4232,1.5821 1.43368,-0.6157 0.002,-0.41687 -0.30934,-1.33294 -0.69184,-2.03572 -0.71166,-1.30755 -0.69822,-1.98906 0.0449,-2.27421 1.39312,-0.53459 2.93699,1.90512 2.69141,4.25313 -0.0773,0.73915 -0.18117,1.51588 -0.23079,1.72607 -0.0582,0.24642 0.19028,0.43506 0.69951,0.53107 0.60465,0.11401 1.11623,0.60484 2.18281,2.09432 0.76619,1.06997 1.39307,2.02658 1.39307,2.12579 0,0.0992 -0.65485,0.50155 -1.45521,0.89408 l -1.45521,0.7137 v 2.92883 2.92883 l -3.10885,1.46531 c -5.30049,2.49829 -4.4535,2.35764 -13.29532,2.20778 z m 7.94155,-2.71198 c 0.003,-1.50703 0.0835,-2.05994 0.26054,-1.78593 0.14106,0.21828 0.2583,1.19245 0.26053,2.16483 l 0.004,1.76795 3.70417,-1.74874 3.70416,-1.74874 v -2.55308 -2.55308 l -0.79375,0.1165 c -0.43656,0.0641 -0.79375,0.0549 -0.79375,-0.0203 0,-0.0752 0.9525,-0.58377 2.11667,-1.13008 1.16417,-0.54631 2.11667,-1.04236 2.11667,-1.10234 0,-0.14646 -1.57244,-2.47309 -2.04397,-3.02432 -0.34527,-0.40363 -0.59781,-0.34545 -3.15941,0.72776 -1.53128,0.64155 -2.88326,1.10519 -3.00441,1.03032 -0.12115,-0.0749 -0.35726,-0.5512 -0.52468,-1.05849 -0.16742,-0.5073 -0.38447,-0.91696 -0.48232,-0.91035 -0.0979,0.007 -0.47558,0.63168 -0.83938,1.38906 -0.56447,1.17514 -0.78226,1.38882 -1.4853,1.45727 -0.56907,0.0554 -0.91402,0.27816 -1.11548,0.72031 -0.30412,0.66747 -1.3421,1.08734 -2.03281,0.82229 -0.22079,-0.0847 -0.51576,-0.45476 -0.6555,-0.82229 -0.24545,-0.64558 -0.33398,-0.66823 -2.61143,-0.66823 -2.222572,0 -2.382162,0.0378 -2.790782,0.66145 -0.59128,0.90242 -1.78645,0.89518 -2.50252,-0.0152 -0.45968,-0.5844 -0.70438,-0.66554 -1.79533,-0.59532 -1.25698,0.0809 -1.2685,0.0903 -2.37797,1.93339 -0.61319,1.01865 -1.12362,1.94138 -1.1343,2.05052 -0.0107,0.10914 1.92629,0.19844 4.30438,0.19844 5.792042,0 11.551212,0.2914 11.551212,0.58446 0,0.13937 -2.73844,0.16042 -6.614592,0.0508 l -6.61458,-0.187 v 3.21543 3.21544 h 7.672922 7.67291 z M 95.989588,158.628 c -0.79446,-0.79447 -0.13293,-2.49439 0.89326,-2.29541 0.72232,0.14006 0.7741,0.76191 0.057,0.68414 -0.50029,-0.0542 -0.61764,0.0587 -0.61764,0.59448 0,0.5613 0.1128,0.65355 0.745,0.60926 0.47719,-0.0334 0.70763,0.0617 0.64105,0.26459 -0.1451,0.44219 -1.32154,0.54003 -1.71864,0.14294 z m 2.63446,-0.0114 c -0.17462,-0.17463 -0.3175,-0.79375 -0.3175,-1.37584 0,-1.20511 0.43741,-1.02395 0.57496,0.23813 0.12085,1.10897 0.85472,1.05857 0.96316,-0.0662 0.10851,-1.12543 0.578552,-1.11468 0.578552,0.0132 0,0.94893 -0.39242,1.50813 -1.058332,1.50813 -0.23284,0 -0.56621,-0.14288 -0.74084,-0.3175 z m 3.033892,0.14111 c -0.097,-0.097 -0.17639,-0.50671 -0.17639,-0.91043 0,-0.40372 -0.10782,-0.80068 -0.2396,-0.88212 -0.13783,-0.0852 -0.10974,-0.42809 0.0661,-0.8073 0.34131,-0.73587 0.70263,-0.8729 0.70263,-0.26647 0,0.21828 0.17859,0.39687 0.39687,0.39687 0.21829,0 0.39688,0.10633 0.39688,0.23628 0,0.12995 -0.17859,0.30481 -0.39688,0.38857 -0.21828,0.0838 -0.39687,0.45369 -0.39687,0.82206 0,0.41895 0.14862,0.66976 0.39687,0.66976 0.21829,0 0.39688,0.11906 0.39688,0.26458 0,0.29559 -0.87206,0.36267 -1.14653,0.0882 z m 1.95786,-0.31994 c -0.40421,-0.75526 -0.35038,-1.21201 0.20169,-1.71163 0.60141,-0.54426 1.20261,-0.55936 1.63281,-0.041 0.41211,0.49656 -0.0695,1.19062 -0.82614,1.19062 -0.27323,0 -0.49677,0.13258 -0.49677,0.29462 0,0.17743 0.31855,0.24786 0.80087,0.17707 0.50042,-0.0734 0.76574,-0.0103 0.70723,0.1684 -0.0515,0.15728 -0.46352,0.32267 -0.91559,0.36755 -0.6036,0.0599 -0.89689,-0.0584 -1.1041,-0.44563 z m 1.30534,-1.35576 c 0,-0.14552 -0.11204,-0.26458 -0.24897,-0.26458 -0.13694,0 -0.32256,0.11906 -0.41249,0.26458 -0.0899,0.14552 0.0221,0.26459 0.24897,0.26459 0.22687,0 0.41249,-0.11907 0.41249,-0.26459 z m -9.260422,-8.59896 c 0,-0.4453 -0.0485,-0.4632 -0.63982,-0.23627 -0.59118,0.22686 -0.52018,0.63315 0.11065,0.63315 0.29398,0 0.52917,-0.17639 0.52917,-0.39688 z m 17.583492,-1.96609 c 0.0837,-0.13546 0.0312,-0.32109 -0.11667,-0.41249 -0.1479,-0.0914 -0.2689,0.0194 -0.2689,0.2463 0,0.46475 0.15876,0.53318 0.38557,0.16619 z m -10.28218,-2.96958 c 0.12063,-0.19519 0.0722,-0.23339 -0.13428,-0.1058 -0.18932,0.11701 -0.47661,-0.003 -0.69393,-0.28984 -0.36069,-0.4761 -0.37109,-0.47605 -0.37927,0.002 -0.006,0.33384 -0.14003,0.44082 -0.41903,0.33376 -0.23546,-0.0904 -0.34166,-0.046 -0.24897,0.10398 0.22396,0.36238 1.64494,0.32911 1.87548,-0.0439 z m 3.81119,-1.58469 c 0,-1.07157 -1.0177,-1.54569 -1.97354,-0.9194 -0.37203,0.24376 -0.67229,0.69244 -0.67229,1.00458 0,0.54553 0.0172,0.54848 0.5242,0.0897 0.42899,-0.38823 0.59719,-0.41383 0.92604,-0.14091 0.22101,0.18343 0.40184,0.57162 0.40184,0.86267 0,0.44037 0.0666,0.47389 0.39687,0.19979 0.21829,-0.18116 0.39688,-0.67454 0.39688,-1.09641 z m -6.5046,0.39767 c 0.27024,-0.70423 -0.0955,-1.40422 -0.830032,-1.58857 -0.91591,-0.22988 -1.51334,0.18944 -1.60052,1.12337 -0.0601,0.64373 -0.0261,0.69262 0.21159,0.30404 0.38792,-0.63427 1.33083,-0.59278 1.50315,0.0661 0.16776,0.64153 0.489692,0.68427 0.715812,0.095 z"
       id="path1-60" />
  </g>
  <path
     style="fill:#ffffff;stroke-width:3.35042"
     d="m 73.387838,45.221284 c -0.03338,-0.05401 -0.08782,-0.477366 -0.120992,-0.940796 -0.12265,-1.713752 -0.781257,-3.058209 -1.874369,-3.826267 -0.483368,-0.339631 -0.661268,-0.403198 -1.128398,-0.403198 -0.634514,0 -1.104952,0.264093 -2.1814,1.224589 -1.390059,1.240326 -1.670999,1.36711 -1.783452,0.804842 -0.350253,-1.751262 0.723179,-3.780095 2.620788,-4.953406 1.142292,-0.70629 1.936334,-0.945258 3.143793,-0.946129 2.306501,-0.0017 3.883952,1.60097 4.032904,4.09728 0.120754,2.023723 -0.688604,3.97946 -2.012804,4.863752 -0.293322,0.195879 -0.602279,0.231091 -0.69607,0.07933 z"
     id="path1"
     transform="scale(0.26458333)" />
  <path
     style="fill:#ffffff;stroke-width:3.35042"
     d="m 56.55527,47.562943 c -1.032197,-0.16901 -1.935352,-0.741644 -1.935352,-1.227087 0,-0.102798 0.614535,-0.03934 1.128364,0.116511 1.095222,0.332202 1.458765,-0.03761 1.536488,-1.562966 0.02561,-0.502653 0.08376,-0.95396 0.129215,-1.002903 0.04546,-0.04894 0.2942,0.164494 0.552762,0.474305 0.975386,1.168713 1.41853,1.601312 1.858548,1.814321 0.574114,0.277924 1.135258,0.279212 1.649141,0.0038 0.45723,-0.245061 0.544041,-0.157284 0.303839,0.307215 -0.452426,0.874895 -3.109981,1.422798 -5.223005,1.076816 z"
     id="path2"
     transform="scale(0.26458333)" />
  <path
     style="fill:#ffffff;stroke-width:3.35042"
     d="M 49.786001,43.388589 C 49.5041,43.106688 49.205306,42.50142 48.961094,41.717575 48.47545,40.158805 46.940023,39.402489 45.26874,39.898807 c -1.001972,0.297554 -1.520373,0.721505 -2.349161,1.921159 -0.526935,0.762727 -0.613429,0.573986 -0.463012,-1.010359 0.14496,-1.526879 0.412963,-2.420574 0.967193,-3.225246 0.7482,-1.086291 1.85105,-1.620399 3.339868,-1.617491 3.320678,0.0065 5.613462,2.392991 5.022407,5.227707 -0.381677,1.830532 -1.326765,2.867282 -2.000034,2.194012 z"
     id="path3"
     transform="scale(0.26458333)" />
  <path
     style="fill:#ffffff;stroke-width:3.35042"
     d="M 25.267088,98.583089 V 86.474828 l 1.800952,0.06979 c 2.694633,0.104419 23.987473,0.689273 29.594749,0.812885 8.682664,0.191406 17.131192,0.102001 18.217554,-0.192785 0.173553,-0.04709 0.334734,-0.14317 0.358177,-0.213502 C 75.52493,86.09199 62.598768,85.196467 44.620603,84.83001 42.876098,84.79445 36.924893,84.72084 31.395701,84.666431 21.872317,84.572721 18.97471,84.48908 16.703066,84.242333 c -1.096658,-0.11912 -1.327903,-0.182131 -1.327494,-0.361726 6.93e-4,-0.304255 3.120669,-5.785737 5.455416,-9.584614 2.18979,-3.563014 3.102483,-4.524159 4.688199,-4.937075 0.838572,-0.218361 2.990472,-0.396098 4.866471,-0.401945 2.469127,-0.0077 3.249498,0.338509 4.770045,2.116193 1.299831,1.519645 2.112573,2.10152 3.530356,2.527525 0.648736,0.194928 0.966843,0.227443 1.827832,0.186831 1.865322,-0.08799 3.038396,-0.764616 4.319335,-2.491392 1.653996,-2.229681 2.125946,-2.367827 8.496458,-2.487022 3.874386,-0.07249 8.653982,0.07962 9.569238,0.304538 1.24455,0.305843 1.499511,0.553851 2.28797,2.22556 0.638852,1.354511 1.200368,2.169475 1.855588,2.693133 0.528819,0.422637 0.736816,0.503654 1.661292,0.647091 2.539797,0.394064 5.52282,-1.121372 6.770533,-3.439566 0.941732,-1.749697 1.939857,-2.342396 4.541676,-2.696907 1.57069,-0.214014 2.529085,-0.803091 3.426691,-2.106213 0.199756,-0.29 0.994789,-1.76106 1.766739,-3.269022 1.542327,-3.012849 2.29651,-4.336199 2.810348,-4.931264 l 0.337586,-0.390952 0.238835,0.215039 c 0.350894,0.315932 0.969399,1.617789 1.609078,3.386865 0.592416,1.63836 1.353009,3.232751 1.740652,3.648838 0.283276,0.30406 0.653128,0.27006 2.30878,-0.212241 2.216606,-0.645711 4.739624,-1.614675 12.72724,-4.88789 1.38969,-0.569476 3.25246,-1.283372 4.1395,-1.586436 1.40587,-0.480328 1.72548,-0.551868 2.49115,-0.5576 1.03461,-0.0077 1.17124,0.06749 2.07843,1.144484 1.23122,1.461687 6.06316,8.487607 7.04661,10.246178 l 0.4095,0.732247 -0.31431,0.258538 c -0.17287,0.142196 -2.1287,1.15581 -4.34629,2.252477 -2.21759,1.096667 -5.1932,2.568136 -6.61246,3.269932 -3.62894,1.794444 -4.91412,2.587903 -4.63654,2.86256 0.16259,0.160867 2.59006,0.05855 4.03399,-0.170032 0.79217,-0.125405 1.53028,-0.228009 1.64025,-0.228009 0.19361,0 0.19907,0.303263 0.17248,9.588304 l -0.0275,9.588305 -13.851282,6.539625 c -7.618204,3.59679 -13.865772,6.53962 -13.883485,6.53962 -0.01771,0 -0.05795,-2.16517 -0.08943,-4.8115 -0.04039,-3.3959 -0.108796,-5.27018 -0.232517,-6.370527 -0.294586,-2.619994 -0.718564,-4.01219 -1.169207,-3.839264 -0.468611,0.179824 -0.594865,1.87343 -0.680963,9.134601 l -0.07235,6.10173 H 54.172319 25.267088 Z m 24.53985,5.878291 c 1.474804,-0.70517 2.275127,-2.31433 2.409451,-4.844541 0.135166,-2.54607 -0.49972,-4.389998 -1.271281,-3.692234 -0.490636,0.443708 -0.601301,0.815007 -1.111653,3.729746 -0.505245,2.885579 -2.316971,3.458459 -3.104713,0.981739 -0.09366,-0.29448 -0.265059,-1.164402 -0.380886,-1.933167 -0.258927,-1.718544 -0.570711,-2.754831 -0.95988,-3.190387 -0.401067,-0.448872 -0.689635,-0.351746 -0.948562,0.319273 -0.166257,0.430857 -0.193995,0.82388 -0.187463,2.656075 0.007,1.973866 0.03105,2.237436 0.292557,3.210816 0.156689,0.58323 0.405785,1.26671 0.553547,1.51885 0.300409,0.51261 1.021536,1.02465 1.903819,1.35181 0.780833,0.28954 2.078112,0.2396 2.805064,-0.10798 z m 10.556526,0.12353 c 1.368866,-0.47485 1.112536,-1.60036 -0.421329,-1.85 -1.252606,-0.20387 -1.613286,-0.75724 -1.611845,-2.47295 8.48e-4,-1.010001 0.03266,-1.196901 0.301891,-1.773759 0.369011,-0.790641 0.627756,-1.076943 1.267746,-1.402757 1.032913,-0.525851 1.498634,-1.13711 1.288157,-1.690706 -0.138943,-0.365447 -0.595092,-0.596434 -1.393438,-0.705614 -1.099927,-0.150424 -1.437587,-0.52555 -1.558183,-1.731077 -0.135257,-1.35207 -0.620547,-1.552521 -1.514703,-0.625656 -0.953756,0.988647 -1.779283,2.865527 -1.779283,4.045298 0,0.571476 0.03923,0.685292 0.374543,1.086635 0.520156,0.622585 0.694903,1.305452 0.81222,3.173946 0.119311,1.90027 0.348813,3.07007 0.677218,3.45186 0.538676,0.62625 2.422585,0.8883 3.557006,0.49478 z m 8.510399,-0.03 c 0.986526,-0.13722 2.221371,-0.55837 2.70726,-0.92333 0.448586,-0.33694 0.48111,-0.80541 0.07442,-1.07189 -0.242436,-0.15885 -0.455809,-0.16945 -1.800952,-0.0895 -2.591079,0.15402 -3.399845,0.0444 -3.567359,-0.48335 -0.188811,-0.59489 0.570812,-1.04633 2.011429,-1.19537 1.138312,-0.11777 1.879566,-0.41437 2.550517,-1.02053 1.274899,-1.151795 1.27126,-2.777294 -0.0089,-3.974732 -0.795229,-0.743845 -1.35656,-0.963351 -2.463837,-0.963472 -0.844031,-9.3e-5 -0.986219,0.03268 -1.724176,0.397399 -0.835896,0.413121 -1.790179,1.174836 -2.440413,1.947952 -0.86956,1.033892 -1.168334,2.324244 -0.838906,3.623093 0.202055,0.79665 0.811856,2.14309 1.202644,2.65544 0.831589,1.09027 2.073789,1.40767 4.298273,1.09828 z m -28.285243,-0.3155 c 0.864261,-0.33121 1.478654,-0.93527 1.431852,-1.40777 -0.02254,-0.22758 -0.136931,-0.42072 -0.337539,-0.56991 -0.277381,-0.20629 -0.460489,-0.2274 -2.132006,-0.24575 -1.978696,-0.0217 -2.154502,-0.0667 -2.535833,-0.64869 -0.275672,-0.42072 -0.275946,-2.72152 -3.85e-4,-3.225627 0.29269,-0.535442 0.531837,-0.611162 1.853599,-0.586897 1.330707,0.02443 1.82742,-0.130232 2.071823,-0.645103 0.114106,-0.240383 0.108347,-0.358921 -0.03482,-0.716719 -0.31075,-0.776641 -1.418286,-1.330601 -2.690453,-1.345693 -0.652539,-0.0077 -0.862575,0.04099 -1.474101,0.342048 -1.698871,0.836352 -2.745002,2.941366 -2.627847,5.287731 0.10501,2.10311 1.04863,3.43893 2.768888,3.91971 0.893696,0.24977 2.862575,0.1662 3.706817,-0.15733 z"
     id="path4"
     transform="scale(0.26458333)" />
  <path
     style="fill:#ffffff;stroke-width:3.35042"
     d="m 99.435614,58.409981 c -0.07427,-0.133055 -0.136449,-0.587483 -0.138183,-1.009841 -0.0025,-0.607158 0.03973,-0.815367 0.201673,-0.994555 0.282743,-0.312851 0.456782,-0.285408 0.881126,0.138933 0.45148,0.451481 0.47431,0.84193 0.083,1.418626 -0.488698,0.72013 -0.799577,0.855315 -1.027576,0.446837 z"
     id="path5"
     transform="scale(0.26458333)" />
  <path
     style="fill:#ffffff;stroke-width:3.35042"
     d="m 31.198815,66.562612 c -1.590379,-0.518325 -0.974461,-1.616344 1.353149,-2.412308 0.786553,-0.268975 1.238801,-0.292067 1.420979,-0.07256 0.07184,0.08657 0.138247,0.46154 0.147565,0.833276 0.02,0.797845 -0.223303,1.234667 -0.854518,1.534198 -0.527301,0.250221 -1.491589,0.30498 -2.067175,0.117389 z"
     id="path6"
     transform="scale(0.26458333)" />
</svg>
