<?xml version="1.0" encoding="UTF-8" standalone="no"?>
<svg
   width="56"
   height="56"
   viewBox="0 0 56 56"
   fill="none"
   version="1.1"
   id="svg2"
   sodipodi:docname="kage-icon.svg"
   xml:space="preserve"
   inkscape:version="1.4.3 (0d15f75, 2025-12-25)"
   inkscape:export-filename="kage-icon.png"
   inkscape:export-xdpi="1755.4301"
   inkscape:export-ydpi="1755.4301"
   xmlns:inkscape="http://www.inkscape.org/namespaces/inkscape"
   xmlns:sodipodi="http://sodipodi.sourceforge.net/DTD/sodipodi-0.dtd"
   xmlns="http://www.w3.org/2000/svg"
   xmlns:svg="http://www.w3.org/2000/svg"><sodipodi:namedview
     id="namedview2"
     pagecolor="#ffffff"
     bordercolor="#000000"
     borderopacity="0.25"
     inkscape:showpageshadow="2"
     inkscape:pageopacity="0.0"
     inkscape:pagecheckerboard="0"
     inkscape:deskcolor="#d1d1d1"
     inkscape:zoom="15.341692"
     inkscape:cx="55.111262"
     inkscape:cy="24.280242"
     inkscape:window-width="2560"
     inkscape:window-height="1417"
     inkscape:window-x="2552"
     inkscape:window-y="-8"
     inkscape:window-maximized="1"
     inkscape:current-layer="svg2" /><defs
     id="defs2"><rect
       x="6.3878222"
       y="4.6930938"
       width="46.474665"
       height="37.609932"
       id="rect1" /><linearGradient
       id="paint0_linear_7600_57652"
       x1="0"
       y1="0"
       x2="57.3826"
       y2="1.28291"
       gradientUnits="userSpaceOnUse"><stop
         stop-color="#8FCDFC"
         id="stop1" /><stop
         offset="1"
         stop-color="#C09CFF"
         id="stop2" /></linearGradient></defs><g
     style="fill:none"
     id="g2"
     transform="matrix(0.61967294,0,0,0.75478214,-26.325843,22.559533)"><path
       d="m 87.737069,8.447878 c -4.0897,0.3268 -5.0915,-4.5111 -5.3267,-7.4249 -0.2107,-2.6297 0.0916,-4.7586 0.8796,-6.1544 0.6934,-1.2278 1.7685,-1.9089 3.1948,-2.0249 1.4294,-0.1161 2.702998,0.3878 3.662098,1.5026 1.0934,1.2706 1.7806,3.3078 1.9883,5.8948 0.391,4.8868 -1.2522,7.9533 -4.398098,8.2037 z"
       fill="#000000"
       id="path2"
       style="fill:#000000" /><path
       d="m 104.55747,7.097678 c -4.09,0.3268 -5.095003,-4.5112 -5.327003,-7.425 -0.211,-2.6297 0.092,-4.7555 0.880003,-6.1543 0.69,-1.2278 1.768,-1.909 3.195,-2.025 1.429,-0.1131 2.703,0.3879 3.662,1.5027 1.093,1.2706 1.78,3.3078 1.988,5.8948 0.391,4.8868 -1.252,7.9533 -4.398,8.2037 z"
       fill="#000000"
       id="path3"
       style="fill:#000000" /></g><path
     id="text1"
     style="font-family:'Amazon Ember';-inkscape-font-specification:'Amazon Ember';letter-spacing:0px;white-space:pre;fill:#8745f3;stroke-width:13.4392"
     d="m 28.270038,2.9355912 c -2.82146,0 -5.394605,0.4340203 -7.729263,1.2911727 -2.354811,0.8706389 -4.477309,2.0127757 -6.380938,3.4226333 -1.917297,1.4124306 -3.61548,2.9463598 -5.1013153,4.6010848 -1.4930733,1.681468 -2.7716872,3.341148 -3.8474586,4.980238 -0.00284,0.0034 -0.0057,0.0069 -0.00858,0.01027 -1.0959188,1.64967 -1.9713211,3.091468 -2.6279506,4.324406 -0.7200059,1.378169 -1.064921,2.806722 -1.064921,4.385887 0,1.579174 0.3393061,2.990256 1.0563331,4.344898 0.00286,-1.3e-5 0.00572,-1.3e-5 0.00858,0 0.7739803,1.473712 1.8233638,3.206179 3.1432349,5.164692 1.2844745,1.90599 2.8503328,3.780153 4.7062625,5.615581 0.260543,0.258203 0.411557,0.641111 0.412227,1.045236 v 9.314887 c 0,0.547376 0.106099,0.868419 0.343545,1.198949 0.290605,0.402263 0.580276,0.618871 0.979044,0.737813 0.369531,0.105348 0.666907,0.06133 1.073507,-0.194704 0.0029,-1.3e-5 0.0059,-1.3e-5 0.0088,0 l 8.064202,-4.949494 c 0.243499,-0.149409 0.52389,-0.189419 0.790049,-0.112735 0.968117,0.274139 1.959384,0.487731 2.980065,0.645587 1.038588,0.137725 2.10148,0.204935 3.19476,0.204935 2.821461,0 5.387508,-0.434896 7.703501,-1.291174 2.373445,-0.871393 4.495958,-2.003263 6.380939,-3.391889 1.93582,-1.4337 3.641131,-2.976977 5.127082,-4.631829 1.509072,-1.680599 2.791542,-3.335209 3.847456,-4.949495 6.050098,-8.122237 2.091687,-15.652689 -3.847639,-22.452059 -1.484296,-1.653009 -3.184908,-3.1889327 -5.118495,-4.6010848 -0.0057,5.12e-5 -0.01143,5.12e-5 -0.01715,0 C 40.462365,6.2422994 38.344663,5.0973036 35.973539,4.2267639 33.657547,3.3704762 31.0915,2.9355912 28.270038,2.9355912 Z m 0,1.7010689 c 3.280355,0 6.272622,0.6153647 8.948771,1.8752751 2.631846,1.2315711 4.973275,2.8120027 7.007869,4.7240538 v -0.01027 c 8.191579,7.894632 11.575835,16.695767 5.169814,23.589523 1.1e-5,0.0035 1.1e-5,0.007 0,0.01049 -1.433043,2.030535 -3.158739,3.977669 -5.170023,5.851266 v -0.01049 c -2.036518,1.913897 -4.381589,3.491964 -7.016455,4.724051 -2.674229,1.257532 -5.662906,1.875275 -8.940183,1.875275 -1.163292,0 -2.291035,-0.08374 -3.375113,-0.256194 -1.071564,-0.17048 -2.100356,-0.416235 -3.091655,-0.737778 l -0.01715,-0.01049 -0.257626,-0.08201 -7.574679,4.652322 c -0.759501,0.468499 -1.665193,-0.18874 -1.665927,-1.208923 v -8.976723 l -0.266244,-0.235681 c -0.0058,-0.0067 -0.01149,-0.01357 -0.01715,-0.02046 C 10.075864,38.574425 8.4134821,36.664028 7.0317346,34.651306 5.6879894,32.693946 4.6108858,30.947187 3.7854432,29.384141 2.6374672,27.231631 2.63333,24.656167 3.7768548,22.487639 c 0.00284,-0.0035 0.0057,-0.007 0.00858,-0.01049 0.8606659,-1.604358 1.9890955,-3.382608 3.3837109,-5.359146 1.4322478,-2.050769 3.1494883,-4.007354 5.1442563,-5.882009 2.036523,-1.913897 4.381594,-3.4919655 7.016456,-4.7240544 2.690884,-1.2582865 5.676352,-1.8752751 8.940182,-1.8752751 z"
     sodipodi:nodetypes="sccccccsccsccscccccccsccscscccscccccccccscccccccccsccccsscc" /><path
     style="fill:#ffffff;stroke-width:0.182379"
     d="m 12.97119,50.822675 c -0.125475,-0.06873 -0.316132,-0.266209 -0.423682,-0.438837 l -0.195546,-0.313867 -0.01754,-4.710006 -0.01754,-4.710005 -0.820296,-0.803014 C 9.9205009,38.304076 8.3415108,36.454177 7.1596675,34.765952 5.7871971,32.80542 4.0718899,29.97063 3.5757238,28.842972 2.848502,27.190185 2.7647005,25.375923 3.3348617,23.628424 3.8730625,21.978881 6.9014588,17.2915 9.1884749,14.568145 10.216904,13.343503 12.749626,10.834182 13.818554,9.9808455 c 1.567727,-1.2515327 3.59062,-2.5229188 5.279731,-3.3183047 2.94309,-1.3858731 5.658653,-1.9661947 9.190642,-1.9640595 2.444521,0.00148 4.149785,0.2270128 6.172441,0.8163555 1.120701,0.3265396 1.83713,0.6088482 3.137708,1.2364129 3.686583,1.7788787 6.69847,4.2094703 9.72675,7.8494863 4.228018,5.082109 6.02691,10.050441 5.175201,14.293305 -0.372699,1.856627 -1.299233,3.734934 -2.614382,5.299974 -0.283362,0.337204 -0.769248,0.951476 -1.079746,1.365049 -1.058192,1.409478 -1.96501,2.440638 -3.469215,3.944916 -2.079235,2.079336 -3.5214,3.242115 -5.471647,4.411648 -3.183534,1.909115 -5.629945,2.77339 -9.035018,3.191915 -1.046578,0.128638 -4.254873,0.107284 -5.27973,-0.03514 -1.121001,-0.155785 -2.305663,-0.405326 -3.176882,-0.669189 -0.402909,-0.122027 -0.775138,-0.221868 -0.827174,-0.221868 -0.05204,0 -1.81961,1.060604 -3.927941,2.356898 -4.189009,2.575587 -4.150835,2.556825 -4.648102,2.284431 z M 28.860289,28.740283 c 1.492647,-0.727486 2.222536,-3.190004 1.904331,-6.424886 -0.242183,-2.462041 -0.958178,-4.176726 -2.025367,-4.850413 -0.887223,-0.560079 -2.163379,-0.419274 -2.879663,0.317727 -0.805198,0.828488 -1.167243,2.216309 -1.161336,4.451734 0.0098,3.698003 0.909167,6.146233 2.443231,6.65069 0.44002,0.144695 1.267861,0.07493 1.718804,-0.144852 z M 39.27207,27.733115 c 1.350039,-0.643832 2.076228,-2.678029 1.965627,-5.506101 -0.162954,-4.166701 -1.541824,-6.435887 -3.699608,-6.088386 -0.53237,0.08574 -0.942283,0.303588 -1.309078,0.695722 -0.779799,0.833668 -1.113814,2.148902 -1.112933,4.382345 0.0013,3.422166 0.824902,5.868292 2.199079,6.531729 0.365427,0.176424 0.435332,0.187811 1.011776,0.164817 0.482315,-0.01924 0.691287,-0.05907 0.945137,-0.180126 z"
     id="path5" /></svg>
