<?xml version="1.0" encoding="UTF-8" standalone="no"?>
<svg
   width="36.777084mm"
   height="34.564167mm"
   viewBox="0 0 36.777084 34.564167"
   version="1.1"
   id="svg1"
   sodipodi:docname="kage-dancing-with-bow.svg"
   inkscape:version="1.4.3 (0d15f75, 2025-12-25)"
   xmlns:inkscape="http://www.inkscape.org/namespaces/inkscape"
   xmlns:sodipodi="http://sodipodi.sourceforge.net/DTD/sodipodi-0.dtd"
   xmlns="http://www.w3.org/2000/svg"
   xmlns:svg="http://www.w3.org/2000/svg">
  <defs
     id="defs1" />
  <sodipodi:namedview
     id="namedview1"
     pagecolor="#98ffff"
     bordercolor="#000000"
     borderopacity="0.25"
     inkscape:showpageshadow="2"
     inkscape:pageopacity="0.0"
     inkscape:pagecheckerboard="0"
     inkscape:deskcolor="#d1d1d1"
     inkscape:document-units="mm"
     inkscape:zoom="9.3006364"
     inkscape:cx="69.511372"
     inkscape:cy="65.318111"
     inkscape:window-width="5120"
     inkscape:window-height="1417"
     inkscape:window-x="-8"
     inkscape:window-y="-8"
     inkscape:window-maximized="1"
     inkscape:current-layer="svg1" />
  <g
     transform="translate(-86.611455,-131.21792)"
     id="g1">
    <path
       style="display:inline;fill:#000000"
       d="m 100.60883,160.9539 c -2.133594,-0.289 -3.571874,-0.71057 -3.571874,-1.04693 0,-0.12839 0.50601,-0.37735 1.12448,-0.55325 1.536,-0.43684 1.72712,-0.67253 0.72401,-0.89284 -1.77289,-0.3894 -3.76054,-2.85973 -4.12256,-5.12372 -0.16088,-1.00607 -0.25279,-1.09904 -1.49406,-1.51132 -2.33227,-0.77466 -2.82846,-1.93845 -1.18675,-2.78347 l 0.58925,-0.3033 -0.59531,0.57212 c -0.32742,0.31467 -0.59531,0.74367 -0.59531,0.95332 0,0.43975 1.83622,1.45028 2.63529,1.45028 0.46995,0 0.53971,-0.16793 0.53971,-1.29934 0,-0.71464 0.22561,-2.02423 0.50135,-2.91021 0.37591,-1.2078 0.44369,-1.85916 0.2709,-2.60326 -0.31498,-1.35638 -0.30024,-3.16937 0.0308,-3.78793 0.33069,-0.6179 1.26727,-0.65966 3.0128,-0.13433 1.23016,0.37022 1.27775,0.36245 2.489454,-0.40637 1.46206,-0.92768 4.20197,-1.82315 5.57834,-1.82315 0.85921,0 1.13486,-0.17937 2.23634,-1.45521 1.84388,-2.13576 3.08298,-1.904 3.69952,0.69198 0.14306,0.60235 0.29337,0.68803 1.16044,0.66146 l 0.99609,-0.0305 v 1.21968 c 0,1.05544 0.14339,1.37607 1.06498,2.38125 1.34416,1.46606 2.10061,2.70666 2.52324,4.13814 0.1826,0.61846 0.48116,1.12448 0.66347,1.12448 0.48451,0 1.74037,-1.58679 1.64555,-2.07916 -0.0446,-0.2316 -0.3777,-0.57116 -0.74021,-0.75457 -0.36252,-0.18341 -0.50246,-0.33523 -0.31099,-0.33737 0.73741,-0.008 1.37166,0.55891 1.37166,1.2266 0,0.45887 -0.34699,0.99989 -1.05833,1.65012 -0.89365,0.81689 -1.05874,1.13121 -1.06092,2.01997 -0.004,1.51593 -1.05078,3.54842 -2.47285,4.80019 -1.61022,1.41737 -4.51871,2.93044 -7.30816,3.80189 l -2.24297,0.70073 4.09506,0.16044 c 4.60687,0.18049 7.67625,0.79629 7.05677,1.41576 -0.0931,0.093 -0.7975,0.3443 -1.56545,0.55832 -1.69961,0.47369 -12.84759,0.6937 -15.68377,0.30953 z m -0.948094,-8.54153 c -0.26409,-0.23039 -4.20611,-0.3741 -4.06653,-0.14825 0.0831,0.13443 1.05685,0.24442 2.16392,0.24442 1.10707,0 1.96325,-0.0433 1.90261,-0.0962 z m 11.945694,-5.20482 c 0.52595,-0.28148 0.69656,-1.16817 0.27491,-1.42876 -0.13027,-0.0805 -0.30512,0.0315 -0.38857,0.24897 -0.0834,0.21744 -0.4531,0.39535 -0.82147,0.39535 -0.72993,0 -0.84696,0.24614 -0.35226,0.74084 0.38871,0.38871 0.62744,0.3968 1.28739,0.0436 z m -5.96324,-0.35376 c 0.28704,-0.19968 0.92469,-0.45075 1.41701,-0.55792 0.65216,-0.14197 0.79579,-0.25777 0.52917,-0.42663 -0.96571,-0.61162 -2.8795,0.0475 -2.8795,0.99176 0,0.45291 0.27497,0.45079 0.93332,-0.007 z m 8.21685,-3.34109 c 0.81981,0 0.74251,-0.6206 -0.0926,-0.74388 -0.61894,-0.0914 -1.64919,0.78655 -1.64919,1.40533 0,0.30869 0.1176,0.27929 0.52917,-0.13229 0.29104,-0.29104 0.83674,-0.52916 1.21267,-0.52916 z m 0.38953,-3.21048 c 0.30416,-0.73432 0.28851,-0.86942 -0.13675,-1.18038 -0.99514,-0.72766 -2.15262,0.57495 -1.32424,1.49029 0.6629,0.7325 1.06449,0.64732 1.46099,-0.30991 z m -3.86271,-0.58482 c 0.58894,-0.43064 0.39469,-1.60808 -0.30991,-1.87846 -0.54309,-0.2084 -1.13375,0.47649 -1.13375,1.3146 0,0.97202 0.57717,1.19745 1.44366,0.56386 z m 1.73134,-0.17345 c 0,-0.35278 -0.17639,-0.52917 -0.52916,-0.52917 -0.50991,0 -0.717,0.51773 -0.35278,0.88194 0.36422,0.36422 0.88194,0.15713 0.88194,-0.35277 z m -21.642914,19.52626 c -0.17462,-0.17463 -0.3175,-0.58432 -0.3175,-0.91043 0,-0.32611 -0.11906,-0.66651 -0.26458,-0.75645 -0.36573,-0.22603 -0.33221,-1.28175 0.0529,-1.66687 0.17463,-0.17463 0.57677,-0.3175 0.89365,-0.3175 0.31688,0 0.72436,-0.1786 0.90552,-0.39688 0.71666,-0.86352 2.11667,-0.15102 2.11667,1.07723 0,0.35341 -0.10255,0.64256 -0.2279,0.64256 -0.12534,0 -0.173,-0.28711 -0.10592,-0.63804 0.0895,-0.46832 -0.0387,-0.72401 -0.48198,-0.96126 -0.51679,-0.27657 -0.66533,-0.24742 -1.02924,0.20199 -0.23391,0.28886 -0.70254,0.51307 -1.0414,0.49824 -0.33887,-0.0148 -0.75078,0.18885 -0.91536,0.45263 -0.24148,0.38702 -0.19711,0.56577 0.22992,0.92604 0.31278,0.26388 0.49453,0.69037 0.44447,1.04294 -0.10341,0.72818 0.60809,1.07223 1.31037,0.63364 0.27177,-0.16972 0.49412,-0.20124 0.49412,-0.0701 0,0.56066 -1.56198,0.74398 -2.06375,0.24222 z m 3.51896,-0.3574 -0.79375,-0.38644 0.79375,0.15252 c 0.43656,0.0839 0.90686,0.26315 1.0451,0.39837 0.37172,0.36359 -0.11916,0.28635 -1.0451,-0.16445 z m 0.57034,-0.67884 c -0.55943,-0.29514 -0.96139,-0.59237 -0.89324,-0.66052 0.1259,-0.1259 2.04269,0.91977 2.04269,1.11435 0,0.14998 -0.0194,0.14231 -1.14945,-0.45383 z m 23.488214,-0.20378 c 0.0797,-0.12904 -0.0193,-0.37096 -0.22009,-0.53761 -0.28776,-0.23881 -0.30115,-0.44088 -0.0632,-0.95395 0.3314,-0.71468 0.69873,-0.86531 0.69873,-0.28652 0,0.20271 0.20836,0.44884 0.46302,0.54696 0.44097,0.16989 0.44097,0.19077 0,0.43833 -0.25466,0.14296 -0.46302,0.43261 -0.46302,0.64366 0,0.21105 -0.12609,0.38373 -0.2802,0.38373 -0.15411,0 -0.21495,-0.10557 -0.13521,-0.2346 z m 0.53373,-1.11092 c -0.0852,-0.13783 -0.26767,-0.18091 -0.40551,-0.0957 -0.13784,0.0852 -0.18091,0.26766 -0.0957,0.4055 0.0852,0.13784 0.26767,0.18092 0.40551,0.0957 0.13784,-0.0852 0.18092,-0.26767 0.0957,-0.40551 z m 1.68653,-1.6205 c -0.0468,-0.32593 -0.35737,-0.72783 -0.69019,-0.8931 l -0.60512,-0.3005 0.67127,-0.43983 c 0.3692,-0.24191 0.67127,-0.61568 0.67127,-0.83061 0,-0.21492 0.11906,-0.39077 0.26458,-0.39077 0.14552,0 0.26458,0.24927 0.26458,0.55393 0,0.33142 0.21257,0.60953 0.52917,0.69232 0.29104,0.0761 0.52917,0.21492 0.52917,0.30846 0,0.0935 -0.23813,0.31879 -0.52917,0.50055 -0.29104,0.18176 -0.52917,0.50103 -0.52917,0.70949 0,0.64261 -0.48618,0.71857 -0.57639,0.0901 z m 0.70531,-0.73268 c 0.0881,-0.14251 0.0261,-0.50953 -0.13768,-0.8156 -0.28072,-0.52452 -0.31743,-0.52967 -0.63918,-0.0896 -0.25341,0.34656 -0.26504,0.5541 -0.0451,0.80553 0.36074,0.41248 0.61001,0.44272 0.822,0.0997 z m -32.840894,0.39318 c -0.0916,-0.23882 -0.0397,-0.56109 0.11531,-0.71615 0.40312,-0.40312 1.16692,-0.0347 1.06162,0.5121 -0.11729,0.60904 -0.96511,0.75603 -1.17693,0.20405 z m 0.96198,-0.26636 c 0,-0.21828 -0.1786,-0.39687 -0.39688,-0.39687 -0.41316,0 -0.52492,0.31292 -0.22048,0.61736 0.30443,0.30444 0.61736,0.19268 0.61736,-0.22049 z m 2.15297,-1.99962 c -0.48935,-0.29834 -0.81965,-0.61251 -0.734,-0.69817 0.0857,-0.0857 0.33608,-0.006 0.5565,0.17687 0.22042,0.18293 0.84838,0.49232 1.39546,0.68754 0.82653,0.29494 0.88287,0.35675 0.33323,0.36557 -0.3638,0.006 -1.06184,-0.23347 -1.55119,-0.53181 z m 28.299074,-3.75506 c 0.0622,-0.0364 0.57327,-0.48287 1.13562,-0.9922 0.75658,-0.68524 0.94449,-0.77477 0.72264,-0.3443 -0.31245,0.60627 -1.28993,1.40264 -1.72161,1.40264 -0.13739,0 -0.19888,-0.0298 -0.13665,-0.0661 z"
       id="path1-63" />
  </g>
  <path
     style="fill:#ffffff;stroke-width:3.35042"
     d="m 85.85434,33.233033 c -0.436445,-0.19398 -0.748528,-0.552634 -1.038572,-1.193554 -0.328587,-0.726089 -0.408279,-2.596573 -0.15375,-3.608734 0.543045,-2.159482 2.2392,-3.7653 3.635322,-3.441708 1.023297,0.237179 2.00278,1.172589 2.458187,2.347578 0.366413,0.945375 0.409186,2.460782 0.09315,3.300094 -0.646681,1.717402 -3.561986,3.232935 -4.994333,2.596324 z"
     id="path1"
     transform="scale(0.26458333)" />
  <path
     style="fill:#ffffff;stroke-width:3.35042"
     d="m 94.216676,33.385268 c -0.19071,-0.04384 -0.466562,-0.158222 -0.613006,-0.254175 -1.751761,-1.147798 -1.406981,-3.347531 0.561218,-3.580635 1.285866,-0.152292 2.172606,0.600836 2.172606,1.845243 0,1.31548 -0.994558,2.248488 -2.120818,1.989567 z"
     id="path2"
     transform="scale(0.26458333)" />
  <path
     style="fill:#ffffff;stroke-width:3.35042"
     d="m 100.85336,37.015877 c -0.72326,-0.357996 -2.057412,-1.686938 -2.484845,-2.475136 -0.33769,-0.62271 -0.364429,-0.743189 -0.363925,-1.639767 6.55e-4,-1.167119 0.210063,-1.706217 0.984278,-2.533916 1.155182,-1.234985 2.819522,-1.568154 4.237322,-0.848232 0.58534,0.297221 1.4851,1.044454 1.71843,1.427137 0.41133,0.674588 0.16757,1.84334 -0.82068,3.934981 -1.0149,2.148045 -1.97627,2.775593 -3.27058,2.134933 z"
     id="path3"
     transform="scale(0.26458333)" />
  <path
     style="fill:#ffffff;stroke-width:3.35042"
     d="m 96.538177,49.485917 c -0.299557,-0.559727 0.15513,-1.848671 1.058405,-3.000362 1.197201,-1.52645 3.300038,-2.778868 4.665788,-2.778868 1.08952,0 2.37947,0.611528 2.73332,1.295792 0.14762,0.285472 0.1469,0.349924 -0.007,0.648029 -0.23002,0.444791 -0.73601,0.6369 -1.98773,0.754678 -1.92386,0.18102 -3.362136,0.855814 -4.986337,2.339434 -1.039854,0.949851 -1.295796,1.078377 -1.476196,0.741297 z"
     id="path4"
     transform="scale(0.26458333)" />
  <path
     style="fill:#ffffff;stroke-width:3.35042"
     d="m 90.78833,61.07713 c -0.686556,-0.348775 -1.805703,-1.500619 -2.096287,-2.157532 -0.205194,-0.463875 -0.208089,-0.51344 -0.04456,-0.763017 0.251505,-0.383845 0.583279,-0.481582 2.154626,-0.634724 1.961538,-0.191171 2.787995,-0.578904 3.320883,-1.557994 0.319373,-0.586793 0.735396,-0.967626 1.057038,-0.967626 0.328051,0 0.907828,0.655208 1.052301,1.189209 0.181683,0.671536 0.07588,1.684866 -0.250299,2.397344 -0.440897,0.963047 -1.087003,1.563067 -2.319804,2.154336 -1.390311,0.666813 -2.07186,0.747445 -2.873899,0.340004 z"
     id="path5"
     transform="scale(0.26458333)" />
  <path
     style="fill:#ffffff;stroke-width:3.35042"
     d="m 68.753848,60.108301 c -0.22478,-0.22478 -0.263911,-0.365132 -0.263911,-0.946565 0,-0.921082 0.344862,-1.59512 1.248714,-2.440629 1.361194,-1.27333 3.381136,-2.035 5.632535,-2.123889 1.543334,-0.06093 2.404679,0.09111 3.42018,0.603737 1.47047,0.742291 1.170829,1.063202 -1.656481,1.774073 -2.385414,0.599765 -4.102988,1.317672 -5.794787,2.422091 -0.778713,0.508349 -1.812731,0.975094 -2.160205,0.975094 -0.08917,0 -0.280893,-0.11876 -0.426045,-0.263912 z"
     id="path6"
     transform="scale(0.26458333)" />
  <path
     style="fill:#ffffff;stroke-width:3.35042"
     d="m 128.05575,88.118645 c -0.5473,-0.289624 -1.55708,-1.393401 -1.71642,-1.876202 -0.10925,-0.331032 -0.11042,-0.505009 -0.006,-0.854374 0.25652,-0.85619 1.44789,-2.436756 1.83673,-2.436756 0.57014,0 1.82079,2.65706 1.82079,3.868333 0,0.673473 -0.76697,1.517591 -1.36553,1.502891 -0.10642,-0.0026 -0.36284,-0.09436 -0.56982,-0.203892 z"
     id="path7"
     transform="scale(0.26458333)" />
  <path
     style="fill:#ffffff;stroke-width:3.35042"
     d="m 119.29938,97.774887 c -0.39921,-0.314021 -0.52487,-0.684317 -0.38058,-1.121515 0.24263,-0.735184 1.1668,-0.937487 1.72638,-0.377909 0.88361,0.883616 -0.36298,2.272511 -1.3458,1.499424 z"
     id="path8"
     transform="scale(0.26458333)" />
  <path
     style="fill:#ffffff;stroke-width:3.35042"
     d="m 38.276951,80.303091 c -2.716827,-0.23601 -4.435459,-0.586045 -4.171826,-0.849679 0.546785,-0.546784 11.631369,-0.196219 14.438106,0.456625 l 0.754471,0.175489 -0.376319,0.09832 c -0.370267,0.09674 -9.700358,0.20126 -10.644432,0.119248 z"
     id="path9"
     transform="scale(0.26458333)" />
  <path
     style="fill:#ffffff;stroke-width:3.35042"
     d="m 7.7636082,89.223062 c -0.497764,-0.245323 -1.1863,-1.063514 -1.2698731,-1.508997 -0.052866,-0.281799 -0.018071,-0.44416 0.1413955,-0.659793 0.2617822,-0.353986 0.9844849,-0.601595 1.4829502,-0.508082 1.1413945,0.214127 1.6221144,1.734202 0.8064034,2.549913 -0.3467703,0.346771 -0.6480251,0.379717 -1.160876,0.126959 z"
     id="path10"
     transform="scale(0.26458333)" />
</svg>
