<?xml version="1.0" encoding="UTF-8" standalone="no"?>
<svg
   width="36.777084mm"
   height="34.564167mm"
   viewBox="0 0 36.777084 34.564167"
   version="1.1"
   id="svg1"
   sodipodi:docname="kage-peeking-from-cloud.svg"
   inkscape:version="1.4.3 (0d15f75, 2025-12-25)"
   xmlns:inkscape="http://www.inkscape.org/namespaces/inkscape"
   xmlns:sodipodi="http://sodipodi.sourceforge.net/DTD/sodipodi-0.dtd"
   xmlns="http://www.w3.org/2000/svg"
   xmlns:svg="http://www.w3.org/2000/svg">
  <defs
     id="defs1" />
  <sodipodi:namedview
     id="namedview1"
     pagecolor="#ffffff"
     bordercolor="#000000"
     borderopacity="0.25"
     inkscape:showpageshadow="2"
     inkscape:pageopacity="0.0"
     inkscape:pagecheckerboard="0"
     inkscape:deskcolor="#d1d1d1"
     inkscape:document-units="mm"
     inkscape:zoom="9.3006364"
     inkscape:cx="69.511372"
     inkscape:cy="65.318111"
     inkscape:window-width="5120"
     inkscape:window-height="1417"
     inkscape:window-x="-8"
     inkscape:window-y="-8"
     inkscape:window-maximized="1"
     inkscape:current-layer="svg1" />
  <g
     transform="translate(-86.611455,-131.21792)"
     id="g1">
    <path
       style="display:inline;fill:#000000"
       d="m 99.778195,165.55001 c -1.13607,-0.34207 -2.44766,-1.24195 -3.48709,-2.39248 l -0.95483,-1.05688 -1.3266,0.43391 c -3.5226,1.15218 -7.39822,-1.52883 -7.39822,-5.11781 0,-2.18661 0.92135,-3.70101 2.84427,-4.67505 0.73408,-0.37184 0.8599,-0.57721 0.8599,-1.40358 0,-1.21201 0.91697,-3.14692 1.75003,-3.69276 0.47191,-0.30921 0.63221,-0.65632 0.63513,-1.37535 0.009,-2.14495 1.17459,-5.56334 2.62908,-7.70864 0.36544,-0.53899 0.41838,-1.02885 0.28596,-2.64583 -0.17995,-2.19741 0.0179,-4.10097 0.47347,-4.55659 0.368,-0.368 1.1268,-0.0536 3.36079,1.39245 l 1.593825,1.03168 1.29249,-0.38898 c 1.71973,-0.51756 4.92731,-0.49477 6.64674,0.0472 l 1.38382,0.43621 1.68214,-1.10491 c 1.78218,-1.17061 2.63424,-1.50316 3.24798,-1.26765 0.50096,0.19224 0.79275,2.63966 0.56654,4.75198 -0.16927,1.58064 -0.13218,1.7374 0.76286,3.22375 2.03911,3.3863 2.63083,6.37994 1.884,9.53171 -0.65784,2.77624 -0.66086,2.80318 -0.32693,2.90599 0.17061,0.0525 0.76378,0.17103 1.31817,0.26335 1.19662,0.19927 3.00744,1.72457 3.5304,2.97373 0.19603,0.46826 0.35642,1.43599 0.35642,2.1505 0,3.5707 -2.89174,6.07777 -6.21771,5.39059 -1.30955,-0.27056 -1.33228,-0.26381 -2.24896,0.66768 -1.76653,1.79506 -3.96515,2.14767 -6.23288,0.9996 l -1.29548,-0.65586 -0.93217,0.64362 c -0.5127,0.35398 -1.37484,0.82771 -1.91587,1.05273 -1.04176,0.43326 -3.55689,0.51012 -4.767275,0.14566 z m 4.355685,-0.54249 c 0.54228,-0.1506 1.51208,-0.67542 2.1551,-1.16625 l 1.16914,-0.89242 1.01215,0.68778 c 2.12426,1.44347 5.29203,0.89429 6.48278,-1.12388 l 0.52574,-0.89105 1.19613,0.40756 c 3.12457,1.06465 6.18446,-1.31465 6.18446,-4.8089 0,-2.47305 -2.07582,-4.63606 -4.44916,-4.63606 -0.79614,0 -0.84283,-0.0546 -0.84832,-0.99219 -0.008,-1.37437 -0.82663,-3.04427 -1.84924,-3.77243 -1.12249,-0.79928 -3.06893,-0.99536 -4.17955,-0.42104 l -0.83057,0.42951 -0.517,-1.01341 c -1.26594,-2.48145 -3.90536,-3.90894 -6.83831,-3.69841 -2.78987,0.20026 -4.920425,1.52386 -5.804705,3.60614 -0.30059,0.70781 -0.49226,0.85826 -0.95711,0.75124 -1.96398,-0.45211 -2.19886,-0.44205 -3.35937,0.14385 -1.40362,0.70864 -2.37736,2.35212 -2.38808,4.03061 -0.006,0.98601 -0.0883,1.10599 -1.0633,1.5556 -0.58106,0.26795 -1.38166,0.91353 -1.77911,1.43461 -0.62182,0.81525 -0.72264,1.19605 -0.72264,2.72941 0,1.59256 0.0859,1.88807 0.80785,2.7801 1.14387,1.41328 2.5759,2.09714 4.35153,2.07805 0.82547,-0.009 1.82036,-0.20859 2.29903,-0.4615 l 0.84383,-0.44586 0.73842,1.02728 c 1.76343,2.45325 4.822195,3.49431 7.820305,2.66166 z m -6.674505,-9.76178 c 0,-0.13693 0.1177,-0.32171 0.26155,-0.41061 0.14998,-0.0927 0.19434,0.0135 0.10399,0.24897 -0.1759,0.45836 -0.36554,0.54223 -0.36554,0.16164 z m 6.813025,-0.30139 c -0.67322,-0.39211 -0.58775,-0.85792 0.0908,-0.49478 0.61475,0.32901 1.82744,0.13097 1.82744,-0.29843 0,-0.15134 0.12682,-0.19678 0.28182,-0.10098 0.41789,0.25827 -0.51397,1.18163 -1.18272,1.17192 -0.30487,-0.004 -0.76267,-0.1294 -1.01733,-0.27773 z m 7.49537,-0.13314 c 0.0127,-0.30823 0.0754,-0.37092 0.15985,-0.15986 0.0764,0.191 0.067,0.4192 -0.0209,0.50712 -0.0879,0.0879 -0.15045,-0.0684 -0.13897,-0.34726 z m -15.234435,-0.11025 c 0.0899,-0.14552 0.21602,-0.26458 0.2802,-0.26458 0.0642,0 0.11667,0.11906 0.11667,0.26458 0,0.14552 -0.12609,0.26459 -0.2802,0.26459 -0.15411,0 -0.20661,-0.11907 -0.11667,-0.26459 z m 16.801045,-0.2802 c 0,-0.1541 0.11906,-0.20661 0.26458,-0.11667 0.14552,0.0899 0.26459,0.21602 0.26459,0.2802 0,0.0642 -0.11907,0.11667 -0.26459,0.11667 -0.14552,0 -0.26458,-0.12609 -0.26458,-0.2802 z m -11.77317,-1.30601 c -0.38954,-0.63029 -1.48324,-0.8202 -2.319895,-0.40283 -0.98898,0.49337 -0.98819,0.49337 -0.98819,3.9e-4 0,-0.22064 0.40818,-0.59581 0.90707,-0.83371 0.76362,-0.36414 1.034215,-0.37989 1.710995,-0.0996 0.44216,0.18315 0.87829,0.56729 0.96917,0.85365 0.18918,0.59605 -0.003,0.92841 -0.27915,0.48206 z m 6.4815,-0.0108 c 0,-0.62116 0.54728,-1.26062 1.22433,-1.43055 0.8606,-0.216 2.21526,0.29704 2.21526,0.83897 0,0.27059 -0.14429,0.33369 -0.46303,0.20247 -1.10121,-0.45335 -1.46893,-0.43563 -2.20169,0.10612 -0.42618,0.31509 -0.77487,0.44243 -0.77487,0.28299 z m 3.175,-10.30928 c 0.29104,-0.29104 0.52917,-0.83224 0.52917,-1.20266 0,-0.81416 -1.08757,-1.97235 -1.85208,-1.97235 -0.64501,0 -1.85209,1.11303 -1.85209,1.70777 0,0.32872 0.10376,0.30514 0.52917,-0.12027 0.29104,-0.29104 0.64823,-0.52916 0.79375,-0.52916 0.39745,0 1.32292,1.00479 1.32292,1.43631 0,0.20789 -0.1871,0.56508 -0.41578,0.79376 -0.37797,0.37797 -0.37797,0.41577 0,0.41577 0.22868,0 0.6539,-0.23813 0.94494,-0.52917 z m -10.85741,-0.28228 c -0.22768,-0.42545 -0.19901,-0.6899 0.12908,-1.19064 0.5125,-0.78216 1.03063,-0.81642 1.7325,-0.11455 0.42541,0.42541 0.52917,0.44899 0.52917,0.12027 0,-0.59474 -1.20709,-1.70777 -1.85209,-1.70777 -0.68122,0 -1.852085,1.12604 -1.852085,1.78119 0,0.65563 0.73462,1.65841 1.214945,1.65841 0.31342,0 0.333,-0.10872 0.0985,-0.54691 z m -9.780095,-2.36356 c 0.52806,-0.34125 1.9307,-0.34125 1.71979,0 -0.0899,0.14552 -0.60298,0.26276 -1.14009,0.26053 -0.72793,-0.003 -0.87553,-0.0694 -0.5797,-0.26053 z m 29.170315,-0.45127 c -0.32742,-0.0631 -0.59531,-0.24033 -0.59531,-0.39392 0,-0.17165 0.31859,-0.21553 0.82683,-0.11388 0.45475,0.091 0.931,0.16536 1.05833,0.16536 0.12733,0 0.23151,0.11906 0.23151,0.26458 0,0.26674 -0.42721,0.2886 -1.52136,0.0779 z m -28.575005,-1.19453 c -0.99668,-0.48068 -0.66326,-0.7709 0.38329,-0.33363 0.53823,0.22489 1.03432,0.46461 1.10243,0.53272 0.23756,0.23756 -0.89503,0.0858 -1.48572,-0.19909 z m 27.715115,-0.44212 c 0,-0.22426 1.17504,-0.82246 1.61556,-0.82246 0.14727,0 0.20141,0.10734 0.12033,0.23853 -0.20201,0.32687 -1.73589,0.84284 -1.73589,0.58393 z m -26.543775,-1.03813 c -0.73904,-0.77139 -0.8791,-1.10724 -0.46175,-1.10724 0.29065,0 1.45127,1.56536 1.28436,1.73226 -0.0629,0.0629 -0.43304,-0.21839 -0.82261,-0.62502 z m 25.759535,-0.24735 c 0.0137,-0.28591 1.31052,-1.8299 1.31209,-1.56217 0.002,0.35732 -0.88586,1.76061 -1.11406,1.76061 -0.11415,0 -0.20326,-0.0893 -0.19803,-0.19844 z"
       id="path1-87" />
  </g>
  <path
     style="fill:#ffffff;stroke-width:3.35042"
     d="m 56.381773,128.64025 c -6.888631,-0.53071 -13.412732,-3.76015 -17.918544,-8.86971 -0.742215,-0.84166 -2.470849,-3.15028 -4.441914,-5.93224 -0.0993,-0.14014 -0.386909,-0.0203 -1.983694,0.82676 -1.946162,1.03236 -3.042807,1.45925 -4.673902,1.81938 -5.885746,1.29951 -11.419523,0.60782 -15.810136,-1.9762 -2.1074139,-1.24028 -4.1146926,-2.99877 -5.8741756,-5.14612 -1.7856464,-2.17928 -2.4208084,-3.3293 -2.8071756,-5.08266 -0.2186719,-0.99235 -0.2337307,-1.34138 -0.2336439,-5.415258 8.7e-5,-4.086942 0.014612,-4.420614 0.2363682,-5.429736 C 3.14357,92.212111 3.4769024,91.331808 4.0257195,90.395394 5.7700922,87.419075 8.929458,84.63158 12.528322,82.89358 c 0.770028,-0.371869 1.695778,-0.893827 2.057222,-1.159906 1.085025,-0.79875 1.430242,-1.811241 1.436152,-4.212097 0.01058,-4.299435 1.52435,-8.402232 4.324069,-11.719628 1.460283,-1.730295 3.0069,-2.913577 5.275545,-4.036204 3.62767,-1.795133 4.934133,-1.867542 10.634976,-0.589431 1.696662,0.380385 2.64119,0.464399 3.130317,0.278433 0.572494,-0.217662 1.058678,-0.911884 2.005154,-2.863159 1.465952,-3.022236 2.39986,-4.387657 4.299992,-6.286799 3.703018,-3.701093 8.680014,-6.025113 14.999636,-7.004117 1.797645,-0.278482 5.879297,-0.387076 7.613468,-0.20256 7.543968,0.80268 14.087105,4.430502 18.462105,10.23626 0.92762,1.230978 1.662069,2.473513 3.009594,5.091601 0.669616,1.300986 1.227736,2.378966 1.240267,2.395511 0.01253,0.01655 0.984985,-0.457368 2.161011,-1.053139 2.442315,-1.237271 3.404987,-1.535466 5.612695,-1.738578 3.843835,-0.353636 8.644635,0.880382 11.327445,2.911652 2.76768,2.095534 5.24291,6.12097 6.25465,10.171857 0.37192,1.489154 0.47873,2.310482 0.55927,4.300781 0.0778,1.921455 0.17647,2.463632 0.51592,2.833796 0.37115,0.40473 0.66091,0.465931 2.6515,0.560016 1.03487,0.04891 2.29285,0.168238 2.79551,0.265167 2.13007,0.410751 4.33228,1.340774 6.25703,2.642425 1.44219,0.975307 3.69178,3.256091 4.69191,4.756963 2.8449,4.26931 3.71,8.870535 2.6524,14.107476 -1.7922,8.87452 -9.29427,15.09078 -17.79461,14.74469 -2.05007,-0.0835 -3.3959,-0.38286 -6.65333,-1.48008 -1.56734,-0.52795 -2.88356,-0.9599 -2.92492,-0.9599 -0.0413,0 -0.583,0.85881 -1.20366,1.90847 -1.40053,2.36858 -1.91292,3.07337 -3.03841,4.17926 -4.33493,4.25946 -11.822793,5.71956 -18.109552,3.53128 -1.716473,-0.59746 -3.186754,-1.39828 -5.687228,-3.09766 l -2.29694,-1.56106 -1.627522,1.24565 c -3.914235,2.99584 -5.235651,3.88897 -7.524171,5.08553 -1.720098,0.89936 -2.899266,1.35839 -4.399746,1.71278 -3.182198,0.75157 -5.880119,0.98052 -8.854298,0.75139 z M 41.728547,91.541904 c 0.563213,-0.563214 1.068268,-2.277137 0.711378,-2.414089 -0.527845,-0.202553 -1.474986,0.923949 -1.474986,1.754301 0,0.835653 0.315306,1.108089 0.763608,0.659788 z m 29.829507,-0.908456 c 0.841311,-0.219133 1.826132,-0.778772 2.575249,-1.463423 1.05226,-0.961705 1.482429,-1.787414 1.303207,-2.501497 -0.116134,-0.462711 -1.066192,-0.795102 -1.328374,-0.46475 -0.05867,0.07392 -0.137905,0.308101 -0.17609,0.520402 -0.169472,0.94226 -1.752939,1.603109 -3.841223,1.603109 -1.30842,0 -1.957053,-0.131494 -3.046715,-0.617646 -1.486878,-0.663371 -2.209456,-0.578537 -2.055647,0.241342 0.170652,0.909653 1.847229,2.059813 3.662755,2.512712 1.485666,0.370612 2.016637,0.401619 2.906838,0.169751 z m 24.243391,-0.374549 c 0.249034,-0.601218 -0.07145,-2.254168 -0.437049,-2.254168 -0.05908,0 -0.154606,0.124108 -0.212278,0.275798 -0.138976,0.365534 -0.134464,1.83341 0.0064,2.096699 0.168714,0.315243 0.487606,0.256547 0.642884,-0.118329 z M 38.433029,89.680386 c 0.200315,-0.0837 0.416489,-0.249861 0.480384,-0.36925 0.192249,-0.35922 0.141517,-1.144213 -0.09235,-1.428894 -0.196626,-0.239353 -0.225522,-0.244526 -0.50665,-0.09071 -0.469032,0.256625 -1.005142,1.031444 -1.005142,1.452689 0,0.562473 0.42586,0.727763 1.123754,0.436165 z m 64.362701,-1.034321 c 0.44178,-0.236431 0.11928,-0.84648 -0.75675,-1.431483 -0.84273,-0.562773 -1.48025,0.403296 -0.79979,1.211977 0.24217,0.287798 0.34793,0.330808 0.81347,0.330808 0.2943,0 0.62869,-0.05009 0.74307,-0.111302 z m -45.10722,-5.23056 c 0.290059,-0.290058 0.178798,-1.946841 -0.182802,-2.722102 -0.684257,-1.467032 -2.893412,-2.991923 -5.167667,-3.567035 -1.082615,-0.27377 -2.046757,-0.224232 -3.147859,0.16174 -2.211482,0.775194 -4.052986,1.947569 -4.909759,3.125748 -0.267464,0.3678 -0.304735,0.513142 -0.303292,1.182715 9.06e-4,0.419862 0.04499,0.831866 0.09797,0.915564 0.199287,0.314835 0.865583,0.131804 2.696544,-0.740737 2.334731,-1.112611 3.220268,-1.338719 4.945242,-1.26269 0.936051,0.04126 1.426296,0.120111 2.017735,0.324547 1.288821,0.44549 1.872976,0.894934 3.014873,2.319624 0.381428,0.475888 0.650496,0.551141 0.939011,0.262626 z m 24.801449,-0.817358 c 0.490287,-0.253378 1.236284,-0.712592 1.65777,-1.020478 1.441294,-1.052829 3.012606,-1.621151 4.072041,-1.472802 0.891541,0.12484 1.967554,0.423084 3.163746,0.876913 1.526548,0.579163 1.956826,0.658184 2.313037,0.424786 0.331029,-0.216899 0.454886,-0.80198 0.287818,-1.359604 -0.385507,-1.286706 -2.995446,-2.616667 -5.715746,-2.912604 -1.818828,-0.197867 -3.318949,0.139968 -4.64946,1.047081 -0.955481,0.651427 -1.602474,1.400067 -2.124441,2.458204 -0.414621,0.840524 -0.641866,1.871639 -0.496167,2.251327 0.107184,0.279318 0.554096,0.19157 1.491402,-0.292823 z"
     id="path1"
     transform="scale(0.26458333)" />
  <path
     style="fill:#ffffff;stroke-width:3.35042"
     d="m 88.811127,45.676567 c -0.147839,-0.02901 -0.309248,-0.09151 -0.358686,-0.138897 -0.04944,-0.04739 0.259409,-0.466649 0.686328,-0.931691 1.200468,-1.307669 1.930268,-2.601141 1.930268,-3.421139 0,-0.823194 -0.986089,-2.368669 -2.404478,-3.768484 -1.86973,-1.845245 -2.591311,-2.043394 -4.00658,-1.100222 -0.406445,0.270865 -1.235243,0.952753 -1.841774,1.515307 -1.487953,1.380068 -1.742499,1.437253 -1.743787,0.39175 -0.0012,-0.958881 0.896043,-2.400357 2.380363,-3.82428 1.052552,-1.009724 1.928599,-1.629318 3.070325,-2.171521 1.319355,-0.62656 2.327739,-0.515017 3.90958,0.432461 2.360725,1.414007 4.507054,4.509646 4.507054,6.500503 0,1.194762 -0.8504,3.254332 -1.777867,4.30579 -1.200443,1.360928 -3.28432,2.419654 -4.350746,2.210423 z"
     id="path2"
     transform="scale(0.26458333)" />
  <path
     style="fill:#ffffff;stroke-width:3.35042"
     d="m 50.756712,44.453541 c -0.635148,-0.288145 -1.99208,-1.692416 -2.543499,-2.632234 -0.819594,-1.396887 -1.061887,-2.131267 -1.062965,-3.221798 -8.48e-4,-0.858118 0.03404,-1.034627 0.308196,-1.559033 0.488463,-0.934348 0.904261,-1.496512 1.778178,-2.404117 1.442998,-1.498624 2.971324,-2.490467 4.244976,-2.754876 0.539708,-0.112043 0.696803,-0.10101 1.332052,0.09355 2.243153,0.687029 5.237515,3.431787 5.947451,5.451682 0.296727,0.844241 0.242302,1.549108 -0.119612,1.549108 -0.104215,0 -0.800544,-0.548707 -1.547397,-1.21935 -1.606815,-1.442852 -2.273804,-1.822952 -3.300687,-1.880976 -0.9093,-0.05138 -1.48891,0.190041 -2.301638,0.958685 -0.662299,0.626375 -1.547278,1.938796 -1.891138,2.804551 -0.184463,0.46443 -0.218062,0.727001 -0.176584,1.379961 0.04309,0.678361 0.130156,0.970551 0.548354,1.840272 0.508357,1.057227 0.595953,1.458522 0.368105,1.686369 -0.198383,0.198384 -1.053389,0.148826 -1.583792,-0.0918 z"
     id="path3"
     transform="scale(0.26458333)" />
</svg>
