<svg width="56" height="56" viewBox="0 0 56 56" fill="none" xmlns="http://www.w3.org/2000/svg">
<g id="Kiro Icon">
<rect width="56" height="56" rx="22" fill="url(#paint0_linear_7600_57652)"/>
<path id="Vector" d="M22.0412 14.4385C22.0652 14.4385 23.1062 14.3641 25.1643 14.2151C27.2164 14.0717 28.2575 14 28.2874 14C28.6284 14 28.7989 14.1048 28.7989 14.3144C28.7989 14.5516 28.081 17.3262 26.6451 22.6383C25.2092 27.9448 24.4912 30.6505 24.4912 30.7553C25.269 30.3361 25.8164 30.0051 26.1335 29.7624C26.4446 29.5252 27.1028 28.9571 28.1079 28.0579C29.831 26.4693 31.0395 25.4764 31.7335 25.0792C32.8822 24.3621 33.9711 24.0035 35.0002 24.0035C35.8617 24.0035 36.5438 24.2683 37.0463 24.7979C37.5489 25.3274 37.8002 26.0307 37.8002 26.9078C37.8002 27.8621 37.5579 28.6371 37.0733 29.2329C36.5827 29.8286 35.8916 30.1265 35.0002 30.1265C34.4558 30.1265 34.004 29.9803 33.6451 29.6879C33.2861 29.3956 33.1066 29.0122 33.1066 28.5378C33.1066 27.8759 33.3519 27.3132 33.8425 26.8499C34.3271 26.3865 34.9015 26.1135 35.5656 26.0307L35.8617 25.9563C35.5207 25.6363 35.1767 25.4764 34.8297 25.4764C33.8545 25.4764 32.7057 25.9259 31.3835 26.8251C30.8391 27.2222 30.0075 27.9366 28.8887 28.9681C27.5664 30.1596 26.5882 30.9815 25.954 31.4338C27.3361 31.7262 28.2575 31.9523 28.7181 32.1123C30.0942 32.6143 31.0126 33.301 31.4733 34.1726C31.7305 34.6525 31.8592 35.1682 31.8592 35.7199C31.8592 36.0674 31.7814 36.6383 31.6258 37.4326C31.4643 38.227 31.3835 38.7289 31.3835 38.9385C31.3835 39.9976 31.7724 40.5272 32.5502 40.5272C33.0647 40.5272 33.5374 40.3286 33.9681 39.9314C34.6861 39.2695 35.3322 37.8932 35.9066 35.8026C35.9664 35.593 36.2536 35.4882 36.7681 35.4882C37.169 35.4882 37.3993 35.513 37.4592 35.5626C37.6327 35.6675 37.6476 35.946 37.504 36.3983C36.7263 38.8089 35.7361 40.4362 34.5335 41.2801C33.8156 41.76 33.1096 42 32.4156 42C31.0993 42 30.0463 41.6359 29.2566 40.9078C28.4669 40.1797 28.072 39.2061 28.072 37.987C28.072 37.7498 28.1139 37.3802 28.1976 36.8783C28.2814 36.3708 28.3233 36.0122 28.3233 35.8026C28.3233 35.4606 28.2395 35.1296 28.072 34.8097C27.6951 34.1478 26.9891 33.632 25.954 33.2624C25.0087 32.9701 24.3506 32.8239 23.9797 32.8239H23.8899L23.3694 34.6525C23.0583 35.844 22.7233 37.1017 22.3643 38.4255C22.0053 39.7494 21.781 40.5162 21.6912 40.7258C21.5476 41.0733 21.2904 41.3712 20.9194 41.6194C20.5425 41.8731 20.1387 42 19.7079 42C19.3669 42 19.0318 41.9007 18.7028 41.7021C18.3677 41.5035 18.2002 41.2443 18.2002 40.9244C18.2002 40.6596 18.7267 38.5414 19.7797 34.5697C20.8267 30.5981 21.8797 26.6927 22.9387 22.8534L24.5361 17.0946C24.5959 16.725 24.5032 16.4933 24.2579 16.3995C24.0126 16.3058 23.6028 16.2589 23.0284 16.2589C22.9446 16.2589 22.8878 16.2589 22.8579 16.2589C22.828 16.2589 22.7831 16.2589 22.7233 16.2589C22.6694 16.2589 22.6126 16.2589 22.5528 16.2589C21.9485 16.2589 21.6045 16.2203 21.5207 16.143C21.3472 16.0106 21.3322 15.6935 21.4758 15.1915C21.5895 14.8219 21.6912 14.6095 21.781 14.5544C21.8647 14.4771 21.9515 14.4385 22.0412 14.4385Z" fill="#13181F"/>
</g>
<defs>
<linearGradient id="paint0_linear_7600_57652" x1="0" y1="0" x2="57.3826" y2="1.28291" gradientUnits="userSpaceOnUse">
<stop stop-color="#8FCDFC"/>
<stop offset="1" stop-color="#C09CFF"/>
</linearGradient>
</defs>
</svg>
