<?xml version="1.0" encoding="UTF-8" standalone="no"?>
<!-- Created with Inkscape (http://www.inkscape.org/) -->

<svg
   width="42.712822mm"
   height="36.293201mm"
   viewBox="0 0 42.712822 36.293201"
   version="1.1"
   id="svg1"
   xml:space="preserve"
   inkscape:version="1.4.3 (0d15f75, 2025-12-25)"
   xmlns:inkscape="http://www.inkscape.org/namespaces/inkscape"
   xmlns:sodipodi="http://sodipodi.sourceforge.net/DTD/sodipodi-0.dtd"
   xmlns="http://www.w3.org/2000/svg"
   xmlns:svg="http://www.w3.org/2000/svg"><sodipodi:namedview
     id="namedview1"
     pagecolor="#715f5f"
     bordercolor="#000000"
     borderopacity="0.25"
     inkscape:showpageshadow="2"
     inkscape:pageopacity="0.0"
     inkscape:pagecheckerboard="0"
     inkscape:deskcolor="#d1d1d1"
     inkscape:document-units="mm"
     inkscape:zoom="3.7985971"
     inkscape:cx="58.047746"
     inkscape:cy="65.024006"
     inkscape:window-width="2028"
     inkscape:window-height="1376"
     inkscape:window-x="1823"
     inkscape:window-y="13"
     inkscape:window-maximized="0"
     inkscape:current-layer="layer1" /><defs
     id="defs1" /><g
     inkscape:label="Layer 1"
     inkscape:groupmode="layer"
     id="layer1"
     transform="translate(-2.9332428,-24.009437)"
     style="display:inline"><rect
       style="display:inline;fill:#ffffff;stroke-width:0.740304"
       id="rect4"
       width="26.53776"
       height="12.746483"
       x="9.3413105"
       y="31.74091"
       inkscape:label="white out" /><path
       d="m 16.814923,60.191562 c -5.77759,-0.20963 -10.7943485,-0.80598 -12.3690785,-1.47032 l -0.9454,-0.39885 0.59368,-0.48615 c 0.32653,-0.26738 1.2195,-0.57056 1.98438,-0.67373 0.76488,-0.10318 1.48352,-0.24273 1.59697,-0.3101 0.11346,-0.0674 -0.38415,-0.76854 -1.1058,-1.55814 -2.29717,-2.51347 -3.14879,-6.12104 -2.29843,-9.73645 0.51401,-2.18536 2.15848,-5.62304 3.55613,-7.43392 l 1.01626,-1.31671 -1.14969,-2.38745 c -1.45049,-3.01211 -1.80314,-4.69025 -1.15406,-5.49183 0.44834,-0.55368 0.52469,-0.56031 2.67977,-0.23272 1.2200585,0.18545 3.1245785,0.63555 4.2322585,1.00022 l 2.01398,0.66304 1.3122,-0.66495 c 4.18171,-2.11903 9.68558,-2.12399 14.38954,-0.013 1.44044,0.64643 1.54583,0.65769 2.33529,0.24944 1.9217,-0.99375 8.1154,-3.27616 8.32448,-3.06762 0.22818,0.22759 -0.37846,3.35627 -1.51643,7.82079 l -0.60823,2.38625 1.28421,1.5825 c 1.7805,2.19405 3.33715,5.45235 3.85104,8.0608 0.6713,3.40739 -0.0667,4.46324 -2.1373,3.05806 -0.5453,-0.37006 -1.03041,-0.67283 -1.07801,-0.67283 -0.0476,0 -0.14127,0.92274 -0.20816,2.05052 -0.13019,2.19527 -0.51858,3.19823 -1.8065,4.66509 l -0.79189,0.90191 1.77012,0.30825 c 2.02583,0.35279 2.73398,0.66399 2.73398,1.20147 0,1.39924 -13.83942,2.42598 -26.50531,1.96641 z m 16.2701,-16.68296 c 1.77579,-0.91459 2.53343,-2.60685 2.02029,-4.5125 -0.57275,-2.12704 -2.63456,-3.26315 -4.76408,-2.62513 -1.317,0.39458 -1.52926,0.74021 -0.3716,0.60506 0.72719,-0.0849 1.05352,0.0487 1.70124,0.6964 1.71512,1.71512 0.62649,4.8109 -1.69175,4.8109 -0.59361,0 -1.14364,-0.19725 -1.47556,-0.52917 -0.58938,-0.58938 -0.67001,-0.49297 -0.2477,0.29614 0.6998,1.30759 3.37834,2.00552 4.82916,1.2583 z m -8.87549,-0.25001 c 0.70729,-0.24656 1.30678,-0.94029 1.04167,-1.2054 -0.0494,-0.0494 -0.46893,0.0533 -0.93227,0.22816 -0.64302,0.24272 -1.03417,0.24563 -1.65235,0.0123 -0.70806,-0.26726 -0.79925,-0.25044 -0.72526,0.13379 0.0624,0.32417 0.99224,1.04636 1.42953,1.11033 0.0147,0.002 0.39207,-0.12348 0.83868,-0.27917 z m -6.82844,-0.46838 c 1.26253,-0.6771 1.26579,-1.00116 0.009,-0.88129 -3.39112,0.3234 -3.95101,-4.56127 -0.62878,-5.4858 l 0.76218,-0.2121 -1.1344,-0.34828 c -1.01098,-0.31039 -1.26867,-0.29264 -2.36852,0.16318 -1.49063,0.61778 -2.27382,1.79393 -2.27382,3.4147 0,2.91946 3.05269,4.73422 5.63448,3.34959 z m 11.65164,-2.93431 c 0,-0.1354 0.26667,-0.28423 0.59261,-0.33073 0.74394,-0.10614 0.94388,-0.99381 0.32565,-1.44587 -0.74794,-0.54691 -1.43783,-0.003 -1.39632,1.10164 0.019,0.50663 0.1344,0.92114 0.25635,0.92114 0.12194,0 0.22171,-0.11078 0.22171,-0.24618 z m -10.18646,-0.28299 c 0.0899,-0.14552 -0.0221,-0.26458 -0.24897,-0.26458 -0.22687,0 -0.41249,0.11906 -0.41249,0.26458 0,0.14552 0.11204,0.26459 0.24897,0.26459 0.13693,0 0.32255,-0.11907 0.41249,-0.26459 z m -0.42721,-0.50482 c 0.24576,-0.15564 0.30811,-0.46494 0.18921,-0.93867 -0.1453,-0.5789 -0.3067,-0.69158 -0.89344,-0.62371 -0.79883,0.0924 -1.08839,0.80324 -0.5778,1.41845 0.36239,0.43667 0.75093,0.48028 1.28203,0.14393 z"
       style="display:none;fill:#000000"
       id="path1"
       inkscape:label="frame1" /><g
       id="g2"
       inkscape:label="frame2"
       style="display:none"
       transform="translate(-66.059887,-1.7002362)"><path
         d="m 83.051248,61.879258 c -7.74487,-0.25867 -13.08831,-0.97117 -13.60966,-1.81473 -0.29105,-0.47093 1.14076,-1.09962 3.3467,-1.46948 l 0.98183,-0.16461 -1.04541,-0.94447 c -0.57498,-0.51946 -1.4257,-1.71693 -1.89048,-2.66105 -0.69477,-1.41127 -0.86613,-2.11782 -0.96348,-3.97258 -0.0674,-1.28314 0.0222,-2.89812 0.20765,-3.74505 0.35978,-1.64306 1.94528,-5.22899 2.99496,-6.77374 l 0.67366,-0.99137 -0.52522,-1.2253 c -1.16407,-2.71565 -1.73188,-7.68668 -0.96555,-8.45302 0.64543,-0.64542 2.01065,-0.31392 5.01026,1.21662 l 3.00662,1.53411 1.05833,-0.6037 c 3.50639,-2.00012 9.16745,-2.56693 12.80816,-1.28241 l 1.14257,0.40312 1.6236,-1.28738 c 2.50991,-1.99015 4.282462,-2.99227 5.122122,-2.89581 0.59266,0.0681 0.80353,0.28913 1.09011,1.14275 0.53946,1.60686 0.65493,5.02629 0.24682,7.30894 -0.35328,1.97598 -0.34787,2.03556 0.26423,2.91042 0.34369,0.49122 0.92876,1.48845 1.30016,2.21605 0.3714,0.72761 0.7153,1.36736 0.76423,1.42167 0.0489,0.0543 0.65969,-0.4064 1.35724,-1.0238 1.56446,-1.38471 2.22786,-1.70384 3.09135,-1.48712 0.82008,0.20583 1.34436,1.81682 1.08701,3.34008 -0.27691,1.63902 -1.61737,4.15437 -2.99945,5.62844 l -1.29496,1.38115 -0.13569,2.27063 c -0.15331,2.56562 -0.81824,4.39049 -2.07186,5.68609 l -0.78662,0.81298 1.77146,0.32641 c 2.02157,0.37249 2.73931,0.68849 2.73931,1.20606 0,0.19893 -0.37787,0.49341 -0.83971,0.65441 -1.39476,0.48622 -6.4852,1.05632 -10.817612,1.21152 -2.24696,0.0805 -4.97835,0.18411 -6.06976,0.23026 -1.09141,0.0461 -4.54422,-0.002 -7.67292,-0.10609 z"
         style="fill:#000000"
         id="path1-6"
         sodipodi:nodetypes="csscsscsscssscsscssssssssssscsscsssscc" /><path
         d="m 83.47833,44.630105 c 1.168155,-0.430067 1.838569,-1.104243 2.227678,-2.240194 0.191418,-0.558812 0.170616,-0.593351 -0.152699,-0.253538 -1.082519,1.137748 -2.363721,1.143456 -3.453527,0.01537 -0.661827,-0.685068 -0.785425,-1.018776 -0.71779,-1.938062 0.06529,-0.887401 0.238558,-1.226522 0.86254,-1.688122 0.429459,-0.317705 1.041508,-0.56029 1.360121,-0.539085 0.470788,0.03163 0.508698,-0.01481 0.202301,-0.24635 -0.207341,-0.156706 -0.768658,-0.31556 -1.24737,-0.353017 -3.397983,-0.265841 -5.351888,3.999099 -2.974123,6.491865 1.02186,1.071276 2.335067,1.324665 3.892869,0.751132 z m 7.313205,-0.679009 c 0.875933,-0.374278 1.2501,-1.325949 0.391755,-0.996381 -0.262781,0.100891 -0.982481,0.147088 -1.599344,0.102666 -1.230621,-0.08854 -1.512525,0.312071 -0.592567,0.842241 0.773882,0.445995 0.8704,0.448755 1.800152,0.05152 z m 8.193581,-0.838762 c 0.485467,-0.24911 1.092694,-0.794987 1.349414,-1.213047 0.58208,-0.947945 0.65945,-1.627551 0.11493,-1.01014 -0.586054,0.66457 -1.865889,0.92686 -2.676382,0.548491 -0.95536,-0.445992 -1.686442,-1.926335 -1.429749,-2.895081 0.225,-0.84912 1.236599,-1.911508 1.781935,-1.871386 0.1924,0.01416 0.358541,-0.093 0.369218,-0.238131 0.03571,-0.485328 -2.128641,-0.441257 -3.097004,0.06305 -1.165633,0.607039 -1.801815,1.614826 -1.905036,3.017814 -0.161856,2.199944 1.221419,3.802059 3.42254,3.964002 0.713272,0.05248 1.539872,-0.09351 2.070084,-0.365574 z M 85.447312,40.686026 c 0.0037,-0.05086 -0.09604,-0.47609 -0.221739,-0.944857 -0.166823,-0.622107 -0.392118,-0.864331 -0.834173,-0.896854 -0.696846,-0.05127 -1.121635,0.616592 -0.736147,1.157385 0.226015,0.317069 0.511524,0.447499 1.589988,0.726393 0.107393,0.02775 0.198345,0.0086 0.202072,-0.04209 z m 14.768028,-1.676725 c -0.16999,-0.07086 -0.288886,-0.403183 -0.264225,-0.738377 0.05665,-0.770249 -0.672045,-1.138089 -1.256122,-0.634067 -0.567331,0.489572 -0.17151,1.328096 0.640733,1.357342 0.308373,0.01116 0.552927,0.12571 0.543443,0.254612 -0.0095,0.128941 0.131811,0.156804 0.313991,0.06191 0.25776,-0.13424 0.26268,-0.201119 0.0222,-0.301436 z"
         style="fill:#ffffff"
         id="path1-61" /></g><path
       d="m 16.666268,60.195083 c -7.8816496,-0.28255 -12.9609396,-1.09806 -12.7773296,-2.0515 0.0778,-0.40383 0.91797,-0.70168 3.47199,-1.2308 l 0.74882,-0.15514 -1.10476,-1.07214 c -0.60763,-0.58968 -1.48038,-1.86493 -1.93946,-2.8339 -0.77277,-1.6311 -0.83442,-1.96781 -0.83123,-4.53989 0.003,-2.34858 0.11352,-3.08108 0.7154,-4.73752 0.39158,-1.07767 1.12881,-2.63473 1.63828,-3.46014 l 0.92632,-1.50075 -0.38181,-1.43465 c -0.56404,-2.11934 -0.49244,-4.85938 0.17892,-6.84738 0.64306,-1.9042 2.63191,-4.24457 3.6070596,-4.24457 0.56693,0 0.77828,0.46375 1.2514,2.74589 0.0868,0.41882 0.49304,1.09667 0.90269,1.50631 l 0.74481,0.74482 2.08591,-1.02205 c 1.14725,-0.56213 2.81747,-1.21021 3.7116,-1.44018 2.06497,-0.5311 5.87508,-0.53737 7.88836,-0.013 1.11141,0.28949 1.63712,0.32379 1.84153,0.12016 0.15734,-0.15673 0.34561,-1.26178 0.41837,-2.45566 0.11822,-1.93982 0.19032,-2.17898 0.67793,-2.24872 1.673475,-0.23934 5.179215,2.46103 6.386355,4.91922 0.64342,1.31026 0.74629,1.8475 0.78167,4.08232 0.0367,2.32136 0.11633,2.70446 0.81229,3.90991 0.761,1.3181 0.7781,1.32916 1.2494,0.80837 0.26282,-0.29041 0.85072,-1.27595 1.30645,-2.1901 0.72986,-1.46404 0.91953,-1.6621 1.59172,-1.6621 1.53529,0 2.46976,2.47206 2.00769,5.31112 -0.29231,1.79604 -1.51146,4.50522 -2.70694,6.01535 -0.84885,1.07226 -0.8618,1.13035 -0.86378,3.87689 -0.002,3.2709 -0.47446,4.94597 -1.84539,6.5476 l -0.90357,1.05561 1.81507,0.32437 c 3.56652,0.63738 3.48318,1.57103 -0.19989,2.23953 -4.71116,0.8551 -14.450645,1.24656 -23.205875,0.9327 z m 1.70899,-17.60342 c 1.04047,-0.8755 1.59858,-1.94614 1.59731,-3.0642 l -9.9e-4,-0.87304 -0.51997,0.8528 c -0.95115,1.55996 -2.91653,1.42861 -3.83559,-0.25635 -0.49982,-0.91634 -0.50253,-0.99424 -0.0664,-1.9088 0.25007,-0.5244 0.72268,-1.06119 1.05025,-1.19285 0.50705,-0.2038 0.43827,-0.24173 -0.46276,-0.25516 -2.72459,-0.0406 -4.61454,2.89902 -3.38729,5.26863 1.09031,2.10522 3.95651,2.83328 5.62545,1.42897 z m 6.82382,-0.95931 c 0.38699,-0.30961 0.44327,-0.99355 0.0818,-0.99355 -0.13693,0 -0.33104,0.13279 -0.43135,0.2951 -0.11109,0.17974 -0.63894,0.24365 -1.35019,0.16348 -1.28782,-0.14515 -1.44303,0.22771 -0.32985,0.7924 0.64623,0.32781 1.42094,0.22955 2.02963,-0.25743 z m 7.627955,-1.22789 c 1.00079,-0.61028 1.70378,-2.02103 1.68305,-3.37752 -0.0137,-0.89723 -0.053,-0.95817 -0.33073,-0.5124 -0.66578,1.06879 -1.25814,1.47842 -2.13794,1.47842 -1.260415,0 -2.016635,-0.70486 -2.196725,-2.04753 -0.13614,-1.01504 -0.0688,-1.19205 0.74427,-1.95518 l 0.89397,-0.83909 -1.0494,0.19466 c -2.07001,0.38398 -3.31622,1.84024 -3.31622,3.87517 0,1.29755 0.78715,2.72352 1.81013,3.27915 1.00477,0.54574 2.925005,0.49862 3.899595,-0.0957 z m -14.204225,-2.51025 c 0.40916,-0.49301 0.0878,-1.22416 -0.53794,-1.22416 -0.64198,0 -0.9194,0.67632 -0.48976,1.19399 0.40544,0.48852 0.64155,0.49545 1.0277,0.0302 z m 14.712215,-2.2825 c 0.0899,-0.14552 0.0374,-0.26458 -0.11668,-0.26458 -0.15411,0 -0.2802,0.11906 -0.2802,0.26458 0,0.14552 0.0525,0.26459 0.11668,0.26459 0.0642,0 0.19026,-0.11907 0.2802,-0.26459 z m -0.42471,-0.36334 c 0.35508,-0.42785 0.11768,-1.22417 -0.36495,-1.22417 -0.1849,0 -0.48439,0.1786 -0.66555,0.39689 -0.262785,0.31663 -0.262785,0.47712 0,0.79375 0.40823,0.49188 0.64374,0.49955 1.0305,0.0335 z"
       style="display:inline;fill:#000000"
       id="path1-1"
       inkscape:label="frame3" /><g
       id="g3"
       inkscape:label="frame4"
       style="display:none"
       transform="translate(-5.6792476,-53.485806)"><path
         d="m 17.60006,113.55774 c -2.89925,-0.23931 -5.58585,-0.66261 -6.95157,-1.09529 -1.4937196,-0.47322 -1.0018596,-1.08187 1.3338,-1.65049 l 2.04578,-0.49805 -1.07936,-1.04748 c -0.59364,-0.57611 -1.45288,-1.84027 -1.90941,-2.80924 -0.76369,-1.62089 -0.82863,-1.97332 -0.81216,-4.4076 0.02,-2.951133 0.64279,-5.098233 2.40424,-8.288203 0.50828,-0.92049 0.88353,-1.70801 0.83388,-1.75004 -0.0497,-0.042 -0.8919,-0.33973 -1.87167,-0.66155 -0.97977,-0.32182 -2.0513296,-0.804 -2.3812496,-1.07151 l -0.59985,-0.48639 1.0724,-1.02091 c 1.9003196,-1.80907 5.5735796,-3.43408 8.8494796,-3.91491 0.65484,-0.0961 2.14312,-0.64553 3.30729,-1.22091 3.579371,-1.76909 7.518331,-2.25885 11.282111,-1.40279 l 1.86157,0.4234 2.58537,-2.54007 c 1.42195,-1.39704 2.762175,-2.54007 2.978295,-2.54007 1.26704,0 2.0776,2.70671 2.25813,7.54062 0.13023,3.48718 0.18068,3.76617 0.86116,4.7625 0.39755,0.58208 0.98082,1.56662 1.29615,2.18787 0.69266,1.36463 0.94133,1.29176 2.99853,-0.87868 0.75145,-0.79281 1.57253,-1.44148 1.82463,-1.44148 0.25209,0 0.7165,0.32742 1.03201,0.7276 0.48519,0.61538 0.55876,0.99365 0.47703,2.45243 -0.12206,2.17863 -1.07979,4.2097 -2.94994,6.25594 l -1.36963,1.498593 -0.0129,2.66866 c -0.0145,2.98334 -0.44527,4.32957 -1.9248,6.01467 l -0.82348,0.93789 1.82018,0.32528 c 1.0011,0.17891 2.0346,0.48207 2.29665,0.67369 1.06902,0.78168 -0.39432,1.35341 -5.19209,2.02856 -2.48354,0.34949 -21.962046,0.52334 -25.540556,0.22796 z"
         style="fill:#000000"
         id="path1-2"
         sodipodi:nodetypes="ssscsscscsscsssscssssssssssccscsssss" /><path
         d="m 23.685182,99.732679 c 0.49998,-0.23725 1.08647,-0.68373 1.30332,-0.99218 0.43197,-0.61443 1.01523,-2.5285 0.82765,-2.71607 -0.0646,-0.0646 -0.47999,0.24507 -0.92308,0.68816 -0.48816,0.48816 -1.07903,0.80563 -1.49946,0.80563 -0.80972,0 -1.8989,-0.98937 -2.13802,-1.94208 -0.21464,-0.85519 0.36242,-2.05387 1.18648,-2.46462 l 0.64429,-0.32114 -0.68692,-0.1724 c -1.01563,-0.25491 -2.98538,0.70571 -3.63632,1.77338 -1.97825,3.24474 1.46534,6.981651 4.92206,5.34132 z m 7.35412,-1.30732 c 0.5658,-0.5658 0.5371,-1.02027 -0.0472,-0.74808 -0.25467,0.11862 -0.96904,0.22065 -1.5875,0.22674 -1.19073,0.0117 -1.31752,0.10908 -0.80698,0.61961 0.45286,0.45287 1.95087,0.39258 2.44172,-0.0983 z m 7.478998,-1.16008 c 1.41049,-0.86004 2.28889,-2.88343 1.69487,-3.90414 -0.19833,-0.3408 -0.27759,-0.3669 -0.28338,-0.0933 -0.0156,0.73885 -1.12199,1.60455 -2.05057,1.60455 -1.091908,0 -2.190808,-0.99591 -2.190808,-1.98548 0,-0.9147 0.71016,-2.24785 1.19742,-2.24785 0.214538,0 0.390078,-0.12852 0.390078,-0.28561 0,-0.37216 -1.465988,-0.0712 -2.485888,0.51026 -1.21351,0.69192 -1.83564,1.72178 -1.83564,3.03871 0,2.97639 3.1125,4.8576 5.563918,3.36287 z m -13.413218,-2.12831 c 0,-0.14552 -0.0525,-0.26459 -0.11668,-0.26459 -0.0642,0 -0.19026,0.11907 -0.2802,0.26459 -0.0899,0.14552 -0.0374,0.26458 0.11668,0.26458 0.15411,0 0.2802,-0.11906 0.2802,-0.26458 z m -0.53197,-0.39351 c 0.43963,-0.52972 0.14679,-1.19399 -0.52637,-1.19399 -0.30017,0 -0.61489,0.18011 -0.69936,0.40024 -0.15203,0.3962 0.31394,1.18726 0.69936,1.18726 0.10989,0 0.34675,-0.17708 0.52637,-0.39351 z m 14.819468,-2.25233 c 0,-0.14552 -0.0525,-0.26458 -0.11668,-0.26458 -0.0642,0 -0.19026,0.11906 -0.2802,0.26458 -0.0899,0.14552 -0.0374,0.26459 0.11668,0.26459 0.15411,0 0.2802,-0.11907 0.2802,-0.26459 z m -0.55243,-0.36884 c 0.23602,-0.28439 0.21139,-0.46356 -0.10756,-0.78251 -0.49567,-0.49567 -1.1921,-0.29598 -1.1921,0.34181 0,0.84912 0.74971,1.10334 1.29966,0.4407 z"
         style="fill:#ffffff"
         id="path1-0" /></g><g
       id="g4"
       inkscape:label="frame5"
       style="display:none"
       transform="translate(-70.340778,-52.087351)"
       sodipodi:insensitive="true"><path
         d="m 87.347158,112.26402 c -6.83709,-0.26987 -11.97958,-0.88395 -13.06928,-1.56064 -0.77611,-0.48194 -0.046,-1.03627 1.94953,-1.48025 l 2.01044,-0.44727 -1.14614,-1.22812 c -3.7831,-4.05371 -3.63841,-10.202405 0.38561,-16.386996 1.28578,-1.97615 1.31782,-1.86315 -1.38741,-4.89349 -1.0118,-1.13339 -1.83963,-2.23197 -1.83963,-2.4413 0,-1.4396 6.60104,-2.24793 9.46502,-1.15905 0.58709,0.22321 1.03454,0.11153 2.71762,-0.67829 3.49384,-1.63956 7.57303,-2.14755 10.92041,-1.35996 1.53514,0.3612 1.5402,0.36039 1.78594,-0.28594 0.13553,-0.35649 0.24643,-1.41806 0.24643,-2.35904 0,-1.1472 0.11173,-1.75374 0.33912,-1.841 1.012022,-0.38835 4.464872,1.767 5.955572,3.71761 1.17273,1.53452 1.90739,3.72907 1.90739,5.69764 0,1.4787 0.12152,1.81627 1.50247,4.1738 0.82636,1.41074 2.06114,3.19657 2.74395,3.96852 2.77908,3.141831 4.24307,7.763946 3.01462,9.517796 -0.59563,0.85038 -1.03826,0.73773 -2.50987,-0.6388 l -1.31158,-1.22683 v 1.39458 c 0,1.91023 -0.42185,3.15851 -1.58816,4.69947 l -0.98979,1.30774 1.73109,0.31897 c 2.8349,0.52235 3.40654,1.07884 1.79841,1.75075 -1.21739,0.50867 -6.12335,1.11954 -10.47655,1.30452 -7.314382,0.3108 -9.247142,0.32931 -14.155212,0.13558 z"
         style="fill:#000000"
         id="path1-63"
         sodipodi:nodetypes="ssccssssssssssssscsscsscssss" /><path
         d="m 86.863549,96.704866 c -0.81425,-0.96768 -0.86861,-1.92427 -0.17407,-3.06331 0.87071,-1.42796 3.247931,-1.43183 3.937071,-0.006 0.26244,0.54284 0.27969,0.53016 0.29562,-0.21727 0.0753,-3.53099 -5.447001,-4.54257 -6.994581,-1.28129 -1.1204,2.36106 0.54996,5.35243 3.0021,5.3763 l 0.61883,0.006 z m 9.045731,-1.18533 c 0.32342,-0.22653 0.58804,-0.58372 0.58804,-0.79375 0,-0.48506 -0.13422,-0.47949 -0.9246,0.0384 -0.43179,0.28292 -0.9043,0.36251 -1.4459,0.24356 -0.89022,-0.19553 -1.0999,0.19617 -0.34148,0.6379 0.67142,0.39107 1.45172,0.34474 2.12394,-0.1261 z m -5.49738,-0.11729 c 0,-0.14552 -0.0525,-0.26458 -0.11668,-0.26458 -0.0642,0 -0.19026,0.11906 -0.28019,0.26458 -0.0899,0.14552 -0.0374,0.26459 0.11667,0.26459 0.15411,0 0.2802,-0.11907 0.2802,-0.26459 z m -0.35239,-0.68197 c 0.0881,-0.22957 -0.0347,-0.61227 -0.27289,-0.85045 -0.40102,-0.40102 -0.46509,-0.40102 -0.86611,0 -0.54093,0.54094 -0.29265,1.26784 0.43306,1.26784 0.30017,0 0.61785,-0.18783 0.70594,-0.41739 z m 14.47338,-2.2749 c 0.66065,-1.59408 0.42127,-2.92669 -0.73308,-4.08104 -0.91241,-0.912416 -2.32831,-1.341066 -3.47722,-1.052706 -1.81798,0.45628 -3.11633,2.700516 -2.64418,4.570526 l 0.18734,0.74197 0.40248,-0.79375 c 0.56252,-1.1094 1.08835,-1.45521 2.21273,-1.45521 1.92458,0 3.09749,1.78829 2.26606,3.45495 l -0.40593,0.81369 0.84482,-0.4934 c 0.54025,-0.31552 1.02588,-0.93024 1.34698,-1.70503 z m -4.86057,1.10479 c 0,-0.14552 -0.11907,-0.26458 -0.26459,-0.26458 -0.14552,0 -0.26458,0.11906 -0.26458,0.26458 0,0.14552 0.11906,0.26458 0.26458,0.26458 0.14552,0 0.26459,-0.11906 0.26459,-0.26458 z m 0.70594,-1.43469 c -0.21441,-0.55873 -1.13434,-0.53247 -1.35349,0.0386 -0.26019,0.67803 0.62398,1.26842 1.13471,0.75769 0.20842,-0.20843 0.30687,-0.56678 0.21878,-0.79634 z"
         style="fill:#ffffff"
         id="path1-5" /></g></g></svg>
