<svg xmlns="http://www.w3.org/2000/svg" xml:space="preserve" width="161.434" height="137.171" viewBox="0 0 42.713 36.293"><g style="display:inline"><path d="M9.341 31.741h26.538v12.746H9.341z" style="display:inline;fill:#fff;stroke-width:.740304" transform="translate(-2.933 -24.01)"/><path d="M16.666 60.195c-7.881-.282-12.96-1.098-12.777-2.051.078-.404.918-.702 3.472-1.231l.749-.155-1.105-1.072c-.608-.59-1.48-1.865-1.94-2.834-.772-1.631-.834-1.968-.83-4.54.002-2.349.113-3.081.715-4.738.391-1.077 1.129-2.635 1.638-3.46l.926-1.5-.382-1.435c-.564-2.12-.492-4.86.18-6.848.642-1.904 2.631-4.244 3.606-4.244.567 0 .779.463 1.252 2.746.087.418.493 1.096.903 1.506l.744.745 2.086-1.022c1.148-.562 2.818-1.21 3.712-1.44 2.065-.532 5.875-.538 7.888-.014 1.112.29 1.637.324 1.842.12.157-.156.345-1.261.418-2.455.118-1.94.19-2.179.678-2.249 1.674-.24 5.18 2.461 6.386 4.92.644 1.31.747 1.847.782 4.082.037 2.321.116 2.704.812 3.91.761 1.318.778 1.329 1.25.808.263-.29.85-1.276 1.306-2.19.73-1.464.92-1.662 1.592-1.662 1.535 0 2.47 2.472 2.008 5.311-.293 1.796-1.512 4.505-2.707 6.015-.85 1.073-.862 1.13-.864 3.877-.002 3.271-.475 4.946-1.845 6.548l-.904 1.055 1.815.325c3.567.637 3.483 1.57-.2 2.24-4.711.854-14.45 1.246-23.206.932m1.71-17.603c1.04-.876 1.598-1.946 1.597-3.065l-.001-.873-.52.853c-.952 1.56-2.917 1.429-3.836-.256-.5-.916-.503-.994-.066-1.909.25-.524.722-1.061 1.05-1.193.507-.204.438-.242-.463-.255-2.724-.04-4.614 2.9-3.387 5.269 1.09 2.105 3.956 2.833 5.625 1.429m6.823-.96c.387-.31.443-.993.082-.993-.137 0-.331.133-.431.295-.112.18-.64.244-1.35.163-1.288-.145-1.444.228-.33.793.646.328 1.42.23 2.03-.258m7.628-1.228c1-.61 1.704-2.02 1.683-3.377-.014-.897-.053-.958-.33-.512-.666 1.068-1.259 1.478-2.139 1.478-1.26 0-2.016-.705-2.196-2.048-.136-1.015-.07-1.192.744-1.955l.894-.839-1.05.195c-2.07.384-3.316 1.84-3.316 3.875 0 1.298.787 2.724 1.81 3.28 1.005.545 2.925.498 3.9-.097m-14.204-2.51c.409-.493.088-1.224-.538-1.224-.642 0-.92.676-.49 1.194.406.489.642.495 1.028.03m14.712-2.282c.09-.146.037-.265-.117-.265s-.28.12-.28.265.053.264.117.264.19-.119.28-.264m-.425-.364c.355-.427.118-1.224-.365-1.224-.185 0-.484.179-.665.397-.263.317-.263.477 0 .794.408.492.644.5 1.03.033" style="display:inline;fill:#000" transform="translate(-2.933 -24.01)"/></g></svg>