<svg xmlns="http://www.w3.org/2000/svg" xml:space="preserve" width="161.434" height="137.171" viewBox="0 0 42.713 36.293"><g style="display:inline"><path d="M17.6 113.558c-2.9-.24-5.586-.663-6.952-1.096-1.493-.473-1.001-1.081 1.334-1.65l2.046-.498-1.08-1.048c-.593-.576-1.452-1.84-1.909-2.809-.763-1.62-.828-1.973-.812-4.407.02-2.952.643-5.099 2.404-8.289.509-.92.884-1.708.834-1.75s-.892-.34-1.871-.661c-.98-.322-2.052-.804-2.382-1.072l-.6-.486 1.073-1.021c1.9-1.81 5.573-3.434 8.85-3.915.654-.096 2.142-.645 3.307-1.22 3.579-1.77 7.518-2.26 11.282-1.404l1.861.424 2.586-2.54c1.422-1.397 2.762-2.54 2.978-2.54 1.267 0 2.078 2.706 2.258 7.54.13 3.487.18 3.766.861 4.763.398.582.981 1.566 1.296 2.188.693 1.364.942 1.291 2.999-.88.751-.792 1.573-1.44 1.825-1.44s.716.327 1.032.727c.485.615.558.994.477 2.452-.122 2.18-1.08 4.21-2.95 6.256l-1.37 1.499-.013 2.669c-.014 2.983-.445 4.33-1.925 6.014l-.823.938 1.82.326c1.001.178 2.035.482 2.297.673 1.069.782-.395 1.354-5.192 2.029-2.484.35-21.962.523-25.54.228" style="fill:#000" transform="translate(-8.612 -77.495)"/><path d="M23.685 99.733c.5-.238 1.087-.684 1.304-.993.431-.614 1.015-2.528.827-2.716-.064-.064-.48.245-.923.689-.488.488-1.079.805-1.5.805-.81 0-1.898-.99-2.137-1.942-.215-.855.362-2.054 1.186-2.464l.644-.322-.687-.172c-1.015-.255-2.985.706-3.636 1.773-1.978 3.245 1.465 6.982 4.922 5.342m7.354-1.308c.566-.565.537-1.02-.047-.748-.255.119-.969.22-1.587.227-1.191.012-1.318.11-.807.62.452.452 1.95.392 2.441-.099m7.48-1.16c1.41-.86 2.288-2.883 1.694-3.904-.198-.34-.277-.367-.283-.093-.016.739-1.122 1.604-2.05 1.604-1.093 0-2.192-.996-2.192-1.985 0-.915.71-2.248 1.198-2.248.214 0 .39-.128.39-.286 0-.372-1.466-.07-2.486.51-1.213.693-1.836 1.722-1.836 3.04 0 2.976 3.113 4.857 5.564 3.362m-13.414-2.128c0-.146-.052-.265-.117-.265-.064 0-.19.12-.28.265s-.037.265.117.265.28-.12.28-.265m-.532-.394c.44-.53.147-1.194-.526-1.194-.3 0-.615.18-.7.4-.152.397.314 1.188.7 1.188.11 0 .346-.177.526-.394m14.82-2.252c0-.145-.053-.264-.117-.264s-.19.119-.28.264-.038.265.116.265.28-.12.28-.265m-.553-.369c.236-.284.212-.463-.107-.782-.496-.496-1.193-.296-1.193.342 0 .849.75 1.103 1.3.44" style="fill:#fff" transform="translate(-8.612 -77.495)"/></g></svg>