<svg xmlns="http://www.w3.org/2000/svg" xml:space="preserve" width="161.434" height="137.171" viewBox="0 0 42.713 36.293"><g style="display:inline"><path d="M9.341 31.741h26.538v12.746H9.341z" style="display:inline;fill:#fff;stroke-width:.740304" transform="translate(-2.933 -24.01)"/><path d="M16.815 60.192c-5.778-.21-10.794-.806-12.37-1.47l-.945-.4.594-.486c.327-.267 1.22-.57 1.985-.673.764-.104 1.483-.243 1.596-.31.114-.068-.384-.77-1.105-1.559-2.297-2.513-3.15-6.12-2.299-9.736.514-2.186 2.159-5.623 3.556-7.434l1.017-1.317-1.15-2.387c-1.45-3.012-1.803-4.69-1.154-5.492.448-.554.525-.56 2.68-.233 1.22.186 3.124.636 4.232 1l2.014.663 1.312-.664c4.182-2.12 9.686-2.124 14.39-.013 1.44.646 1.545.657 2.335.249 1.922-.994 8.115-3.276 8.324-3.068.229.228-.378 3.357-1.516 7.821l-.608 2.386 1.284 1.583c1.78 2.194 3.337 5.452 3.851 8.06.671 3.408-.067 4.464-2.137 3.059-.546-.37-1.03-.673-1.078-.673s-.142.923-.208 2.05c-.13 2.196-.52 3.199-1.807 4.666l-.792.901 1.77.309c2.026.352 2.734.664 2.734 1.201 0 1.4-13.84 2.426-26.505 1.967m16.27-16.683c1.776-.915 2.533-2.607 2.02-4.513-.572-2.127-2.634-3.263-4.764-2.625-1.317.395-1.529.74-.371.605.727-.085 1.053.049 1.7.696 1.716 1.716.627 4.811-1.69 4.811-.594 0-1.145-.197-1.476-.529q-.883-.886-.248.296c.7 1.308 3.378 2.006 4.829 1.259m-8.875-.25c.707-.247 1.306-.94 1.041-1.206-.05-.05-.469.053-.932.228-.643.243-1.034.246-1.652.013-.708-.268-.8-.25-.726.133.063.325.993 1.047 1.43 1.11.015.003.392-.123.839-.278m-6.829-.469c1.263-.677 1.266-1 .01-.881-3.392.323-3.952-4.561-.63-5.486l.762-.212-1.134-.348c-1.01-.31-1.269-.293-2.368.163-1.491.618-2.274 1.794-2.274 3.415 0 2.92 3.052 4.734 5.634 3.35zm11.652-2.934c0-.135.266-.284.592-.33.744-.107.944-.995.326-1.447-.748-.547-1.438-.003-1.396 1.102.019.507.134.921.256.921s.222-.11.222-.246m-10.187-.283c.09-.146-.022-.265-.249-.265s-.412.12-.412.265.112.265.249.265.322-.12.412-.265m-.427-.505c.246-.156.308-.465.19-.939-.146-.578-.307-.691-.894-.623-.799.092-1.089.803-.578 1.418.362.437.751.48 1.282.144" style="display:inline;fill:#000" transform="translate(-2.933 -24.01)"/></g></svg>