<svg xmlns="http://www.w3.org/2000/svg" xml:space="preserve" width="161.434" height="137.171" viewBox="0 0 42.713 36.293"><g style="display:inline"><path d="M87.347 112.264c-6.837-.27-11.98-.884-13.07-1.56-.775-.483-.045-1.037 1.95-1.48l2.01-.448-1.145-1.228c-3.783-4.054-3.639-10.203.385-16.387 1.286-1.976 1.318-1.863-1.387-4.894-1.012-1.133-1.84-2.232-1.84-2.441 0-1.44 6.601-2.248 9.465-1.16.587.224 1.035.112 2.718-.677 3.494-1.64 7.573-2.148 10.92-1.36 1.535.36 1.54.36 1.786-.286.136-.357.247-1.418.247-2.36 0-1.147.111-1.753.339-1.84 1.012-.389 4.465 1.767 5.955 3.717 1.173 1.535 1.908 3.73 1.908 5.698 0 1.479.121 1.816 1.502 4.174.827 1.41 2.061 3.196 2.744 3.968 2.78 3.142 4.243 7.764 3.015 9.518-.596.85-1.038.738-2.51-.639l-1.312-1.227v1.395c0 1.91-.421 3.159-1.588 4.7l-.99 1.307 1.732.32c2.834.522 3.406 1.078 1.798 1.75-1.217.509-6.123 1.12-10.477 1.304-7.314.311-9.247.33-14.155.136" style="fill:#000" transform="translate(-73.274 -76.097)"/><path d="M86.864 96.705c-.815-.968-.87-1.924-.175-3.063.871-1.428 3.248-1.432 3.938-.006.262.542.28.53.295-.218.075-3.53-5.447-4.542-6.994-1.281-1.12 2.361.55 5.352 3.002 5.376l.619.006zm9.045-1.185c.324-.227.588-.584.588-.794 0-.485-.134-.48-.924.038-.432.283-.905.363-1.446.244-.89-.196-1.1.196-.342.638.672.39 1.452.344 2.124-.126m-5.497-.118c0-.145-.053-.264-.117-.264s-.19.119-.28.264-.037.265.117.265.28-.12.28-.265m-.352-.682c.088-.23-.035-.612-.273-.85-.401-.401-.465-.401-.866 0-.541.54-.293 1.268.433 1.268.3 0 .617-.188.706-.418m14.473-2.275c.66-1.594.421-2.926-.733-4.08-.913-.913-2.328-1.342-3.477-1.053-1.818.456-3.117 2.7-2.645 4.57l.188.742.402-.794c.563-1.109 1.089-1.455 2.213-1.455 1.925 0 3.097 1.788 2.266 3.455l-.406.814.845-.494c.54-.315 1.026-.93 1.347-1.705m-4.86 1.105a.265.265 0 0 0-.265-.264.265.265 0 0 0-.265.264.265.265 0 0 0 .53 0m.705-1.435c-.214-.558-1.134-.532-1.353.04-.26.677.624 1.267 1.134.757.209-.209.307-.567.22-.797" style="fill:#fff" transform="translate(-73.274 -76.097)"/></g></svg>