<svg xmlns="http://www.w3.org/2000/svg" xml:space="preserve" width="161.434" height="137.171" viewBox="0 0 42.713 36.293"><g style="display:inline"><path d="M83.051 61.88c-7.745-.26-13.088-.972-13.61-1.815-.29-.471 1.141-1.1 3.347-1.47l.982-.165-1.045-.944c-.575-.52-1.426-1.717-1.89-2.661-.696-1.411-.867-2.118-.964-3.973-.068-1.283.022-2.898.207-3.745.36-1.643 1.946-5.229 2.995-6.773l.674-.992-.525-1.225c-1.164-2.716-1.732-7.687-.966-8.453.646-.646 2.01-.314 5.01 1.216l3.007 1.535 1.058-.604c3.507-2 9.168-2.567 12.809-1.283l1.142.404 1.624-1.288c2.51-1.99 4.282-2.992 5.122-2.896.593.069.803.29 1.09 1.143.54 1.607.655 5.026.247 7.31-.353 1.975-.348 2.035.264 2.91.344.49.929 1.488 1.3 2.216.372.727.716 1.367.764 1.421.05.055.66-.406 1.358-1.024 1.564-1.384 2.228-1.703 3.091-1.487.82.206 1.344 1.817 1.087 3.34-.277 1.64-1.617 4.155-3 5.629l-1.294 1.381-.136 2.27c-.153 2.566-.818 4.391-2.072 5.687l-.787.813 1.772.326c2.022.373 2.74.689 2.74 1.206 0 .2-.379.494-.84.655-1.395.486-6.486 1.056-10.818 1.211-2.247.08-4.978.184-6.07.23-1.091.046-4.544-.002-7.673-.106" style="fill:#000" transform="translate(-68.993 -25.71)"/><path d="M83.478 44.63c1.168-.43 1.839-1.104 2.228-2.24.191-.559.17-.593-.153-.254-1.082 1.138-2.363 1.144-3.453.016-.662-.685-.786-1.019-.718-1.938.065-.888.239-1.227.863-1.688.429-.318 1.041-.56 1.36-.54.47.032.508-.014.202-.246-.207-.157-.769-.315-1.247-.353-3.398-.266-5.352 4-2.975 6.492 1.022 1.071 2.336 1.325 3.893.751m7.314-.679c.875-.374 1.25-1.326.391-.996-.262.1-.982.147-1.6.102-1.23-.088-1.512.312-.592.843.774.446.87.448 1.8.051m8.193-.839c.486-.249 1.093-.795 1.35-1.213.582-.948.659-1.627.114-1.01-.586.665-1.865.927-2.676.549-.955-.446-1.686-1.927-1.43-2.895.225-.85 1.237-1.912 1.782-1.872.193.014.359-.093.37-.238.035-.485-2.13-.441-3.098.063q-1.748.912-1.905 3.018c-.161 2.2 1.222 3.802 3.423 3.964.713.052 1.54-.094 2.07-.366m-13.538-2.426c.004-.05-.096-.476-.221-.945-.167-.622-.393-.864-.835-.897-.696-.051-1.121.617-.736 1.158.226.317.512.447 1.59.726.108.028.199.009.202-.042m14.768-1.677c-.17-.07-.289-.403-.264-.738.057-.77-.672-1.138-1.256-.634-.567.49-.172 1.328.64 1.357.31.011.554.126.544.255s.132.157.314.062c.258-.135.263-.201.022-.302" style="fill:#fff" transform="translate(-68.993 -25.71)"/></g></svg>